<svg width="76" height="66" viewBox="0 0 76 66" fill="none" xmlns="http://www.w3.org/2000/svg">
<path d="M31.9062 52.5H39.2188V64.6875H31.9062V52.5Z" fill="#57A4FF"/>
<path d="M28.25 41.5312H42.875V47.625H28.25V41.5312Z" fill="#57A4FF"/>
<path d="M28.25 31.7812H42.875V37.875H28.25V31.7812Z" fill="#57A4FF"/>
<path d="M28.25 22.0312H42.875V28.125H28.25V22.0312Z" fill="#57A4FF"/>
<path d="M6.3125 41.5312H20.9375V47.625H6.3125V41.5312Z" fill="#57A4FF"/>
<path d="M6.3125 31.7812H20.9375V37.875H6.3125V31.7812Z" fill="#57A4FF"/>
<path d="M6.3125 51.2812H20.9375V57.375H6.3125V51.2812Z" fill="#57A4FF"/>
<path d="M50.1875 51.2812H64.8125V57.375H50.1875V51.2812Z" fill="#57A4FF"/>
<path d="M50.1875 41.5312H64.8125V47.625H50.1875V41.5312Z" fill="#57A4FF"/>
<path d="M50.1875 31.7812H64.8125V37.875H50.1875V31.7812Z" fill="#57A4FF"/>
<path d="M28.25 11.0625H42.875V18.375H28.25V11.0625Z" fill="#57A4FF"/>
<path d="M69.6875 63.4688V28.125C69.6875 27.8018 69.5591 27.4918 69.3305 27.2632C69.102 27.0347 68.792 26.9062 68.4688 26.9062H47.75V18.375C47.75 18.0518 47.6216 17.7418 47.393 17.5132C47.1645 17.2847 46.8545 17.1562 46.5312 17.1562H44.0938V11.0625C44.0938 10.7393 43.9653 10.4293 43.7368 10.2007C43.5082 9.97215 43.1982 9.84375 42.875 9.84375H36.7812V6.1875C36.7812 5.86427 36.6528 5.55427 36.4243 5.32571C36.1957 5.09715 35.8857 4.96875 35.5625 4.96875C35.2393 4.96875 34.9293 5.09715 34.7007 5.32571C34.4722 5.55427 34.3438 5.86427 34.3438 6.1875V9.84375H28.25C27.9268 9.84375 27.6168 9.97215 27.3882 10.2007C27.1597 10.4293 27.0312 10.7393 27.0312 11.0625V17.1562H24.5938C24.2705 17.1562 23.9605 17.2847 23.732 17.5132C23.5034 17.7418 23.375 18.0518 23.375 18.375V26.9062H2.65625C2.33302 26.9062 2.02302 27.0347 1.79446 27.2632C1.5659 27.4918 1.4375 27.8018 1.4375 28.125V63.4688C1.11427 63.4688 0.804273 63.5972 0.575714 63.8257C0.347154 64.0543 0.21875 64.3643 0.21875 64.6875C0.21875 65.0107 0.347154 65.3207 0.575714 65.5493C0.804273 65.7778 1.11427 65.9062 1.4375 65.9062H69.6875C70.0107 65.9062 70.3207 65.7778 70.5493 65.5493C70.7778 65.3207 70.9062 65.0107 70.9062 64.6875C70.9062 64.3643 70.7778 64.0543 70.5493 63.8257C70.3207 63.5972 70.0107 63.4688 69.6875 63.4688ZM67.25 29.3438V63.4497L47.75 63.1488V29.3438H67.25ZM29.4688 12.2812H41.6562V17.1562H29.4688V12.2812ZM3.875 29.3438H23.375V63.4497L3.875 63.1488V29.3438ZM25.8125 19.5938H45.3125V63.4688H40.4375V52.5C40.4375 52.1768 40.3091 51.8668 40.0805 51.6382C39.852 51.4097 39.542 51.2812 39.2188 51.2812H31.9062C31.583 51.2812 31.273 51.4097 31.0445 51.6382C30.8159 51.8668 30.6875 52.1768 30.6875 52.5V63.4688H25.8125V19.5938ZM33.125 63.4688V53.7188H38V63.4688H33.125Z" fill="#004FAC"/>
<path d="M74.5625 63.4688H73.3438C73.0205 63.4688 72.7105 63.5972 72.482 63.8257C72.2534 64.0543 72.125 64.3643 72.125 64.6875C72.125 65.0107 72.2534 65.3207 72.482 65.5493C72.7105 65.7778 73.0205 65.9062 73.3438 65.9062H74.5625C74.8857 65.9062 75.1957 65.7778 75.4243 65.5493C75.6528 65.3207 75.7812 65.0107 75.7812 64.6875C75.7812 64.3643 75.6528 64.0543 75.4243 63.8257C75.1957 63.5972 74.8857 63.4688 74.5625 63.4688Z" fill="#004FAC"/>
<path d="M42.875 48.8438C43.1982 48.8438 43.5082 48.7153 43.7368 48.4868C43.9653 48.2582 44.0938 47.9482 44.0938 47.625V41.5312C44.0938 41.208 43.9653 40.898 43.7368 40.6695C43.5082 40.4409 43.1982 40.3125 42.875 40.3125H28.25C27.9268 40.3125 27.6168 40.4409 27.3882 40.6695C27.1597 40.898 27.0312 41.208 27.0312 41.5312V47.625C27.0312 47.9482 27.1597 48.2582 27.3882 48.4868C27.6168 48.7153 27.9268 48.8438 28.25 48.8438H42.875ZM41.6562 42.75V46.4062H36.7812V42.75H41.6562ZM29.4688 42.75H34.3438V46.4062H29.4688V42.75Z" fill="#004FAC"/>
<path d="M5.09394 12.2812H19.7189C20.6886 12.2812 21.6186 11.896 22.3043 11.2103C22.99 10.5246 23.3752 9.59465 23.3752 8.62495C23.3752 7.65526 22.99 6.72527 22.3043 6.03959C21.6186 5.35391 20.6886 4.9687 19.7189 4.9687H16.7527C16.4714 3.59148 15.7228 2.3538 14.6335 1.46533C13.5443 0.576856 12.1814 0.0922176 10.7758 0.0935084C9.37012 0.0947992 8.00813 0.58194 6.92052 1.47241C5.83291 2.36288 5.08653 3.60193 4.80784 4.97967C3.86523 5.05285 2.9876 5.48832 2.35917 6.19468C1.73074 6.90105 1.40036 7.82338 1.43738 8.76811C1.47439 9.71284 1.87593 10.6065 2.55771 11.2615C3.23948 11.9165 4.14849 12.282 5.09394 12.2812ZM4.23107 7.76436C4.34412 7.65065 4.47858 7.56045 4.62668 7.49898C4.77478 7.43751 4.93359 7.40598 5.09394 7.4062H5.90639C6.22962 7.4062 6.53962 7.2778 6.76818 7.04924C6.99674 6.82068 7.12514 6.51069 7.12514 6.18745C7.12514 5.21776 7.51035 4.28777 8.19603 3.60209C8.88171 2.91641 9.81169 2.5312 10.7814 2.5312C11.7511 2.5312 12.6811 2.91641 13.3667 3.60209C14.0524 4.28777 14.4376 5.21776 14.4376 6.18745C14.4376 6.51069 14.566 6.82068 14.7946 7.04924C15.0232 7.2778 15.3332 7.4062 15.6564 7.4062H19.7189C20.0422 7.4062 20.3522 7.53461 20.5807 7.76317C20.8093 7.99173 20.9377 8.30172 20.9377 8.62495C20.9377 8.94819 20.8093 9.25818 20.5807 9.48674C20.3522 9.7153 20.0422 9.8437 19.7189 9.8437H5.09394C4.85305 9.84368 4.61756 9.77227 4.41723 9.6385C4.2169 9.50472 4.0607 9.31458 3.96837 9.09208C3.87604 8.86958 3.85172 8.62472 3.89847 8.3884C3.94523 8.15209 4.06097 7.93494 4.23107 7.76436Z" fill="#004FAC"/>
<path d="M57.5002 23.2499H72.1252C73.0949 23.2499 74.0249 22.8647 74.7105 22.1791C75.3962 21.4934 75.7814 20.5634 75.7814 19.5937C75.7814 18.624 75.3962 17.694 74.7105 17.0083C74.0249 16.3227 73.0949 15.9374 72.1252 15.9374H69.1589C68.8777 14.5602 68.129 13.3225 67.0398 12.4341C65.9505 11.5456 64.5877 11.061 63.182 11.0623C61.7764 11.0635 60.4144 11.5507 59.3268 12.4412C58.2392 13.3316 57.4928 14.5707 57.2141 15.9484C56.2715 16.0216 55.3939 16.4571 54.7654 17.1634C54.137 17.8698 53.8066 18.7921 53.8436 19.7369C53.8806 20.6816 54.2822 21.5752 54.964 22.2303C55.6457 22.8853 56.5547 23.2508 57.5002 23.2499ZM56.6373 18.7331C56.7504 18.6194 56.8848 18.5292 57.0329 18.4677C57.181 18.4063 57.3398 18.3747 57.5002 18.3749H58.3126C58.6359 18.3749 58.9459 18.2465 59.1744 18.018C59.403 17.7894 59.5314 17.4794 59.5314 17.1562C59.5314 16.1865 59.9166 15.2565 60.6023 14.5708C61.288 13.8852 62.2179 13.5 63.1876 13.5C64.1573 13.5 65.0873 13.8852 65.773 14.5708C66.4587 15.2565 66.8439 16.1865 66.8439 17.1562C66.8439 17.4794 66.9723 17.7894 67.2009 18.018C67.4294 18.2465 67.7394 18.3749 68.0626 18.3749H72.1252C72.4484 18.3749 72.7584 18.5034 72.987 18.7319C73.2155 18.9605 73.3439 19.2705 73.3439 19.5937C73.3439 19.9169 73.2155 20.2269 72.987 20.4555C72.7584 20.684 72.4484 20.8124 72.1252 20.8124H57.5002C57.2593 20.8124 57.0238 20.741 56.8235 20.6072C56.6232 20.4735 56.467 20.2833 56.3746 20.0608C56.2823 19.8383 56.258 19.5935 56.3047 19.3571C56.3515 19.1208 56.4672 18.9037 56.6373 18.7331Z" fill="#004FAC"/>
<path d="M28.25 39.0938H42.875C43.1982 39.0938 43.5082 38.9653 43.7368 38.7368C43.9653 38.5082 44.0938 38.1982 44.0938 37.875V31.7812C44.0938 31.458 43.9653 31.148 43.7368 30.9195C43.5082 30.6909 43.1982 30.5625 42.875 30.5625H28.25C27.9268 30.5625 27.6168 30.6909 27.3882 30.9195C27.1597 31.148 27.0312 31.458 27.0312 31.7812V37.875C27.0312 38.1982 27.1597 38.5082 27.3882 38.7368C27.6168 38.9653 27.9268 39.0938 28.25 39.0938ZM41.6562 33V36.6562H36.7812V33H41.6562ZM29.4688 33H34.3438V36.6562H29.4688V33Z" fill="#004FAC"/>
<path d="M28.25 29.3438H42.875C43.1982 29.3438 43.5082 29.2153 43.7368 28.9868C43.9653 28.7582 44.0938 28.4482 44.0938 28.125V22.0312C44.0938 21.708 43.9653 21.398 43.7368 21.1695C43.5082 20.9409 43.1982 20.8125 42.875 20.8125H28.25C27.9268 20.8125 27.6168 20.9409 27.3882 21.1695C27.1597 21.398 27.0312 21.708 27.0312 22.0312V28.125C27.0312 28.4482 27.1597 28.7582 27.3882 28.9868C27.6168 29.2153 27.9268 29.3438 28.25 29.3438ZM41.6562 23.25V26.9062H36.7812V23.25H41.6562ZM29.4688 23.25H34.3438V26.9062H29.4688V23.25Z" fill="#004FAC"/>
<path d="M20.9375 40.3125H6.3125C5.98927 40.3125 5.67927 40.4409 5.45071 40.6695C5.22215 40.898 5.09375 41.208 5.09375 41.5312V47.625C5.09375 47.9482 5.22215 48.2582 5.45071 48.4868C5.67927 48.7153 5.98927 48.8438 6.3125 48.8438H20.9375C21.2607 48.8438 21.5707 48.7153 21.7993 48.4868C22.0278 48.2582 22.1562 47.9482 22.1562 47.625V41.5312C22.1562 41.208 22.0278 40.898 21.7993 40.6695C21.5707 40.4409 21.2607 40.3125 20.9375 40.3125ZM7.53125 46.4062V42.75H12.4062V46.4062H7.53125ZM19.7188 46.4062H14.8438V42.75H19.7188V46.4062Z" fill="#004FAC"/>
<path d="M20.9375 30.5625H6.3125C5.98927 30.5625 5.67927 30.6909 5.45071 30.9195C5.22215 31.148 5.09375 31.458 5.09375 31.7812V37.875C5.09375 38.1982 5.22215 38.5082 5.45071 38.7368C5.67927 38.9653 5.98927 39.0938 6.3125 39.0938H20.9375C21.2607 39.0938 21.5707 38.9653 21.7993 38.7368C22.0278 38.5082 22.1562 38.1982 22.1562 37.875V31.7812C22.1562 31.458 22.0278 31.148 21.7993 30.9195C21.5707 30.6909 21.2607 30.5625 20.9375 30.5625ZM7.53125 36.6562V33H12.4062V36.6562H7.53125ZM19.7188 36.6562H14.8438V33H19.7188V36.6562Z" fill="#004FAC"/>
<path d="M20.9375 50.0625H6.3125C5.98927 50.0625 5.67927 50.1909 5.45071 50.4195C5.22215 50.648 5.09375 50.958 5.09375 51.2812V57.375C5.09375 57.6982 5.22215 58.0082 5.45071 58.2368C5.67927 58.4653 5.98927 58.5938 6.3125 58.5938H20.9375C21.2607 58.5938 21.5707 58.4653 21.7993 58.2368C22.0278 58.0082 22.1562 57.6982 22.1562 57.375V51.2812C22.1562 50.958 22.0278 50.648 21.7993 50.4195C21.5707 50.1909 21.2607 50.0625 20.9375 50.0625ZM7.53125 56.1562V52.5H12.4062V56.1562H7.53125ZM19.7188 56.1562H14.8438V52.5H19.7188V56.1562Z" fill="#004FAC"/>
<path d="M50.1875 58.5938H64.8125C65.1357 58.5938 65.4457 58.4653 65.6743 58.2368C65.9028 58.0082 66.0312 57.6982 66.0312 57.375V51.2812C66.0312 50.958 65.9028 50.648 65.6743 50.4195C65.4457 50.1909 65.1357 50.0625 64.8125 50.0625H50.1875C49.8643 50.0625 49.5543 50.1909 49.3257 50.4195C49.0972 50.648 48.9688 50.958 48.9688 51.2812V57.375C48.9688 57.6982 49.0972 58.0082 49.3257 58.2368C49.5543 58.4653 49.8643 58.5938 50.1875 58.5938ZM63.5938 52.5V56.1562H58.7188V52.5H63.5938ZM51.4062 52.5H56.2812V56.1562H51.4062V52.5Z" fill="#004FAC"/>
<path d="M50.1875 48.8438H64.8125C65.1357 48.8438 65.4457 48.7153 65.6743 48.4868C65.9028 48.2582 66.0312 47.9482 66.0312 47.625V41.5312C66.0312 41.208 65.9028 40.898 65.6743 40.6695C65.4457 40.4409 65.1357 40.3125 64.8125 40.3125H50.1875C49.8643 40.3125 49.5543 40.4409 49.3257 40.6695C49.0972 40.898 48.9688 41.208 48.9688 41.5312V47.625C48.9688 47.9482 49.0972 48.2582 49.3257 48.4868C49.5543 48.7153 49.8643 48.8438 50.1875 48.8438ZM63.5938 42.75V46.4062H58.7188V42.75H63.5938ZM51.4062 42.75H56.2812V46.4062H51.4062V42.75Z" fill="#004FAC"/>
<path d="M50.1875 39.0938H64.8125C65.1357 39.0938 65.4457 38.9653 65.6743 38.7368C65.9028 38.5082 66.0312 38.1982 66.0312 37.875V31.7812C66.0312 31.458 65.9028 31.148 65.6743 30.9195C65.4457 30.6909 65.1357 30.5625 64.8125 30.5625H50.1875C49.8643 30.5625 49.5543 30.6909 49.3257 30.9195C49.0972 31.148 48.9688 31.458 48.9688 31.7812V37.875C48.9688 38.1982 49.0972 38.5082 49.3257 38.7368C49.5543 38.9653 49.8643 39.0938 50.1875 39.0938ZM63.5938 33V36.6562H58.7188V33H63.5938ZM51.4062 33H56.2812V36.6562H51.4062V33Z" fill="#004FAC"/>
</svg>
