<svg width="39" height="39" viewBox="0 0 39 39" fill="none" xmlns="http://www.w3.org/2000/svg">
<path fill-rule="evenodd" clip-rule="evenodd" d="M19.5 -1.70474e-06C8.73045 -2.64625e-06 2.64625e-06 8.73044 1.70474e-06 19.5C7.6324e-07 30.2695 8.73045 39 19.5 39C30.2696 39 39 30.2696 39 19.5C39 8.73045 30.2696 -7.6324e-07 19.5 -1.70474e-06ZM22.4289 11.3664C22.2022 11.1785 21.9168 11.076 21.6224 11.0765C21.4247 11.0646 21.2269 11.0995 21.0452 11.1783C20.8634 11.2572 20.7028 11.3777 20.5764 11.5302L14.2754 19.0914C14.09 19.3169 13.9887 19.5998 13.9887 19.8917C13.9887 20.1836 14.09 20.4664 14.2754 20.6919L20.3622 28.2531C20.4665 28.392 20.5984 28.5077 20.7496 28.5932C20.9008 28.6786 21.0681 28.7319 21.2408 28.7496C21.4136 28.7674 21.5882 28.7492 21.7536 28.6963C21.919 28.6434 22.0717 28.5569 22.2021 28.4421C22.3315 28.3381 22.4392 28.2096 22.5188 28.0639C22.5984 27.9181 22.6484 27.7581 22.666 27.593C22.6836 27.4279 22.6683 27.2609 22.6211 27.1017C22.574 26.9425 22.4958 26.7942 22.3911 26.6653L16.947 19.898L22.5927 13.1433C22.6989 13.0159 22.7788 12.8689 22.828 12.7106C22.8772 12.5523 22.8947 12.3859 22.8795 12.2208C22.8643 12.0558 22.8166 11.8953 22.7393 11.7487C22.662 11.6021 22.5565 11.4722 22.4289 11.3664Z" fill="#57A4FF" fill-opacity="0.5"/>
</svg>
