<svg width="39" height="39" viewBox="0 0 39 39" fill="none" xmlns="http://www.w3.org/2000/svg">
<path fill-rule="evenodd" clip-rule="evenodd" d="M19.5 39C30.2696 39 39 30.2696 39 19.5C39 8.73045 30.2696 0 19.5 0C8.73045 0 0 8.73045 0 19.5C0 30.2696 8.73045 39 19.5 39ZM16.5711 27.6336C16.7978 27.8215 17.0832 27.924 17.3776 27.9235C17.5753 27.9354 17.7731 27.9005 17.9548 27.8217C18.1366 27.7428 18.2972 27.6223 18.4236 27.4698L24.7246 19.9086C24.91 19.6831 25.0113 19.4002 25.0113 19.1083C25.0113 18.8164 24.91 18.5336 24.7246 18.3081L18.6378 10.7469C18.5335 10.608 18.4016 10.4923 18.2504 10.4068C18.0992 10.3214 17.9319 10.2681 17.7592 10.2504C17.5864 10.2326 17.4118 10.2508 17.2464 10.3037C17.081 10.3566 16.9283 10.4431 16.7979 10.5579C16.6685 10.6618 16.5608 10.7904 16.4812 10.9361C16.4016 11.0819 16.3516 11.2419 16.334 11.407C16.3165 11.5721 16.3317 11.7391 16.3789 11.8983C16.426 12.0575 16.5042 12.2058 16.6089 12.3347L22.053 19.102L16.4073 25.8567C16.3011 25.9841 16.2212 26.1311 16.172 26.2894C16.1228 26.4477 16.1053 26.6141 16.1205 26.7792C16.1357 26.9442 16.1834 27.1046 16.2607 27.2513C16.338 27.3979 16.4435 27.5278 16.5711 27.6336Z" fill="#57A4FF" fill-opacity="0.5"/>
</svg>
