<svg width="98" height="98" viewBox="0 0 98 98" fill="none" xmlns="http://www.w3.org/2000/svg">
<path d="M49 63.0625C55.9036 63.0625 61.5 57.4661 61.5 50.5625C61.5 43.6589 55.9036 38.0625 49 38.0625C42.0964 38.0625 36.5 43.6589 36.5 50.5625C36.5 57.4661 42.0964 63.0625 49 63.0625Z" fill="#57A4FF"/>
<path d="M6.8125 20.875H91.1875V27.125H6.8125V20.875Z" fill="#57A4FF"/>
<path d="M6.8125 80.25H91.1875V86.5H6.8125V80.25Z" fill="#57A4FF"/>
<path d="M53.6875 45.875C54.1019 45.875 54.4993 45.7104 54.7924 45.4174C55.0854 45.1243 55.25 44.7269 55.25 44.3125C55.25 43.8981 55.0854 43.5007 54.7924 43.2076C54.4993 42.9146 54.1019 42.75 53.6875 42.75H50.5625C50.5625 42.3356 50.3979 41.9382 50.1049 41.6451C49.8118 41.3521 49.4144 41.1875 49 41.1875C48.5856 41.1875 48.1882 41.3521 47.8951 41.6451C47.6021 41.9382 47.4375 42.3356 47.4375 42.75H44.3125C43.8981 42.75 43.5007 42.9146 43.2076 43.2076C42.9146 43.5007 42.75 43.8981 42.75 44.3125V50.5625C42.75 50.9769 42.9146 51.3743 43.2076 51.6674C43.5007 51.9604 43.8981 52.125 44.3125 52.125H52.125V55.25H44.3125C43.8981 55.25 43.5007 55.4146 43.2076 55.7076C42.9146 56.0007 42.75 56.3981 42.75 56.8125C42.75 57.2269 42.9146 57.6243 43.2076 57.9174C43.5007 58.2104 43.8981 58.375 44.3125 58.375H47.4375C47.4375 58.7894 47.6021 59.1868 47.8951 59.4799C48.1882 59.7729 48.5856 59.9375 49 59.9375C49.4144 59.9375 49.8118 59.7729 50.1049 59.4799C50.3979 59.1868 50.5625 58.7894 50.5625 58.375H53.6875C54.1019 58.375 54.4993 58.2104 54.7924 57.9174C55.0854 57.6243 55.25 57.2269 55.25 56.8125V50.5625C55.25 50.1481 55.0854 49.7507 54.7924 49.4576C54.4993 49.1646 54.1019 49 53.6875 49H45.875V45.875H53.6875Z" fill="#004FAC"/>
<path d="M91.1875 28.6875C91.6019 28.6875 91.9993 28.5229 92.2924 28.2299C92.5854 27.9368 92.75 27.5394 92.75 27.125V22.4375H95.875C96.2894 22.4375 96.6868 22.2729 96.9799 21.9799C97.2729 21.6868 97.4375 21.2894 97.4375 20.875V14.625C97.4375 14.2807 97.3238 13.9461 97.1141 13.6731C96.9044 13.4001 96.6104 13.204 96.2777 13.1152L49.4027 0.615233C49.1389 0.544922 48.8612 0.544922 48.5973 0.615233L1.72227 13.1152C1.38963 13.204 1.09562 13.4001 0.885894 13.6731C0.676172 13.9461 0.562487 14.2807 0.5625 14.625V20.875C0.5625 21.2894 0.72712 21.6868 1.02015 21.9799C1.31317 22.2729 1.7106 22.4375 2.125 22.4375H5.25V27.125C5.25 27.5394 5.41462 27.9368 5.70765 28.2299C6.00067 28.5229 6.3981 28.6875 6.8125 28.6875H9.9375V78.6875H6.8125C6.3981 78.6875 6.00067 78.8521 5.70765 79.1451C5.41462 79.4382 5.25 79.8356 5.25 80.25V84.9375H2.125C1.7106 84.9375 1.31317 85.1021 1.02015 85.3951C0.72712 85.6882 0.5625 86.0856 0.5625 86.5V95.875C0.5625 96.2894 0.72712 96.6868 1.02015 96.9799C1.31317 97.2729 1.7106 97.4375 2.125 97.4375H95.875C96.2894 97.4375 96.6868 97.2729 96.9799 96.9799C97.2729 96.6868 97.4375 96.2894 97.4375 95.875V86.5C97.4375 86.0856 97.2729 85.6882 96.9799 85.3951C96.6868 85.1021 96.2894 84.9375 95.875 84.9375H92.75V80.25C92.75 79.8356 92.5854 79.4382 92.2924 79.1451C91.9993 78.8521 91.6019 78.6875 91.1875 78.6875H88.0625V28.6875H91.1875ZM3.6875 15.8254L49 3.74219L94.3125 15.8254V19.3125H3.6875V15.8254ZM8.375 22.4375H89.625V25.5625H8.375V22.4375ZM63.0625 78.6875V74C63.0625 73.5856 62.8979 73.1882 62.6049 72.8951C62.3118 72.6021 61.9144 72.4375 61.5 72.4375H59.9375V70.875H64.625C65.0394 70.875 65.4368 70.7104 65.7299 70.4174C66.0229 70.1243 66.1875 69.7269 66.1875 69.3125V64.625C66.1875 64.2106 66.0229 63.8132 65.7299 63.5201C65.4368 63.2271 65.0394 63.0625 64.625 63.0625H55.4299C58.2352 61.6202 60.4741 59.2767 61.7868 56.4085C63.0996 53.5404 63.4099 50.3141 62.6679 47.2483C61.926 44.1825 60.1748 41.4552 57.6959 39.5046C55.217 37.5541 52.1543 36.4936 49 36.4936C45.8457 36.4936 42.783 37.5541 40.3041 39.5046C37.8251 41.4552 36.074 44.1825 35.3321 47.2483C34.5901 50.3141 34.9004 53.5404 36.2132 56.4085C37.5259 59.2767 39.7648 61.6202 42.5701 63.0625H39.625C39.2106 63.0625 38.8132 63.2271 38.5201 63.5201C38.2271 63.8132 38.0625 64.2106 38.0625 64.625V67.75H33.375C32.9606 67.75 32.5632 67.9146 32.2701 68.2076C31.9771 68.5007 31.8125 68.8981 31.8125 69.3125V74C31.8125 74.4144 31.9771 74.8118 32.2701 75.1049C32.5632 75.3979 32.9606 75.5625 33.375 75.5625H34.9375V78.6875H19.3125V28.6875H78.6875V78.6875H63.0625ZM41.1875 67.75V66.1875H63.0625V67.75H41.1875ZM56.8125 70.875V72.4375H34.9375V70.875H56.8125ZM38.0625 75.5625H59.9375V77.125H38.0625V75.5625ZM49 61.5C46.8368 61.5 44.7221 60.8585 42.9235 59.6567C41.1248 58.4549 39.7229 56.7467 38.8951 54.7481C38.0672 52.7495 37.8506 50.5504 38.2727 48.4287C38.6947 46.307 39.7364 44.3582 41.266 42.8285C42.7957 41.2989 44.7445 40.2572 46.8662 39.8352C48.9879 39.4131 51.187 39.6297 53.1856 40.4576C55.1842 41.2854 56.8924 42.6873 58.0942 44.4859C59.296 46.2846 59.9375 48.3993 59.9375 50.5625C59.9342 53.4623 58.7809 56.2424 56.7304 58.2929C54.6799 60.3434 51.8998 61.4967 49 61.5ZM13.0625 28.6875H16.1875V78.6875H13.0625V28.6875ZM94.3125 94.3125H3.6875V88.0625H94.3125V94.3125ZM89.625 84.9375H8.375V81.8125H89.625V84.9375ZM84.9375 78.6875H81.8125V28.6875H84.9375V78.6875Z" fill="#004FAC"/>
<path d="M16.1875 89.625H6.8125C6.3981 89.625 6.00067 89.7896 5.70765 90.0826C5.41462 90.3757 5.25 90.7731 5.25 91.1875C5.25 91.6019 5.41462 91.9993 5.70765 92.2924C6.00067 92.5854 6.3981 92.75 6.8125 92.75H16.1875C16.6019 92.75 16.9993 92.5854 17.2924 92.2924C17.5854 91.9993 17.75 91.6019 17.75 91.1875C17.75 90.7731 17.5854 90.3757 17.2924 90.0826C16.9993 89.7896 16.6019 89.625 16.1875 89.625Z" fill="#004FAC"/>
<path d="M22.4375 89.625H20.875C20.4606 89.625 20.0632 89.7896 19.7701 90.0826C19.4771 90.3757 19.3125 90.7731 19.3125 91.1875C19.3125 91.6019 19.4771 91.9993 19.7701 92.2924C20.0632 92.5854 20.4606 92.75 20.875 92.75H22.4375C22.8519 92.75 23.2493 92.5854 23.5424 92.2924C23.8354 91.9993 24 91.6019 24 91.1875C24 90.7731 23.8354 90.3757 23.5424 90.0826C23.2493 89.7896 22.8519 89.625 22.4375 89.625Z" fill="#004FAC"/>
</svg>
