<svg width="722" height="232" viewBox="0 0 722 232" fill="none" xmlns="http://www.w3.org/2000/svg">
<g opacity="0.25" clip-path="url(#clip0)">
<path d="M229.087 75.6454H197.227V201.695H229.087V75.6454Z" fill="#89C8F7"/>
<path d="M223.882 66.6071H202.432V119.582H223.882V66.6071Z" fill="#89C8F7"/>
<path d="M219.103 60.8769H207.203V90.2571H219.103V60.8769Z" fill="#89C8F7"/>
<path d="M217.211 75.9746H209.096V55.954H212.022H214.924H217.211V75.9746Z" fill="#89C8F7"/>
<path d="M212.622 67.2578H211.738V47.2294H212.054H212.369H212.622V67.2578Z" fill="#89C8F7"/>
<path d="M214.569 60.336H213.686V40.3076H214.001H214.316H214.569V60.336Z" fill="#89C8F7"/>
<path d="M229.931 75.324H196.375V76.6644H229.931V75.324Z" fill="#89C8F7"/>
<path d="M224.655 65.9644H201.643V67.2578H224.655V65.9644Z" fill="#89C8F7"/>
<path d="M219.601 60.336H206.336V61.3237H219.601V60.336Z" fill="#89C8F7"/>
<path opacity="0.29" d="M205.396 68.755H204.402V74.3049H205.396V68.755Z" fill="#89C8F7"/>
<path opacity="0.29" d="M208.158 68.755H207.164V74.3049H208.158V68.755Z" fill="#89C8F7"/>
<path opacity="0.29" d="M210.91 68.755H209.916V74.3049H210.91V68.755Z" fill="#89C8F7"/>
<path opacity="0.29" d="M213.669 68.755H212.676V74.3049H213.669V68.755Z" fill="#89C8F7"/>
<path opacity="0.29" d="M216.429 68.755H215.436V74.3049H216.429V68.755Z" fill="#89C8F7"/>
<path opacity="0.29" d="M219.189 68.755H218.195V74.3049H219.189V68.755Z" fill="#89C8F7"/>
<path opacity="0.29" d="M221.951 68.755H220.957V74.3049H221.951V68.755Z" fill="#89C8F7"/>
<path d="M202.431 80.6701H200.018V87.2548H202.431V80.6701Z" fill="#89C8F7"/>
<path opacity="0.29" d="M207.202 80.6701H204.789V87.2548H207.202V80.6701Z" fill="#89C8F7"/>
<path d="M211.974 80.6701H209.561V87.2548H211.974V80.6701Z" fill="#89C8F7"/>
<path d="M216.745 80.6701H214.332V87.2548H216.745V80.6701Z" fill="#89C8F7"/>
<path d="M221.509 80.6701H219.104V87.2548H221.509V80.6701Z" fill="#89C8F7"/>
<path d="M226.28 80.6701H223.875V87.2548H226.28V80.6701Z" fill="#89C8F7"/>
<path d="M202.431 90.939H200.018V97.5237H202.431V90.939Z" fill="#89C8F7"/>
<path d="M207.202 90.939H204.789V97.5237H207.202V90.939Z" fill="#89C8F7"/>
<path d="M211.974 90.939H209.561V97.5237H211.974V90.939Z" fill="#89C8F7"/>
<path opacity="0.29" d="M216.745 90.939H214.332V97.5237H216.745V90.939Z" fill="#89C8F7"/>
<path d="M221.509 90.939H219.104V97.5237H221.509V90.939Z" fill="#89C8F7"/>
<path d="M226.28 90.939H223.875V97.5237H226.28V90.939Z" fill="#89C8F7"/>
<path d="M202.431 101.2H200.018V107.785H202.431V101.2Z" fill="#89C8F7"/>
<path d="M207.202 101.2H204.789V107.785H207.202V101.2Z" fill="#89C8F7"/>
<path d="M211.974 101.2H209.561V107.785H211.974V101.2Z" fill="#89C8F7"/>
<path d="M216.745 101.2H214.332V107.785H216.745V101.2Z" fill="#89C8F7"/>
<path opacity="0.29" d="M221.509 101.2H219.104V107.785H221.509V101.2Z" fill="#89C8F7"/>
<path opacity="0.29" d="M226.28 101.2H223.875V107.785H226.28V101.2Z" fill="#89C8F7"/>
<path opacity="0.29" d="M202.431 111.461H200.018V118.046H202.431V111.461Z" fill="#89C8F7"/>
<path d="M207.202 111.461H204.789V118.046H207.202V111.461Z" fill="#89C8F7"/>
<path d="M211.974 111.461H209.561V118.046H211.974V111.461Z" fill="#89C8F7"/>
<path d="M216.745 111.461H214.332V118.046H216.745V111.461Z" fill="#89C8F7"/>
<path d="M221.509 111.461H219.104V118.046H221.509V111.461Z" fill="#89C8F7"/>
<path d="M226.28 111.461H223.875V118.046H226.28V111.461Z" fill="#89C8F7"/>
<path d="M202.431 121.73H200.018V128.315H202.431V121.73Z" fill="#89C8F7"/>
<path opacity="0.29" d="M207.202 121.73H204.789V128.315H207.202V121.73Z" fill="#89C8F7"/>
<path d="M211.974 121.73H209.561V128.315H211.974V121.73Z" fill="#89C8F7"/>
<path opacity="0.29" d="M216.745 121.73H214.332V128.315H216.745V121.73Z" fill="#89C8F7"/>
<path d="M221.509 121.73H219.104V128.315H221.509V121.73Z" fill="#89C8F7"/>
<path d="M226.28 121.73H223.875V128.315H226.28V121.73Z" fill="#89C8F7"/>
<path d="M202.431 131.991H200.018V138.576H202.431V131.991Z" fill="#89C8F7"/>
<path d="M207.202 131.991H204.789V138.576H207.202V131.991Z" fill="#89C8F7"/>
<path d="M211.974 131.991H209.561V138.576H211.974V131.991Z" fill="#89C8F7"/>
<path d="M216.745 131.991H214.332V138.576H216.745V131.991Z" fill="#89C8F7"/>
<path d="M221.509 131.991H219.104V138.576H221.509V131.991Z" fill="#89C8F7"/>
<path opacity="0.29" d="M226.28 131.991H223.875V138.576H226.28V131.991Z" fill="#89C8F7"/>
<path d="M202.431 142.26H200.018V148.845H202.431V142.26Z" fill="#89C8F7"/>
<path opacity="0.29" d="M207.202 142.26H204.789V148.845H207.202V142.26Z" fill="#89C8F7"/>
<path opacity="0.29" d="M211.974 142.26H209.561V148.845H211.974V142.26Z" fill="#89C8F7"/>
<path d="M216.745 142.26H214.332V148.845H216.745V142.26Z" fill="#89C8F7"/>
<path d="M221.509 142.26H219.104V148.845H221.509V142.26Z" fill="#89C8F7"/>
<path d="M226.28 142.26H223.875V148.845H226.28V142.26Z" fill="#89C8F7"/>
<path d="M202.431 152.521H200.018V159.106H202.431V152.521Z" fill="#89C8F7"/>
<path d="M207.202 152.521H204.789V159.106H207.202V152.521Z" fill="#89C8F7"/>
<path d="M211.974 152.521H209.561V159.106H211.974V152.521Z" fill="#89C8F7"/>
<path d="M216.745 152.521H214.332V159.106H216.745V152.521Z" fill="#89C8F7"/>
<path opacity="0.29" d="M221.509 152.521H219.104V159.106H221.509V152.521Z" fill="#89C8F7"/>
<path d="M226.28 152.521H223.875V159.106H226.28V152.521Z" fill="#89C8F7"/>
<path d="M202.431 162.79H200.018V169.375H202.431V162.79Z" fill="#89C8F7"/>
<path opacity="0.29" d="M207.202 162.79H204.789V169.375H207.202V162.79Z" fill="#89C8F7"/>
<path d="M211.974 162.79H209.561V169.375H211.974V162.79Z" fill="#89C8F7"/>
<path d="M216.745 162.79H214.332V169.375H216.745V162.79Z" fill="#89C8F7"/>
<path d="M221.509 162.79H219.104V169.375H221.509V162.79Z" fill="#89C8F7"/>
<path d="M226.28 162.79H223.875V169.375H226.28V162.79Z" fill="#89C8F7"/>
<path d="M202.431 173.052H200.018V179.636H202.431V173.052Z" fill="#89C8F7"/>
<path d="M207.202 173.052H204.789V179.636H207.202V173.052Z" fill="#89C8F7"/>
<path d="M211.974 173.052H209.561V179.636H211.974V173.052Z" fill="#89C8F7"/>
<path opacity="0.29" d="M216.745 173.052H214.332V179.636H216.745V173.052Z" fill="#89C8F7"/>
<path d="M221.509 173.052H219.104V179.636H221.509V173.052Z" fill="#89C8F7"/>
<path opacity="0.29" d="M226.28 173.052H223.875V179.636H226.28V173.052Z" fill="#89C8F7"/>
<path opacity="0.29" d="M202.431 183.32H200.018V189.905H202.431V183.32Z" fill="#89C8F7"/>
<path d="M207.202 183.32H204.789V189.905H207.202V183.32Z" fill="#89C8F7"/>
<path opacity="0.29" d="M211.974 183.32H209.561V189.905H211.974V183.32Z" fill="#89C8F7"/>
<path d="M216.745 183.32H214.332V189.905H216.745V183.32Z" fill="#89C8F7"/>
<path d="M221.509 183.32H219.104V189.905H221.509V183.32Z" fill="#89C8F7"/>
<path d="M226.28 183.32H223.875V189.905H226.28V183.32Z" fill="#89C8F7"/>
<path d="M155.91 80.4428H104.697V186.628H155.91V80.4428Z" fill="#89C8F7"/>
<path d="M157.361 78.6163H103.238V81.6186H157.361V78.6163Z" fill="#89C8F7"/>
<path d="M154.191 74.7753H106.416V89.0421H154.191V74.7753Z" fill="#89C8F7"/>
<path d="M128.995 68.9352H110.076V84.519H128.995V68.9352Z" fill="#89C8F7"/>
<path d="M121.022 73.325H110.076V65.1255H117.923L121.022 73.325Z" fill="#89C8F7"/>
<path d="M115.549 58.3135H114.484V76.5938H115.549V58.3135Z" fill="#89C8F7"/>
<path d="M115.967 57.3651C115.971 57.5536 115.92 57.7392 115.818 57.8983C115.716 58.0573 115.568 58.1825 115.394 58.2579C115.22 58.3334 115.028 58.3555 114.841 58.3216C114.655 58.2877 114.482 58.1993 114.347 58.0676C114.211 57.936 114.118 57.767 114.079 57.5824C114.04 57.3978 114.057 57.2059 114.129 57.0312C114.2 56.8565 114.323 56.707 114.48 56.6017C114.637 56.4964 114.823 56.4401 115.013 56.4401C115.262 56.44 115.501 56.5367 115.679 56.7095C115.857 56.8823 115.961 57.1176 115.967 57.3651Z" fill="#89C8F7"/>
<path d="M580.023 194.71H523.96L516.965 38.5831L580.023 51.5956V194.71Z" fill="#89C8F7"/>
<path d="M335.433 105.551V53.3515H326.64V39.3748H323.501V18.8682H306.191V3.79403H304.653V18.8682H301.262V0H299.724V18.8682H288.786V53.3515H283.131V105.551H278.289V200.621H338.84V105.551H335.433Z" fill="#89C8F7"/>
<path d="M712.38 207.033H9.08594V232H712.38V207.033Z" fill="#4EADF2"/>
<path d="M403.099 95.4778V69.3194H393.572V59.3561H388.478V50.992H386.687V36.6469H386.23V50.992H384.44V59.3561H379.345V69.3194H369.89V95.4778H367.926V142.982H353.273V197.125H367.926H382.579H404.991V95.4778H403.099Z" fill="#4EADF2"/>
<path d="M457.827 125.532H411.732V126.363H413.814V203.851H455.745V126.363H457.827V125.532Z" fill="#4EADF2"/>
<path d="M247.628 144.831H206.754V209.377H247.628V144.831Z" fill="#4EADF2"/>
<path d="M200.595 177.904H130.305V209.377H200.595V177.904Z" fill="#4EADF2"/>
<path d="M183.412 107.581H167.979V184.873H183.412V107.581Z" fill="#4EADF2"/>
<path d="M172.189 86.9647H171.385V128.997H172.189V86.9647Z" fill="#4EADF2"/>
<path d="M174.799 90.1473H173.994V132.18H174.799V90.1473Z" fill="#4EADF2"/>
<path d="M178.6 102.799H169.168V113.155H178.6V102.799Z" fill="#4EADF2"/>
<path d="M224.696 156.386H197.844V209.377H224.696V156.386Z" fill="#4EADF2"/>
<path d="M304.655 100.314H254.246V209.377H304.655V100.314Z" fill="#4EADF2"/>
<path d="M299.701 96.5596H259.197V114.722H299.701V96.5596Z" fill="#4EADF2"/>
<path d="M308.566 102.596H250.342V103.873H308.566V102.596Z" fill="#4EADF2"/>
<path d="M268.867 154.293H245.113V209.369H268.867V154.293Z" fill="#4EADF2"/>
<path d="M102.245 152.2H74.9902V209.369H102.245V152.2Z" fill="#4EADF2"/>
<path d="M138.119 136.663H83.8066V209.369H138.119V136.663Z" fill="#4EADF2"/>
<path d="M139.515 133.873H80.6367V136.663H139.515V133.873Z" fill="#4EADF2"/>
<path d="M110.077 126.308H86.2129V141.053H110.077V126.308Z" fill="#4EADF2"/>
<path d="M121.881 126.308H117.875V135.276H121.881V126.308Z" fill="#4EADF2"/>
<path d="M130.305 126.308H125.896V135.276H130.305V126.308Z" fill="#4EADF2"/>
<path d="M88.6177 187.263H60.1562V209.377H88.6177V187.263Z" fill="#4EADF2"/>
<path d="M62.8936 177.904H49.416V209.377H62.8936V177.904Z" fill="#4EADF2"/>
<path d="M56.143 198.316H33.1152V209.369H56.143V198.316Z" fill="#4EADF2"/>
<path d="M583.487 184.873H299.701V209.377H583.487V184.873Z" fill="#4EADF2"/>
<path d="M560.829 117.05C559.969 117.05 559.141 117.373 558.51 117.955C557.88 118.536 557.494 119.333 557.431 120.186L553.44 120.053C553.44 119.669 553.44 119.269 553.44 118.885C553.447 114.023 552.598 109.197 550.932 104.626L554.276 103.403C554.613 104.169 555.223 104.784 555.989 105.129C556.756 105.474 557.623 105.524 558.425 105.27C559.226 105.015 559.904 104.475 560.328 103.753C560.751 103.03 560.89 102.177 560.718 101.359C560.546 100.541 560.074 99.8148 559.395 99.322C558.715 98.8291 557.876 98.6042 557.039 98.6907C556.203 98.7772 555.428 99.1691 554.865 99.7904C554.302 100.412 553.991 101.218 553.992 102.055C553.993 102.392 554.044 102.727 554.142 103.05L550.822 104.257C548.896 99.1371 545.975 94.4438 542.226 90.4452L544.836 88.0151C545.477 88.619 546.329 88.9507 547.212 88.9397C548.095 88.9287 548.939 88.5758 549.564 87.9561C550.189 87.3364 550.547 86.4987 550.56 85.6212C550.574 84.7436 550.243 83.8954 549.637 83.2569C549.031 82.6183 548.199 82.2397 547.317 82.2017C546.434 82.1636 545.572 82.469 544.913 83.053C544.254 83.637 543.85 84.4534 543.787 85.3288C543.724 86.2042 544.007 87.0695 544.576 87.7408L541.966 90.1708C541.697 89.8886 541.421 89.6064 541.177 89.3321C537.29 85.454 532.673 82.3748 527.589 80.2703L529.016 76.8212C529.862 77.0864 530.779 77.0131 531.572 76.617C532.364 76.2208 532.97 75.5329 533.26 74.6997C533.551 73.8664 533.502 72.9535 533.126 72.155C532.75 71.3564 532.075 70.7353 531.245 70.4237C530.415 70.1121 529.496 70.1345 528.682 70.4862C527.869 70.8379 527.225 71.4912 526.889 72.3071C526.552 73.123 526.549 74.0372 526.88 74.8553C527.211 75.6734 527.85 76.3309 528.661 76.6879L527.226 80.1527C522.691 78.3322 517.871 77.3135 512.984 77.1426L513.141 72.3922H513.252C514.128 72.3293 514.945 71.9311 515.531 71.2813C516.118 70.6316 516.428 69.781 516.396 68.9087C516.365 68.0363 515.994 67.2102 515.362 66.6042C514.729 65.9982 513.886 65.6595 513.007 65.6595C512.129 65.6595 511.285 65.9982 510.653 66.6042C510.021 67.2102 509.65 68.0363 509.618 68.9087C509.587 69.781 509.897 70.6316 510.483 71.2813C511.07 71.9311 511.887 72.3293 512.763 72.3922L512.605 77.1661C512.219 77.1661 511.816 77.1661 511.43 77.1661C506.735 77.1329 502.068 77.88 497.621 79.3767L496.241 75.4572C497.04 75.1233 497.676 74.493 498.014 73.7003C498.353 72.9076 498.367 72.015 498.053 71.2121C497.74 70.4092 497.124 69.7594 496.337 69.4007C495.549 69.042 494.652 69.0027 493.836 69.2912C493.019 69.5797 492.348 70.1732 491.965 70.9456C491.582 71.718 491.518 72.6084 491.785 73.4276C492.052 74.2468 492.629 74.9303 493.395 75.3327C494.161 75.7351 495.055 75.8248 495.886 75.5827L497.258 79.5021C491.897 81.409 486.984 84.3831 482.819 88.2425L480.327 85.6008C480.776 85.1168 481.074 84.5131 481.183 83.8636C481.293 83.214 481.209 82.5468 480.943 81.9437C480.677 81.3406 480.24 80.8277 479.685 80.4678C479.13 80.1079 478.482 79.9167 477.819 79.9176C477.267 79.9163 476.722 80.0482 476.233 80.3019C475.743 80.5557 475.323 80.9236 475.007 81.3743C474.692 81.825 474.492 82.3449 474.423 82.8895C474.354 83.4342 474.42 83.9872 474.613 84.5013C474.807 85.0154 475.123 85.4751 475.534 85.8412C475.946 86.2072 476.44 86.4686 476.976 86.6029C477.511 86.7372 478.071 86.7404 478.608 86.6123C479.145 86.4842 479.643 86.2285 480.059 85.8673L482.543 88.5012L481.699 89.285C478.235 92.7218 475.401 96.7327 473.324 101.137L470.169 99.6794C470.29 99.3341 470.351 98.9711 470.351 98.6055C470.349 97.773 470.039 96.9704 469.479 96.3514C468.919 95.7325 468.149 95.3409 467.316 95.2516C466.483 95.1624 465.647 95.3819 464.967 95.868C464.287 96.354 463.812 97.0725 463.632 97.8855C463.452 98.6986 463.581 99.5489 463.993 100.274C464.405 100.998 465.072 101.546 465.865 101.812C466.659 102.078 467.523 102.044 468.293 101.715C469.062 101.387 469.683 100.787 470.035 100.032L473.19 101.475C470.909 106.447 469.637 111.817 469.444 117.278L465.382 117.144C465.333 116.268 464.942 115.446 464.292 114.851C463.642 114.257 462.784 113.939 461.902 113.963C461.019 113.988 460.181 114.353 459.565 114.983C458.95 115.612 458.605 116.455 458.605 117.333C458.605 118.21 458.95 119.053 459.565 119.683C460.181 120.312 461.019 120.678 461.902 120.702C462.784 120.727 463.642 120.408 464.292 119.814C464.942 119.22 465.333 118.397 465.382 117.521L469.444 117.654C469.444 118.046 469.444 118.438 469.444 118.822C469.439 123.686 470.285 128.513 471.944 133.089L468.608 134.304C468.275 133.531 467.665 132.909 466.897 132.558C466.13 132.206 465.258 132.15 464.451 132.401C463.644 132.651 462.959 133.191 462.529 133.914C462.099 134.638 461.954 135.494 462.123 136.318C462.292 137.141 462.761 137.873 463.442 138.372C464.122 138.871 464.964 139.101 465.806 139.018C466.647 138.936 467.427 138.546 467.996 137.924C468.565 137.302 468.881 136.492 468.884 135.652C468.885 135.315 468.838 134.98 468.742 134.657L472.078 133.442C474 138.561 476.922 143.252 480.674 147.246L478.056 149.676C477.415 149.072 476.562 148.74 475.68 148.751C474.797 148.762 473.953 149.115 473.328 149.735C472.702 150.355 472.345 151.192 472.331 152.07C472.318 152.947 472.649 153.796 473.255 154.434C473.861 155.073 474.693 155.451 475.575 155.489C476.457 155.527 477.319 155.222 477.979 154.638C478.638 154.054 479.042 153.238 479.105 152.362C479.168 151.487 478.885 150.621 478.316 149.95L480.926 147.52C481.202 147.802 481.47 148.085 481.715 148.359C484.339 150.982 487.301 153.249 490.524 155.1L469.964 192.774H466.273V193.856H464.46V195.972H558.408V193.856H556.602V192.774H552.912L532.321 155.1C535.085 153.516 537.659 151.625 539.994 149.464L543.33 153C542.677 153.575 542.276 154.38 542.211 155.245C542.146 156.11 542.423 156.966 542.983 157.631C543.543 158.296 544.341 158.718 545.209 158.807C546.077 158.896 546.945 158.645 547.63 158.107C548.315 157.57 548.762 156.789 548.876 155.929C548.99 155.069 548.763 154.199 548.242 153.504C547.721 152.808 546.948 152.342 546.087 152.204C545.225 152.066 544.344 152.267 543.63 152.764L540.27 149.206L541.114 148.422C544.58 144.985 547.417 140.974 549.497 136.569L553.203 138.278C553.14 138.535 553.106 138.798 553.101 139.062C553.099 139.91 553.415 140.727 553.989 141.354C554.563 141.982 555.351 142.373 556.2 142.451C557.049 142.529 557.897 142.289 558.577 141.777C559.257 141.266 559.719 140.52 559.874 139.686C560.028 138.853 559.864 137.992 559.412 137.273C558.96 136.554 558.254 136.029 557.433 135.802C556.611 135.574 555.734 135.66 554.973 136.043C554.213 136.426 553.623 137.078 553.322 137.871L549.67 136.201C551.948 131.228 553.218 125.858 553.409 120.398L557.407 120.531C557.425 121.196 557.641 121.842 558.026 122.386C558.412 122.93 558.95 123.35 559.574 123.592C560.198 123.834 560.88 123.887 561.534 123.746C562.189 123.605 562.787 123.275 563.254 122.798C563.721 122.321 564.036 121.718 564.16 121.064C564.284 120.409 564.212 119.733 563.951 119.12C563.691 118.507 563.254 117.983 562.696 117.615C562.138 117.247 561.483 117.051 560.814 117.05H560.829ZM552.32 118.853C552.32 119.23 552.32 119.637 552.32 119.99L540.554 119.606C540.554 119.355 540.554 119.104 540.554 118.822C540.558 115.473 539.974 112.149 538.827 109L549.868 104.947C551.495 109.405 552.325 114.111 552.32 118.853ZM539.97 119.59L513.725 118.736C513.716 118.571 513.687 118.408 513.638 118.25L538.283 109.227C539.407 112.313 539.981 115.571 539.978 118.853C539.978 119.096 539.97 119.347 539.97 119.59ZM482.898 118.124L509.143 118.971C509.15 119.138 509.177 119.304 509.222 119.465L484.577 128.48C483.455 125.393 482.884 122.135 482.89 118.853C482.89 118.61 482.89 118.367 482.898 118.124ZM513.228 117.442L532.376 99.601C534.886 102.293 536.849 105.442 538.157 108.874L513.512 117.889C513.435 117.73 513.339 117.58 513.228 117.442ZM512.968 117.16C512.819 117.029 512.654 116.916 512.479 116.823L522.447 92.6793C526.1 94.2062 529.395 96.4697 532.124 99.3267L512.968 117.16ZM512.124 116.682C511.986 116.635 511.843 116.603 511.698 116.588L512.55 90.5001C515.827 90.629 519.058 91.3185 522.1 92.5382L512.124 116.682ZM511.335 116.58C511.178 116.587 511.022 116.611 510.87 116.651L502.124 92.0287C505.117 90.9936 508.262 90.4637 511.43 90.4609H512.171L511.335 116.58ZM510.547 116.776C510.374 116.851 510.212 116.949 510.066 117.066L492.101 98.0332C494.909 95.4523 498.207 93.4536 501.801 92.1541L510.547 116.776ZM509.758 117.325C509.643 117.449 509.542 117.585 509.459 117.732L485.618 106.758C487.136 103.57 489.235 100.689 491.809 98.2606L509.758 117.325ZM509.301 118.109C509.239 118.278 509.196 118.455 509.175 118.634L482.937 117.787C483.073 114.12 483.931 110.514 485.461 107.173L509.301 118.109ZM509.38 119.857C509.44 119.987 509.514 120.111 509.6 120.225L509.443 120.515L490.516 138.145C488.008 135.453 486.047 132.304 484.743 128.871L509.38 119.857ZM508.867 121.566L496.982 143.342C494.691 141.996 492.599 140.339 490.768 138.419L508.867 121.566ZM510.16 120.782C510.242 120.836 510.326 120.886 510.413 120.931L500.413 145.02C499.455 144.62 498.52 144.167 497.613 143.663L510.16 120.782ZM510.76 121.072C510.9 121.119 511.046 121.15 511.193 121.166L510.342 147.254C507.064 147.13 503.832 146.44 500.792 145.216L510.76 121.072ZM511.454 147.277H510.72L511.572 121.182C511.729 121.174 511.885 121.15 512.037 121.111L520.767 145.733C517.761 146.746 514.605 147.252 511.43 147.23L511.454 147.277ZM512.392 120.978C512.519 120.923 512.64 120.858 512.755 120.782L525.223 143.671C523.895 144.412 522.508 145.041 521.075 145.553L512.392 120.978ZM514.498 122.404L530.822 139.721C529.328 141.101 527.689 142.318 525.933 143.35L514.498 122.404ZM513.788 121.095L513.315 120.233C513.366 120.167 513.411 120.096 513.449 120.021L537.289 130.996C535.772 134.185 533.676 137.068 531.106 139.501L513.788 121.095ZM513.607 119.684C513.669 119.517 513.711 119.344 513.733 119.167L539.955 119.935C539.816 123.601 538.956 127.204 537.423 130.541L513.607 119.684ZM500.2 145.6L495.721 156.441C494.35 155.878 493.013 155.24 491.714 154.528L497.345 144.22C498.271 144.717 499.224 145.162 500.2 145.553V145.6ZM500.547 145.741C503.652 146.985 506.949 147.688 510.294 147.818L509.916 159.514C505.152 159.335 500.457 158.327 496.044 156.535L500.547 145.741ZM510.673 147.834H511.462C514.682 147.838 517.88 147.308 520.925 146.266L524.868 157.319C520.555 158.798 516.024 159.551 511.462 159.545C511.083 159.545 510.673 159.545 510.326 159.545L510.673 147.834ZM521.28 146.086C522.741 145.562 524.157 144.923 525.515 144.173L531.138 154.481C529.234 155.526 527.248 156.414 525.199 157.139L521.28 146.086ZM549.749 104.626L538.709 108.678C537.38 105.175 535.38 101.961 532.818 99.2169L541.421 91.2056C545.057 95.0933 547.889 99.653 549.757 104.626H549.749ZM540.341 90.1473C540.609 90.4138 540.877 90.6882 541.13 90.9312L532.526 98.9426C529.746 96.0248 526.386 93.7131 522.66 92.1541L527.139 81.3129C532.08 83.3682 536.566 86.3701 540.341 90.1473ZM526.8 81.1718L522.321 92.013C519.227 90.7703 515.94 90.0675 512.605 89.9357L512.992 78.24C517.731 78.4098 522.405 79.402 526.8 81.1718ZM511.438 78.2165C511.824 78.2165 512.227 78.2165 512.581 78.2165L512.195 89.9122H511.406C508.186 89.911 504.988 90.4408 501.943 91.4799L498 80.4271C502.321 78.9502 506.861 78.203 511.43 78.2165H511.438ZM497.661 80.5682L501.604 91.621C497.936 92.9443 494.571 94.9831 491.707 97.6178L483.647 89.0734C487.677 85.3261 492.431 82.4325 497.621 80.5682H497.661ZM482.519 90.1473L483.308 89.3634L491.367 97.9157C488.743 100.396 486.604 103.338 485.058 106.593L474.349 101.678C476.378 97.392 479.142 93.4899 482.519 90.1473ZM474.215 101.984L484.924 106.899C483.364 110.306 482.488 113.984 482.346 117.725L470.571 117.348C470.757 112.039 471.996 106.817 474.215 101.984ZM470.548 118.853C470.548 118.477 470.548 118.069 470.548 117.725L482.314 118.101C482.314 118.352 482.314 118.603 482.314 118.885C482.309 122.234 482.894 125.558 484.041 128.707L473 132.76C471.377 128.301 470.547 123.595 470.548 118.853ZM473.111 133.081L484.152 129.028C485.483 132.53 487.483 135.743 490.043 138.49L481.447 146.501C477.808 142.616 474.975 138.055 473.111 133.081ZM482.519 147.591C482.251 147.324 481.991 147.05 481.73 146.807L490.326 138.748C492.202 140.707 494.341 142.398 496.683 143.773L491.06 154.081C487.939 152.3 485.067 150.117 482.519 147.591ZM552.036 192.774H470.808L491.17 155.469C492.501 156.204 493.873 156.864 495.279 157.444L493.844 160.917C493.509 160.813 493.161 160.76 492.811 160.76C491.971 160.763 491.162 161.074 490.539 161.634C489.917 162.194 489.525 162.964 489.439 163.794C489.354 164.625 489.581 165.457 490.076 166.131C490.571 166.805 491.3 167.273 492.121 167.445C492.943 167.617 493.8 167.48 494.526 167.061C495.253 166.642 495.797 165.971 496.055 165.177C496.313 164.382 496.266 163.521 495.924 162.759C495.581 161.997 494.966 161.388 494.199 161.05L495.626 157.585C500.161 159.404 504.981 160.423 509.869 160.595L509.75 164.154C508.873 164.203 508.049 164.591 507.455 165.234C506.86 165.877 506.541 166.725 506.566 167.598C506.59 168.471 506.957 169.301 507.587 169.91C508.217 170.518 509.061 170.859 509.94 170.859C510.818 170.859 511.663 170.518 512.293 169.91C512.923 169.301 513.289 168.471 513.314 167.598C513.338 166.725 513.019 165.877 512.425 165.234C511.83 164.591 511.006 164.203 510.129 164.154L510.247 160.603H511.422C516.117 160.62 520.781 159.857 525.223 158.346L526.445 161.803C525.686 162.157 525.085 162.778 524.757 163.546C524.43 164.314 524.399 165.175 524.671 165.964C524.943 166.754 525.498 167.415 526.23 167.823C526.962 168.23 527.82 168.355 528.639 168.172C529.458 167.99 530.18 167.513 530.668 166.834C531.155 166.155 531.373 165.322 531.28 164.493C531.187 163.664 530.79 162.898 530.164 162.342C529.538 161.786 528.728 161.48 527.889 161.481C527.518 161.481 527.15 161.542 526.8 161.662L525.578 158.22C527.683 157.473 529.725 156.558 531.682 155.485L552.036 192.774ZM531.792 154.105L526.162 143.797C527.961 142.741 529.642 141.498 531.177 140.089L539.237 148.641C536.974 150.733 534.482 152.565 531.808 154.105H531.792ZM540.325 147.591L539.537 148.375L531.477 139.822C534.106 137.346 536.246 134.403 537.786 131.145L548.503 136.06C546.477 140.345 543.715 144.248 540.341 147.591H540.325ZM548.637 135.723L537.928 130.808C539.489 127.401 540.365 123.723 540.507 119.982L552.273 120.366C552.09 125.671 550.86 130.889 548.653 135.723H548.637Z" fill="#4EADF2"/>
<path d="M612.886 145.553H569.062V209.377H612.886V145.553Z" fill="#4EADF2"/>
<path d="M650.293 170.363H606.469V209.009H650.293V170.363Z" fill="#4EADF2"/>
<path d="M461.109 164.687H436.527V197.125H461.109V164.687Z" fill="#4EADF2"/>
<path d="M621.964 84.8561H590.971V209.377H621.964V84.8561Z" fill="#4EADF2"/>
<path d="M673.003 209.377H632.121V136.663H663.122L673.003 209.377Z" fill="#4EADF2"/>
<path d="M690.905 192.774H655.102V209.369H690.905V192.774Z" fill="#4EADF2"/>
<path d="M615.024 58.8387H613.951V92.6793H615.024V58.8387Z" fill="#4EADF2"/>
<path d="M618.629 66.1055H617.557V99.946H618.629V66.1055Z" fill="#4EADF2"/>
<path d="M611.752 70.7774H610.68V104.618H611.752V70.7774Z" fill="#4EADF2"/>
<path d="M648.352 130.792H633.723V142.245H648.352V130.792Z" fill="#4EADF2"/>
<path d="M646.759 126.708H635.332V133.144H646.759V126.708Z" fill="#4EADF2"/>
<path d="M656.971 134.147H654.164V138.772H656.971V134.147Z" fill="#4EADF2"/>
<path d="M661.971 129.922H657.965V138.764H661.971V129.922Z" fill="#4EADF2"/>
<path d="M473.56 112.943H436.4V232H473.56V112.943Z" fill="#1291EE"/>
<path d="M476.337 113.648H433.625V114.856H476.337V113.648Z" fill="#1291EE"/>
<path d="M475.176 130.377H434.775V131.576H475.176V130.377Z" fill="#1291EE"/>
<path d="M475.176 146.572H434.775V147.771H475.176V146.572Z" fill="#1291EE"/>
<path d="M475.176 162.767H434.775V163.966H475.176V162.767Z" fill="#1291EE"/>
<path d="M475.176 178.962H434.775V180.161H475.176V178.962Z" fill="#1291EE"/>
<path d="M475.176 195.157H434.775V196.357H475.176V195.157Z" fill="#1291EE"/>
<path d="M475.176 211.352H434.775V212.552H475.176V211.352Z" fill="#1291EE"/>
<path d="M477.748 110.364H432.213V113.656H477.748V110.364Z" fill="#1291EE"/>
<path opacity="0.29" d="M443.608 118.767H439.744V128.276H443.608V118.767Z" fill="#1291EE"/>
<path d="M452.243 118.767H448.379V128.276H452.243V118.767Z" fill="#1291EE"/>
<path d="M460.88 118.767H457.016V128.276H460.88V118.767Z" fill="#1291EE"/>
<path d="M469.515 118.767H465.65V128.276H469.515V118.767Z" fill="#1291EE"/>
<path d="M443.608 134.319H439.744V143.828H443.608V134.319Z" fill="#1291EE"/>
<path opacity="0.29" d="M452.243 134.319H448.379V143.828H452.243V134.319Z" fill="#1291EE"/>
<path d="M460.88 134.319H457.016V143.828H460.88V134.319Z" fill="#1291EE"/>
<path d="M469.515 134.319H465.65V143.828H469.515V134.319Z" fill="#1291EE"/>
<path d="M443.608 150.515H439.744V160.023H443.608V150.515Z" fill="#1291EE"/>
<path d="M452.243 150.515H448.379V160.023H452.243V150.515Z" fill="#1291EE"/>
<path d="M460.88 150.515H457.016V160.023H460.88V150.515Z" fill="#1291EE"/>
<path opacity="0.29" d="M469.515 150.515H465.65V160.023H469.515V150.515Z" fill="#1291EE"/>
<path d="M443.608 166.71H439.744V176.218H443.608V166.71Z" fill="#1291EE"/>
<path opacity="0.29" d="M452.243 166.71H448.379V176.218H452.243V166.71Z" fill="#1291EE"/>
<path opacity="0.29" d="M460.88 166.71H457.016V176.218H460.88V166.71Z" fill="#1291EE"/>
<path d="M469.515 166.71H465.65V176.218H469.515V166.71Z" fill="#1291EE"/>
<path opacity="0.29" d="M443.608 182.905H439.744V192.414H443.608V182.905Z" fill="#1291EE"/>
<path d="M452.243 182.905H448.379V192.414H452.243V182.905Z" fill="#1291EE"/>
<path d="M460.88 182.905H457.016V192.414H460.88V182.905Z" fill="#1291EE"/>
<path d="M469.515 182.905H465.65V192.414H469.515V182.905Z" fill="#1291EE"/>
<path d="M443.608 199.1H439.744V208.609H443.608V199.1Z" fill="#1291EE"/>
<path d="M452.243 199.1H448.379V208.609H452.243V199.1Z" fill="#1291EE"/>
<path opacity="0.29" d="M460.88 199.1H457.016V208.609H460.88V199.1Z" fill="#1291EE"/>
<path d="M469.515 199.1H465.65V208.609H469.515V199.1Z" fill="#1291EE"/>
<path d="M443.608 215.295H439.744V224.804H443.608V215.295Z" fill="#1291EE"/>
<path opacity="0.29" d="M452.243 215.295H448.379V224.804H452.243V215.295Z" fill="#1291EE"/>
<path d="M460.88 215.295H457.016V224.804H460.88V215.295Z" fill="#1291EE"/>
<path opacity="0.29" d="M469.515 215.295H465.65V224.804H469.515V215.295Z" fill="#1291EE"/>
<path d="M451.384 105.825H438.742V112.01H451.384V105.825Z" fill="#1291EE"/>
<path d="M452.244 105.645H437.891V106.703H452.244V105.645Z" fill="#1291EE"/>
<path d="M383.137 232H333.643V118.885L383.137 106.844V232Z" fill="#1291EE"/>
<path d="M335.812 116.894H331.467V232.008H335.812V116.894Z" fill="#1291EE"/>
<path d="M348.193 113.648H343.84V232H348.193V113.648Z" fill="#1291EE"/>
<path d="M360.558 110.278H356.213V232H360.558V110.278Z" fill="#1291EE"/>
<path d="M372.941 107.534H368.596V232H372.941V107.534Z" fill="#1291EE"/>
<path d="M385.314 104.61H380.969V232H385.314V104.61Z" fill="#1291EE"/>
<path opacity="0.29" d="M342.712 126.551H336.939V135.291H342.712V126.551Z" fill="#1291EE"/>
<path opacity="0.29" d="M355.093 126.551H349.32V135.291H355.093V126.551Z" fill="#1291EE"/>
<path d="M367.468 126.551H361.695V135.291H367.468V126.551Z" fill="#1291EE"/>
<path opacity="0.29" d="M379.841 126.551H374.068V135.291H379.841V126.551Z" fill="#1291EE"/>
<path d="M342.712 141.774H336.939V150.515H342.712V141.774Z" fill="#1291EE"/>
<path d="M355.093 141.774H349.32V150.515H355.093V141.774Z" fill="#1291EE"/>
<path opacity="0.29" d="M367.468 141.774H361.695V150.515H367.468V141.774Z" fill="#1291EE"/>
<path opacity="0.29" d="M379.841 141.774H374.068V150.515H379.841V141.774Z" fill="#1291EE"/>
<path opacity="0.29" d="M342.712 156.997H336.939V165.738H342.712V156.997Z" fill="#1291EE"/>
<path opacity="0.29" d="M355.093 156.997H349.32V165.738H355.093V156.997Z" fill="#1291EE"/>
<path opacity="0.29" d="M367.468 156.997H361.695V165.738H367.468V156.997Z" fill="#1291EE"/>
<path d="M379.841 156.997H374.068V165.738H379.841V156.997Z" fill="#1291EE"/>
<path opacity="0.29" d="M342.712 172.213H336.939V180.953H342.712V172.213Z" fill="#1291EE"/>
<path d="M355.093 172.213H349.32V180.953H355.093V172.213Z" fill="#1291EE"/>
<path opacity="0.29" d="M367.468 172.213H361.695V180.953H367.468V172.213Z" fill="#1291EE"/>
<path opacity="0.29" d="M379.841 172.213H374.068V180.953H379.841V172.213Z" fill="#1291EE"/>
<path opacity="0.29" d="M342.712 187.436H336.939V196.176H342.712V187.436Z" fill="#1291EE"/>
<path opacity="0.29" d="M355.093 187.436H349.32V196.176H355.093V187.436Z" fill="#1291EE"/>
<path d="M367.468 187.436H361.695V196.176H367.468V187.436Z" fill="#1291EE"/>
<path opacity="0.29" d="M379.841 187.436H374.068V196.176H379.841V187.436Z" fill="#1291EE"/>
<path d="M342.712 202.659H336.939V211.399H342.712V202.659Z" fill="#1291EE"/>
<path d="M355.093 202.659H349.32V211.399H355.093V202.659Z" fill="#1291EE"/>
<path opacity="0.29" d="M367.468 202.659H361.695V211.399H367.468V202.659Z" fill="#1291EE"/>
<path opacity="0.29" d="M379.841 202.659H374.068V211.399H379.841V202.659Z" fill="#1291EE"/>
<path opacity="0.29" d="M342.712 217.882H336.939V226.622H342.712V217.882Z" fill="#1291EE"/>
<path d="M355.093 217.882H349.32V226.622H355.093V217.882Z" fill="#1291EE"/>
<path opacity="0.29" d="M367.468 217.882H361.695V226.622H367.468V217.882Z" fill="#1291EE"/>
<path d="M379.841 217.882H374.068V226.622H379.841V217.882Z" fill="#1291EE"/>
<path d="M192.44 124.301V125.477H191.257V128.824H211.974V232H177.984V134.202V128.824V125.477H176.754V124.301H192.44Z" fill="#1291EE"/>
<path d="M279.456 171.17H250.34V232.008H279.456V171.17Z" fill="#1291EE"/>
<path d="M147.118 157.225H123.451V232.008H147.118V157.225Z" fill="#1291EE"/>
<path d="M168.214 172.801H142.426V232H168.214V172.801Z" fill="#1291EE"/>
<path d="M142.434 154.222H131.969V163.174H142.434V154.222Z" fill="#1291EE"/>
<path d="M171.691 171.829H144.199V174.016H171.691V171.829Z" fill="#1291EE"/>
<path d="M194.356 198.191H165.445V232H194.356V198.191Z" fill="#1291EE"/>
<path d="M95.5187 170.692H72.002V232H95.5187V170.692Z" fill="#1291EE"/>
<path d="M82.5295 201.248H51.5918V232H82.5295V201.248Z" fill="#1291EE"/>
<path d="M36.8762 196.215H17.5234V232H36.8762V196.215Z" fill="#1291EE"/>
<path d="M78.8554 220.79H33.1152V232H78.8554V220.79Z" fill="#1291EE"/>
<path d="M19.2895 217.169H5.84375C3.08233 217.169 0.84375 219.407 0.84375 222.169V227C0.84375 229.761 3.08233 232 5.84375 232H19.2895C22.0509 232 24.2895 229.761 24.2895 227V222.169C24.2895 219.407 22.0509 217.169 19.2895 217.169Z" fill="#1291EE"/>
<path d="M131.96 209.377H95.5176V232H131.96V209.377Z" fill="#1291EE"/>
<path d="M259.205 222.256H202.432V232H259.205V222.256Z" fill="#1291EE"/>
<path d="M359.857 222.256H303.084V232H359.857V222.256Z" fill="#1291EE"/>
<path d="M256.988 193.636H235.411L226.287 227.124H256.988V193.636Z" fill="#1291EE"/>
<path d="M267.564 144.91H266.965V182.058H267.564V144.91Z" fill="#1291EE"/>
<path d="M270.773 157.483H269.969V179.409H270.773V157.483Z" fill="#1291EE"/>
<path d="M276.586 161.364H265.672V172.213H276.586V161.364Z" fill="#1291EE"/>
<path d="M278.282 160.525H263.826V161.497H278.282V160.525Z" fill="#1291EE"/>
<path d="M309.431 200.621H274.156V232H309.431V200.621Z" fill="#1291EE"/>
<path d="M325.347 166.083H302.682V226.623H325.347V166.083Z" fill="#1291EE"/>
<path d="M427.403 177.465H391.197V232H427.403V177.465Z" fill="#1291EE"/>
<path d="M421.124 211.909H379.84V232.008H421.124V211.909Z" fill="#1291EE"/>
<path d="M452.243 224.812H425.398V232.008H452.243V224.812Z" fill="#1291EE"/>
<path d="M510.388 211.909H466.746V232.008H510.388V211.909Z" fill="#1291EE"/>
<path d="M484.129 232H538.441V159.294H484.129V232Z" fill="#1291EE"/>
<path d="M482.733 159.294H541.611V156.504H482.733V159.294Z" fill="#1291EE"/>
<path d="M512.171 163.676H536.035V148.931H512.171V163.676Z" fill="#1291EE"/>
<path d="M500.367 157.899H504.373V148.931H500.367V157.899Z" fill="#1291EE"/>
<path d="M491.943 157.899H496.352V148.931H491.943V157.899Z" fill="#1291EE"/>
<path d="M575.782 232H618.77V125.814H575.782V232Z" fill="#1291EE"/>
<path d="M574.55 126.982H619.982V123.98H574.55V126.982Z" fill="#1291EE"/>
<path d="M577.217 134.406H617.318V120.139H577.217V134.406Z" fill="#1291EE"/>
<path d="M598.367 129.891H614.25V114.307H598.367V129.891Z" fill="#1291EE"/>
<path d="M605.062 118.704H614.25V110.497H607.657L605.062 118.704Z" fill="#1291EE"/>
<path d="M609.652 121.958H610.543V103.677H609.652V121.958Z" fill="#1291EE"/>
<path d="M609.306 102.737C609.337 102.881 609.408 103.013 609.512 103.118C609.615 103.224 609.746 103.298 609.89 103.333C610.034 103.368 610.185 103.362 610.325 103.316C610.466 103.269 610.59 103.185 610.685 103.071C610.779 102.958 610.84 102.82 610.859 102.674C610.878 102.528 610.856 102.38 610.794 102.246C610.733 102.112 610.634 101.998 610.511 101.917C610.387 101.836 610.243 101.791 610.095 101.788C609.864 101.812 609.653 101.925 609.505 102.102C609.358 102.279 609.286 102.507 609.306 102.737Z" fill="#1291EE"/>
<path d="M632.121 188.165H612.879V232H632.121V188.165Z" fill="#1291EE"/>
<path d="M580.016 166.788H558.076V232H580.016V166.788Z" fill="#1291EE"/>
<path d="M569.062 232H538.148V197.125L564.236 208.609L569.062 232Z" fill="#1291EE"/>
<path d="M673.004 213.061H625.805V232H673.004V213.061Z" fill="#1291EE"/>
<path d="M682.987 156.386H655.566V232H682.987V156.386Z" fill="#1291EE"/>
<path d="M717.001 217.882H681.576C678.815 217.882 676.576 220.121 676.576 222.882V227C676.576 229.761 678.815 232 681.576 232H717.001C719.762 232 722.001 229.761 722.001 227V222.882C722.001 220.121 719.762 217.882 717.001 217.882Z" fill="#1291EE"/>
<path d="M684.24 154.998H654.162V157.476H684.24V154.998Z" fill="#1291EE"/>
<path d="M679.312 144.33H678.713V159.569H679.312V144.33Z" fill="#1291EE"/>
<path d="M675.306 146.258H674.707V158.479H675.306V146.258Z" fill="#1291EE"/>
<path d="M693.136 184.873H680.912V219.513H698.349L693.136 184.873Z" fill="#1291EE"/>
</g>
<defs>
<clipPath id="clip0">
<rect width="722" height="232" fill="white"/>
</clipPath>
</defs>
</svg>
