<svg width="1919" height="619" viewBox="0 0 1919 619" fill="none" xmlns="http://www.w3.org/2000/svg">
<rect width="1920" height="619" fill="#E3F2FD"/>
<g opacity="0.4" clip-path="url(#clip0)">
<path d="M1330.5 418.165H1289.68V580.074H1330.5V418.165Z" fill="#89C8F7"/>
<path d="M1323.83 406.556H1296.35V474.601H1323.83V406.556Z" fill="#89C8F7"/>
<path d="M1317.71 399.195H1302.46V436.934H1317.71V399.195Z" fill="#89C8F7"/>
<path d="M1315.28 418.588H1304.89V392.872H1308.63H1312.35H1315.28V418.588Z" fill="#89C8F7"/>
<path d="M1309.4 407.391H1308.27V381.665H1308.67H1309.08H1309.4V407.391Z" fill="#89C8F7"/>
<path d="M1311.9 398.501H1310.77V372.774H1311.17H1311.57H1311.9V398.501Z" fill="#89C8F7"/>
<path d="M1331.58 417.752H1288.59V419.474H1331.58V417.752Z" fill="#89C8F7"/>
<path d="M1324.82 405.73H1295.34V407.391H1324.82V405.73Z" fill="#89C8F7"/>
<path d="M1318.34 398.5H1301.35V399.769H1318.34V398.5Z" fill="#89C8F7"/>
<path opacity="0.29" d="M1300.15 409.315H1298.87V416.443H1300.15V409.315Z" fill="#89C8F7"/>
<path opacity="0.29" d="M1303.68 409.315H1302.41V416.443H1303.68V409.315Z" fill="#89C8F7"/>
<path opacity="0.29" d="M1307.21 409.315H1305.94V416.443H1307.21V409.315Z" fill="#89C8F7"/>
<path opacity="0.29" d="M1310.75 409.315H1309.47V416.443H1310.75V409.315Z" fill="#89C8F7"/>
<path opacity="0.29" d="M1314.28 409.315H1313.01V416.443H1314.28V409.315Z" fill="#89C8F7"/>
<path opacity="0.29" d="M1317.82 409.315H1316.54V416.443H1317.82V409.315Z" fill="#89C8F7"/>
<path opacity="0.29" d="M1321.35 409.315H1320.08V416.443H1321.35V409.315Z" fill="#89C8F7"/>
<path d="M1296.35 424.619H1293.26V433.077H1296.35V424.619Z" fill="#89C8F7"/>
<path opacity="0.29" d="M1302.46 424.619H1299.37V433.077H1302.46V424.619Z" fill="#89C8F7"/>
<path d="M1308.57 424.619H1305.48V433.077H1308.57V424.619Z" fill="#89C8F7"/>
<path d="M1314.69 424.619H1311.59V433.077H1314.69V424.619Z" fill="#89C8F7"/>
<path d="M1320.79 424.619H1317.71V433.077H1320.79V424.619Z" fill="#89C8F7"/>
<path d="M1326.9 424.619H1323.82V433.077H1326.9V424.619Z" fill="#89C8F7"/>
<path d="M1296.35 437.81H1293.26V446.267H1296.35V437.81Z" fill="#89C8F7"/>
<path d="M1302.46 437.81H1299.37V446.267H1302.46V437.81Z" fill="#89C8F7"/>
<path d="M1308.57 437.81H1305.48V446.267H1308.57V437.81Z" fill="#89C8F7"/>
<path opacity="0.29" d="M1314.69 437.81H1311.59V446.267H1314.69V437.81Z" fill="#89C8F7"/>
<path d="M1320.79 437.81H1317.71V446.267H1320.79V437.81Z" fill="#89C8F7"/>
<path d="M1326.9 437.81H1323.82V446.267H1326.9V437.81Z" fill="#89C8F7"/>
<path d="M1296.35 450.99H1293.26V459.448H1296.35V450.99Z" fill="#89C8F7"/>
<path d="M1302.46 450.99H1299.37V459.448H1302.46V450.99Z" fill="#89C8F7"/>
<path d="M1308.57 450.99H1305.48V459.448H1308.57V450.99Z" fill="#89C8F7"/>
<path d="M1314.69 450.99H1311.59V459.448H1314.69V450.99Z" fill="#89C8F7"/>
<path opacity="0.29" d="M1320.79 450.99H1317.71V459.448H1320.79V450.99Z" fill="#89C8F7"/>
<path opacity="0.29" d="M1326.9 450.99H1323.82V459.448H1326.9V450.99Z" fill="#89C8F7"/>
<path opacity="0.29" d="M1296.35 464.17H1293.26V472.628H1296.35V464.17Z" fill="#89C8F7"/>
<path d="M1302.46 464.17H1299.37V472.628H1302.46V464.17Z" fill="#89C8F7"/>
<path d="M1308.57 464.17H1305.48V472.628H1308.57V464.17Z" fill="#89C8F7"/>
<path d="M1314.69 464.17H1311.59V472.628H1314.69V464.17Z" fill="#89C8F7"/>
<path d="M1320.79 464.17H1317.71V472.628H1320.79V464.17Z" fill="#89C8F7"/>
<path d="M1326.9 464.17H1323.82V472.628H1326.9V464.17Z" fill="#89C8F7"/>
<path d="M1296.35 477.36H1293.26V485.818H1296.35V477.36Z" fill="#89C8F7"/>
<path opacity="0.29" d="M1302.46 477.36H1299.37V485.818H1302.46V477.36Z" fill="#89C8F7"/>
<path d="M1308.57 477.36H1305.48V485.818H1308.57V477.36Z" fill="#89C8F7"/>
<path opacity="0.29" d="M1314.69 477.36H1311.59V485.818H1314.69V477.36Z" fill="#89C8F7"/>
<path d="M1320.79 477.36H1317.71V485.818H1320.79V477.36Z" fill="#89C8F7"/>
<path d="M1326.9 477.36H1323.82V485.818H1326.9V477.36Z" fill="#89C8F7"/>
<path d="M1296.35 490.541H1293.26V498.999H1296.35V490.541Z" fill="#89C8F7"/>
<path d="M1302.46 490.541H1299.37V498.999H1302.46V490.541Z" fill="#89C8F7"/>
<path d="M1308.57 490.541H1305.48V498.999H1308.57V490.541Z" fill="#89C8F7"/>
<path d="M1314.69 490.541H1311.59V498.999H1314.69V490.541Z" fill="#89C8F7"/>
<path d="M1320.79 490.541H1317.71V498.999H1320.79V490.541Z" fill="#89C8F7"/>
<path opacity="0.29" d="M1326.9 490.541H1323.82V498.999H1326.9V490.541Z" fill="#89C8F7"/>
<path d="M1296.35 503.731H1293.26V512.189H1296.35V503.731Z" fill="#89C8F7"/>
<path opacity="0.29" d="M1302.46 503.731H1299.37V512.189H1302.46V503.731Z" fill="#89C8F7"/>
<path opacity="0.29" d="M1308.57 503.731H1305.48V512.189H1308.57V503.731Z" fill="#89C8F7"/>
<path d="M1314.69 503.731H1311.59V512.189H1314.69V503.731Z" fill="#89C8F7"/>
<path d="M1320.79 503.731H1317.71V512.189H1320.79V503.731Z" fill="#89C8F7"/>
<path d="M1326.9 503.731H1323.82V512.189H1326.9V503.731Z" fill="#89C8F7"/>
<path d="M1296.35 516.911H1293.26V525.369H1296.35V516.911Z" fill="#89C8F7"/>
<path d="M1302.46 516.911H1299.37V525.369H1302.46V516.911Z" fill="#89C8F7"/>
<path d="M1308.57 516.911H1305.48V525.369H1308.57V516.911Z" fill="#89C8F7"/>
<path d="M1314.69 516.911H1311.59V525.369H1314.69V516.911Z" fill="#89C8F7"/>
<path opacity="0.29" d="M1320.79 516.911H1317.71V525.369H1320.79V516.911Z" fill="#89C8F7"/>
<path d="M1326.9 516.911H1323.82V525.369H1326.9V516.911Z" fill="#89C8F7"/>
<path d="M1296.35 530.101H1293.26V538.559H1296.35V530.101Z" fill="#89C8F7"/>
<path opacity="0.29" d="M1302.46 530.101H1299.37V538.559H1302.46V530.101Z" fill="#89C8F7"/>
<path d="M1308.57 530.101H1305.48V538.559H1308.57V530.101Z" fill="#89C8F7"/>
<path d="M1314.69 530.101H1311.59V538.559H1314.69V530.101Z" fill="#89C8F7"/>
<path d="M1320.79 530.101H1317.71V538.559H1320.79V530.101Z" fill="#89C8F7"/>
<path d="M1326.9 530.101H1323.82V538.559H1326.9V530.101Z" fill="#89C8F7"/>
<path d="M1296.35 543.282H1293.26V551.74H1296.35V543.282Z" fill="#89C8F7"/>
<path d="M1302.46 543.282H1299.37V551.74H1302.46V543.282Z" fill="#89C8F7"/>
<path d="M1308.57 543.282H1305.48V551.74H1308.57V543.282Z" fill="#89C8F7"/>
<path opacity="0.29" d="M1314.69 543.282H1311.59V551.74H1314.69V543.282Z" fill="#89C8F7"/>
<path d="M1320.79 543.282H1317.71V551.74H1320.79V543.282Z" fill="#89C8F7"/>
<path opacity="0.29" d="M1326.9 543.282H1323.82V551.74H1326.9V543.282Z" fill="#89C8F7"/>
<path opacity="0.29" d="M1296.35 556.472H1293.26V564.93H1296.35V556.472Z" fill="#89C8F7"/>
<path d="M1302.46 556.472H1299.37V564.93H1302.46V556.472Z" fill="#89C8F7"/>
<path opacity="0.29" d="M1308.57 556.472H1305.48V564.93H1308.57V556.472Z" fill="#89C8F7"/>
<path d="M1314.69 556.472H1311.59V564.93H1314.69V556.472Z" fill="#89C8F7"/>
<path d="M1320.79 556.472H1317.71V564.93H1320.79V556.472Z" fill="#89C8F7"/>
<path d="M1326.9 556.472H1323.82V564.93H1326.9V556.472Z" fill="#89C8F7"/>
<path d="M1236.75 424.327H1171.13V560.721H1236.75V424.327Z" fill="#89C8F7"/>
<path d="M1238.61 421.981H1169.27V425.838H1238.61V421.981Z" fill="#89C8F7"/>
<path d="M1234.54 417.048H1173.34V435.373H1234.54V417.048Z" fill="#89C8F7"/>
<path d="M1202.26 409.546H1178.03V429.563H1202.26V409.546Z" fill="#89C8F7"/>
<path d="M1192.05 415.185H1178.03V404.653H1188.08L1192.05 415.185Z" fill="#89C8F7"/>
<path d="M1185.04 395.903H1183.67V419.384H1185.04V395.903Z" fill="#89C8F7"/>
<path d="M1185.57 394.684C1185.58 394.927 1185.51 395.165 1185.38 395.369C1185.25 395.574 1185.06 395.735 1184.84 395.831C1184.62 395.928 1184.37 395.957 1184.13 395.913C1183.89 395.87 1183.67 395.756 1183.5 395.587C1183.32 395.418 1183.2 395.201 1183.15 394.964C1183.1 394.727 1183.13 394.48 1183.22 394.256C1183.31 394.031 1183.47 393.839 1183.67 393.704C1183.87 393.569 1184.11 393.496 1184.35 393.496C1184.67 393.496 1184.98 393.62 1185.2 393.842C1185.43 394.064 1185.56 394.367 1185.57 394.684Z" fill="#89C8F7"/>
<path d="M1780.11 571.102H1708.28L1699.32 370.559L1780.11 387.274V571.102Z" fill="#89C8F7"/>
<path d="M1466.74 456.578V389.529H1455.48V371.576H1451.46V345.236H1429.28V325.873H1427.31V345.236H1422.97V321H1421V345.236H1406.98V389.529H1399.74V456.578H1393.53V578.694H1471.11V456.578H1466.74Z" fill="#89C8F7"/>
<path d="M1949.67 586.93H1048.64V619H1949.67V586.93Z" fill="#4EADF2"/>
<path d="M1553.43 443.64V410.04H1541.23V397.242H1534.7V386.498H1532.41V368.072H1531.82V386.498H1529.53V397.242H1523V410.04H1510.89V443.64H1508.37V504.657H1489.6V574.203H1508.37H1527.14H1555.86V443.64H1553.43Z" fill="#4EADF2"/>
<path d="M1623.55 482.244H1564.5V483.311H1567.16V582.843H1620.88V483.311H1623.55V482.244Z" fill="#4EADF2"/>
<path d="M1354.25 507.034H1301.88V589.941H1354.25V507.034Z" fill="#4EADF2"/>
<path d="M1293.99 549.514H1203.94V589.941H1293.99V549.514Z" fill="#4EADF2"/>
<path d="M1271.98 459.186H1252.21V558.466H1271.98V459.186Z" fill="#4EADF2"/>
<path d="M1257.6 432.705H1256.57V486.694H1257.6V432.705Z" fill="#4EADF2"/>
<path d="M1260.95 436.793H1259.91V490.782H1260.95V436.793Z" fill="#4EADF2"/>
<path d="M1265.82 453.044H1253.73V466.345H1265.82V453.044Z" fill="#4EADF2"/>
<path d="M1324.87 521.875H1290.47V589.941H1324.87V521.875Z" fill="#4EADF2"/>
<path d="M1427.31 449.852H1362.73V589.941H1427.31V449.852Z" fill="#4EADF2"/>
<path d="M1420.97 445.029H1369.07V468.359H1420.97V445.029Z" fill="#4EADF2"/>
<path d="M1432.32 452.782H1357.73V454.423H1432.32V452.782Z" fill="#4EADF2"/>
<path d="M1381.46 519.187H1351.03V589.931H1381.46V519.187Z" fill="#4EADF2"/>
<path d="M1167.99 516.498H1133.07V589.931H1167.99V516.498Z" fill="#4EADF2"/>
<path d="M1213.95 496.542H1144.37V589.931H1213.95V496.542Z" fill="#4EADF2"/>
<path d="M1215.74 492.957H1140.31V496.542H1215.74V492.957Z" fill="#4EADF2"/>
<path d="M1178.03 483.241H1147.45V502.18H1178.03V483.241Z" fill="#4EADF2"/>
<path d="M1193.15 483.241H1188.02V494.76H1193.15V483.241Z" fill="#4EADF2"/>
<path d="M1203.94 483.241H1198.29V494.76H1203.94V483.241Z" fill="#4EADF2"/>
<path d="M1150.53 561.537H1114.07V589.941H1150.53V561.537Z" fill="#4EADF2"/>
<path d="M1117.58 549.514H1100.31V589.941H1117.58V549.514Z" fill="#4EADF2"/>
<path d="M1108.93 575.734H1079.42V589.931H1108.93V575.734Z" fill="#4EADF2"/>
<path d="M1784.54 558.466H1420.97V589.941H1784.54V558.466Z" fill="#4EADF2"/>
<path d="M1755.51 471.349C1754.41 471.349 1753.35 471.764 1752.54 472.511C1751.74 473.258 1751.24 474.282 1751.16 475.377L1746.05 475.206C1746.05 474.712 1746.05 474.199 1746.05 473.705C1746.06 467.46 1744.97 461.262 1742.83 455.39L1747.12 453.819C1747.55 454.804 1748.33 455.594 1749.31 456.036C1750.29 456.479 1751.41 456.544 1752.43 456.217C1753.46 455.891 1754.33 455.196 1754.87 454.268C1755.41 453.341 1755.59 452.245 1755.37 451.194C1755.15 450.143 1754.55 449.21 1753.68 448.577C1752.81 447.944 1751.73 447.655 1750.66 447.767C1749.59 447.878 1748.59 448.381 1747.87 449.179C1747.15 449.977 1746.75 451.013 1746.75 452.087C1746.76 452.521 1746.82 452.952 1746.95 453.366L1742.69 454.917C1740.23 448.34 1736.48 442.311 1731.68 437.175L1735.02 434.054C1735.84 434.83 1736.94 435.256 1738.07 435.242C1739.2 435.227 1740.28 434.774 1741.08 433.978C1741.88 433.182 1742.34 432.106 1742.36 430.979C1742.37 429.852 1741.95 428.762 1741.17 427.942C1740.4 427.122 1739.33 426.636 1738.2 426.587C1737.07 426.538 1735.97 426.93 1735.12 427.68C1734.28 428.43 1733.76 429.479 1733.68 430.603C1733.6 431.728 1733.96 432.839 1734.69 433.702L1731.35 436.823C1731 436.46 1730.65 436.098 1730.34 435.746C1725.36 430.764 1719.44 426.809 1712.93 424.106L1714.76 419.676C1715.84 420.016 1717.01 419.922 1718.03 419.413C1719.05 418.904 1719.82 418.021 1720.19 416.951C1720.57 415.88 1720.5 414.708 1720.02 413.682C1719.54 412.656 1718.67 411.858 1717.61 411.458C1716.55 411.058 1715.37 411.087 1714.33 411.538C1713.29 411.99 1712.46 412.829 1712.03 413.877C1711.6 414.925 1711.6 416.1 1712.02 417.15C1712.44 418.201 1713.26 419.046 1714.3 419.504L1712.46 423.955C1706.65 421.616 1700.48 420.308 1694.22 420.088L1694.42 413.987H1694.56C1695.68 413.906 1696.73 413.394 1697.48 412.56C1698.23 411.725 1698.63 410.633 1698.59 409.512C1698.55 408.392 1698.07 407.33 1697.26 406.552C1696.45 405.774 1695.37 405.339 1694.25 405.339C1693.12 405.339 1692.04 405.774 1691.23 406.552C1690.42 407.33 1689.94 408.392 1689.9 409.512C1689.86 410.633 1690.26 411.725 1691.01 412.56C1691.76 413.394 1692.81 413.906 1693.93 413.987L1693.73 420.119C1693.24 420.119 1692.72 420.119 1692.23 420.119C1686.21 420.076 1680.23 421.036 1674.53 422.958L1672.77 417.924C1673.79 417.495 1674.6 416.685 1675.04 415.667C1675.47 414.649 1675.49 413.502 1675.09 412.471C1674.69 411.439 1673.9 410.605 1672.89 410.144C1671.88 409.683 1670.73 409.633 1669.68 410.003C1668.64 410.374 1667.78 411.136 1667.29 412.128C1666.8 413.121 1666.71 414.264 1667.06 415.317C1667.4 416.369 1668.14 417.247 1669.12 417.764C1670.1 418.28 1671.25 418.396 1672.31 418.085L1674.07 423.119C1667.2 425.569 1660.91 429.389 1655.57 434.346L1652.38 430.953C1652.95 430.331 1653.33 429.556 1653.47 428.721C1653.61 427.887 1653.51 427.03 1653.17 426.255C1652.83 425.481 1652.27 424.822 1651.55 424.36C1650.84 423.897 1650.01 423.652 1649.16 423.653C1648.46 423.651 1647.76 423.821 1647.13 424.147C1646.5 424.472 1645.97 424.945 1645.56 425.524C1645.16 426.103 1644.9 426.771 1644.81 427.47C1644.73 428.17 1644.81 428.88 1645.06 429.541C1645.3 430.201 1645.71 430.791 1646.24 431.262C1646.76 431.732 1647.4 432.067 1648.08 432.24C1648.77 432.412 1649.49 432.417 1650.18 432.252C1650.86 432.088 1651.5 431.759 1652.03 431.295L1655.22 434.678L1654.13 435.685C1649.7 440.1 1646.07 445.252 1643.4 450.909L1639.36 449.037C1639.52 448.593 1639.6 448.127 1639.6 447.657C1639.59 446.588 1639.2 445.557 1638.48 444.762C1637.76 443.967 1636.77 443.464 1635.71 443.349C1634.64 443.235 1633.57 443.516 1632.7 444.141C1631.83 444.765 1631.22 445.688 1630.99 446.732C1630.76 447.777 1630.92 448.869 1631.45 449.8C1631.98 450.731 1632.83 451.434 1633.85 451.776C1634.87 452.118 1635.97 452.073 1636.96 451.651C1637.95 451.229 1638.74 450.46 1639.19 449.49L1643.23 451.342C1640.31 457.729 1638.68 464.627 1638.43 471.641L1633.23 471.47C1633.17 470.345 1632.67 469.288 1631.83 468.525C1631 467.762 1629.9 467.352 1628.77 467.384C1627.64 467.415 1626.57 467.885 1625.78 468.693C1624.99 469.502 1624.55 470.584 1624.55 471.712C1624.55 472.839 1624.99 473.922 1625.78 474.73C1626.57 475.538 1627.64 476.008 1628.77 476.04C1629.9 476.071 1631 475.662 1631.83 474.899C1632.67 474.136 1633.17 473.079 1633.23 471.953L1638.43 472.125C1638.43 472.628 1638.43 473.132 1638.43 473.625C1638.43 479.872 1639.51 486.073 1641.64 491.95L1637.36 493.511C1636.94 492.519 1636.16 491.72 1635.17 491.268C1634.19 490.817 1633.07 490.745 1632.04 491.067C1631 491.389 1630.13 492.081 1629.58 493.011C1629.02 493.94 1628.84 495.04 1629.05 496.098C1629.27 497.155 1629.87 498.096 1630.74 498.737C1631.62 499.377 1632.69 499.673 1633.77 499.567C1634.85 499.461 1635.85 498.959 1636.58 498.161C1637.31 497.362 1637.71 496.322 1637.72 495.243C1637.72 494.81 1637.66 494.379 1637.53 493.964L1641.81 492.403C1644.27 498.979 1648.01 505.005 1652.82 510.135L1649.47 513.256C1648.65 512.481 1647.55 512.054 1646.42 512.069C1645.29 512.083 1644.21 512.536 1643.41 513.332C1642.61 514.128 1642.15 515.204 1642.13 516.331C1642.12 517.458 1642.54 518.548 1643.32 519.368C1644.09 520.188 1645.16 520.675 1646.29 520.723C1647.42 520.772 1648.52 520.38 1649.37 519.63C1650.21 518.88 1650.73 517.831 1650.81 516.707C1650.89 515.582 1650.53 514.471 1649.8 513.609L1653.14 510.487C1653.5 510.85 1653.84 511.212 1654.15 511.565C1657.52 514.934 1661.31 517.846 1665.44 520.224L1639.1 568.615H1634.37V570.005H1632.05V572.723H1752.41V570.005H1750.1V568.615H1745.37L1718.99 520.224C1722.53 518.189 1725.83 515.76 1728.82 512.984L1733.09 517.525C1732.26 518.264 1731.74 519.299 1731.66 520.41C1731.58 521.52 1731.93 522.62 1732.65 523.474C1733.37 524.328 1734.39 524.87 1735.5 524.984C1736.61 525.099 1737.73 524.777 1738.6 524.086C1739.48 523.396 1740.05 522.392 1740.2 521.288C1740.35 520.184 1740.05 519.066 1739.39 518.173C1738.72 517.279 1737.73 516.68 1736.63 516.503C1735.52 516.326 1734.39 516.584 1733.48 517.223L1729.17 512.652L1730.25 511.645C1734.7 507.231 1738.33 502.079 1741 496.421L1745.74 498.616C1745.66 498.946 1745.62 499.283 1745.61 499.623C1745.61 500.712 1746.02 501.762 1746.75 502.567C1747.48 503.373 1748.5 503.876 1749.58 503.976C1750.67 504.077 1751.76 503.768 1752.63 503.111C1753.5 502.453 1754.09 501.495 1754.29 500.425C1754.49 499.354 1754.28 498.248 1753.7 497.325C1753.12 496.402 1752.21 495.727 1751.16 495.435C1750.11 495.143 1748.99 495.253 1748.01 495.745C1747.04 496.237 1746.28 497.074 1745.9 498.092L1741.22 495.948C1744.14 489.56 1745.76 482.663 1746.01 475.649L1751.13 475.82C1751.15 476.675 1751.43 477.503 1751.92 478.203C1752.42 478.902 1753.11 479.441 1753.91 479.751C1754.7 480.062 1755.58 480.131 1756.42 479.95C1757.26 479.769 1758.02 479.345 1758.62 478.732C1759.22 478.12 1759.62 477.345 1759.78 476.504C1759.94 475.664 1759.85 474.796 1759.51 474.008C1759.18 473.22 1758.62 472.548 1757.91 472.075C1757.19 471.602 1756.35 471.35 1755.49 471.349H1755.51ZM1744.61 473.665C1744.61 474.148 1744.61 474.672 1744.61 475.125L1729.54 474.632C1729.54 474.31 1729.54 473.987 1729.54 473.625C1729.54 469.323 1728.79 465.053 1727.32 461.009L1741.47 455.803C1743.55 461.529 1744.62 467.574 1744.61 473.665ZM1728.79 474.612L1695.17 473.514C1695.15 473.302 1695.12 473.093 1695.05 472.89L1726.63 461.301C1728.07 465.265 1728.8 469.449 1728.8 473.665C1728.8 473.977 1728.79 474.3 1728.79 474.612ZM1655.67 472.729L1689.3 473.816C1689.3 474.031 1689.34 474.244 1689.4 474.451L1657.82 486.03C1656.38 482.065 1655.65 477.881 1655.66 473.665C1655.66 473.353 1655.66 473.041 1655.67 472.729ZM1694.53 471.853L1719.06 448.936C1722.28 452.393 1724.79 456.438 1726.47 460.847L1694.89 472.427C1694.79 472.222 1694.67 472.03 1694.53 471.853ZM1694.2 471.49C1694 471.322 1693.79 471.177 1693.57 471.057L1706.34 440.045C1711.02 442.006 1715.24 444.914 1718.74 448.583L1694.2 471.49ZM1693.11 470.876C1692.94 470.816 1692.75 470.775 1692.57 470.755L1693.66 437.246C1697.86 437.412 1702 438.297 1705.9 439.864L1693.11 470.876ZM1692.1 470.745C1691.9 470.754 1691.7 470.785 1691.51 470.836L1680.3 439.209C1684.14 437.88 1688.17 437.199 1692.23 437.196H1693.17L1692.1 470.745ZM1691.09 470.997C1690.87 471.093 1690.67 471.218 1690.48 471.369L1667.46 446.922C1671.06 443.607 1675.28 441.04 1679.89 439.37L1691.09 470.997ZM1690.08 471.702C1689.94 471.861 1689.81 472.036 1689.7 472.225L1659.16 458.129C1661.1 454.034 1663.79 450.333 1667.09 447.214L1690.08 471.702ZM1689.5 472.709C1689.42 472.927 1689.36 473.153 1689.34 473.383L1655.72 472.296C1655.9 467.585 1656.99 462.953 1658.95 458.662L1689.5 472.709ZM1689.6 474.954C1689.68 475.121 1689.77 475.28 1689.88 475.427L1689.68 475.8L1665.43 498.445C1662.22 494.987 1659.71 490.942 1658.03 486.533L1689.6 474.954ZM1688.94 477.149L1673.72 505.12C1670.78 503.392 1668.1 501.264 1665.75 498.797L1688.94 477.149ZM1690.6 476.142C1690.7 476.212 1690.81 476.276 1690.92 476.333L1678.11 507.275C1676.88 506.762 1675.69 506.18 1674.52 505.533L1690.6 476.142ZM1691.37 476.515C1691.55 476.575 1691.73 476.616 1691.92 476.636L1690.83 510.145C1686.63 509.986 1682.49 509.1 1678.6 507.527L1691.37 476.515ZM1692.26 510.175H1691.32L1692.41 476.656C1692.61 476.646 1692.81 476.616 1693 476.565L1704.19 508.192C1700.34 509.493 1696.29 510.143 1692.23 510.115L1692.26 510.175ZM1693.46 476.394C1693.62 476.324 1693.78 476.24 1693.92 476.142L1709.9 505.543C1708.2 506.495 1706.42 507.303 1704.58 507.96L1693.46 476.394ZM1696.16 478.226L1717.07 500.469C1715.16 502.242 1713.06 503.805 1710.81 505.131L1696.16 478.226ZM1695.25 476.545L1694.64 475.437C1694.71 475.352 1694.76 475.261 1694.81 475.165L1725.35 489.262C1723.41 493.358 1720.73 497.062 1717.43 500.187L1695.25 476.545ZM1695.01 474.732C1695.09 474.518 1695.15 474.295 1695.18 474.068L1728.77 475.055C1728.59 479.763 1727.49 484.392 1725.53 488.678L1695.01 474.732ZM1677.84 508.02L1672.1 521.946C1670.34 521.223 1668.63 520.403 1666.97 519.489L1674.18 506.248C1675.37 506.887 1676.59 507.458 1677.84 507.96V508.02ZM1678.28 508.202C1682.26 509.8 1686.48 510.703 1690.77 510.87L1690.29 525.893C1684.18 525.664 1678.17 524.369 1672.51 522.067L1678.28 508.202ZM1691.26 510.89H1692.27C1696.39 510.895 1700.49 510.215 1704.39 508.876L1709.44 523.073C1703.92 524.974 1698.11 525.94 1692.27 525.933C1691.78 525.933 1691.26 525.933 1690.81 525.933L1691.26 510.89ZM1704.84 508.645C1706.72 507.972 1708.53 507.151 1710.27 506.188L1717.47 519.428C1715.03 520.77 1712.49 521.911 1709.87 522.842L1704.84 508.645ZM1741.32 455.39L1727.17 460.596C1725.47 456.095 1722.91 451.968 1719.63 448.443L1730.65 438.152C1735.31 443.146 1738.94 449.003 1741.33 455.39H1741.32ZM1729.26 436.793C1729.61 437.135 1729.95 437.488 1730.28 437.8L1719.25 448.09C1715.69 444.342 1711.39 441.373 1706.61 439.37L1712.35 425.445C1718.68 428.085 1724.43 431.941 1729.26 436.793ZM1711.92 425.264L1706.18 439.189C1702.21 437.593 1698 436.69 1693.73 436.521L1694.23 421.498C1700.3 421.716 1706.29 422.991 1711.92 425.264ZM1692.24 421.468C1692.73 421.468 1693.25 421.468 1693.7 421.468L1693.21 436.491H1692.19C1688.07 436.489 1683.97 437.17 1680.07 438.504L1675.02 424.307C1680.55 422.41 1686.37 421.45 1692.23 421.468H1692.24ZM1674.58 424.489L1679.64 438.686C1674.94 440.385 1670.63 443.004 1666.96 446.388L1656.63 435.413C1661.79 430.6 1667.88 426.883 1674.53 424.489H1674.58ZM1655.19 436.793L1656.2 435.786L1666.52 446.771C1663.16 449.957 1660.42 453.736 1658.44 457.917L1644.72 451.604C1647.32 446.098 1650.86 441.086 1655.19 436.793ZM1644.55 451.997L1658.27 458.31C1656.27 462.687 1655.15 467.41 1654.96 472.215L1639.88 471.732C1640.12 464.912 1641.7 458.205 1644.55 451.997ZM1639.85 473.665C1639.85 473.182 1639.85 472.658 1639.85 472.215L1654.92 472.699C1654.92 473.021 1654.92 473.343 1654.92 473.705C1654.92 478.007 1655.67 482.277 1657.14 486.322L1642.99 491.527C1640.91 485.8 1639.85 479.756 1639.85 473.665ZM1643.13 491.94L1657.28 486.735C1658.98 491.233 1661.55 495.36 1664.82 498.888L1653.81 509.178C1649.15 504.187 1645.52 498.33 1643.13 491.94ZM1655.19 510.578C1654.84 510.236 1654.51 509.883 1654.18 509.571L1665.19 499.22C1667.59 501.736 1670.33 503.908 1673.33 505.674L1666.13 518.915C1662.13 516.626 1658.45 513.823 1655.19 510.578ZM1744.25 568.615H1640.18L1666.27 520.697C1667.97 521.642 1669.73 522.489 1671.53 523.235L1669.69 527.695C1669.27 527.562 1668.82 527.494 1668.37 527.494C1667.29 527.497 1666.26 527.897 1665.46 528.616C1664.66 529.336 1664.16 530.324 1664.05 531.391C1663.94 532.458 1664.23 533.527 1664.87 534.393C1665.5 535.258 1666.43 535.86 1667.49 536.08C1668.54 536.301 1669.64 536.125 1670.57 535.587C1671.5 535.049 1672.2 534.187 1672.53 533.167C1672.86 532.146 1672.8 531.04 1672.36 530.062C1671.92 529.083 1671.13 528.301 1670.15 527.866L1671.98 523.416C1677.79 525.752 1683.96 527.061 1690.22 527.282L1690.07 531.854C1688.95 531.916 1687.89 532.414 1687.13 533.24C1686.37 534.066 1685.96 535.156 1685.99 536.277C1686.02 537.399 1686.49 538.464 1687.3 539.246C1688.11 540.028 1689.19 540.466 1690.32 540.466C1691.44 540.466 1692.52 540.028 1693.33 539.246C1694.14 538.464 1694.61 537.399 1694.64 536.277C1694.67 535.156 1694.26 534.066 1693.5 533.24C1692.74 532.414 1691.68 531.916 1690.56 531.854L1690.71 527.292H1692.22C1698.23 527.313 1704.21 526.333 1709.9 524.392L1711.46 528.833C1710.49 529.288 1709.72 530.086 1709.3 531.072C1708.88 532.059 1708.84 533.165 1709.19 534.178C1709.54 535.192 1710.25 536.042 1711.19 536.565C1712.12 537.089 1713.22 537.249 1714.27 537.014C1715.32 536.78 1716.25 536.168 1716.87 535.296C1717.5 534.424 1717.78 533.353 1717.66 532.288C1717.54 531.223 1717.03 530.24 1716.23 529.526C1715.42 528.812 1714.39 528.418 1713.31 528.42C1712.84 528.419 1712.37 528.497 1711.92 528.652L1710.35 524.231C1713.05 523.272 1715.66 522.096 1718.17 520.717L1744.25 568.615ZM1718.31 518.945L1711.1 505.704C1713.4 504.348 1715.56 502.752 1717.52 500.942L1727.85 511.927C1724.95 514.614 1721.76 516.968 1718.33 518.945H1718.31ZM1729.24 510.578L1728.23 511.585L1717.91 500.6C1721.28 497.419 1724.02 493.639 1725.99 489.453L1739.72 495.766C1737.13 501.271 1733.59 506.284 1729.26 510.578H1729.24ZM1739.89 495.334L1726.17 489.02C1728.17 484.644 1729.3 479.92 1729.48 475.115L1744.55 475.608C1744.32 482.423 1742.74 489.125 1739.91 495.334H1739.89Z" fill="#4EADF2"/>
<path d="M1822.21 507.96H1766.06V589.941H1822.21V507.96Z" fill="#4EADF2"/>
<path d="M1870.13 539.828H1813.98V589.468H1870.13V539.828Z" fill="#4EADF2"/>
<path d="M1627.75 532.538H1596.26V574.203H1627.75V532.538Z" fill="#4EADF2"/>
<path d="M1833.84 429.996H1794.13V589.941H1833.84V429.996Z" fill="#4EADF2"/>
<path d="M1899.23 589.941H1846.85V496.542H1886.57L1899.23 589.941Z" fill="#4EADF2"/>
<path d="M1922.16 568.615H1876.29V589.931H1922.16V568.615Z" fill="#4EADF2"/>
<path d="M1824.95 396.577H1823.57V440.045H1824.95V396.577Z" fill="#4EADF2"/>
<path d="M1829.56 405.911H1828.19V449.379H1829.56V405.911Z" fill="#4EADF2"/>
<path d="M1820.75 411.912H1819.38V455.38H1820.75V411.912Z" fill="#4EADF2"/>
<path d="M1867.64 489H1848.9V503.711H1867.64V489Z" fill="#4EADF2"/>
<path d="M1865.6 483.754H1850.96V492.021H1865.6V483.754Z" fill="#4EADF2"/>
<path d="M1878.69 493.31H1875.09V499.25H1878.69V493.31Z" fill="#4EADF2"/>
<path d="M1885.09 487.882H1879.96V499.24H1885.09V487.882Z" fill="#4EADF2"/>
<path d="M1643.71 466.073H1596.1V619H1643.71V466.073Z" fill="#1291EE"/>
<path d="M1647.26 466.979H1592.54V468.53H1647.26V466.979Z" fill="#1291EE"/>
<path d="M1645.78 488.466H1594.02V490.007H1645.78V488.466Z" fill="#1291EE"/>
<path d="M1645.78 509.269H1594.02V510.809H1645.78V509.269Z" fill="#1291EE"/>
<path d="M1645.78 530.071H1594.02V531.612H1645.78V530.071Z" fill="#1291EE"/>
<path d="M1645.78 550.874H1594.02V552.414H1645.78V550.874Z" fill="#1291EE"/>
<path d="M1645.78 571.676H1594.02V573.217H1645.78V571.676Z" fill="#1291EE"/>
<path d="M1645.78 592.479H1594.02V594.019H1645.78V592.479Z" fill="#1291EE"/>
<path d="M1649.07 462.76H1590.73V466.989H1649.07V462.76Z" fill="#1291EE"/>
<path opacity="0.29" d="M1605.33 473.554H1600.38V485.768H1605.33V473.554Z" fill="#1291EE"/>
<path d="M1616.4 473.554H1611.45V485.768H1616.4V473.554Z" fill="#1291EE"/>
<path d="M1627.46 473.554H1622.51V485.768H1627.46V473.554Z" fill="#1291EE"/>
<path d="M1638.52 473.554H1633.57V485.768H1638.52V473.554Z" fill="#1291EE"/>
<path d="M1605.33 493.531H1600.38V505.745H1605.33V493.531Z" fill="#1291EE"/>
<path opacity="0.29" d="M1616.4 493.531H1611.45V505.745H1616.4V493.531Z" fill="#1291EE"/>
<path d="M1627.46 493.531H1622.51V505.745H1627.46V493.531Z" fill="#1291EE"/>
<path d="M1638.52 493.531H1633.57V505.745H1638.52V493.531Z" fill="#1291EE"/>
<path d="M1605.33 514.333H1600.38V526.547H1605.33V514.333Z" fill="#1291EE"/>
<path d="M1616.4 514.333H1611.45V526.547H1616.4V514.333Z" fill="#1291EE"/>
<path d="M1627.46 514.333H1622.51V526.547H1627.46V514.333Z" fill="#1291EE"/>
<path opacity="0.29" d="M1638.52 514.333H1633.57V526.547H1638.52V514.333Z" fill="#1291EE"/>
<path d="M1605.33 535.136H1600.38V547.35H1605.33V535.136Z" fill="#1291EE"/>
<path opacity="0.29" d="M1616.4 535.136H1611.45V547.35H1616.4V535.136Z" fill="#1291EE"/>
<path opacity="0.29" d="M1627.46 535.136H1622.51V547.35H1627.46V535.136Z" fill="#1291EE"/>
<path d="M1638.52 535.136H1633.57V547.35H1638.52V535.136Z" fill="#1291EE"/>
<path opacity="0.29" d="M1605.33 555.938H1600.38V568.152H1605.33V555.938Z" fill="#1291EE"/>
<path d="M1616.4 555.938H1611.45V568.152H1616.4V555.938Z" fill="#1291EE"/>
<path d="M1627.46 555.938H1622.51V568.152H1627.46V555.938Z" fill="#1291EE"/>
<path d="M1638.52 555.938H1633.57V568.152H1638.52V555.938Z" fill="#1291EE"/>
<path d="M1605.33 576.741H1600.38V588.954H1605.33V576.741Z" fill="#1291EE"/>
<path d="M1616.4 576.741H1611.45V588.954H1616.4V576.741Z" fill="#1291EE"/>
<path opacity="0.29" d="M1627.46 576.741H1622.51V588.954H1627.46V576.741Z" fill="#1291EE"/>
<path d="M1638.52 576.741H1633.57V588.954H1638.52V576.741Z" fill="#1291EE"/>
<path d="M1605.33 597.543H1600.38V609.757H1605.33V597.543Z" fill="#1291EE"/>
<path opacity="0.29" d="M1616.4 597.543H1611.45V609.757H1616.4V597.543Z" fill="#1291EE"/>
<path d="M1627.46 597.543H1622.51V609.757H1627.46V597.543Z" fill="#1291EE"/>
<path opacity="0.29" d="M1638.52 597.543H1633.57V609.757H1638.52V597.543Z" fill="#1291EE"/>
<path d="M1615.3 456.931H1599.1V464.875H1615.3V456.931Z" fill="#1291EE"/>
<path d="M1616.4 456.699H1598.01V458.058H1616.4V456.699Z" fill="#1291EE"/>
<path d="M1527.86 619H1464.45V473.705L1527.86 458.24V619Z" fill="#1291EE"/>
<path d="M1467.23 471.148H1461.66V619.01H1467.23V471.148Z" fill="#1291EE"/>
<path d="M1483.09 466.979H1477.51V619H1483.09V466.979Z" fill="#1291EE"/>
<path d="M1498.93 462.65H1493.37V619H1498.93V462.65Z" fill="#1291EE"/>
<path d="M1514.8 459.126H1509.23V619H1514.8V459.126Z" fill="#1291EE"/>
<path d="M1530.65 455.37H1525.08V619H1530.65V455.37Z" fill="#1291EE"/>
<path opacity="0.29" d="M1476.07 483.553H1468.67V494.78H1476.07V483.553Z" fill="#1291EE"/>
<path opacity="0.29" d="M1491.93 483.553H1484.54V494.78H1491.93V483.553Z" fill="#1291EE"/>
<path d="M1507.78 483.553H1500.39V494.78H1507.78V483.553Z" fill="#1291EE"/>
<path opacity="0.29" d="M1523.64 483.553H1516.24V494.78H1523.64V483.553Z" fill="#1291EE"/>
<path d="M1476.07 503.107H1468.67V514.334H1476.07V503.107Z" fill="#1291EE"/>
<path d="M1491.93 503.107H1484.54V514.334H1491.93V503.107Z" fill="#1291EE"/>
<path opacity="0.29" d="M1507.78 503.107H1500.39V514.334H1507.78V503.107Z" fill="#1291EE"/>
<path opacity="0.29" d="M1523.64 503.107H1516.24V514.334H1523.64V503.107Z" fill="#1291EE"/>
<path opacity="0.29" d="M1476.07 522.661H1468.67V533.887H1476.07V522.661Z" fill="#1291EE"/>
<path opacity="0.29" d="M1491.93 522.661H1484.54V533.887H1491.93V522.661Z" fill="#1291EE"/>
<path opacity="0.29" d="M1507.78 522.661H1500.39V533.887H1507.78V522.661Z" fill="#1291EE"/>
<path d="M1523.64 522.661H1516.24V533.887H1523.64V522.661Z" fill="#1291EE"/>
<path opacity="0.29" d="M1476.07 542.204H1468.67V553.431H1476.07V542.204Z" fill="#1291EE"/>
<path d="M1491.93 542.204H1484.54V553.431H1491.93V542.204Z" fill="#1291EE"/>
<path opacity="0.29" d="M1507.78 542.204H1500.39V553.431H1507.78V542.204Z" fill="#1291EE"/>
<path opacity="0.29" d="M1523.64 542.204H1516.24V553.431H1523.64V542.204Z" fill="#1291EE"/>
<path opacity="0.29" d="M1476.07 561.758H1468.67V572.985H1476.07V561.758Z" fill="#1291EE"/>
<path opacity="0.29" d="M1491.93 561.758H1484.54V572.985H1491.93V561.758Z" fill="#1291EE"/>
<path d="M1507.78 561.758H1500.39V572.985H1507.78V561.758Z" fill="#1291EE"/>
<path opacity="0.29" d="M1523.64 561.758H1516.24V572.985H1523.64V561.758Z" fill="#1291EE"/>
<path d="M1476.07 581.312H1468.67V592.539H1476.07V581.312Z" fill="#1291EE"/>
<path d="M1491.93 581.312H1484.54V592.539H1491.93V581.312Z" fill="#1291EE"/>
<path opacity="0.29" d="M1507.78 581.312H1500.39V592.539H1507.78V581.312Z" fill="#1291EE"/>
<path opacity="0.29" d="M1523.64 581.312H1516.24V592.539H1523.64V581.312Z" fill="#1291EE"/>
<path opacity="0.29" d="M1476.07 600.866H1468.67V612.093H1476.07V600.866Z" fill="#1291EE"/>
<path d="M1491.93 600.866H1484.54V612.093H1491.93V600.866Z" fill="#1291EE"/>
<path opacity="0.29" d="M1507.78 600.866H1500.39V612.093H1507.78V600.866Z" fill="#1291EE"/>
<path d="M1523.64 600.866H1516.24V612.093H1523.64V600.866Z" fill="#1291EE"/>
<path d="M1283.55 480.663V482.173H1282.03V486.473H1308.57V619H1265.03V493.38V486.473V482.173H1263.45V480.663H1283.55Z" fill="#1291EE"/>
<path d="M1395.03 540.865H1357.73V619.01H1395.03V540.865Z" fill="#1291EE"/>
<path d="M1225.48 522.953H1195.16V619.01H1225.48V522.953Z" fill="#1291EE"/>
<path d="M1252.51 542.96H1219.47V619H1252.51V542.96Z" fill="#1291EE"/>
<path d="M1219.48 519.096H1206.07V530.595H1219.48V519.096Z" fill="#1291EE"/>
<path d="M1256.96 541.711H1221.74V544.52H1256.96V541.711Z" fill="#1291EE"/>
<path d="M1286 575.573H1248.96V619H1286V575.573Z" fill="#1291EE"/>
<path d="M1159.37 540.251H1129.25V619H1159.37V540.251Z" fill="#1291EE"/>
<path d="M1142.73 579.5H1103.1V619H1142.73V579.5Z" fill="#1291EE"/>
<path d="M1084.24 573.035H1059.45V619H1084.24V573.035Z" fill="#1291EE"/>
<path d="M1138.03 604.602H1079.42V619H1138.03V604.602Z" fill="#1291EE"/>
<path d="M1067.04 599.95H1037V619H1067.04V599.95Z" fill="#1291EE"/>
<path d="M1206.06 589.941H1159.37V619H1206.06V589.941Z" fill="#1291EE"/>
<path d="M1369.08 606.484H1296.35V619H1369.08V606.484Z" fill="#1291EE"/>
<path d="M1498.03 606.484H1425.3V619H1498.03V606.484Z" fill="#1291EE"/>
<path d="M1366.24 569.723H1338.6L1326.91 612.737H1366.24V569.723Z" fill="#1291EE"/>
<path d="M1379.79 507.134H1379.03V554.851H1379.79V507.134Z" fill="#1291EE"/>
<path d="M1383.91 523.285H1382.87V551.448H1383.91V523.285Z" fill="#1291EE"/>
<path d="M1391.35 528.269H1377.37V542.204H1391.35V528.269Z" fill="#1291EE"/>
<path d="M1393.52 527.192H1375V528.44H1393.52V527.192Z" fill="#1291EE"/>
<path d="M1433.43 578.694H1388.24V619H1433.43V578.694Z" fill="#1291EE"/>
<path d="M1453.82 534.33H1424.78V612.093H1453.82V534.33Z" fill="#1291EE"/>
<path d="M1584.57 548.951H1538.19V619H1584.57V548.951Z" fill="#1291EE"/>
<path d="M1576.53 593.193H1523.64V619.01H1576.53V593.193Z" fill="#1291EE"/>
<path d="M1616.4 609.767H1582.01V619.01H1616.4V609.767Z" fill="#1291EE"/>
<path d="M1690.89 593.193H1634.98V619.01H1690.89V593.193Z" fill="#1291EE"/>
<path d="M1657.25 619H1726.83V525.611H1657.25V619Z" fill="#1291EE"/>
<path d="M1655.46 525.611H1730.89V522.026H1655.46V525.611Z" fill="#1291EE"/>
<path d="M1693.17 531.239H1723.75V512.3H1693.17V531.239Z" fill="#1291EE"/>
<path d="M1678.05 523.818H1683.18V512.3H1678.05V523.818Z" fill="#1291EE"/>
<path d="M1667.26 523.818H1672.91V512.3H1667.26V523.818Z" fill="#1291EE"/>
<path d="M1774.67 619H1829.74V482.606H1774.67V619Z" fill="#1291EE"/>
<path d="M1773.09 484.107H1831.3V480.25H1773.09V484.107Z" fill="#1291EE"/>
<path d="M1776.51 493.642H1827.89V475.317H1776.51V493.642Z" fill="#1291EE"/>
<path d="M1803.61 487.842H1823.96V467.825H1803.61V487.842Z" fill="#1291EE"/>
<path d="M1812.18 473.474H1823.96V462.932H1815.51L1812.18 473.474Z" fill="#1291EE"/>
<path d="M1818.06 477.652H1819.21V454.172H1818.06V477.652Z" fill="#1291EE"/>
<path d="M1817.62 452.963C1817.66 453.148 1817.75 453.318 1817.88 453.454C1818.02 453.589 1818.18 453.685 1818.37 453.73C1818.55 453.775 1818.75 453.767 1818.93 453.707C1819.11 453.648 1819.27 453.539 1819.39 453.393C1819.51 453.247 1819.59 453.071 1819.61 452.883C1819.63 452.696 1819.61 452.505 1819.53 452.333C1819.45 452.161 1819.32 452.015 1819.16 451.911C1819.01 451.807 1818.82 451.749 1818.63 451.745C1818.34 451.776 1818.06 451.921 1817.88 452.148C1817.69 452.376 1817.59 452.669 1817.62 452.963Z" fill="#1291EE"/>
<path d="M1846.85 562.695H1822.2V619H1846.85V562.695Z" fill="#1291EE"/>
<path d="M1780.1 535.237H1751.99V619H1780.1V535.237Z" fill="#1291EE"/>
<path d="M1766.06 619H1726.46V574.203L1759.88 588.954L1766.06 619Z" fill="#1291EE"/>
<path d="M1899.23 594.674H1838.76V619H1899.23V594.674Z" fill="#1291EE"/>
<path d="M1912.02 521.875H1876.89V619H1912.02V521.875Z" fill="#1291EE"/>
<path d="M1962 600.866H1903.8V619H1962V600.866Z" fill="#1291EE"/>
<path d="M1913.62 520.093H1875.09V523.275H1913.62V520.093Z" fill="#1291EE"/>
<path d="M1907.31 506.389H1906.54V525.963H1907.31V506.389Z" fill="#1291EE"/>
<path d="M1902.18 508.866H1901.41V524.564H1902.18V508.866Z" fill="#1291EE"/>
<path d="M1925.02 558.466H1909.36V602.96H1931.7L1925.02 558.466Z" fill="#1291EE"/>
</g>
<defs>
<clipPath id="clip0">
<rect width="925" height="298" fill="white" transform="translate(1037 321)"/>
</clipPath>
</defs>
</svg>
