<svg width="76" height="70" viewBox="0 0 76 70" fill="none" xmlns="http://www.w3.org/2000/svg">
<path d="M35.5625 67.9062H27.0312V53.2812H35.5625V67.9062Z" fill="#57A4FF"/>
<path d="M48.9688 44.75H27.0312V38.6562H48.9688V44.75Z" fill="#57A4FF"/>
<path d="M48.9688 59.375H39.2188V53.2812H48.9688V59.375Z" fill="#57A4FF"/>
<path d="M18.5 50.8435C18.4998 52.1326 18.1589 53.3988 17.5116 54.5137C16.8644 55.6286 15.934 56.5526 14.8146 57.192C13.6953 57.8315 12.4267 58.1636 11.1376 58.1548C9.84854 58.146 8.58467 57.7966 7.47412 57.142C6.36358 56.4873 5.44583 55.5507 4.81388 54.4271C4.18194 53.3035 3.85827 52.0328 3.87567 50.7438C3.89307 49.4548 4.25092 48.1933 4.91296 47.0871C5.575 45.981 6.5177 45.0695 7.64551 44.4451C6.99098 43.7529 6.55356 42.8842 6.38732 41.9462C6.22107 41.0083 6.33327 40.0421 6.71006 39.1672C7.08685 38.2923 7.71171 37.5469 8.50744 37.0232C9.30317 36.4996 10.2349 36.2205 11.1875 36.2205C12.1401 36.2205 13.0718 36.4996 13.8676 37.0232C14.6633 37.5469 15.2882 38.2923 15.6649 39.1672C16.0417 40.0421 16.1539 41.0083 15.9877 41.9462C15.8214 42.8842 15.384 43.7529 14.7295 44.4451C15.8725 45.0773 16.8251 46.0043 17.4882 47.1296C18.1514 48.2549 18.5007 49.5373 18.5 50.8435Z" fill="#57A4FF"/>
<path d="M72.125 50.8435C72.1248 52.1326 71.7839 53.3988 71.1367 54.5137C70.4895 55.6286 69.559 56.5526 68.4396 57.192C67.3203 57.8315 66.0518 58.1636 64.7627 58.1548C63.4735 58.146 62.2097 57.7966 61.0991 57.142C59.9886 56.4873 59.0708 55.5507 58.4389 54.4271C57.8069 53.3035 57.4833 52.0328 57.5007 50.7438C57.5181 49.4548 57.8759 48.1933 58.538 47.0871C59.2 45.981 60.1427 45.0695 61.2705 44.4451C60.616 43.7529 60.1786 42.8842 60.0123 41.9462C59.8461 41.0083 59.9583 40.0421 60.3351 39.1672C60.7118 38.2923 61.3367 37.5469 62.1324 37.0232C62.9282 36.4996 63.8599 36.2205 64.8125 36.2205C65.7651 36.2205 66.6968 36.4996 67.4926 37.0232C68.2883 37.5469 68.9132 38.2923 69.29 39.1672C69.6667 40.0421 69.7789 41.0083 69.6127 41.9462C69.4464 42.8842 69.009 43.7529 68.3545 44.4451C69.4975 45.0773 70.4501 46.0043 71.1132 47.1296C71.7764 48.2549 72.1257 49.5373 72.125 50.8435Z" fill="#57A4FF"/>
<path d="M69.6875 66.6872H66.0312V59.2862C67.683 59.0477 69.2286 58.3299 70.4765 57.2218C71.7244 56.1137 72.6199 54.6639 73.0521 53.0519C73.4843 51.4399 73.4342 49.7366 72.9081 48.1528C72.3819 46.569 71.4027 45.1743 70.0918 44.1414C70.6259 43.215 70.9068 42.1644 70.9062 41.095C70.9057 40.0257 70.6238 38.9753 70.0888 38.0494C69.5539 37.1235 68.7847 36.3547 67.8585 35.8201C66.9324 35.2856 65.8818 35.0042 64.8125 35.0042C63.7432 35.0042 62.6926 35.2856 61.7665 35.8201C60.8403 36.3547 60.0711 37.1235 59.5361 38.0494C59.0012 38.9753 58.7193 40.0257 58.7187 41.095C58.7182 42.1644 58.9991 43.215 59.5332 44.1414C58.2223 45.1743 57.2431 46.569 56.7169 48.1528C56.1907 49.7366 56.1406 51.4399 56.5728 53.0519C57.005 54.6639 57.9005 56.1137 59.1485 57.2218C60.3964 58.3299 61.942 59.0477 63.5937 59.2862V61.059L60.4826 59.5035C60.3393 59.4304 60.1829 59.3864 60.0226 59.3741C59.8622 59.3617 59.701 59.3813 59.5482 59.4315C59.3954 59.4818 59.254 59.5618 59.1323 59.6669C59.0106 59.7721 58.9109 59.9003 58.8389 60.0441C58.767 60.188 58.7243 60.3447 58.7132 60.5051C58.7021 60.6656 58.7228 60.8267 58.7743 60.9791C58.8257 61.1315 58.9068 61.2722 59.0129 61.3931C59.119 61.514 59.248 61.6127 59.3924 61.6835L63.5937 63.7842V66.6872H53.8437V30.1247C53.8437 29.9241 53.7942 29.7266 53.6995 29.5497C53.6049 29.3728 53.468 29.222 53.3011 29.1107L38.6761 19.3607C38.4759 19.2272 38.2406 19.156 38 19.156C37.7594 19.156 37.5241 19.2272 37.3239 19.3607L22.6989 29.1107C22.532 29.222 22.3951 29.3728 22.3004 29.5497C22.2058 29.7266 22.1563 29.9241 22.1562 30.1247V66.6872H12.4062V59.2862C14.058 59.0477 15.6036 58.3299 16.8515 57.2218C18.0994 56.1137 18.995 54.6639 19.4272 53.0519C19.8594 51.4399 19.8093 49.7366 19.2831 48.1528C18.7569 46.569 17.7777 45.1743 16.4668 44.1414C17.0009 43.215 17.2818 42.1644 17.2812 41.095C17.2807 40.0257 16.9988 38.9753 16.4639 38.0494C15.9289 37.1235 15.1597 36.3547 14.2335 35.8201C13.3074 35.2856 12.2568 35.0042 11.1875 35.0042C10.1182 35.0042 9.06764 35.2856 8.14148 35.8201C7.21532 36.3547 6.44612 37.1235 5.91115 38.0494C5.37618 38.9753 5.09427 40.0257 5.09375 41.095C5.09323 42.1644 5.37411 43.215 5.90818 44.1414C4.59728 45.1743 3.61811 46.569 3.09193 48.1528C2.56574 49.7366 2.51565 51.4399 2.94785 53.0519C3.38004 54.6639 4.27555 56.1137 5.52349 57.2218C6.77142 58.3299 8.31697 59.0477 9.96875 59.2862V61.059L6.85758 59.5035C6.71429 59.4304 6.55794 59.3864 6.39757 59.3741C6.2372 59.3617 6.07597 59.3813 5.92317 59.4315C5.77038 59.4818 5.62905 59.5618 5.50732 59.6669C5.3856 59.7721 5.28589 59.9003 5.21395 60.0441C5.14201 60.188 5.09925 60.3447 5.08815 60.5051C5.07706 60.6656 5.09783 60.8267 5.14928 60.9791C5.20073 61.1315 5.28184 61.2722 5.38793 61.3931C5.49402 61.514 5.62299 61.6127 5.76741 61.6835L9.96875 63.7842V66.6872H1.4375C1.11427 66.6872 0.804273 66.8156 0.575714 67.0442C0.347154 67.2728 0.21875 67.5828 0.21875 67.906C0.21875 68.2292 0.347154 68.5392 0.575714 68.7678C0.804273 68.9963 1.11427 69.1247 1.4375 69.1247H69.6875C70.0107 69.1247 70.3207 68.9963 70.5493 68.7678C70.7778 68.5392 70.9062 68.2292 70.9062 67.906C70.9062 67.5828 70.7778 67.2728 70.5493 67.0442C70.3207 66.8156 70.0107 66.6872 69.6875 66.6872ZM58.7187 50.8435C58.7193 49.7552 59.0109 48.6869 59.5635 47.7493C60.1161 46.8117 60.9094 46.0391 61.8613 45.5115C62.024 45.4214 62.164 45.2952 62.2704 45.1427C62.3769 44.9902 62.447 44.8153 62.4754 44.6315C62.5039 44.4477 62.4899 44.2598 62.4345 44.0823C62.3791 43.9047 62.2838 43.7422 62.1559 43.6072C61.6651 43.0881 61.337 42.4365 61.2123 41.733C61.0877 41.0296 61.1718 40.305 61.4544 39.6488C61.737 38.9926 62.2057 38.4336 62.8025 38.0409C63.3993 37.6481 64.0981 37.4388 64.8125 37.4388C65.5269 37.4388 66.2257 37.6481 66.8225 38.0409C67.4193 38.4336 67.888 38.9926 68.1706 39.6488C68.4532 40.305 68.5373 41.0296 68.4126 41.733C68.288 42.4365 67.9599 43.0881 67.4691 43.6072C67.3412 43.7422 67.2459 43.9047 67.1905 44.0823C67.1351 44.2598 67.1211 44.4477 67.1496 44.6315C67.178 44.8153 67.2481 44.9902 67.3546 45.1427C67.461 45.2952 67.601 45.4214 67.7637 45.5115C68.854 46.115 69.733 47.0382 70.2824 48.1567C70.8318 49.2753 71.0251 50.5353 70.8363 51.7671C70.6476 52.9989 70.0857 54.1432 69.2266 55.0458C68.3674 55.9485 67.2522 56.566 66.0312 56.8154V52.0622C66.0312 51.739 65.9028 51.429 65.6743 51.2004C65.4457 50.9719 65.1357 50.8435 64.8125 50.8435C64.4893 50.8435 64.1793 50.9719 63.9507 51.2004C63.7221 51.429 63.5937 51.739 63.5937 52.0622V56.8154C62.2182 56.5326 60.9823 55.7842 60.0942 54.6964C59.2062 53.6085 58.7204 52.2478 58.7187 50.8435ZM5.09375 50.8435C5.09427 49.7552 5.38594 48.6869 5.93852 47.7493C6.4911 46.8117 7.28445 46.0391 8.2363 45.5115C8.39902 45.4214 8.53897 45.2952 8.64542 45.1427C8.75187 44.9902 8.822 44.8153 8.85044 44.6315C8.87888 44.4477 8.86487 44.2598 8.80949 44.0823C8.75411 43.9047 8.65882 43.7422 8.53093 43.6072C8.04005 43.0881 7.71201 42.4365 7.58735 41.733C7.46268 41.0296 7.54684 40.305 7.82944 39.6488C8.11204 38.9926 8.58068 38.4336 9.17748 38.0409C9.77427 37.6481 10.4731 37.4388 11.1875 37.4388C11.9019 37.4388 12.6007 37.6481 13.1975 38.0409C13.7943 38.4336 14.263 38.9926 14.5456 39.6488C14.8282 40.305 14.9123 41.0296 14.7877 41.733C14.663 42.4365 14.3349 43.0881 13.8441 43.6072C13.7162 43.7422 13.6209 43.9047 13.5655 44.0823C13.5101 44.2598 13.4961 44.4477 13.5246 44.6315C13.553 44.8153 13.6231 44.9902 13.7296 45.1427C13.836 45.2952 13.976 45.4214 14.1387 45.5115C15.229 46.115 16.108 47.0382 16.6574 48.1567C17.2068 49.2753 17.4001 50.5353 17.2114 51.7671C17.0226 52.9989 16.4607 54.1432 15.6016 55.0458C14.7424 55.9485 13.6272 56.566 12.4062 56.8154V52.0622C12.4062 51.739 12.2778 51.429 12.0493 51.2004C11.8207 50.9719 11.5107 50.8435 11.1875 50.8435C10.8643 50.8435 10.5543 50.9719 10.3257 51.2004C10.0972 51.429 9.96875 51.739 9.96875 52.0622V56.8154C8.59323 56.5326 7.35727 55.7842 6.46924 54.6964C5.5812 53.6085 5.09541 52.2478 5.09375 50.8435ZM28.25 66.6872V54.4997H34.3437V66.6872H28.25ZM36.7812 66.6872V53.281C36.7812 52.9578 36.6528 52.6478 36.4243 52.4192C36.1957 52.1906 35.8857 52.0622 35.5625 52.0622H27.0312C26.708 52.0622 26.398 52.1906 26.1695 52.4192C25.9409 52.6478 25.8125 52.9578 25.8125 53.281V66.6872H24.5937V30.7769L38 21.8395L51.4062 30.7769V66.6872H36.7812Z" fill="#004FAC"/>
<path d="M74.5625 66.6875H73.3438C73.0205 66.6875 72.7105 66.8159 72.482 67.0445C72.2534 67.273 72.125 67.583 72.125 67.9062C72.125 68.2295 72.2534 68.5395 72.482 68.768C72.7105 68.9966 73.0205 69.125 73.3438 69.125H74.5625C74.8857 69.125 75.1957 68.9966 75.4243 68.768C75.6528 68.5395 75.7812 68.2295 75.7812 67.9062C75.7812 67.583 75.6528 67.273 75.4243 67.0445C75.1957 66.8159 74.8857 66.6875 74.5625 66.6875Z" fill="#004FAC"/>
<path d="M48.9688 37.4375H27.0312C26.708 37.4375 26.398 37.5659 26.1695 37.7945C25.9409 38.023 25.8125 38.333 25.8125 38.6562V44.75C25.8125 45.0732 25.9409 45.3832 26.1695 45.6118C26.398 45.8403 26.708 45.9688 27.0312 45.9688H48.9688C49.292 45.9688 49.602 45.8403 49.8305 45.6118C50.0591 45.3832 50.1875 45.0732 50.1875 44.75V38.6562C50.1875 38.333 50.0591 38.023 49.8305 37.7945C49.602 37.5659 49.292 37.4375 48.9688 37.4375ZM47.75 43.5312H28.25V39.875H47.75V43.5312Z" fill="#004FAC"/>
<path d="M48.9688 52.0625H39.2188C38.8955 52.0625 38.5855 52.1909 38.357 52.4195C38.1284 52.648 38 52.958 38 53.2812V59.375C38 59.6982 38.1284 60.0082 38.357 60.2368C38.5855 60.4653 38.8955 60.5938 39.2188 60.5938H48.9688C49.292 60.5938 49.602 60.4653 49.8305 60.2368C50.0591 60.0082 50.1875 59.6982 50.1875 59.375V53.2812C50.1875 52.958 50.0591 52.648 49.8305 52.4195C49.602 52.1909 49.292 52.0625 48.9688 52.0625ZM47.75 58.1562H40.4375V54.5H47.75V58.1562Z" fill="#004FAC"/>
<path d="M11.7967 15.4999H30.0779C31.2092 15.4999 32.2942 15.0505 33.0942 14.2505C33.8941 13.4506 34.3436 12.3656 34.3436 11.2343C34.3436 10.103 33.8941 9.01798 33.0942 8.21802C32.2942 7.41806 31.2092 6.96865 30.0779 6.96865H26.117C25.8287 5.26464 24.9463 3.71779 23.6262 2.60238C22.3061 1.48698 20.6337 0.875098 18.9054 0.875244C17.1772 0.87539 15.5049 1.48755 14.185 2.60318C12.8651 3.71881 11.9829 5.26581 11.6949 6.96987C10.5728 6.9967 9.50642 7.46475 8.72707 8.27254C7.94771 9.08034 7.51816 10.1628 7.53155 11.2852C7.54494 12.4075 8.00019 13.4794 8.7986 14.2684C9.597 15.0574 10.6742 15.4998 11.7967 15.4999ZM10.5031 9.9427C10.6726 9.77227 10.8742 9.63711 11.0962 9.54502C11.3183 9.45293 11.5563 9.40573 11.7967 9.40615H12.8124C13.1356 9.40615 13.4456 9.27774 13.6741 9.04918C13.9027 8.82062 14.0311 8.51063 14.0311 8.1874C14.0311 6.89447 14.5447 5.65449 15.459 4.74025C16.3732 3.82601 17.6132 3.3124 18.9061 3.3124C20.199 3.3124 21.439 3.82601 22.3532 4.74025C23.2675 5.65449 23.7811 6.89447 23.7811 8.1874C23.7811 8.51063 23.9095 8.82062 24.1381 9.04918C24.3666 9.27774 24.6766 9.40615 24.9999 9.40615H30.0779C30.5628 9.40615 31.0278 9.59875 31.3706 9.94159C31.7134 10.2844 31.9061 10.7494 31.9061 11.2343C31.9061 11.7191 31.7134 12.1841 31.3706 12.527C31.0278 12.8698 30.5628 13.0624 30.0779 13.0624H11.7967C11.4353 13.0623 11.082 12.9552 10.7814 12.7544C10.4809 12.5537 10.2466 12.2683 10.1082 11.9345C9.96978 11.6006 9.93341 11.2332 10.0037 10.8787C10.074 10.5242 10.2478 10.1985 10.5031 9.9427Z" fill="#004FAC"/>
<path d="M11.1875 49.625C11.5107 49.625 11.8207 49.4966 12.0493 49.268C12.2778 49.0395 12.4062 48.7295 12.4062 48.4062V47.1875C12.4062 46.8643 12.2778 46.5543 12.0493 46.3257C11.8207 46.0972 11.5107 45.9688 11.1875 45.9688C10.8643 45.9688 10.5543 46.0972 10.3257 46.3257C10.0972 46.5543 9.96875 46.8643 9.96875 47.1875V48.4062C9.96875 48.7295 10.0972 49.0395 10.3257 49.268C10.5543 49.4966 10.8643 49.625 11.1875 49.625Z" fill="#004FAC"/>
<path d="M64.8125 49.625C65.1357 49.625 65.4457 49.4966 65.6743 49.268C65.9028 49.0395 66.0312 48.7295 66.0312 48.4062V47.1875C66.0312 46.8643 65.9028 46.5543 65.6743 46.3257C65.4457 46.0972 65.1357 45.9688 64.8125 45.9688C64.4893 45.9688 64.1793 46.0972 63.9507 46.3257C63.7222 46.5543 63.5938 46.8643 63.5938 47.1875V48.4062C63.5938 48.7295 63.7222 49.0395 63.9507 49.268C64.1793 49.4966 64.4893 49.625 64.8125 49.625Z" fill="#004FAC"/>
</svg>
