<svg width="76" height="72" viewBox="0 0 76 72" fill="none" xmlns="http://www.w3.org/2000/svg">
<path d="M17.2813 53.0625C17.2811 54.3516 16.9401 55.6178 16.2929 56.7327C15.6457 57.8476 14.7153 58.7716 13.5959 59.411C12.4765 60.0504 11.208 60.3826 9.91889 60.3738C8.62979 60.365 7.36592 60.0156 6.25537 59.361C5.14482 58.7063 4.22707 57.7697 3.59513 56.6461C2.96319 55.5225 2.63952 54.2518 2.65692 52.9628C2.67432 51.6738 3.03217 50.4123 3.69421 49.3061C4.35625 48.2 5.29895 47.2885 6.42676 46.6641C5.77223 45.9719 5.33481 45.1032 5.16856 44.1652C5.00232 43.2273 5.11452 42.2611 5.49131 41.3862C5.8681 40.5113 6.49296 39.7659 7.28869 39.2422C8.08442 38.7185 9.01615 38.4395 9.96875 38.4395C10.9214 38.4395 11.8531 38.7185 12.6488 39.2422C13.4445 39.7659 14.0694 40.5113 14.4462 41.3862C14.823 42.2611 14.9352 43.2273 14.7689 44.1652C14.6027 45.1032 14.1653 45.9719 13.5107 46.6641C14.6537 47.2963 15.6063 48.2233 16.2695 49.3486C16.9326 50.4739 17.282 51.7563 17.2813 53.0625Z" fill="#57A4FF"/>
<path d="M53.8438 64.0312C57.2092 64.0312 59.9375 61.303 59.9375 57.9375C59.9375 54.572 57.2092 51.8438 53.8438 51.8438C50.4783 51.8438 47.75 54.572 47.75 57.9375C47.75 61.303 50.4783 64.0312 53.8438 64.0312Z" fill="#57A4FF"/>
<path d="M67.25 64.0312C69.2693 64.0312 70.9062 62.3943 70.9062 60.375C70.9062 58.3557 69.2693 56.7188 67.25 56.7188C65.2307 56.7188 63.5938 58.3557 63.5938 60.375C63.5938 62.3943 65.2307 64.0312 67.25 64.0312Z" fill="#57A4FF"/>
<path d="M25.8125 55.5H40.4375V70.125H25.8125V55.5Z" fill="#57A4FF"/>
<path d="M25.8125 45.75H40.4375V51.8438H25.8125V45.75Z" fill="#57A4FF"/>
<path d="M25.8125 36H40.4375V42.0938H25.8125V36Z" fill="#57A4FF"/>
<path d="M25.8125 26.25H40.4375V32.3438H25.8125V26.25Z" fill="#57A4FF"/>
<path d="M69.6875 68.9064H68.4688V65.0959C69.6176 64.7992 70.6189 64.0938 71.2848 63.1117C71.9507 62.1297 72.2357 60.9385 72.0861 59.7614C71.9366 58.5843 71.363 57.5022 70.4727 56.7178C69.5824 55.9334 68.4365 55.5007 67.25 55.5007C66.0635 55.5007 64.9176 55.9334 64.0273 56.7178C63.137 57.5022 62.5634 58.5843 62.4139 59.7614C62.2643 60.9385 62.5493 62.1297 63.2152 63.1117C63.8811 64.0938 64.8824 64.7992 66.0312 65.0959V68.9064H55.0625V65.1468C56.8704 64.8412 58.4975 63.8675 59.6214 62.4189C60.7453 60.9702 61.284 59.1521 61.1306 57.325C60.9773 55.4979 60.1432 53.7951 58.7935 52.554C57.4439 51.3128 55.6773 50.624 53.8438 50.624C52.0102 50.624 50.2436 51.3128 48.894 52.554C47.5443 53.7951 46.7102 55.4979 46.5569 57.325C46.4035 59.1521 46.9422 60.9702 48.0661 62.4189C49.19 63.8675 50.8171 64.8412 52.625 65.1468V68.9064H45.3125V11.6252C45.3125 11.3884 45.2435 11.1567 45.114 10.9585C44.9844 10.7603 44.7999 10.6041 44.583 10.509C44.3662 10.414 44.1263 10.3841 43.8927 10.4232C43.6592 10.4622 43.442 10.5685 43.2679 10.729C36.6531 16.8244 29.7344 19.9083 22.1165 20.1571C21.8003 20.1674 21.5005 20.3002 21.2805 20.5276C21.0605 20.7549 20.9375 21.0588 20.9375 21.3752V68.9064H11.1875V61.5054C12.8393 61.2669 14.3848 60.5491 15.6328 59.441C16.8807 58.3329 17.7762 56.8831 18.2084 55.2711C18.6406 53.6591 18.5905 51.9558 18.0643 50.372C17.5381 48.7882 16.559 47.3935 15.2481 46.3606C15.7821 45.4342 16.063 44.3836 16.0625 43.3142C16.062 42.2449 15.7801 41.1945 15.2451 40.2686C14.7101 39.3427 13.9409 38.5739 13.0148 38.0394C12.0886 37.5048 11.0381 37.2234 9.96875 37.2234C8.89941 37.2234 7.8489 37.5048 6.92273 38.0394C5.99657 38.5739 5.22737 39.3427 4.6924 40.2686C4.15743 41.1945 3.87552 42.2449 3.875 43.3142C3.87448 44.3836 4.15536 45.4342 4.68943 46.3606C3.37853 47.3935 2.39936 48.7882 1.87318 50.372C1.34699 51.9558 1.2969 53.6591 1.7291 55.2711C2.16129 56.8831 3.0568 58.3329 4.30474 59.441C5.55267 60.5491 7.09822 61.2669 8.75 61.5054V63.2783L5.63884 61.7227C5.49554 61.6496 5.3392 61.6056 5.17882 61.5933C5.01845 61.5809 4.85722 61.6005 4.70442 61.6507C4.55163 61.701 4.4103 61.781 4.28857 61.8861C4.16685 61.9913 4.06714 62.1195 3.9952 62.2633C3.92326 62.4072 3.8805 62.5639 3.86941 62.7243C3.85831 62.8848 3.87908 63.0459 3.93053 63.1983C3.98198 63.3507 4.06309 63.4914 4.16918 63.6123C4.27527 63.7332 4.40424 63.8319 4.54866 63.9027L8.75 66.0034V68.9064H1.4375C1.11427 68.9064 0.804273 69.0348 0.575714 69.2634C0.347154 69.492 0.21875 69.802 0.21875 70.1252C0.21875 70.4484 0.347154 70.7584 0.575714 70.987C0.804273 71.2155 1.11427 71.3439 1.4375 71.3439H69.6875C70.0107 71.3439 70.3207 71.2155 70.5493 70.987C70.7778 70.7584 70.9062 70.4484 70.9062 70.1252C70.9062 69.802 70.7778 69.492 70.5493 69.2634C70.3207 69.0348 70.0107 68.9064 69.6875 68.9064ZM64.8125 60.3752C64.8119 59.9472 64.9241 59.5266 65.1376 59.1557C65.3512 58.7847 65.6587 58.4766 66.0291 58.2622C66.3996 58.0478 66.82 57.9348 67.248 57.9344C67.676 57.9341 68.0965 58.0464 68.4673 58.2602C68.8381 58.4739 69.1461 58.7816 69.3603 59.1521C69.5745 59.5227 69.6874 59.9431 69.6875 60.3711C69.6876 60.7991 69.5751 61.2196 69.3611 61.5903C69.1472 61.961 68.8394 62.2689 68.4688 62.4829V60.3752C68.4688 60.052 68.3403 59.742 68.1118 59.5134C67.8832 59.2848 67.5732 59.1564 67.25 59.1564C66.9268 59.1564 66.6168 59.2848 66.3882 59.5134C66.1597 59.742 66.0312 60.052 66.0312 60.3752V62.4829C65.6612 62.2692 65.3538 61.962 65.1399 61.5921C64.926 61.2222 64.8131 60.8025 64.8125 60.3752ZM48.9688 57.9377C48.9688 57.0259 49.2246 56.1325 49.707 55.3588C50.1895 54.5851 50.8792 53.9622 51.6979 53.5609C52.5166 53.1595 53.4314 52.9958 54.3385 53.0883C55.2455 53.1809 56.1085 53.5259 56.8293 54.0843C57.55 54.6427 58.0998 55.392 58.4161 56.2472C58.7323 57.1023 58.8025 58.029 58.6184 58.922C58.4344 59.815 58.0037 60.6385 57.3751 61.299C56.7465 61.9595 55.9453 62.4304 55.0625 62.6584V57.9377C55.0625 57.6145 54.9341 57.3045 54.7055 57.0759C54.477 56.8473 54.167 56.7189 53.8438 56.7189C53.5205 56.7189 53.2105 56.8473 52.982 57.0759C52.7534 57.3045 52.625 57.6145 52.625 57.9377V62.6584C51.5792 62.3868 50.653 61.7761 49.9914 60.9219C49.3298 60.0677 48.9701 59.0182 48.9688 57.9377ZM3.875 53.0627C3.87552 51.9744 4.16719 50.9061 4.71977 49.9685C5.27235 49.0309 6.0657 48.2583 7.01755 47.7307C7.18027 47.6406 7.32022 47.5144 7.42667 47.3619C7.53312 47.2094 7.60325 47.0345 7.63169 46.8507C7.66013 46.6669 7.64612 46.4791 7.59074 46.3015C7.53536 46.1239 7.44007 45.9614 7.31218 45.8264C6.8213 45.3073 6.49326 44.6557 6.3686 43.9522C6.24393 43.2488 6.32809 42.5242 6.61069 41.868C6.89329 41.2118 7.36194 40.6528 7.95873 40.2601C8.55552 39.8673 9.25431 39.658 9.96875 39.658C10.6832 39.658 11.382 39.8673 11.9788 40.2601C12.5756 40.6528 13.0442 41.2118 13.3268 41.868C13.6094 42.5242 13.6936 43.2488 13.5689 43.9522C13.4442 44.6557 13.1162 45.3073 12.6253 45.8264C12.4974 45.9614 12.4021 46.1239 12.3468 46.3015C12.2914 46.4791 12.2774 46.6669 12.3058 46.8507C12.3342 47.0345 12.4044 47.2094 12.5108 47.3619C12.6173 47.5144 12.7572 47.6406 12.92 47.7307C14.0102 48.3342 14.8893 49.2574 15.4387 50.3759C15.9881 51.4945 16.1814 52.7545 15.9926 53.9863C15.8038 55.2181 15.242 56.3624 14.3828 57.265C13.5237 58.1677 12.4085 58.7853 11.1875 59.0346V54.2814C11.1875 53.9582 11.0591 53.6482 10.8305 53.4197C10.602 53.1911 10.292 53.0627 9.96875 53.0627C9.64552 53.0627 9.33552 53.1911 9.10696 53.4197C8.8784 53.6482 8.75 53.9582 8.75 54.2814V59.0346C7.37447 58.7518 6.13849 58.0035 5.25045 56.9156C4.36241 55.8278 3.87663 54.467 3.875 53.0627ZM27.0312 68.9064V56.7189H31.9062V68.9064H27.0312ZM34.3438 68.9064V56.7189H39.2188V68.9064H34.3438ZM41.6562 68.9064V55.5002C41.6562 55.177 41.5278 54.867 41.2993 54.6384C41.0707 54.4098 40.7607 54.2814 40.4375 54.2814H25.8125C25.4893 54.2814 25.1793 54.4098 24.9507 54.6384C24.7222 54.867 24.5938 55.177 24.5938 55.5002V68.9064H23.375V22.533C30.3536 22.0542 36.7646 19.3512 42.875 14.3065V68.9064H41.6562Z" fill="#004FAC"/>
<path d="M74.5625 68.9062H73.3438C73.0205 68.9062 72.7105 69.0347 72.482 69.2632C72.2534 69.4918 72.125 69.8018 72.125 70.125C72.125 70.4482 72.2534 70.7582 72.482 70.9868C72.7105 71.2153 73.0205 71.3438 73.3438 71.3438H74.5625C74.8857 71.3438 75.1957 71.2153 75.4243 70.9868C75.6528 70.7582 75.7812 70.4482 75.7812 70.125C75.7812 69.8018 75.6528 69.4918 75.4243 69.2632C75.1957 69.0347 74.8857 68.9062 74.5625 68.9062Z" fill="#004FAC"/>
<path d="M9.96875 51.8438C10.292 51.8438 10.602 51.7153 10.8305 51.4868C11.0591 51.2582 11.1875 50.9482 11.1875 50.625V49.4062C11.1875 49.083 11.0591 48.773 10.8305 48.5445C10.602 48.3159 10.292 48.1875 9.96875 48.1875C9.64552 48.1875 9.33552 48.3159 9.10696 48.5445C8.8784 48.773 8.75 49.083 8.75 49.4062V50.625C8.75 50.9482 8.8784 51.2582 9.10696 51.4868C9.33552 51.7153 9.64552 51.8438 9.96875 51.8438Z" fill="#004FAC"/>
<path d="M6.92217 15.2814H25.2034C26.3347 15.2814 27.4197 14.832 28.2197 14.032C29.0196 13.2321 29.469 12.1471 29.469 11.0158C29.469 9.88445 29.0196 8.79947 28.2197 7.99952C27.4197 7.19955 26.3347 6.75014 25.2034 6.75014H21.2425C20.9542 5.04614 20.0718 3.49928 18.7517 2.38388C17.4316 1.26847 15.7591 0.656592 14.0309 0.656738C12.3027 0.656884 10.6304 1.26905 9.31048 2.38468C7.99058 3.5003 7.10841 5.04731 6.8204 6.75136C5.69826 6.77819 4.63191 7.24624 3.85256 8.05404C3.0732 8.86184 2.64365 9.94427 2.65704 11.0667C2.67043 12.189 3.12568 13.2609 3.92409 14.0499C4.72249 14.8389 5.7997 15.2813 6.92217 15.2814ZM5.62862 9.7242C5.79812 9.55377 5.9997 9.41861 6.22172 9.32652C6.44374 9.23442 6.68181 9.18722 6.92217 9.18764H7.93784C8.26108 9.18764 8.57107 9.05924 8.79963 8.83068C9.02819 8.60212 9.15659 8.29212 9.15659 7.96889C9.15659 6.67596 9.67021 5.43599 10.5844 4.52175C11.4987 3.60751 12.7387 3.09389 14.0316 3.09389C15.3245 3.09389 16.5645 3.60751 17.4787 4.52175C18.393 5.43599 18.9066 6.67596 18.9066 7.96889C18.9066 8.29212 19.035 8.60212 19.2636 8.83068C19.4921 9.05924 19.8021 9.18764 20.1253 9.18764H25.2034C25.6883 9.18764 26.1533 9.38025 26.4961 9.72309C26.8389 10.0659 27.0315 10.5309 27.0315 11.0158C27.0315 11.5006 26.8389 11.9656 26.4961 12.3084C26.1533 12.6513 25.6883 12.8439 25.2034 12.8439H6.92217C6.56075 12.8438 6.20746 12.7367 5.90693 12.5359C5.6064 12.3352 5.37212 12.0498 5.23369 11.716C5.09526 11.3821 5.0589 11.0147 5.12919 10.6602C5.19948 10.3057 5.37328 9.97998 5.62862 9.7242Z" fill="#004FAC"/>
<path d="M52.0159 37.2189H70.2972C71.4285 37.2189 72.5135 36.7695 73.3134 35.9695C74.1134 35.1696 74.5628 34.0846 74.5628 32.9533C74.5628 31.822 74.1134 30.737 73.3134 29.937C72.5135 29.1371 71.4285 28.6876 70.2972 28.6876H66.3362C66.0479 26.9836 65.1655 25.4368 63.8454 24.3214C62.5253 23.206 60.8529 22.5941 59.1247 22.5942C57.3965 22.5944 55.7241 23.2065 54.4042 24.3222C53.0843 25.4378 52.2022 26.9848 51.9142 28.6889C50.792 28.7157 49.7257 29.1837 48.9463 29.9915C48.167 30.7993 47.7374 31.8818 47.7508 33.0042C47.7642 34.1265 48.2194 35.1984 49.0178 35.9874C49.8162 36.7764 50.8935 37.2188 52.0159 37.2189ZM50.7224 31.6617C50.8919 31.4913 51.0934 31.3561 51.3155 31.264C51.5375 31.1719 51.7756 31.1247 52.0159 31.1251H53.0316C53.3548 31.1251 53.6648 30.9967 53.8934 30.7682C54.1219 30.5396 54.2503 30.2296 54.2503 29.9064C54.2503 28.6135 54.764 27.3735 55.6782 26.4592C56.5924 25.545 57.8324 25.0314 59.1253 25.0314C60.4183 25.0314 61.6582 25.545 62.5725 26.4592C63.4867 27.3735 64.0003 28.6135 64.0003 29.9064C64.0003 30.2296 64.1287 30.5396 64.3573 30.7682C64.5859 30.9967 64.8959 31.1251 65.2191 31.1251H70.2972C70.782 31.1251 71.247 31.3177 71.5899 31.6606C71.9327 32.0034 72.1253 32.4684 72.1253 32.9533C72.1253 33.4381 71.9327 33.9031 71.5899 34.2459C71.247 34.5888 70.782 34.7814 70.2972 34.7814H52.0159C51.6545 34.7813 51.3012 34.6742 51.0007 34.4734C50.7002 34.2727 50.4659 33.9873 50.3274 33.6535C50.189 33.3196 50.1527 32.9522 50.2229 32.5977C50.2932 32.2432 50.467 31.9175 50.7224 31.6617Z" fill="#004FAC"/>
<path d="M40.4375 44.5312H25.8125C25.4893 44.5312 25.1793 44.6597 24.9507 44.8882C24.7222 45.1168 24.5938 45.4268 24.5938 45.75V51.8438C24.5938 52.167 24.7222 52.477 24.9507 52.7055C25.1793 52.9341 25.4893 53.0625 25.8125 53.0625H40.4375C40.7607 53.0625 41.0707 52.9341 41.2993 52.7055C41.5278 52.477 41.6562 52.167 41.6562 51.8438V45.75C41.6562 45.4268 41.5278 45.1168 41.2993 44.8882C41.0707 44.6597 40.7607 44.5312 40.4375 44.5312ZM39.2188 50.625H27.0312V46.9688H39.2188V50.625Z" fill="#004FAC"/>
<path d="M40.4375 34.7812H25.8125C25.4893 34.7812 25.1793 34.9097 24.9507 35.1382C24.7222 35.3668 24.5938 35.6768 24.5938 36V42.0938C24.5938 42.417 24.7222 42.727 24.9507 42.9555C25.1793 43.1841 25.4893 43.3125 25.8125 43.3125H40.4375C40.7607 43.3125 41.0707 43.1841 41.2993 42.9555C41.5278 42.727 41.6562 42.417 41.6562 42.0938V36C41.6562 35.6768 41.5278 35.3668 41.2993 35.1382C41.0707 34.9097 40.7607 34.7812 40.4375 34.7812ZM39.2188 40.875H27.0312V37.2188H39.2188V40.875Z" fill="#004FAC"/>
<path d="M40.4375 25.0312H25.8125C25.4893 25.0312 25.1793 25.1597 24.9507 25.3882C24.7222 25.6168 24.5938 25.9268 24.5938 26.25V32.3438C24.5938 32.667 24.7222 32.977 24.9507 33.2055C25.1793 33.4341 25.4893 33.5625 25.8125 33.5625H40.4375C40.7607 33.5625 41.0707 33.4341 41.2993 33.2055C41.5278 32.977 41.6562 32.667 41.6562 32.3438V26.25C41.6562 25.9268 41.5278 25.6168 41.2993 25.3882C41.0707 25.1597 40.7607 25.0312 40.4375 25.0312ZM39.2188 31.125H27.0312V27.4688H39.2188V31.125Z" fill="#004FAC"/>
</svg>
