<svg width="78" height="62" viewBox="0 0 78 62" fill="none" xmlns="http://www.w3.org/2000/svg">
<path d="M19 60.75H10.25V45.75H19V60.75Z" fill="#57A4FF"/>
<path d="M32.75 42H10.25V35.75H32.75V42Z" fill="#57A4FF"/>
<path d="M32.75 32H10.25V25.75H32.75V32Z" fill="#57A4FF"/>
<path d="M40.25 40.75H70.25V45.75H40.25V40.75Z" fill="#57A4FF"/>
<path d="M32.75 52H22.75V45.75H32.75V52Z" fill="#57A4FF"/>
<path d="M35.25 22H7.75V12L35.25 2V22Z" fill="#57A4FF"/>
<path d="M71.5 59.5001V40.7501C71.5 40.4186 71.3683 40.1006 71.1339 39.8662C70.8995 39.6318 70.5815 39.5001 70.25 39.5001H40.25C39.9185 39.5001 39.6005 39.6318 39.3661 39.8662C39.1317 40.1006 39 40.4186 39 40.7501V59.5001H37.75V22.0001C37.75 21.6686 37.6183 21.3506 37.3839 21.1162C37.1495 20.8818 36.8315 20.7501 36.5 20.7501V2.00011C36.5 1.79918 36.4516 1.6012 36.3588 1.42296C36.2661 1.24472 36.1317 1.09147 35.9672 0.976193C35.8026 0.860914 35.6127 0.787006 35.4135 0.760733C35.2142 0.734459 35.0116 0.756594 34.8228 0.825262L7.32281 10.8253C7.08166 10.913 6.87334 11.0727 6.72613 11.2829C6.57893 11.4931 6.49998 11.7435 6.5 12.0001V20.7501C6.16848 20.7501 5.85054 20.8818 5.61612 21.1162C5.3817 21.3506 5.25 21.6686 5.25 22.0001V59.5001H1.5C1.16848 59.5001 0.850537 59.6318 0.616116 59.8662C0.381696 60.1006 0.25 60.4186 0.25 60.7501C0.25 61.0816 0.381696 61.3996 0.616116 61.634C0.850537 61.8684 1.16848 62.0001 1.5 62.0001H71.5C71.8315 62.0001 72.1495 61.8684 72.3839 61.634C72.6183 61.3996 72.75 61.0816 72.75 60.7501C72.75 60.4186 72.6183 60.1006 72.3839 59.8662C72.1495 59.6318 71.8315 59.5001 71.5 59.5001ZM69 42.0001V44.5001H41.5V42.0001H69ZM9 12.8751L34 3.78401V20.7501H9V12.8751ZM11.5 59.5001V47.0001H17.75V59.5001H11.5ZM20.25 59.5001V45.7501C20.25 45.4186 20.1183 45.1006 19.8839 44.8662C19.6495 44.6318 19.3315 44.5001 19 44.5001H10.25C9.91848 44.5001 9.60054 44.6318 9.36612 44.8662C9.1317 45.1006 9 45.4186 9 45.7501V59.5001H7.75V23.2501H35.25V59.5001H20.25ZM41.5 59.5001V47.0001H69V59.5001H41.5Z" fill="#004FAC"/>
<path d="M76.5 59.5H75.25C74.9185 59.5 74.6005 59.6317 74.3661 59.8661C74.1317 60.1005 74 60.4185 74 60.75C74 61.0815 74.1317 61.3995 74.3661 61.6339C74.6005 61.8683 74.9185 62 75.25 62H76.5C76.8315 62 77.1495 61.8683 77.3839 61.6339C77.6183 61.3995 77.75 61.0815 77.75 60.75C77.75 60.4185 77.6183 60.1005 77.3839 59.8661C77.1495 59.6317 76.8315 59.5 76.5 59.5Z" fill="#004FAC"/>
<path d="M32.75 34.5H10.25C9.91848 34.5 9.60054 34.6317 9.36612 34.8661C9.1317 35.1005 9 35.4185 9 35.75V42C9 42.3315 9.1317 42.6495 9.36612 42.8839C9.60054 43.1183 9.91848 43.25 10.25 43.25H32.75C33.0815 43.25 33.3995 43.1183 33.6339 42.8839C33.8683 42.6495 34 42.3315 34 42V35.75C34 35.4185 33.8683 35.1005 33.6339 34.8661C33.3995 34.6317 33.0815 34.5 32.75 34.5ZM31.5 40.75H11.5V37H31.5V40.75Z" fill="#004FAC"/>
<path d="M32.75 24.5H10.25C9.91848 24.5 9.60054 24.6317 9.36612 24.8661C9.1317 25.1005 9 25.4185 9 25.75V32C9 32.3315 9.1317 32.6495 9.36612 32.8839C9.60054 33.1183 9.91848 33.25 10.25 33.25H32.75C33.0815 33.25 33.3995 33.1183 33.6339 32.8839C33.8683 32.6495 34 32.3315 34 32V25.75C34 25.4185 33.8683 25.1005 33.6339 24.8661C33.3995 24.6317 33.0815 24.5 32.75 24.5ZM31.5 30.75H11.5V27H31.5V30.75Z" fill="#004FAC"/>
<path d="M32.75 44.5H22.75C22.4185 44.5 22.1005 44.6317 21.8661 44.8661C21.6317 45.1005 21.5 45.4185 21.5 45.75V52C21.5 52.3315 21.6317 52.6495 21.8661 52.8839C22.1005 53.1183 22.4185 53.25 22.75 53.25H32.75C33.0815 53.25 33.3995 53.1183 33.6339 52.8839C33.8683 52.6495 34 52.3315 34 52V45.75C34 45.4185 33.8683 45.1005 33.6339 44.8661C33.3995 44.6317 33.0815 44.5 32.75 44.5ZM31.5 50.75H24V47H31.5V50.75Z" fill="#004FAC"/>
<path d="M50.8748 33.2501H69.6248C70.7851 33.2501 71.8979 32.7892 72.7184 31.9687C73.5389 31.1482 73.9998 30.0354 73.9998 28.8751C73.9998 27.7148 73.5389 26.602 72.7184 25.7815C71.8979 24.9611 70.7851 24.5001 69.6248 24.5001H65.5623C65.2666 22.7524 64.3616 21.1659 63.0076 20.0219C61.6537 18.8779 59.9384 18.2503 58.1658 18.2505C56.3933 18.2506 54.6781 18.8785 53.3243 20.0227C51.9706 21.167 51.0658 22.7536 50.7704 24.5014C49.6195 24.5289 48.5258 25.009 47.7265 25.8375C46.9271 26.666 46.4866 27.7762 46.5003 28.9273C46.514 30.0785 46.981 31.1778 47.7998 31.987C48.6187 32.7962 49.7236 33.2501 50.8748 33.2501ZM49.5481 27.5504C49.7219 27.3756 49.9287 27.237 50.1564 27.1426C50.3841 27.0481 50.6283 26.9997 50.8748 27.0001H51.9165C52.248 27.0001 52.566 26.8684 52.8004 26.634C53.0348 26.3996 53.1665 26.0816 53.1665 25.7501C53.1665 24.424 53.6933 23.1523 54.631 22.2146C55.5687 21.2769 56.8404 20.7501 58.1665 20.7501C59.4926 20.7501 60.7644 21.2769 61.7021 22.2146C62.6397 23.1523 63.1665 24.424 63.1665 25.7501C63.1665 26.0816 63.2982 26.3996 63.5326 26.634C63.7671 26.8684 64.085 27.0001 64.4165 27.0001H69.6248C70.1221 27.0001 70.599 27.1977 70.9506 27.5493C71.3023 27.9009 71.4998 28.3778 71.4998 28.8751C71.4998 29.3724 71.3023 29.8493 70.9506 30.201C70.599 30.5526 70.1221 30.7501 69.6248 30.7501H50.8748C50.5041 30.7501 50.1418 30.6402 49.8335 30.4343C49.5253 30.2284 49.285 29.9357 49.143 29.5933C49.0011 29.2509 48.9638 28.8741 49.0359 28.5105C49.1079 28.1469 49.2862 27.8128 49.5481 27.5504Z" fill="#004FAC"/>
</svg>
