<svg width="63" height="63" viewBox="0 0 63 63" fill="none" xmlns="http://www.w3.org/2000/svg">
<path d="M61.0312 16.7344V40.3594C61.0312 41.4037 60.6164 42.4052 59.878 43.1436C59.1396 43.882 58.138 44.2969 57.0938 44.2969H55.125V24.6094H7.875V16.7344C7.875 15.6901 8.28984 14.6886 9.02827 13.9501C9.76669 13.2117 10.7682 12.7969 11.8125 12.7969H57.0938C58.138 12.7969 59.1396 13.2117 59.878 13.9501C60.6164 14.6886 61.0312 15.6901 61.0312 16.7344Z" fill="#57A4FF"/>
<path d="M7.875 18.7031V24.6094H1.96875V22.6406C1.96875 21.5963 2.38359 20.5948 3.12202 19.8564C3.86044 19.118 4.86196 18.7031 5.90625 18.7031H7.875Z" fill="#57A4FF"/>
<path d="M1.96875 30.5156V46.2656C1.96875 47.3099 2.38359 48.3114 3.12202 49.0499C3.86044 49.7883 4.86196 50.2031 5.90625 50.2031H51.1875C52.2318 50.2031 53.2333 49.7883 53.9717 49.0499C54.7102 48.3114 55.125 47.3099 55.125 46.2656V30.5156H1.96875ZM5.90625 34.4531H25.5938V38.3906H5.90625V34.4531Z" fill="#57A4FF"/>
<path d="M5.90625 47.25H14.7656C15.0267 47.25 15.2771 47.1463 15.4617 46.9617C15.6463 46.7771 15.75 46.5267 15.75 46.2656C15.75 46.0046 15.6463 45.7542 15.4617 45.5696C15.2771 45.385 15.0267 45.2812 14.7656 45.2812H5.90625C5.64518 45.2812 5.3948 45.385 5.21019 45.5696C5.02559 45.7542 4.92188 46.0046 4.92188 46.2656C4.92188 46.5267 5.02559 46.7771 5.21019 46.9617C5.3948 47.1463 5.64518 47.25 5.90625 47.25Z" fill="#004FAC"/>
<path d="M18.7031 45.2812H17.7188C17.4577 45.2812 17.2073 45.385 17.0227 45.5696C16.8381 45.7542 16.7344 46.0046 16.7344 46.2656C16.7344 46.5267 16.8381 46.7771 17.0227 46.9617C17.2073 47.1463 17.4577 47.25 17.7188 47.25H18.7031C18.9642 47.25 19.2146 47.1463 19.3992 46.9617C19.5838 46.7771 19.6875 46.5267 19.6875 46.2656C19.6875 46.0046 19.5838 45.7542 19.3992 45.5696C19.2146 45.385 18.9642 45.2812 18.7031 45.2812Z" fill="#004FAC"/>
<path d="M5.90625 39.375H25.5938C25.8548 39.375 26.1052 39.2713 26.2898 39.0867C26.4744 38.9021 26.5781 38.6517 26.5781 38.3906V34.4531C26.5781 34.1921 26.4744 33.9417 26.2898 33.7571C26.1052 33.5725 25.8548 33.4688 25.5938 33.4688H5.90625C5.64518 33.4688 5.3948 33.5725 5.21019 33.7571C5.02559 33.9417 4.92188 34.1921 4.92188 34.4531V38.3906C4.92188 38.6517 5.02559 38.9021 5.21019 39.0867C5.3948 39.2713 5.64518 39.375 5.90625 39.375ZM6.89062 35.4375H24.6094V37.4062H6.89062V35.4375Z" fill="#004FAC"/>
<path d="M57.0938 11.8125H11.8125C10.5076 11.814 9.25654 12.333 8.33383 13.2557C7.41111 14.1784 6.89209 15.4295 6.89062 16.7344V17.7188H5.90625C4.60134 17.7202 3.35029 18.2392 2.42758 19.162C1.50486 20.0847 0.985841 21.3357 0.984375 22.6406V46.2656C0.985841 47.5705 1.50486 48.8216 2.42758 49.7443C3.35029 50.667 4.60134 51.186 5.90625 51.1875H51.1875C52.4924 51.186 53.7435 50.667 54.6662 49.7443C55.5889 48.8216 56.1079 47.5705 56.1094 46.2656V45.2812H57.0938C58.3987 45.2798 59.6497 44.7608 60.5724 43.838C61.4951 42.9153 62.0142 41.6643 62.0156 40.3594V16.7344C62.0142 15.4295 61.4951 14.1784 60.5724 13.2557C59.6497 12.333 58.3987 11.814 57.0938 11.8125ZM2.95312 22.6406C2.954 21.8577 3.26542 21.107 3.81905 20.5534C4.37267 19.9998 5.1233 19.6884 5.90625 19.6875H51.1875C51.9704 19.6884 52.7211 19.9998 53.2747 20.5534C53.8283 21.107 54.1397 21.8577 54.1406 22.6406V23.625H2.95312V22.6406ZM2.95312 25.5938H54.1406V29.5312H2.95312V25.5938ZM54.1406 46.2656C54.1397 47.0486 53.8283 47.7992 53.2747 48.3528C52.7211 48.9065 51.9704 49.2179 51.1875 49.2188H5.90625C5.1233 49.2179 4.37267 48.9065 3.81905 48.3528C3.26542 47.7992 2.954 47.0486 2.95312 46.2656V31.5H54.1406V46.2656ZM60.0469 40.3594C60.046 41.1423 59.7346 41.893 59.181 42.4466C58.6273 43.0002 57.8767 43.3116 57.0938 43.3125H56.1094V22.6406C56.1079 21.3357 55.5889 20.0847 54.6662 19.162C53.7435 18.2392 52.4924 17.7202 51.1875 17.7188H8.85938V16.7344C8.86025 15.9514 9.17167 15.2008 9.7253 14.6472C10.2789 14.0935 11.0296 13.7821 11.8125 13.7812H57.0938C57.8767 13.7821 58.6273 14.0935 59.181 14.6472C59.7346 15.2008 60.046 15.9514 60.0469 16.7344V40.3594Z" fill="#004FAC"/>
</svg>
