<svg width="51" height="51" viewBox="0 0 51 51" fill="none" xmlns="http://www.w3.org/2000/svg">
<path d="M6.375 27.0938H9.5625V30.2812H6.375V27.0938Z" fill="#57A4FF"/>
<path d="M6.375 32.6719H9.5625V35.8594H6.375V32.6719Z" fill="#57A4FF"/>
<path d="M6.375 38.25H9.5625V41.4375H6.375V38.25Z" fill="#57A4FF"/>
<path d="M11.9531 27.0938H15.1406V30.2812H11.9531V27.0938Z" fill="#57A4FF"/>
<path d="M11.9531 32.6719H15.1406V35.8594H11.9531V32.6719Z" fill="#57A4FF"/>
<path d="M11.9531 38.25H15.1406V41.4375H11.9531V38.25Z" fill="#57A4FF"/>
<path d="M6.375 43.8281H15.1406V47.0156H6.375V43.8281Z" fill="#57A4FF"/>
<path d="M17.5312 27.0938H20.7188V30.2812H17.5312V27.0938Z" fill="#57A4FF"/>
<path d="M17.5312 32.6719H20.7188V35.8594H17.5312V32.6719Z" fill="#57A4FF"/>
<path d="M17.5312 38.25H20.7188V41.4375H17.5312V38.25Z" fill="#57A4FF"/>
<path d="M21.5156 10.3594H5.57812C5.15544 10.3594 4.75006 10.5273 4.45117 10.8262C4.15229 11.1251 3.98438 11.5304 3.98438 11.9531V24.7031H23.1094V11.9531C23.1094 11.5304 22.9415 11.1251 22.6426 10.8262C22.3437 10.5273 21.9383 10.3594 21.5156 10.3594ZM20.7188 22.3125H6.375V12.75H20.7188V22.3125Z" fill="#57A4FF"/>
<path d="M11.9531 27.0938H15.1406V30.2812H11.9531V27.0938Z" fill="#57A4FF"/>
<path d="M6.375 27.0938H9.5625V30.2812H6.375V27.0938Z" fill="#57A4FF"/>
<path d="M17.5312 27.0938H20.7188V30.2812H17.5312V27.0938Z" fill="#57A4FF"/>
<path d="M11.9531 32.6719H15.1406V35.8594H11.9531V32.6719Z" fill="#57A4FF"/>
<path d="M6.375 32.6719H9.5625V35.8594H6.375V32.6719Z" fill="#57A4FF"/>
<path d="M17.5312 32.6719H20.7188V35.8594H17.5312V32.6719Z" fill="#57A4FF"/>
<path d="M11.9531 38.25H15.1406V41.4375H11.9531V38.25Z" fill="#57A4FF"/>
<path d="M6.375 38.25H9.5625V41.4375H6.375V38.25Z" fill="#57A4FF"/>
<path d="M6.375 43.8281H15.1406V47.0156H6.375V43.8281Z" fill="#57A4FF"/>
<path d="M17.5312 38.25H20.7188V41.4375H17.5312V38.25Z" fill="#57A4FF"/>
<path d="M26.2969 4.78125V6.375H19.9219V4.78125C19.9219 3.93587 20.2577 3.12512 20.8555 2.52735C21.4532 1.92957 22.264 1.59375 23.1094 1.59375C23.9548 1.59375 24.7655 1.92957 25.3633 2.52735C25.961 3.12512 26.2969 3.93587 26.2969 4.78125Z" fill="#57A4FF"/>
<path d="M47.0156 20.7188V21.5156H26.2969V20.7188C26.2969 20.2961 26.4648 19.8907 26.7637 19.5918C27.0626 19.2929 27.4679 19.125 27.8906 19.125H45.4219C45.8446 19.125 46.2499 19.2929 46.5488 19.5918C46.8477 19.8907 47.0156 20.2961 47.0156 20.7188Z" fill="#57A4FF"/>
<path d="M26.2969 23.9062V30.2812C26.2969 30.7039 26.4648 31.1093 26.7637 31.4082C27.0626 31.7071 27.4679 31.875 27.8906 31.875H45.4219C45.8446 31.875 46.2499 31.7071 46.5488 31.4082C46.8477 31.1093 47.0156 30.7039 47.0156 30.2812V23.9062H26.2969ZM35.0625 29.4844H29.4844V26.2969H35.0625V29.4844Z" fill="#57A4FF"/>
<path d="M21.5156 9.5625H20.7188V7.17188H26.2969C26.5082 7.17188 26.7109 7.08792 26.8604 6.93848C27.0098 6.78903 27.0938 6.58634 27.0938 6.375V4.78125C27.0926 3.72489 26.6724 2.71214 25.9254 1.96518C25.1785 1.21822 24.1657 0.798061 23.1094 0.796875H10.3594C9.30302 0.798061 8.29026 1.21822 7.54331 1.96518C6.79635 2.71214 6.37619 3.72489 6.375 4.78125V9.5625H5.57812C4.94431 9.56321 4.33666 9.81531 3.88848 10.2635C3.44031 10.7117 3.18821 11.3193 3.1875 11.9531V47.8125C3.18821 48.4463 3.44031 49.054 3.88848 49.5021C4.33666 49.9503 4.94431 50.2024 5.57812 50.2031H21.5156C22.1494 50.2024 22.7571 49.9503 23.2053 49.5021C23.6534 49.054 23.9055 48.4463 23.9062 47.8125V11.9531C23.9055 11.3193 23.6534 10.7117 23.2053 10.2635C22.7571 9.81531 22.1494 9.56321 21.5156 9.5625ZM25.5 4.78125V5.57812H20.7188V4.78125C20.7188 4.14722 20.9706 3.53915 21.4189 3.09082C21.8673 2.64249 22.4753 2.39062 23.1094 2.39062C23.7434 2.39062 24.3515 2.64249 24.7998 3.09082C25.2481 3.53915 25.5 4.14722 25.5 4.78125ZM7.96875 4.78125C7.96949 4.14744 8.22159 3.53981 8.66976 3.09164C9.11793 2.64347 9.72557 2.39136 10.3594 2.39062H19.9241C19.4046 3.07931 19.1241 3.91865 19.125 4.78125V9.5625H7.96875V4.78125ZM4.78125 11.9531C4.78149 11.7419 4.86552 11.5393 5.01491 11.3899C5.1643 11.2405 5.36685 11.1565 5.57812 11.1562H21.5156C21.7269 11.1565 21.9294 11.2405 22.0788 11.3899C22.2282 11.5393 22.3123 11.7419 22.3125 11.9531V23.9062H4.78125V11.9531ZM22.3125 47.8125C22.3123 48.0238 22.2282 48.2263 22.0788 48.3757C21.9294 48.5251 21.7269 48.6091 21.5156 48.6094H5.57812C5.36685 48.6091 5.1643 48.5251 5.01491 48.3757C4.86552 48.2263 4.78149 48.0238 4.78125 47.8125V25.5H22.3125V47.8125Z" fill="#004FAC"/>
<path d="M20.7188 11.9531H6.375C6.16366 11.9531 5.96097 12.0371 5.81152 12.1865C5.66208 12.336 5.57812 12.5387 5.57812 12.75V22.3125C5.57812 22.5238 5.66208 22.7265 5.81152 22.876C5.96097 23.0254 6.16366 23.1094 6.375 23.1094H20.7188C20.9301 23.1094 21.1328 23.0254 21.2822 22.876C21.4317 22.7265 21.5156 22.5238 21.5156 22.3125V12.75C21.5156 12.5387 21.4317 12.336 21.2822 12.1865C21.1328 12.0371 20.9301 11.9531 20.7188 11.9531ZM19.9219 21.5156H7.17188V13.5469H19.9219V21.5156Z" fill="#004FAC"/>
<path d="M11.9531 31.0781H15.1406C15.352 31.0781 15.5547 30.9942 15.7041 30.8447C15.8535 30.6953 15.9375 30.4926 15.9375 30.2812V27.0938C15.9375 26.8824 15.8535 26.6797 15.7041 26.5303C15.5547 26.3808 15.352 26.2969 15.1406 26.2969H11.9531C11.7418 26.2969 11.5391 26.3808 11.3896 26.5303C11.2402 26.6797 11.1562 26.8824 11.1562 27.0938V30.2812C11.1562 30.4926 11.2402 30.6953 11.3896 30.8447C11.5391 30.9942 11.7418 31.0781 11.9531 31.0781ZM12.75 27.8906H14.3438V29.4844H12.75V27.8906Z" fill="#004FAC"/>
<path d="M6.375 31.0781H9.5625C9.77384 31.0781 9.97653 30.9942 10.126 30.8447C10.2754 30.6953 10.3594 30.4926 10.3594 30.2812V27.0938C10.3594 26.8824 10.2754 26.6797 10.126 26.5303C9.97653 26.3808 9.77384 26.2969 9.5625 26.2969H6.375C6.16366 26.2969 5.96097 26.3808 5.81152 26.5303C5.66208 26.6797 5.57812 26.8824 5.57812 27.0938V30.2812C5.57812 30.4926 5.66208 30.6953 5.81152 30.8447C5.96097 30.9942 6.16366 31.0781 6.375 31.0781ZM7.17188 27.8906H8.76562V29.4844H7.17188V27.8906Z" fill="#004FAC"/>
<path d="M17.5312 31.0781H20.7188C20.9301 31.0781 21.1328 30.9942 21.2822 30.8447C21.4317 30.6953 21.5156 30.4926 21.5156 30.2812V27.0938C21.5156 26.8824 21.4317 26.6797 21.2822 26.5303C21.1328 26.3808 20.9301 26.2969 20.7188 26.2969H17.5312C17.3199 26.2969 17.1172 26.3808 16.9678 26.5303C16.8183 26.6797 16.7344 26.8824 16.7344 27.0938V30.2812C16.7344 30.4926 16.8183 30.6953 16.9678 30.8447C17.1172 30.9942 17.3199 31.0781 17.5312 31.0781ZM18.3281 27.8906H19.9219V29.4844H18.3281V27.8906Z" fill="#004FAC"/>
<path d="M11.9531 36.6562H15.1406C15.352 36.6562 15.5547 36.5723 15.7041 36.4229C15.8535 36.2734 15.9375 36.0707 15.9375 35.8594V32.6719C15.9375 32.4605 15.8535 32.2578 15.7041 32.1084C15.5547 31.959 15.352 31.875 15.1406 31.875H11.9531C11.7418 31.875 11.5391 31.959 11.3896 32.1084C11.2402 32.2578 11.1562 32.4605 11.1562 32.6719V35.8594C11.1562 36.0707 11.2402 36.2734 11.3896 36.4229C11.5391 36.5723 11.7418 36.6562 11.9531 36.6562ZM12.75 33.4688H14.3438V35.0625H12.75V33.4688Z" fill="#004FAC"/>
<path d="M6.375 36.6562H9.5625C9.77384 36.6562 9.97653 36.5723 10.126 36.4229C10.2754 36.2734 10.3594 36.0707 10.3594 35.8594V32.6719C10.3594 32.4605 10.2754 32.2578 10.126 32.1084C9.97653 31.959 9.77384 31.875 9.5625 31.875H6.375C6.16366 31.875 5.96097 31.959 5.81152 32.1084C5.66208 32.2578 5.57812 32.4605 5.57812 32.6719V35.8594C5.57812 36.0707 5.66208 36.2734 5.81152 36.4229C5.96097 36.5723 6.16366 36.6562 6.375 36.6562ZM7.17188 33.4688H8.76562V35.0625H7.17188V33.4688Z" fill="#004FAC"/>
<path d="M17.5312 36.6562H20.7188C20.9301 36.6562 21.1328 36.5723 21.2822 36.4229C21.4317 36.2734 21.5156 36.0707 21.5156 35.8594V32.6719C21.5156 32.4605 21.4317 32.2578 21.2822 32.1084C21.1328 31.959 20.9301 31.875 20.7188 31.875H17.5312C17.3199 31.875 17.1172 31.959 16.9678 32.1084C16.8183 32.2578 16.7344 32.4605 16.7344 32.6719V35.8594C16.7344 36.0707 16.8183 36.2734 16.9678 36.4229C17.1172 36.5723 17.3199 36.6562 17.5312 36.6562ZM18.3281 33.4688H19.9219V35.0625H18.3281V33.4688Z" fill="#004FAC"/>
<path d="M11.9531 42.2344H15.1406C15.352 42.2344 15.5547 42.1504 15.7041 42.001C15.8535 41.8515 15.9375 41.6488 15.9375 41.4375V38.25C15.9375 38.0387 15.8535 37.836 15.7041 37.6865C15.5547 37.5371 15.352 37.4531 15.1406 37.4531H11.9531C11.7418 37.4531 11.5391 37.5371 11.3896 37.6865C11.2402 37.836 11.1562 38.0387 11.1562 38.25V41.4375C11.1562 41.6488 11.2402 41.8515 11.3896 42.001C11.5391 42.1504 11.7418 42.2344 11.9531 42.2344ZM12.75 39.0469H14.3438V40.6406H12.75V39.0469Z" fill="#004FAC"/>
<path d="M6.375 42.2344H9.5625C9.77384 42.2344 9.97653 42.1504 10.126 42.001C10.2754 41.8515 10.3594 41.6488 10.3594 41.4375V38.25C10.3594 38.0387 10.2754 37.836 10.126 37.6865C9.97653 37.5371 9.77384 37.4531 9.5625 37.4531H6.375C6.16366 37.4531 5.96097 37.5371 5.81152 37.6865C5.66208 37.836 5.57812 38.0387 5.57812 38.25V41.4375C5.57812 41.6488 5.66208 41.8515 5.81152 42.001C5.96097 42.1504 6.16366 42.2344 6.375 42.2344ZM7.17188 39.0469H8.76562V40.6406H7.17188V39.0469Z" fill="#004FAC"/>
<path d="M6.375 47.8125H15.1406C15.352 47.8125 15.5547 47.7285 15.7041 47.5791C15.8535 47.4297 15.9375 47.227 15.9375 47.0156V43.8281C15.9375 43.6168 15.8535 43.4141 15.7041 43.2646C15.5547 43.1152 15.352 43.0312 15.1406 43.0312H6.375C6.16366 43.0312 5.96097 43.1152 5.81152 43.2646C5.66208 43.4141 5.57812 43.6168 5.57812 43.8281V47.0156C5.57812 47.227 5.66208 47.4297 5.81152 47.5791C5.96097 47.7285 6.16366 47.8125 6.375 47.8125ZM7.17188 44.625H14.3438V46.2188H7.17188V44.625Z" fill="#004FAC"/>
<path d="M17.5312 42.2344H20.7188C20.9301 42.2344 21.1328 42.1504 21.2822 42.001C21.4317 41.8515 21.5156 41.6488 21.5156 41.4375V38.25C21.5156 38.0387 21.4317 37.836 21.2822 37.6865C21.1328 37.5371 20.9301 37.4531 20.7188 37.4531H17.5312C17.3199 37.4531 17.1172 37.5371 16.9678 37.6865C16.8183 37.836 16.7344 38.0387 16.7344 38.25V41.4375C16.7344 41.6488 16.8183 41.8515 16.9678 42.001C17.1172 42.1504 17.3199 42.2344 17.5312 42.2344ZM18.3281 39.0469H19.9219V40.6406H18.3281V39.0469Z" fill="#004FAC"/>
<path d="M8.76562 15.9375H12.75C12.9613 15.9375 13.164 15.8535 13.3135 15.7041C13.4629 15.5547 13.5469 15.352 13.5469 15.1406C13.5469 14.9293 13.4629 14.7266 13.3135 14.5771C13.164 14.4277 12.9613 14.3438 12.75 14.3438H8.76562C8.55428 14.3438 8.35159 14.4277 8.20215 14.5771C8.05271 14.7266 7.96875 14.9293 7.96875 15.1406C7.96875 15.352 8.05271 15.5547 8.20215 15.7041C8.35159 15.8535 8.55428 15.9375 8.76562 15.9375Z" fill="#004FAC"/>
<path d="M15.1406 15.9375H15.9375C16.1488 15.9375 16.3515 15.8535 16.501 15.7041C16.6504 15.5547 16.7344 15.352 16.7344 15.1406C16.7344 14.9293 16.6504 14.7266 16.501 14.5771C16.3515 14.4277 16.1488 14.3438 15.9375 14.3438H15.1406C14.9293 14.3438 14.7266 14.4277 14.5771 14.5771C14.4277 14.7266 14.3438 14.9293 14.3438 15.1406C14.3438 15.352 14.4277 15.5547 14.5771 15.7041C14.7266 15.8535 14.9293 15.9375 15.1406 15.9375Z" fill="#004FAC"/>
<path d="M45.4219 18.3281H27.8906C27.2568 18.3289 26.6492 18.581 26.201 19.0291C25.7528 19.4773 25.5007 20.0849 25.5 20.7188V30.2812C25.5007 30.9151 25.7528 31.5227 26.201 31.9709C26.6492 32.419 27.2568 32.6711 27.8906 32.6719H45.4219C46.0557 32.6711 46.6633 32.419 47.1115 31.9709C47.5597 31.5227 47.8118 30.9151 47.8125 30.2812V20.7188C47.8118 20.0849 47.5597 19.4773 47.1115 19.0291C46.6633 18.581 46.0557 18.3289 45.4219 18.3281ZM27.8906 19.9219H45.4219C45.6331 19.9221 45.8357 20.0061 45.9851 20.1555C46.1345 20.3049 46.2185 20.5075 46.2188 20.7188H27.0938C27.094 20.5075 27.178 20.3049 27.3274 20.1555C27.4768 20.0061 27.6794 19.9221 27.8906 19.9219ZM46.2188 23.1094H27.0938V22.3125H46.2188V23.1094ZM46.2188 30.2812C46.2185 30.4925 46.1345 30.6951 45.9851 30.8445C45.8357 30.9939 45.6331 31.0779 45.4219 31.0781H27.8906C27.6794 31.0779 27.4768 30.9939 27.3274 30.8445C27.178 30.6951 27.094 30.4925 27.0938 30.2812V24.7031H46.2188V30.2812Z" fill="#004FAC"/>
<path d="M29.4844 30.2812H35.0625C35.2738 30.2812 35.4765 30.1973 35.626 30.0479C35.7754 29.8984 35.8594 29.6957 35.8594 29.4844V26.2969C35.8594 26.0855 35.7754 25.8828 35.626 25.7334C35.4765 25.584 35.2738 25.5 35.0625 25.5H29.4844C29.273 25.5 29.0703 25.584 28.9209 25.7334C28.7715 25.8828 28.6875 26.0855 28.6875 26.2969V29.4844C28.6875 29.6957 28.7715 29.8984 28.9209 30.0479C29.0703 30.1973 29.273 30.2812 29.4844 30.2812ZM30.2812 27.0938H34.2656V28.6875H30.2812V27.0938Z" fill="#004FAC"/>
<path d="M37.4531 27.0938H40.6406C40.852 27.0938 41.0547 27.0098 41.2041 26.8604C41.3535 26.7109 41.4375 26.5082 41.4375 26.2969C41.4375 26.0855 41.3535 25.8828 41.2041 25.7334C41.0547 25.584 40.852 25.5 40.6406 25.5H37.4531C37.2418 25.5 37.0391 25.584 36.8896 25.7334C36.7402 25.8828 36.6562 26.0855 36.6562 26.2969C36.6562 26.5082 36.7402 26.7109 36.8896 26.8604C37.0391 27.0098 37.2418 27.0938 37.4531 27.0938Z" fill="#004FAC"/>
<path d="M37.4531 29.4844H38.25C38.4613 29.4844 38.664 29.4004 38.8135 29.251C38.9629 29.1015 39.0469 28.8988 39.0469 28.6875C39.0469 28.4762 38.9629 28.2735 38.8135 28.124C38.664 27.9746 38.4613 27.8906 38.25 27.8906H37.4531C37.2418 27.8906 37.0391 27.9746 36.8896 28.124C36.7402 28.2735 36.6562 28.4762 36.6562 28.6875C36.6562 28.8988 36.7402 29.1015 36.8896 29.251C37.0391 29.4004 37.2418 29.4844 37.4531 29.4844Z" fill="#004FAC"/>
<path d="M16.7344 4.78125H10.3594C10.148 4.78125 9.94534 4.86521 9.7959 5.01465C9.64646 5.16409 9.5625 5.36678 9.5625 5.57812C9.5625 5.78947 9.64646 5.99216 9.7959 6.1416C9.94534 6.29104 10.148 6.375 10.3594 6.375H16.7344C16.9457 6.375 17.1484 6.29104 17.2979 6.1416C17.4473 5.99216 17.5312 5.78947 17.5312 5.57812C17.5312 5.36678 17.4473 5.16409 17.2979 5.01465C17.1484 4.86521 16.9457 4.78125 16.7344 4.78125Z" fill="#004FAC"/>
<path d="M13.5469 7.17188H10.3594C10.148 7.17188 9.94534 7.25583 9.7959 7.40527C9.64646 7.55472 9.5625 7.75741 9.5625 7.96875C9.5625 8.18009 9.64646 8.38278 9.7959 8.53223C9.94534 8.68167 10.148 8.76562 10.3594 8.76562H13.5469C13.7582 8.76562 13.9609 8.68167 14.1104 8.53223C14.2598 8.38278 14.3438 8.18009 14.3438 7.96875C14.3438 7.75741 14.2598 7.55472 14.1104 7.40527C13.9609 7.25583 13.7582 7.17188 13.5469 7.17188Z" fill="#004FAC"/>
</svg>
