<svg width="32" height="32" viewBox="0 0 32 32" fill="none" xmlns="http://www.w3.org/2000/svg">
<g clip-path="url(#clip0)">
<path d="M16.0002 18.6667C15.7442 18.6667 15.4882 18.5693 15.2935 18.3733L8.29352 11.3733C7.66552 10.7453 8.11218 9.66667 9.00018 9.66667H12.6669V1.66667C12.6669 0.748 13.4149 0 14.3335 0H17.6669C18.5855 0 19.3335 0.748 19.3335 1.66667V9.66667H23.0002C23.8882 9.66667 24.3349 10.7453 23.7069 11.3733L16.7069 18.3733C16.5122 18.5693 16.2562 18.6667 16.0002 18.6667Z" fill="#313131"/>
<path d="M14.6667 28.2561L0 21.5334V24.6668C0 24.9321 0.157333 25.1721 0.401333 25.2774L14.6667 31.4801V28.2561Z" fill="#313131"/>
<path d="M17.3335 28.2561V31.4814L31.5988 25.2788C31.8428 25.1721 32.0001 24.9321 32.0001 24.6668V21.5334L17.3335 28.2561Z" fill="#313131"/>
<path d="M23.4413 15.4109L18.5933 20.2589C17.9 20.9522 16.9787 21.3336 16 21.3336C15.0213 21.3336 14.1 20.9522 13.408 20.2589L8.56 15.4109L0 19.3336L16 26.6669L32 19.3336L23.4413 15.4109Z" fill="#313131"/>
</g>
<defs>
<clipPath id="clip0">
<rect width="32" height="32" fill="white"/>
</clipPath>
</defs>
</svg>
