<svg width="31" height="31" viewBox="0 0 31 31" fill="none" xmlns="http://www.w3.org/2000/svg">
<g clip-path="url(#clip0)">
<path d="M15.4998 -8.07862e-05C15.7478 -8.07645e-05 15.9958 0.0942109 16.1844 0.284086L22.9657 7.06534C23.574 7.67371 23.1413 8.71867 22.2811 8.71867L18.729 8.71867L18.729 16.4687C18.729 17.3586 18.0044 18.0833 17.1144 18.0833L13.8852 18.0833C12.9953 18.0833 12.2707 17.3586 12.2707 16.4687L12.2707 8.71867L8.71857 8.71867C7.85832 8.71867 7.42562 7.67371 8.03399 7.06533L14.8152 0.284085C15.0038 0.0942109 15.2518 -8.08079e-05 15.4998 -8.07862e-05Z" fill="black"/>
<path d="M14.2083 27.3732L0 20.8606V23.896C0 24.1531 0.152417 24.3856 0.388792 24.4876L14.2083 30.4964V27.3732Z" fill="black"/>
<path d="M16.7915 27.3732V30.4977L30.611 24.4889C30.8474 24.3855 30.9998 24.153 30.9998 23.896V20.8606L16.7915 27.3732Z" fill="black"/>
<path d="M22.7088 14.9292L18.0123 19.6257C17.3406 20.2974 16.4481 20.6668 15.5 20.6668C14.5519 20.6668 13.6594 20.2974 12.989 19.6257L8.2925 14.9292L0 18.7293L15.5 25.8334L31 18.7293L22.7088 14.9292Z" fill="black"/>
</g>
<defs>
<clipPath id="clip0">
<rect width="31" height="31" fill="white"/>
</clipPath>
</defs>
</svg>
