<svg width="28" height="28" viewBox="0 0 28 28" fill="none" xmlns="http://www.w3.org/2000/svg">
<path d="M24.5 14.7028L16.6983 20.1251C16.6492 19.836 16.6247 19.5433 16.625 19.2501C16.6252 18.3286 16.8678 17.4233 17.3286 16.6253C17.7894 15.8273 18.4521 15.1646 19.2502 14.7038C20.0482 14.243 20.9534 14.0003 21.875 14.0001C22.7965 14 23.7018 14.2423 24.5 14.7028Z" fill="#57A4FF"/>
<path d="M27.125 19.25C27.1252 20.5665 26.6308 21.8351 25.7397 22.8043C24.8486 23.7734 23.626 24.3724 22.314 24.4825C21.0021 24.5926 19.6967 24.2058 18.6566 23.3987C17.6164 22.5916 16.9175 21.4232 16.6983 20.125C16.6492 19.8359 16.6247 19.5432 16.625 19.25C16.625 17.8576 17.1781 16.5223 18.1627 15.5377C19.1473 14.5531 20.4826 14 21.875 14C23.2674 14 24.6028 14.5531 25.5873 15.5377C26.5719 16.5223 27.125 17.8576 27.125 19.25Z" fill="#57A4FF"/>
<path d="M24.9375 14.4594V3.5C24.9375 3.38397 24.8914 3.27269 24.8094 3.19064C24.7273 3.10859 24.616 3.0625 24.5 3.0625H0.875C0.758968 3.0625 0.647688 3.10859 0.565641 3.19064C0.483594 3.27269 0.4375 3.38397 0.4375 3.5V20.125C0.4375 20.241 0.483594 20.3523 0.565641 20.4344C0.647688 20.5164 0.758968 20.5625 0.875 20.5625H16.3406C16.5553 21.469 16.9893 22.3088 17.6045 23.0083C18.2197 23.7078 18.9974 24.2454 19.869 24.574C20.7407 24.9025 21.6797 25.012 22.6036 24.8927C23.5275 24.7733 24.4079 24.4289 25.1675 23.8897C25.9271 23.3504 26.5426 22.6328 26.9599 21.8C27.3772 20.9672 27.5836 20.0446 27.5609 19.1133C27.5382 18.1821 27.2871 17.2707 26.8297 16.4592C26.3722 15.6477 25.7225 14.961 24.9375 14.4594ZM1.3125 3.9375H24.0625V4.58555L12.6875 12.5902L1.3125 4.58555V3.9375ZM24.0625 5.65523V14C22.6757 13.422 21.1166 13.4165 19.7258 13.9847L17.3753 10.3611L24.0625 5.65523ZM1.9507 19.6875H1.3125V5.65523L8.02266 10.3775L1.9507 19.6875ZM16.2039 19.6875H2.99523L8.73852 10.8812L12.4359 13.4827C12.5095 13.5346 12.5974 13.5625 12.6875 13.5625C12.7776 13.5625 12.8655 13.5346 12.9391 13.4827L16.6595 10.8648L18.9399 14.3801C18.1006 14.8861 17.4062 15.6003 16.924 16.4535C16.4418 17.3067 16.1881 18.27 16.1875 19.25C16.1875 19.3971 16.193 19.5429 16.2039 19.6875ZM21.875 24.0625C20.9232 24.0625 19.9927 23.7803 19.2013 23.2514C18.4099 22.7226 17.7931 21.971 17.4288 21.0917C17.0646 20.2123 16.9693 19.2447 17.155 18.3111C17.3407 17.3776 17.799 16.5201 18.472 15.847C19.1451 15.174 20.0026 14.7157 20.9361 14.53C21.8697 14.3443 22.8373 14.4396 23.7167 14.8038C24.596 15.1681 25.3476 15.7849 25.8764 16.5763C26.4053 17.3677 26.6875 18.2982 26.6875 19.25C26.6861 20.5259 26.1786 21.7491 25.2764 22.6514C24.3741 23.5536 23.1509 24.0611 21.875 24.0625Z" fill="#004FAC"/>
<path d="M21.8759 15.75C21.3739 15.7504 20.8778 15.8589 20.4213 16.0679C19.9649 16.277 19.5587 16.5819 19.2305 16.9618C18.9023 17.3417 18.6596 17.7877 18.519 18.2697C18.3784 18.7517 18.3431 19.2583 18.4155 19.7551C18.488 20.2519 18.6665 20.7273 18.9389 21.149C19.2113 21.5707 19.5712 21.9289 19.9943 22.1993C20.4174 22.4696 20.8936 22.6458 21.3908 22.7158C21.8879 22.7858 22.3943 22.7481 22.8756 22.6051C22.9307 22.5887 22.982 22.5616 23.0266 22.5254C23.0713 22.4892 23.1083 22.4446 23.1357 22.3941C23.1631 22.3435 23.1802 22.2881 23.1862 22.2309C23.1921 22.1738 23.1868 22.116 23.1704 22.0609C23.154 22.0059 23.1269 21.9545 23.0907 21.9099C23.0545 21.8653 23.0099 21.8282 22.9594 21.8009C22.9088 21.7735 22.8534 21.7563 22.7963 21.7504C22.7391 21.7444 22.6813 21.7498 22.6262 21.7662C22.0429 21.9412 21.417 21.9084 20.8551 21.6735C20.2933 21.4385 19.8303 21.0159 19.5453 20.4777C19.2603 19.9396 19.1707 19.3192 19.2921 18.7224C19.4134 18.1256 19.7379 17.5893 20.2105 17.2051C20.683 16.821 21.2742 16.6126 21.8832 16.6156C22.4922 16.6186 23.0812 16.8328 23.5499 17.2217C24.0186 17.6105 24.3379 18.15 24.4533 18.7479C24.5687 19.3459 24.473 19.9654 24.1827 20.5007L23.8584 20.1759C24.0888 19.6843 24.1286 19.1247 23.9701 18.6055C23.8116 18.0863 23.4661 17.6443 23.0004 17.3653C22.5348 17.0862 21.9822 16.9898 21.4495 17.0948C20.9169 17.1998 20.4422 17.4988 20.1173 17.9337C19.7925 18.3687 19.6406 18.9087 19.691 19.4492C19.7415 19.9897 19.9907 20.4923 20.3905 20.8596C20.7902 21.2269 21.3121 21.4328 21.8549 21.4374C22.3978 21.442 22.923 21.2451 23.329 20.8846L23.9382 21.4938C23.9491 21.5042 23.9601 21.5146 23.9721 21.5245C24.0621 21.5977 24.1774 21.6323 24.2929 21.6206C24.4083 21.6089 24.5144 21.5519 24.5879 21.4621C25.0065 20.9491 25.2709 20.3279 25.3506 19.6705C25.4302 19.0132 25.3217 18.3468 25.0377 17.7487C24.7538 17.1506 24.3059 16.6453 23.7463 16.2915C23.1866 15.9377 22.538 15.7499 21.8759 15.75ZM22.9544 19.9998C22.7755 20.2578 22.5101 20.4433 22.2062 20.5225C21.9024 20.6018 21.5802 20.5696 21.2981 20.4317C21.0159 20.2939 20.7925 20.0596 20.6682 19.7712C20.5439 19.4829 20.527 19.1595 20.6206 18.8598C20.7142 18.5601 20.912 18.3037 21.1783 18.1373C21.4445 17.9708 21.7616 17.9053 22.0721 17.9524C22.3825 17.9996 22.6658 18.1564 22.8706 18.3945C23.0754 18.6325 23.1881 18.936 23.1884 19.25C23.1884 19.5179 23.1068 19.7794 22.9544 19.9998Z" fill="#004FAC"/>
</svg>
