<svg width="30" height="30" viewBox="0 0 30 30" fill="none" xmlns="http://www.w3.org/2000/svg">
<g clip-path="url(#clip0)">
<path d="M22.4958 6.05947C21.0153 3.31218 18.1204 1.62643 15.0005 1.69494C10.9504 1.69494 7.59241 4.3319 6.91008 7.79649C6.86188 7.79649 6.81817 7.79153 6.7747 7.79153C3.30042 7.79153 0.484375 10.3271 0.484375 13.4529C0.484375 16.4336 3.04407 18.8674 6.29083 19.09V19.1143H13.065V12.8984H16.936V19.1143H22.7424V19.09C26.5262 18.8674 29.5166 16.0417 29.5166 12.582C29.5166 9.04492 26.3956 6.17548 22.4958 6.05947Z" fill="#57A4FF"/>
<path d="M22.7946 5.58863C21.1774 2.82905 18.1981 1.15582 15 1.21111C10.9258 1.21111 7.42888 3.75332 6.52304 7.31218C2.90323 7.4322 0 10.1407 0 13.4529C0 16.5981 2.66861 19.2535 6.10344 19.5609C6.16274 19.5857 6.22629 19.5984 6.29032 19.5982H12.5806V21.1242H9.67742C9.49171 21.1242 9.32231 21.2306 9.24175 21.3978C9.16094 21.5649 9.18315 21.7636 9.29845 21.9091L14.621 28.6086C14.7129 28.7242 14.8523 28.7918 15 28.7918C15.1477 28.7918 15.2871 28.7242 15.379 28.6086L20.7015 21.9091C20.8168 21.7636 20.8391 21.5649 20.7583 21.3978C20.6777 21.2306 20.5083 21.1242 20.3226 21.1242H17.4194V19.5982H22.7419C22.801 19.5982 22.8594 19.5864 22.9137 19.5637C26.8988 19.2618 30 16.2201 30 12.5821C30 8.86444 26.8577 5.84072 22.7946 5.58863ZM19.3206 22.092L15 27.5301L10.6794 22.092H13.0645C13.3317 22.092 13.5484 21.8753 13.5484 21.6081V13.3823H16.4516V21.6081C16.4516 21.8753 16.6683 22.092 16.9355 22.092H19.3206ZM22.7133 18.608C22.6737 18.6104 22.6344 18.6177 22.5969 18.6305H17.4194V12.8984C17.4194 12.6312 17.2027 12.4146 16.9355 12.4146H13.0645C12.7973 12.4146 12.5806 12.6312 12.5806 12.8984V18.6305H6.4413C6.40302 18.6179 6.36333 18.6101 6.32316 18.6075C3.32023 18.4015 0.967742 16.1374 0.967742 13.4529C0.967742 10.5982 3.57044 8.27543 6.80892 8.27543H6.81247C6.84389 8.27543 6.87579 8.27851 6.9091 8.27851C7.14064 8.27851 7.33981 8.11501 7.38447 7.88796C8.03609 4.58072 11.2394 2.17885 15 2.17885C18.0436 2.17885 20.8161 3.78711 22.0646 6.27616C22.1442 6.4354 22.3051 6.53794 22.483 6.54338C26.1548 6.65253 29.0323 9.30531 29.0323 12.5821C29.0323 15.7523 26.2569 18.3987 22.7133 18.6071V18.608Z" fill="#004FAC"/>
</g>
<defs>
<clipPath id="clip0">
<rect width="30" height="30" fill="white"/>
</clipPath>
</defs>
</svg>
