<svg width="36" height="36" viewBox="0 0 36 36" fill="none" xmlns="http://www.w3.org/2000/svg">
<path d="M30 6H6C4.35 6 3 7.35 3 9V27C3 28.65 4.35 30 6 30H30C31.65 30 33 28.65 33 27V9C33 7.35 31.65 6 30 6ZM29.4 12.375L19.59 18.51C18.615 19.125 17.385 19.125 16.41 18.51L6.6 12.375C6.44959 12.2906 6.31788 12.1765 6.21283 12.0397C6.10779 11.9029 6.03159 11.7462 5.98886 11.5791C5.94613 11.4119 5.93775 11.2379 5.96423 11.0675C5.99072 10.897 6.0515 10.7337 6.14292 10.5875C6.23434 10.4412 6.35449 10.315 6.49609 10.2165C6.63769 10.118 6.79781 10.0493 6.96674 10.0144C7.13568 9.97963 7.30992 9.97945 7.47893 10.0139C7.64794 10.0484 7.8082 10.1168 7.95 10.215L18 16.5L28.05 10.215C28.1918 10.1168 28.3521 10.0484 28.5211 10.0139C28.6901 9.97945 28.8643 9.97963 29.0333 10.0144C29.2022 10.0493 29.3623 10.118 29.5039 10.2165C29.6455 10.315 29.7657 10.4412 29.8571 10.5875C29.9485 10.7337 30.0093 10.897 30.0358 11.0675C30.0622 11.2379 30.0539 11.4119 30.0111 11.5791C29.9684 11.7462 29.8922 11.9029 29.7872 12.0397C29.6821 12.1765 29.5504 12.2906 29.4 12.375V12.375Z" fill="white"/>
</svg>
