<svg width="40" height="40" viewBox="0 0 40 40" fill="none" xmlns="http://www.w3.org/2000/svg">
<g clip-path="url(#clip0)">
<path d="M23.1613 26.2967C22.1832 25.6143 21.138 25.0583 20.0449 24.6335C21.499 23.3118 22.4637 21.4603 22.6315 19.3875C24.8367 17.2388 27.7274 16.0608 30.8261 16.0608C33.2452 16.0608 35.5679 16.7893 37.5436 18.1671C38.2517 18.6609 39.2252 18.4876 39.7189 17.7795C40.2124 17.0718 40.0391 16.098 39.3314 15.6046C38.3533 14.9222 37.3077 14.3665 36.2146 13.9414C37.8192 12.4829 38.8281 10.3799 38.8281 8.04596C38.8281 3.65234 35.2539 0.078125 30.8603 0.078125C26.467 0.078125 22.8928 3.65234 22.8928 8.04596C22.8928 10.3705 23.8934 12.4658 25.4871 13.9237C25.2689 14.0076 25.0519 14.0964 24.837 14.191C23.8593 14.6213 22.9401 15.1505 22.0853 15.7718C20.9064 12.843 18.0362 10.7703 14.6905 10.7703C10.2972 10.7703 6.7227 14.3445 6.7227 18.7378C6.7227 21.0559 7.71788 23.1455 9.30297 24.6027C5.06499 26.1905 1.62871 29.6008 0.229781 33.9502C-0.234086 35.3925 0.0115803 36.922 0.903915 38.1467C1.79625 39.371 3.17687 40.0733 4.69176 40.0733H18.284C19.1467 40.0733 19.8462 39.3738 19.8462 38.5108C19.8462 37.648 19.1467 36.9486 18.284 36.9486H4.69176C4.18669 36.9486 3.72649 36.7145 3.42894 36.3062C3.13139 35.8978 3.04961 35.3879 3.20403 34.9069C4.74822 30.1059 9.45769 26.7529 14.6564 26.7529C17.0752 26.7529 19.3982 27.4814 21.3739 28.8593C22.0816 29.353 23.0554 29.1794 23.5492 28.4717C24.0427 27.764 23.8693 26.7902 23.1613 26.2967ZM30.8603 3.20282C33.5309 3.20282 35.7034 5.37537 35.7034 8.04596C35.7034 10.7163 33.5309 12.8891 30.8603 12.8891C28.19 12.8891 26.0172 10.7163 26.0172 8.04596C26.0172 5.37537 28.19 3.20282 30.8603 3.20282ZM14.6905 13.8947C17.3611 13.8947 19.5337 16.0675 19.5337 18.7378C19.5337 21.4084 17.3611 23.5809 14.6905 23.5809C12.0199 23.5809 9.8474 21.4084 9.8474 18.7378C9.8474 16.0675 12.0199 13.8947 14.6905 13.8947ZM40 32.6523C40 33.515 39.3005 34.2145 38.4375 34.2145H34.1412V38.5108C34.1412 39.3738 33.4418 40.0733 32.579 40.0733C31.716 40.0733 31.0165 39.3738 31.0165 38.5108V34.2145H26.7203C25.8575 34.2145 25.1581 33.515 25.1581 32.6523C25.1581 31.7893 25.8575 31.0898 26.7203 31.0898H31.0165V26.7935C31.0165 25.9308 31.716 25.2313 32.579 25.2313C33.4418 25.2313 34.1412 25.9308 34.1412 26.7935V31.0898H38.4375C39.3005 31.0898 40 31.7893 40 32.6523Z" fill="#004FAC"/>
<path d="M36 8C36 10.7614 33.7614 13 31 13C28.2386 13 26 10.7614 26 8C26 5.23858 28.2386 3 31 3C33.7614 3 36 5.23858 36 8Z" fill="#57A4FF"/>
<path d="M20 18.5C20 21.2614 17.2614 24 14.5 24C11.7386 24 9.5 21.2614 9.5 18.5C9.5 15.7386 11.7386 13.5 14.5 13.5C17.2614 13.5 20 15.7386 20 18.5Z" fill="#57A4FF"/>
</g>
<defs>
<clipPath id="clip0">
<rect width="40" height="40" fill="white"/>
</clipPath>
</defs>
</svg>
