<svg width="81" height="67" viewBox="0 0 81 67" fill="none" xmlns="http://www.w3.org/2000/svg">
<path d="M27.5312 12.0469H40.5V30.2031H27.5312V12.0469Z" fill="#57A4FF"/>
<path d="M27.5312 35.3906H40.5V53.5469H27.5312V35.3906Z" fill="#57A4FF"/>
<path d="M52.1719 49.6562H66.4375V65.2188H52.1719V49.6562Z" fill="#57A4FF"/>
<path d="M52.1719 40.5781H66.4375V45.7656H52.1719V40.5781Z" fill="#57A4FF"/>
<path d="M63.8437 35.3906H46.9844V14.6406L63.8437 22.4219V35.3906Z" fill="#57A4FF"/>
<path d="M5.9305 50.4486C5.4508 49.3766 5.35301 48.1726 5.65342 47.0373C5.95384 45.9019 6.63432 44.9038 7.58143 44.2094C7.14061 43.633 6.86978 42.9448 6.79953 42.2226C6.72928 41.5003 6.86241 40.7728 7.18387 40.1223C7.50534 39.4717 8.00233 38.9241 8.6187 38.5411C9.23506 38.1582 9.94624 37.9553 10.6719 37.9553C11.3975 37.9553 12.1087 38.1582 12.7251 38.5411C13.3414 38.9241 13.8384 39.4717 14.1599 40.1223C14.4814 40.7728 14.6145 41.5003 14.5442 42.2226C14.474 42.9448 14.2031 43.633 13.7623 44.2094C14.7083 44.9036 15.388 45.9007 15.6883 47.035C15.9887 48.1692 15.8916 49.3721 15.4133 50.4434C16.2751 51.3672 16.8483 52.5226 17.0624 53.7676C17.2766 55.0127 17.1224 56.2932 16.6187 57.4518C16.1151 58.6104 15.284 59.5967 14.2275 60.2894C13.171 60.9822 11.9352 61.3512 10.6719 61.3512C9.40854 61.3512 8.17271 60.9822 7.11624 60.2894C6.05976 59.5967 5.22865 58.6104 4.72503 57.4518C4.2214 56.2932 4.06719 55.0127 4.28135 53.7676C4.49551 52.5226 5.0687 51.3672 5.9305 50.4434V50.4486Z" fill="#57A4FF"/>
<path d="M74.2188 63.9219H72.9219V35.3906C72.9219 35.0467 72.7852 34.7168 72.542 34.4736C72.2988 34.2304 71.969 34.0938 71.625 34.0938H65.1406V22.4219C65.1406 22.1741 65.0697 21.9316 64.9361 21.7229C64.8026 21.5142 64.6121 21.3481 64.3871 21.2443L48.2812 13.8106V6.85938C48.2812 6.51542 48.1446 6.18556 47.9014 5.94235C47.6582 5.69913 47.3283 5.5625 46.9844 5.5625H21.0469C20.7029 5.5625 20.3731 5.69913 20.1298 5.94235C19.8866 6.18556 19.75 6.51542 19.75 6.85938V63.9219H11.9688V62.5083C13.2851 62.2908 14.523 61.7372 15.5626 60.9011C16.6023 60.065 17.4085 58.9746 17.9032 57.7355C18.3979 56.4965 18.5644 55.1507 18.3865 53.8284C18.2086 52.5062 17.6924 51.2522 16.8878 50.188C17.2094 49.1106 17.2426 47.9677 16.9841 46.8735C16.7256 45.7793 16.1843 44.7721 15.4145 43.9526C15.7079 43.2993 15.8595 42.5912 15.8594 41.875C15.8594 40.4992 15.3128 39.1797 14.34 38.2069C13.3671 37.234 12.0477 36.6875 10.6719 36.6875C9.29606 36.6875 7.9766 37.234 7.00376 38.2069C6.03091 39.1797 5.48438 40.4992 5.48438 41.875C5.48381 42.5929 5.63542 43.3027 5.9292 43.9578C5.1594 44.777 4.61817 45.784 4.35963 46.878C4.10109 47.972 4.1343 49.1147 4.45595 50.1919C3.65231 51.2561 3.13689 52.5097 2.95952 53.8314C2.78215 55.1532 2.94883 56.4983 3.44346 57.7368C3.93809 58.9752 4.74392 60.0651 5.78302 60.901C6.82212 61.7369 8.05933 62.2905 9.375 62.5083V63.9219H1.59375C1.2498 63.9219 0.919932 64.0585 0.676721 64.3017C0.43351 64.5449 0.296875 64.8748 0.296875 65.2188C0.296875 65.5627 0.43351 65.8926 0.676721 66.1358C0.919932 66.379 1.2498 66.5156 1.59375 66.5156H74.2188C74.5627 66.5156 74.8926 66.379 75.1358 66.1358C75.379 65.8926 75.5156 65.5627 75.5156 65.2188C75.5156 64.8748 75.379 64.5449 75.1358 64.3017C74.8926 64.0585 74.5627 63.9219 74.2188 63.9219ZM5.48438 54.8438C5.48913 53.5382 5.98818 52.2829 6.88111 51.3305C7.05346 51.1449 7.16765 50.9128 7.2096 50.6629C7.25154 50.4131 7.2194 50.1565 7.11714 49.9247C6.75775 49.1221 6.68492 48.2204 6.91085 47.3705C7.13677 46.5206 7.64775 45.7741 8.35825 45.256C8.63341 45.0496 8.81532 44.7424 8.86397 44.4019C8.91261 44.0614 8.824 43.7155 8.61763 43.4403C8.26998 42.9924 8.08029 42.442 8.07812 41.875C8.07812 41.1871 8.35139 40.5274 8.83782 40.0409C9.32424 39.5545 9.98397 39.2812 10.6719 39.2812C11.3598 39.2812 12.0195 39.5545 12.5059 40.0409C12.9924 40.5274 13.2656 41.1871 13.2656 41.875C13.2622 42.4386 13.0735 42.9854 12.7287 43.4313C12.5223 43.7064 12.4337 44.0523 12.4824 44.3928C12.531 44.7333 12.7129 45.0405 12.9881 45.2469C13.6986 45.7651 14.2096 46.5116 14.4355 47.3614C14.6614 48.2113 14.5886 49.113 14.2292 49.9156C14.1269 50.1474 14.0948 50.404 14.1367 50.6539C14.1787 50.9037 14.2929 51.1358 14.4652 51.3214C15.0815 51.9748 15.5162 52.7781 15.7259 53.6515C15.9356 54.5248 15.9132 55.4379 15.6607 56.2998C15.4083 57.1618 14.9348 57.9428 14.2871 58.5651C13.6394 59.1874 12.8401 59.6293 11.9688 59.8471V56.1406C11.9688 55.7967 11.8321 55.4668 11.5889 55.2236C11.3457 54.9804 11.0158 54.8438 10.6719 54.8438C10.3279 54.8438 9.99806 54.9804 9.75485 55.2236C9.51163 55.4668 9.375 55.7967 9.375 56.1406V59.8471C8.26469 59.5604 7.28065 58.9139 6.57673 58.0087C5.87281 57.1034 5.48867 55.9905 5.48438 54.8438ZM62.5469 23.2519V34.0938H48.2812V16.6676L62.5469 23.2519ZM22.3438 8.15625H45.6875V63.9219H22.3438V8.15625ZM53.4688 63.9219V50.9531H65.1406V63.9219H53.4688ZM67.7344 63.9219V49.6562C67.7344 49.3123 67.5977 48.9824 67.3545 48.7392C67.1113 48.496 66.7815 48.3594 66.4375 48.3594H52.1719C51.8279 48.3594 51.4981 48.496 51.2548 48.7392C51.0116 48.9824 50.875 49.3123 50.875 49.6562V63.9219H48.2812V36.6875H70.3281V63.9219H67.7344Z" fill="#004FAC"/>
<path d="M79.4062 63.9219H78.1094C77.7654 63.9219 77.4356 64.0585 77.1923 64.3017C76.9491 64.5449 76.8125 64.8748 76.8125 65.2188C76.8125 65.5627 76.9491 65.8926 77.1923 66.1358C77.4356 66.379 77.7654 66.5156 78.1094 66.5156H79.4062C79.7502 66.5156 80.0801 66.379 80.3233 66.1358C80.5665 65.8926 80.7031 65.5627 80.7031 65.2188C80.7031 64.8748 80.5665 64.5449 80.3233 64.3017C80.0801 64.0585 79.7502 63.9219 79.4062 63.9219Z" fill="#004FAC"/>
<path d="M40.5 10.75H27.5312C27.1873 10.75 26.8574 10.8866 26.6142 11.1298C26.371 11.3731 26.2344 11.7029 26.2344 12.0469V30.2031C26.2344 30.5471 26.371 30.8769 26.6142 31.1202C26.8574 31.3634 27.1873 31.5 27.5312 31.5H40.5C40.844 31.5 41.1738 31.3634 41.417 31.1202C41.6602 30.8769 41.7969 30.5471 41.7969 30.2031V12.0469C41.7969 11.7029 41.6602 11.3731 41.417 11.1298C41.1738 10.8866 40.844 10.75 40.5 10.75ZM28.8281 28.9062V13.3438H32.7188V28.9062H28.8281ZM39.2031 28.9062H35.3125V13.3438H39.2031V28.9062Z" fill="#004FAC"/>
<path d="M40.5 34.0938H27.5312C27.1873 34.0938 26.8574 34.2304 26.6142 34.4736C26.371 34.7168 26.2344 35.0467 26.2344 35.3906V53.5469C26.2344 53.8908 26.371 54.2207 26.6142 54.4639C26.8574 54.7071 27.1873 54.8438 27.5312 54.8438H40.5C40.844 54.8438 41.1738 54.7071 41.417 54.4639C41.6602 54.2207 41.7969 53.8908 41.7969 53.5469V35.3906C41.7969 35.0467 41.6602 34.7168 41.417 34.4736C41.1738 34.2304 40.844 34.0938 40.5 34.0938ZM28.8281 52.25V36.6875H32.7188V52.25H28.8281ZM39.2031 52.25H35.3125V36.6875H39.2031V52.25Z" fill="#004FAC"/>
<path d="M66.4375 39.2812H52.1719C51.8279 39.2812 51.4981 39.4179 51.2548 39.6611C51.0116 39.9043 50.875 40.2342 50.875 40.5781V45.7656C50.875 46.1096 51.0116 46.4394 51.2548 46.6827C51.4981 46.9259 51.8279 47.0625 52.1719 47.0625H66.4375C66.7815 47.0625 67.1113 46.9259 67.3545 46.6827C67.5977 46.4394 67.7344 46.1096 67.7344 45.7656V40.5781C67.7344 40.2342 67.5977 39.9043 67.3545 39.6611C67.1113 39.4179 66.7815 39.2812 66.4375 39.2812ZM65.1406 44.4688H53.4688V41.875H65.1406V44.4688Z" fill="#004FAC"/>
<path d="M71.4681 4.2929C71.2166 3.28892 70.67 2.38338 69.8987 1.69322C69.1274 1.00306 68.167 0.559977 67.1413 0.421197C66.1157 0.282416 65.072 0.454311 64.145 0.914681C63.2181 1.37505 62.4504 2.10275 61.9412 3.00381C60.6262 3.15738 59.4196 3.80796 58.5687 4.82228C57.7178 5.83661 57.2869 7.1379 57.3643 8.45962C57.4417 9.78134 58.0216 11.0234 58.9851 11.9315C59.9486 12.8395 61.2229 13.3448 62.5469 13.3438H71.625C71.8546 13.3442 72.0796 13.2789 72.2734 13.1557C73.278 12.8569 74.1482 12.2196 74.7363 11.352C75.3244 10.4845 75.5941 9.44016 75.4997 8.39633C75.4054 7.3525 74.9526 6.3735 74.2185 5.62553C73.4843 4.87755 72.5139 4.4067 71.472 4.2929H71.4681ZM71.3656 10.7111C71.3165 10.7215 71.2681 10.7345 71.2204 10.75H62.5469C62.2062 10.753 61.8684 10.6889 61.5525 10.5613C61.2367 10.4337 60.9491 10.2451 60.7062 10.0064C60.4632 9.76766 60.2696 9.48339 60.1365 9.16985C60.0034 8.8563 59.9334 8.5196 59.9304 8.17899C59.9274 7.83837 59.9916 7.5005 60.1192 7.18468C60.2468 6.86885 60.4353 6.58124 60.6741 6.33828C60.9128 6.09532 61.1971 5.90177 61.5106 5.76866C61.8242 5.63556 62.1609 5.56552 62.5015 5.56254L62.6921 5.58329C62.9759 5.60505 63.2587 5.53153 63.496 5.37438C63.7332 5.21723 63.9113 4.98543 64.002 4.71568C64.1991 4.14061 64.5926 3.65343 65.1133 3.33976C65.6341 3.02609 66.2487 2.90601 66.8492 3.00062C67.4497 3.09523 67.9977 3.39849 68.3968 3.85708C68.7958 4.31567 69.0205 4.90025 69.0312 5.50807C69.0312 5.55087 69.0248 5.59496 69.0248 5.62868C69.0247 5.82101 69.0675 6.01095 69.1499 6.18472C69.2323 6.3585 69.3523 6.51176 69.5013 6.63342C69.6503 6.75508 69.8244 6.84208 70.0112 6.88812C70.1979 6.93416 70.3926 6.93809 70.581 6.89962C70.8632 6.84775 71.1534 6.85775 71.4314 6.92893C71.7093 7.00012 71.9686 7.13078 72.1911 7.31192C72.4137 7.49305 72.5943 7.72033 72.7205 7.97807C72.8466 8.2358 72.9153 8.51785 72.9219 8.80473C72.922 9.25319 72.7671 9.6879 72.4835 10.0353C72.1999 10.3827 71.805 10.6214 71.3656 10.7111Z" fill="#004FAC"/>
</svg>
