<svg width="24" height="24" viewBox="0 0 24 24" fill="none" xmlns="http://www.w3.org/2000/svg">
<path d="M12 0.00100708C5.37328 0.00100708 0 5.37323 0 12.0005C0 18.6277 5.37275 23.9999 12 23.9999C18.6278 23.9999 24 18.6277 24 12.0005C24 5.37323 18.6278 0.00100708 12 0.00100708ZM12 3.58899C14.1927 3.58899 15.9696 5.36638 15.9696 7.55806C15.9696 9.75028 14.1927 11.5271 12 11.5271C9.80831 11.5271 8.03145 9.75028 8.03145 7.55806C8.03145 5.36638 9.80831 3.58899 12 3.58899ZM11.9974 20.8626C9.81042 20.8626 7.80743 20.0662 6.2625 18.7479C5.88615 18.4269 5.66898 17.9562 5.66898 17.4623C5.66898 15.2395 7.46798 13.4606 9.69129 13.4606H14.3098C16.5336 13.4606 18.3257 15.2395 18.3257 17.4623C18.3257 17.9567 18.1096 18.4264 17.7328 18.7474C16.1884 20.0662 14.1848 20.8626 11.9974 20.8626Z" fill="white"/>
</svg>
