<svg width="78" height="78" viewBox="0 0 78 78" fill="none" xmlns="http://www.w3.org/2000/svg">
<path d="M73.125 47.5312H49.9688L39 37.7812L28.0312 47.5312H4.875L10.9688 26.8124H67.0312L73.125 47.5312Z" fill="#57A4FF"/>
<path d="M35.3438 57.2812H42.6562V69.4687H35.3438V57.2812Z" fill="#57A4FF"/>
<path d="M39 52.4062C41.0193 52.4062 42.6562 50.7692 42.6562 48.7499C42.6562 46.7306 41.0193 45.0937 39 45.0937C36.9807 45.0937 35.3438 46.7306 35.3438 48.7499C35.3438 50.7692 36.9807 52.4062 39 52.4062Z" fill="#57A4FF"/>
<path d="M13.4062 57.2812H24.375V62.1562H13.4062V57.2812Z" fill="#57A4FF"/>
<path d="M53.625 57.2812H64.5938V62.1562H53.625V57.2812Z" fill="#57A4FF"/>
<path d="M70.6875 68.2499H69.4688V48.7499H73.125C73.3144 48.7499 73.5011 48.7057 73.6704 48.6208C73.8398 48.536 73.987 48.4129 74.1004 48.2612C74.2139 48.1096 74.2904 47.9336 74.324 47.7472C74.3575 47.5608 74.3472 47.3692 74.2938 47.1875L68.2 26.4688C68.1258 26.2163 67.9719 25.9946 67.7612 25.8368C67.5505 25.6791 67.2944 25.5938 67.0313 25.5937H59.7188V20.7187C59.7188 20.3955 59.5904 20.0855 59.3618 19.8569C59.1332 19.6283 58.8232 19.4999 58.5 19.4999H51.1875C50.8643 19.4999 50.5543 19.6283 50.3257 19.8569C50.0972 20.0855 49.9688 20.3955 49.9688 20.7187V25.5937H10.9688C10.7056 25.5938 10.4495 25.6791 10.2388 25.8368C10.0281 25.9946 9.87419 26.2163 9.79997 26.4688L3.70622 47.1875C3.65281 47.3692 3.64249 47.5608 3.67605 47.7472C3.70962 47.9336 3.78616 48.1096 3.89959 48.2612C4.01303 48.4129 4.16024 48.536 4.32956 48.6208C4.49887 48.7057 4.68562 48.7499 4.875 48.7499H8.53125V68.2499H2.4375C2.11427 68.2499 1.80427 68.3783 1.57571 68.6069C1.34715 68.8355 1.21875 69.1455 1.21875 69.4687C1.21875 69.7919 1.34715 70.1019 1.57571 70.3305C1.80427 70.559 2.11427 70.6874 2.4375 70.6874H70.6875C71.0107 70.6874 71.3207 70.559 71.5493 70.3305C71.7779 70.1019 71.9063 69.7919 71.9063 69.4687C71.9063 69.1455 71.7779 68.8355 71.5493 68.6069C71.3207 68.3783 71.0107 68.2499 70.6875 68.2499ZM52.4063 21.9374H57.2813V25.5937H52.4063V21.9374ZM11.8804 28.0312H66.1148L71.4907 46.3124H50.4319L39.8093 36.8696C39.5862 36.6715 39.2983 36.5621 39 36.5621C38.7017 36.5621 38.4138 36.6715 38.1908 36.8696L27.5681 46.3124H6.50447L11.8804 28.0312ZM10.9688 48.7499H26.8125V68.2499H10.9688V48.7499ZM29.25 48.0784L39 39.4119L48.75 48.0784V68.2499H43.875V57.2812C43.875 56.958 43.7466 56.648 43.518 56.4194C43.2895 56.1908 42.9795 56.0624 42.6563 56.0624H35.3438C35.0205 56.0624 34.7105 56.1908 34.482 56.4194C34.2534 56.648 34.125 56.958 34.125 57.2812V68.2499H29.25V48.0784ZM36.5625 68.2499V58.4999H41.4375V68.2499H36.5625ZM51.1875 68.2499V48.7499H67.0313V68.2499H51.1875Z" fill="#004FAC"/>
<path d="M75.5625 68.2499H74.3438C74.0205 68.2499 73.7105 68.3783 73.482 68.6069C73.2534 68.8355 73.125 69.1455 73.125 69.4687C73.125 69.7919 73.2534 70.1019 73.482 70.3305C73.7105 70.559 74.0205 70.6874 74.3438 70.6874H75.5625C75.8857 70.6874 76.1957 70.559 76.4243 70.3305C76.6528 70.1019 76.7812 69.7919 76.7812 69.4687C76.7812 69.1455 76.6528 68.8355 76.4243 68.6069C76.1957 68.3783 75.8857 68.2499 75.5625 68.2499Z" fill="#004FAC"/>
<path d="M39 53.625C39.9642 53.625 40.9067 53.339 41.7084 52.8034C42.5101 52.2677 43.135 51.5063 43.5039 50.6155C43.8729 49.7247 43.9694 48.7445 43.7813 47.7989C43.5932 46.8532 43.1289 45.9846 42.4472 45.3028C41.7654 44.621 40.8967 44.1567 39.9511 43.9686C39.0054 43.7805 38.0252 43.8771 37.1344 44.246C36.2436 44.615 35.4823 45.2398 34.9466 46.0415C34.4109 46.8432 34.125 47.7858 34.125 48.75C34.125 50.0429 34.6386 51.2829 35.5529 52.1971C36.4671 53.1113 37.7071 53.625 39 53.625ZM39 46.3124C39.4821 46.3124 39.9534 46.4554 40.3542 46.7232C40.7551 46.9911 41.0675 47.3718 41.252 47.8172C41.4365 48.2626 41.4847 48.7527 41.3907 49.2255C41.2966 49.6983 41.0645 50.1326 40.7236 50.4735C40.3827 50.8144 39.9484 51.0466 39.4755 51.1406C39.0027 51.2347 38.5126 51.1864 38.0672 51.0019C37.6218 50.8174 37.2411 50.505 36.9733 50.1042C36.7055 49.7033 36.5625 49.232 36.5625 48.75C36.5625 48.1035 36.8193 47.4835 37.2764 47.0264C37.7336 46.5693 38.3535 46.3124 39 46.3124Z" fill="#004FAC"/>
<path d="M24.375 56.0624H13.4062C13.083 56.0624 12.773 56.1908 12.5445 56.4194C12.3159 56.648 12.1875 56.958 12.1875 57.2812V62.1562C12.1875 62.4794 12.3159 62.7894 12.5445 63.018C12.773 63.2465 13.083 63.3749 13.4062 63.3749H24.375C24.6982 63.3749 25.0082 63.2465 25.2368 63.018C25.4653 62.7894 25.5938 62.4794 25.5938 62.1562V57.2812C25.5938 56.958 25.4653 56.648 25.2368 56.4194C25.0082 56.1908 24.6982 56.0624 24.375 56.0624ZM23.1562 60.9374H14.625V58.4999H23.1562V60.9374Z" fill="#004FAC"/>
<path d="M64.5938 56.0624H53.625C53.3018 56.0624 52.9918 56.1908 52.7632 56.4194C52.5347 56.648 52.4062 56.958 52.4062 57.2812V62.1562C52.4062 62.4794 52.5347 62.7894 52.7632 63.018C52.9918 63.2465 53.3018 63.3749 53.625 63.3749H64.5938C64.917 63.3749 65.227 63.2465 65.4555 63.018C65.6841 62.7894 65.8125 62.4794 65.8125 62.1562V57.2812C65.8125 56.958 65.6841 56.648 65.4555 56.4194C65.227 56.1908 64.917 56.0624 64.5938 56.0624ZM63.375 60.9374H54.8438V58.4999H63.375V60.9374Z" fill="#004FAC"/>
<path d="M15.8437 21.9375H24.375C24.5908 21.9379 24.8022 21.8766 24.9844 21.7608C25.9284 21.4799 26.7462 20.881 27.2988 20.0657C27.8515 19.2505 28.105 18.269 28.0163 17.2881C27.9276 16.3071 27.5022 15.3871 26.8122 14.6842C26.1222 13.9813 25.2103 13.5388 24.2312 13.4318C23.9949 12.4884 23.4812 11.6374 22.7563 10.9888C22.0315 10.3402 21.1289 9.9238 20.1651 9.79338C19.2012 9.66296 18.2204 9.8245 17.3493 10.2571C16.4782 10.6898 15.7568 11.3736 15.2782 12.2204C14.0427 12.3647 12.9091 12.9758 12.1095 13.9286C11.3098 14.8815 10.9047 16.1039 10.9769 17.3457C11.0492 18.5875 11.5934 19.7547 12.4982 20.6084C13.403 21.462 14.5998 21.9375 15.8437 21.9375ZM15.8011 14.625L15.9802 14.6445C16.2468 14.6645 16.5125 14.5953 16.7353 14.4476C16.9582 14.3 17.1256 14.0824 17.2112 13.8292C17.3964 13.2887 17.7662 12.8309 18.2556 12.5361C18.745 12.2414 19.3226 12.1285 19.8869 12.2174C20.4513 12.3063 20.9662 12.5913 21.3412 13.0223C21.7162 13.4532 21.9274 14.0026 21.9375 14.5738V14.6872C21.9374 14.8679 21.9776 15.0464 22.0551 15.2097C22.1325 15.373 22.2453 15.517 22.3853 15.6314C22.5253 15.7457 22.689 15.8275 22.8645 15.8707C23.04 15.914 23.2229 15.9177 23.4 15.8815C23.6648 15.8336 23.9368 15.8436 24.1974 15.9108C24.458 15.9781 24.7009 16.101 24.9094 16.2712C25.1179 16.4414 25.287 16.6547 25.4052 16.8965C25.5233 17.1383 25.5876 17.4028 25.5937 17.6719C25.5938 18.0933 25.4483 18.5018 25.1818 18.8283C24.9153 19.1548 24.5441 19.3792 24.1312 19.4634C24.0851 19.4732 24.0395 19.4854 23.9947 19.5H15.8437C15.1973 19.5057 14.575 19.2543 14.1139 18.8012C13.6528 18.348 13.3906 17.7303 13.3849 17.0838C13.3792 16.4374 13.6306 15.8151 14.0837 15.354C14.5369 14.8929 15.1546 14.6307 15.8011 14.625Z" fill="#004FAC"/>
</svg>
