<svg width="82" height="76" viewBox="0 0 82 76" fill="none" xmlns="http://www.w3.org/2000/svg">
<path d="M79.6562 73.0469H75.4844V2.125C75.4844 1.75618 75.3379 1.40247 75.0771 1.14168C74.8163 0.880887 74.4626 0.734375 74.0938 0.734375H57.4062C57.0374 0.734375 56.6837 0.880887 56.4229 1.14168C56.1621 1.40247 56.0156 1.75618 56.0156 2.125V10.4688H30.9844V2.125C30.9844 1.75618 30.8379 1.40247 30.5771 1.14168C30.3163 0.880887 29.9626 0.734375 29.5938 0.734375H12.9062C12.5374 0.734375 12.1837 0.880887 11.9229 1.14168C11.6621 1.40247 11.5156 1.75618 11.5156 2.125V73.0469H1.78125C1.41243 73.0469 1.05872 73.1934 0.79793 73.4542C0.537137 73.715 0.390625 74.0687 0.390625 74.4375C0.390625 74.8063 0.537137 75.16 0.79793 75.4208C1.05872 75.6816 1.41243 75.8281 1.78125 75.8281H79.6562C80.0251 75.8281 80.3788 75.6816 80.6396 75.4208C80.9004 75.16 81.0469 74.8063 81.0469 74.4375C81.0469 74.0687 80.9004 73.715 80.6396 73.4542C80.3788 73.1934 80.0251 73.0469 79.6562 73.0469ZM14.2969 3.51562H28.2031V73.0469H14.2969V3.51562ZM30.9844 13.25H56.0156V73.0469H54.625V59.1406C54.625 58.7718 54.4785 58.4181 54.2177 58.1573C53.9569 57.8965 53.6032 57.75 53.2344 57.75H33.7656C33.3968 57.75 33.0431 57.8965 32.7823 58.1573C32.5215 58.4181 32.375 58.7718 32.375 59.1406V73.0469H30.9844V13.25ZM42.1094 61.9219H35.1562V60.5312H42.1094V61.9219ZM44.8906 60.5312H51.8438V61.9219H44.8906V60.5312ZM35.1562 73.0469V64.7031H42.1094V73.0469H35.1562ZM44.8906 73.0469V64.7031H51.8438V73.0469H44.8906ZM58.7969 73.0469V3.51562H72.7031V73.0469H58.7969Z" fill="#004FAC"/>
</svg>
