<svg width="43" height="39" viewBox="0 0 43 39" fill="none" xmlns="http://www.w3.org/2000/svg">
<path d="M42.9265 24.8495C42.799 24.237 42.1992 23.8439 41.5865 23.9714C40.974 24.0989 40.5809 24.6988 40.7084 25.3113C40.7819 25.6641 40.6944 26.0257 40.4685 26.3036C40.3376 26.4645 40.0459 26.7344 39.5623 26.7344H17.4377C16.9541 26.7344 16.6623 26.4644 16.5315 26.3036C16.3055 26.0257 16.2181 25.6641 16.2915 25.3113C17.4672 19.6645 22.4479 15.5396 28.1997 15.4005C28.2993 15.4043 28.3994 15.4062 28.5 15.4062C28.6009 15.4062 28.7014 15.4043 28.8014 15.4004C32.853 15.4976 36.5979 17.5498 38.8657 20.9319C39.2141 21.4516 39.9178 21.5904 40.4375 21.242C40.9571 20.8936 41.0959 20.1899 40.7475 19.6703C38.8887 16.8981 36.1896 14.8822 33.1121 13.8693C34.9875 12.463 36.2031 10.2223 36.2031 7.70312C36.2031 3.45564 32.7475 0 28.5 0C24.2524 0 20.7969 3.45564 20.7969 7.70312C20.7969 10.2239 22.0139 12.4657 23.8913 13.8719C22.1712 14.4382 20.5573 15.3194 19.1446 16.4813C16.5544 18.6119 14.7534 21.5838 14.0735 24.8495C13.8604 25.8728 14.1157 26.9238 14.7737 27.733C15.4286 28.5382 16.3996 29 17.4377 29H39.5622C40.6004 29 41.5714 28.5382 42.2262 27.733C42.8843 26.9238 43.1395 25.8728 42.9265 24.8495ZM23.0625 7.70312C23.0625 4.70485 25.5017 2.26562 28.5 2.26562C31.4982 2.26562 33.9375 4.70485 33.9375 7.70312C33.9375 10.6091 31.6461 12.9899 28.7752 13.1337C28.6836 13.132 28.5918 13.1312 28.5 13.1312C28.4086 13.1312 28.3171 13.1321 28.2258 13.1338C25.3544 12.9905 23.0625 10.6095 23.0625 7.70312Z" fill="#696969"/>
<path d="M8.49963 25L21.4996 25.5L27.9996 36.5L2.49963 37.5L0.999634 33L8.49963 25Z" fill="white"/>
<path d="M33.9996 7.5C33.9996 10.5376 31.5372 13.5 28.4996 13.5C25.4621 13.5 22.9996 10.5376 22.9996 7.5C22.9996 4.46243 25.4621 2 28.4996 2C31.5372 2 33.9996 4.46243 33.9996 7.5Z" fill="#9B9B9B"/>
<path d="M28.9265 34.8495C28.799 34.237 28.1992 33.8439 27.5865 33.9714C26.974 34.0989 26.5809 34.6988 26.7084 35.3113C26.7819 35.6641 26.6944 36.0257 26.4685 36.3036C26.3376 36.4645 26.0459 36.7344 25.5623 36.7344H3.43767C2.95407 36.7344 2.66231 36.4644 2.53147 36.3036C2.30553 36.0257 2.21808 35.6641 2.29154 35.3113C3.46718 29.6645 8.44787 25.5396 14.1997 25.4005C14.2993 25.4043 14.3994 25.4062 14.5 25.4062C14.6009 25.4062 14.7014 25.4043 14.8014 25.4004C18.853 25.4976 22.5979 27.5498 24.8657 30.9319C25.2141 31.4516 25.9178 31.5904 26.4375 31.242C26.9571 30.8936 27.0959 30.1899 26.7475 29.6703C24.8887 26.8981 22.1896 24.8822 19.1121 23.8693C20.9875 22.463 22.2031 20.2223 22.2031 17.7031C22.2031 13.4556 18.7475 10 14.5 10C10.2524 10 6.79685 13.4556 6.79685 17.7031C6.79685 20.2239 8.01395 22.4657 9.8913 23.8719C8.17124 24.4382 6.55726 25.3194 5.14465 26.4813C2.55436 28.6119 0.753355 31.5838 0.0734977 34.8495C-0.139584 35.8728 0.115695 36.9238 0.773746 37.733C1.42857 38.5382 2.39956 39 3.43767 39H25.5622C26.6004 39 27.5714 38.5382 28.2262 37.733C28.8843 36.9238 29.1395 35.8728 28.9265 34.8495ZM9.06248 17.7031C9.06248 14.7049 11.5017 12.2656 14.5 12.2656C17.4982 12.2656 19.9375 14.7049 19.9375 17.7031C19.9375 20.6091 17.6461 22.9899 14.7752 23.1337C14.6836 23.132 14.5918 23.1312 14.5 23.1312C14.4086 23.1312 14.3171 23.1321 14.2258 23.1338C11.3544 22.9905 9.06248 20.6095 9.06248 17.7031Z" fill="#696969"/>
<path d="M19.9996 17.5C19.9996 20.5376 17.5372 23.5 14.4996 23.5C11.4621 23.5 8.99963 20.5376 8.99963 17.5C8.99963 14.4624 11.4621 12 14.4996 12C17.5372 12 19.9996 14.4624 19.9996 17.5Z" fill="#9B9B9B"/>
</svg>
