<svg width="76" height="62" viewBox="0 0 76 62" fill="none" xmlns="http://www.w3.org/2000/svg">
<path d="M69.6875 59.2499H68.4688V39.7499H72.125C72.3144 39.7499 72.5011 39.7057 72.6704 39.6208C72.8398 39.536 72.987 39.4129 73.1004 39.2612C73.2139 39.1096 73.2904 38.9336 73.324 38.7472C73.3575 38.5608 73.3472 38.3692 73.2938 38.1875L67.2 17.4688C67.1258 17.2163 66.9719 16.9946 66.7612 16.8368C66.5505 16.6791 66.2944 16.5938 66.0313 16.5937H58.7188V11.7187C58.7188 11.3955 58.5904 11.0855 58.3618 10.8569C58.1332 10.6283 57.8232 10.4999 57.5 10.4999H50.1875C49.8643 10.4999 49.5543 10.6283 49.3257 10.8569C49.0972 11.0855 48.9688 11.3955 48.9688 11.7187V16.5937H9.96875C9.70557 16.5938 9.4495 16.6791 9.23882 16.8368C9.02814 16.9946 8.87419 17.2163 8.79997 17.4688L2.70622 38.1875C2.65281 38.3692 2.64249 38.5608 2.67605 38.7472C2.70962 38.9336 2.78616 39.1096 2.89959 39.2612C3.01303 39.4129 3.16024 39.536 3.32956 39.6208C3.49887 39.7057 3.68562 39.7499 3.875 39.7499H7.53125V59.2499H1.4375C1.11427 59.2499 0.804274 59.3783 0.575714 59.6069C0.347154 59.8355 0.21875 60.1455 0.21875 60.4687C0.21875 60.7919 0.347154 61.1019 0.575714 61.3305C0.804274 61.559 1.11427 61.6874 1.4375 61.6874H69.6875C70.0107 61.6874 70.3207 61.559 70.5493 61.3305C70.7779 61.1019 70.9063 60.7919 70.9063 60.4687C70.9063 60.1455 70.7779 59.8355 70.5493 59.6069C70.3207 59.3783 70.0107 59.2499 69.6875 59.2499ZM51.4063 12.9374H56.2813V16.5937H51.4063V12.9374ZM10.8804 19.0312H65.1148L70.4907 37.3124H49.4319L38.8093 27.8696C38.5862 27.6715 38.2983 27.5621 38 27.5621C37.7017 27.5621 37.4138 27.6715 37.1908 27.8696L26.5681 37.3124H5.50447L10.8804 19.0312ZM9.96875 39.7499H25.8125V59.2499H9.96875V39.7499ZM28.25 39.0784L38 30.4119L47.75 39.0784V59.2499H42.875V48.2812C42.875 47.958 42.7466 47.648 42.518 47.4194C42.2895 47.1908 41.9795 47.0624 41.6563 47.0624H34.3438C34.0205 47.0624 33.7105 47.1908 33.482 47.4194C33.2534 47.648 33.125 47.958 33.125 48.2812V59.2499H28.25V39.0784ZM35.5625 59.2499V49.4999H40.4375V59.2499H35.5625ZM50.1875 59.2499V39.7499H66.0313V59.2499H50.1875Z" fill="#004FAC"/>
<path d="M74.5625 59.2499H73.3438C73.0205 59.2499 72.7105 59.3783 72.482 59.6069C72.2534 59.8355 72.125 60.1455 72.125 60.4687C72.125 60.7919 72.2534 61.1019 72.482 61.3305C72.7105 61.559 73.0205 61.6874 73.3438 61.6874H74.5625C74.8857 61.6874 75.1957 61.559 75.4243 61.3305C75.6528 61.1019 75.7812 60.7919 75.7812 60.4687C75.7812 60.1455 75.6528 59.8355 75.4243 59.6069C75.1957 59.3783 74.8857 59.2499 74.5625 59.2499Z" fill="#004FAC"/>
<path d="M38 44.625C38.9642 44.625 39.9067 44.339 40.7084 43.8034C41.5101 43.2677 42.135 42.5063 42.5039 41.6155C42.8729 40.7247 42.9694 39.7445 42.7813 38.7989C42.5932 37.8532 42.1289 36.9846 41.4472 36.3028C40.7654 35.621 39.8967 35.1567 38.9511 34.9686C38.0054 34.7805 37.0252 34.8771 36.1344 35.246C35.2436 35.615 34.4823 36.2398 33.9466 37.0415C33.4109 37.8432 33.125 38.7858 33.125 39.75C33.125 41.0429 33.6386 42.2829 34.5529 43.1971C35.4671 44.1113 36.7071 44.625 38 44.625ZM38 37.3124C38.4821 37.3124 38.9534 37.4554 39.3542 37.7232C39.7551 37.9911 40.0675 38.3718 40.252 38.8172C40.4365 39.2626 40.4847 39.7527 40.3907 40.2255C40.2966 40.6983 40.0645 41.1326 39.7236 41.4735C39.3827 41.8144 38.9484 42.0466 38.4755 42.1406C38.0027 42.2347 37.5126 42.1864 37.0672 42.0019C36.6218 41.8174 36.2411 41.505 35.9733 41.1042C35.7055 40.7033 35.5625 40.232 35.5625 39.75C35.5625 39.1035 35.8193 38.4835 36.2764 38.0264C36.7336 37.5693 37.3535 37.3124 38 37.3124Z" fill="#004FAC"/>
<path d="M23.375 47.0624H12.4062C12.083 47.0624 11.773 47.1908 11.5445 47.4194C11.3159 47.648 11.1875 47.958 11.1875 48.2812V53.1562C11.1875 53.4794 11.3159 53.7894 11.5445 54.018C11.773 54.2465 12.083 54.3749 12.4062 54.3749H23.375C23.6982 54.3749 24.0082 54.2465 24.2368 54.018C24.4653 53.7894 24.5938 53.4794 24.5938 53.1562V48.2812C24.5938 47.958 24.4653 47.648 24.2368 47.4194C24.0082 47.1908 23.6982 47.0624 23.375 47.0624ZM22.1562 51.9374H13.625V49.4999H22.1562V51.9374Z" fill="#004FAC"/>
<path d="M63.5938 47.0624H52.625C52.3018 47.0624 51.9918 47.1908 51.7632 47.4194C51.5347 47.648 51.4062 47.958 51.4062 48.2812V53.1562C51.4062 53.4794 51.5347 53.7894 51.7632 54.018C51.9918 54.2465 52.3018 54.3749 52.625 54.3749H63.5938C63.917 54.3749 64.227 54.2465 64.4555 54.018C64.6841 53.7894 64.8125 53.4794 64.8125 53.1562V48.2812C64.8125 47.958 64.6841 47.648 64.4555 47.4194C64.227 47.1908 63.917 47.0624 63.5938 47.0624ZM62.375 51.9374H53.8438V49.4999H62.375V51.9374Z" fill="#004FAC"/>
<path d="M14.8437 12.9375H23.375C23.5908 12.9379 23.8022 12.8766 23.9844 12.7608C24.9284 12.4799 25.7462 11.881 26.2988 11.0657C26.8515 10.2505 27.105 9.26903 27.0163 8.28808C26.9276 7.30713 26.5022 6.38711 25.8122 5.6842C25.1222 4.98128 24.2103 4.53879 23.2312 4.43185C22.9949 3.48835 22.4812 2.63736 21.7563 1.98878C21.0315 1.34019 20.1289 0.923801 19.1651 0.793381C18.2012 0.66296 17.2204 0.8245 16.3493 1.25714C15.4782 1.68977 14.7568 2.37364 14.2782 3.22041C13.0427 3.3647 11.9091 3.97581 11.1095 4.92864C10.3098 5.88147 9.90466 7.10393 9.97693 8.34573C10.0492 9.58754 10.5934 10.7547 11.4982 11.6084C12.403 12.462 13.5998 12.9375 14.8437 12.9375ZM14.8011 5.62501L14.9802 5.64451C15.2468 5.66452 15.5125 5.59526 15.7353 5.44764C15.9582 5.30001 16.1256 5.08242 16.2112 4.82916C16.3964 4.28874 16.7662 3.8309 17.2556 3.53613C17.745 3.24135 18.3226 3.1285 18.8869 3.21742C19.4513 3.30633 19.9662 3.59132 20.3412 4.02228C20.7162 4.45325 20.9274 5.00261 20.9375 5.57382V5.68716C20.9374 5.86791 20.9776 6.0464 21.0551 6.2097C21.1325 6.37301 21.2453 6.51704 21.3853 6.63137C21.5253 6.7457 21.689 6.82746 21.8645 6.87073C22.04 6.91399 22.2229 6.91769 22.4 6.88154C22.6648 6.83356 22.9368 6.84355 23.1974 6.91082C23.458 6.97809 23.7009 7.10103 23.9094 7.27119C24.1179 7.44135 24.287 7.65468 24.4052 7.89649C24.5233 8.13829 24.5876 8.40283 24.5937 8.67188C24.5938 9.09332 24.4483 9.50185 24.1818 9.82832C23.9153 10.1548 23.5441 10.3792 23.1312 10.4634C23.0851 10.4732 23.0395 10.4854 22.9947 10.5H14.8437C14.1973 10.5057 13.575 10.2543 13.1139 9.80116C12.6528 9.34804 12.3906 8.7303 12.3849 8.08383C12.3792 7.43737 12.6306 6.81513 13.0837 6.35401C13.5369 5.89289 14.1546 5.63066 14.8011 5.62501Z" fill="#004FAC"/>
</svg>
