<svg width="30" height="30" viewBox="0 0 30 30" fill="none" xmlns="http://www.w3.org/2000/svg">
<g clip-path="url(#clip0)">
<path d="M22.8103 7.81054L22.5142 7.81657C21.6488 7.85155 20.8232 8.03911 20.0633 8.35388C20.0633 8.35388 18.3078 8.62886 15.2594 12.4505L15.0543 12.6971C12.5842 9.44003 10.3426 8.50464 9.98621 8.3714C9.94098 8.35452 9.89633 8.337 9.85174 8.31954C9.04965 7.99932 8.17701 7.81962 7.26283 7.81054C3.30078 7.77134 0.0291384 10.9844 0.000193036 14.9466C-0.0287523 18.9418 3.20123 22.1899 7.18988 22.1899L7.48601 22.1839C8.35139 22.1489 9.17697 21.9613 9.93687 21.6466C9.93687 21.6466 11.7262 21.3661 14.8283 17.4396L14.8156 17.4565L14.8862 17.5427C17.773 20.9717 20.0635 21.6466 20.0635 21.6466C20.9096 21.997 21.8377 22.1899 22.8104 22.1899C26.7815 22.1899 30.0001 18.9708 30.0001 15.0002C30.0001 11.0297 26.7815 7.81054 22.8103 7.81054ZM10.8318 17.5415C9.82648 18.5957 8.6825 19.4092 7.15976 19.4092C4.72461 19.4092 2.75082 17.4354 2.75082 15.0002C2.75082 12.5657 4.72402 10.5919 7.15801 10.5913C8.5185 10.5907 9.59861 11.3228 10.59 12.2069C12.1007 13.5535 13.2489 14.876 13.2489 14.876C13.2489 14.876 11.6634 16.6683 10.8318 17.5415ZM22.8423 19.4092C21.4818 19.4098 20.4017 18.6777 19.4103 17.7936C17.8997 16.4469 16.7514 15.1244 16.7514 15.1244C16.7514 15.1244 18.3369 13.3322 19.1685 12.4589C20.1738 11.4047 21.3178 10.5912 22.8405 10.5912C25.2757 10.5912 27.2495 12.565 27.2495 15.0002C27.2495 17.4348 25.2763 19.4086 22.8423 19.4092Z" fill="#313131"/>
<path d="M16.7513 15.1244C16.7513 15.1244 17.0842 15.5079 17.6282 16.0724L15.7032 18.4599C15.4373 18.1789 15.1647 17.8737 14.8861 17.5426L14.8155 17.4564L14.8282 17.4395L16.7513 15.1244Z" fill="#313131"/>
<path d="M13.2488 14.8759C13.2488 14.8759 12.9274 14.5057 12.4003 13.9569L14.2656 11.7225C14.5243 12.0217 14.7878 12.3461 15.0544 12.6971L13.2488 14.8759Z" fill="#313131"/>
<path d="M25.1267 8.19165C27.3803 9.40501 28.9121 11.7865 28.9121 14.5256C28.9121 18.4961 25.6936 21.7153 21.7224 21.7153C20.8359 21.7153 19.9868 21.5548 19.2028 21.2606C19.7474 21.5537 20.0634 21.6465 20.0634 21.6465C20.9095 21.9969 21.8376 22.1899 22.8103 22.1899C26.7814 22.1899 30 18.9707 30 15.0002C30 11.8402 27.961 9.15593 25.1267 8.19165Z" fill="#313131"/>
</g>
<defs>
<clipPath id="clip0">
<rect width="30" height="30" fill="white"/>
</clipPath>
</defs>
</svg>
