<svg width="20" height="22" viewBox="0 0 20 22" fill="none" xmlns="http://www.w3.org/2000/svg">
<path d="M16.4453 10.3124C16.8013 10.3124 17.0898 10.0239 17.0898 9.66791C17.0898 5.7586 13.9093 2.57812 10 2.57812C6.09073 2.57812 2.91025 5.7586 2.91025 9.66791C2.91025 10.0239 3.19882 10.3124 3.55477 10.3124C3.91072 10.3124 4.1993 10.0239 4.1993 9.66791C4.1993 6.46939 6.80151 3.86718 10 3.86718C13.1986 3.86718 15.8008 6.46939 15.8008 9.66791C15.8008 10.0239 16.0893 10.3124 16.4453 10.3124Z" fill="#313131"/>
<path d="M10 5.15613C7.51225 5.15613 5.48831 7.18007 5.48831 9.66782C5.48831 10.0238 5.77689 10.3123 6.13284 10.3123C6.48879 10.3123 6.77736 10.0238 6.77736 9.66782C6.77736 7.89086 8.22304 6.44518 10 6.44518C11.777 6.44518 13.2226 7.89086 13.2226 9.66782C13.2226 10.0238 13.5112 10.3123 13.8672 10.3123C14.2231 10.3123 14.5117 10.0238 14.5117 9.66782C14.5117 7.18007 12.4877 5.15613 10 5.15613Z" fill="#313131"/>
<path d="M19.0234 10.3124C19.3793 10.3124 19.6679 10.0238 19.6679 9.66789C19.6679 4.33702 15.3309 0 10 0C4.66914 0 0.332123 4.33702 0.332123 9.66789C0.332123 10.0238 0.620699 10.3124 0.976649 10.3124C1.3326 10.3124 1.62118 10.0238 1.62118 9.66789C1.62118 5.0478 5.37993 1.28905 10 1.28905C14.6201 1.28905 18.3789 5.0478 18.3789 9.66789C18.3789 10.0238 18.6674 10.3124 19.0234 10.3124Z" fill="#313131"/>
<path d="M5.52876 21.1306C5.40467 21.4643 5.57457 21.8353 5.90822 21.9594C6.24187 22.0835 6.6129 21.9136 6.73699 21.5799L7.07618 20.6678H12.9238L13.2631 21.58C13.3874 21.9143 13.7588 22.0833 14.0918 21.9594C14.4255 21.8353 14.5953 21.4643 14.4713 21.1307C14.4642 21.111 13.7742 19.2561 10.8534 11.4025C11.4927 11.0866 11.9336 10.4279 11.9336 9.66795C11.9336 8.60178 11.0662 7.73438 10 7.73438C8.93388 7.73438 8.06647 8.60178 8.06647 9.66795C8.06647 10.428 8.50741 11.0867 9.14674 11.4025C8.41396 13.3726 6.10909 19.5702 5.52876 21.1306ZM7.55558 19.3787L8.03498 18.0897H11.965L12.4444 19.3787H7.55558ZM8.99377 15.5116H11.0062L11.4856 16.8006H8.51438L8.99377 15.5116ZM9.47317 14.2225L10 12.806L10.5268 14.2225H9.47317ZM10 9.02338C10.3554 9.02338 10.6445 9.31252 10.6445 9.66791C10.6445 10.0233 10.3554 10.3124 10 10.3124C9.64462 10.3124 9.35548 10.0233 9.35548 9.66791C9.35548 9.31252 9.64462 9.02338 10 9.02338Z" fill="#313131"/>
</svg>
