<svg width="50" height="41" viewBox="0 0 50 41" fill="none" xmlns="http://www.w3.org/2000/svg">
<path d="M45.5647 39.3304H44.7653V26.2203H47.1634C47.2876 26.2202 47.4101 26.1905 47.5212 26.1335C47.6322 26.0765 47.7288 25.9937 47.8032 25.8917C47.8776 25.7898 47.9278 25.6715 47.9498 25.5462C47.9718 25.4208 47.9651 25.292 47.93 25.1699L43.9331 11.2404C43.8845 11.0706 43.7835 10.9216 43.6453 10.8155C43.5071 10.7095 43.3392 10.6521 43.1665 10.6521H38.3703V7.37456C38.3703 7.15724 38.286 6.94883 38.1361 6.79517C37.9862 6.6415 37.7829 6.55518 37.5709 6.55518H32.7746C32.5626 6.55518 32.3593 6.6415 32.2093 6.79517C32.0594 6.94883 31.9752 7.15724 31.9752 7.37456V10.6521H6.39504C6.22242 10.6521 6.05446 10.7095 5.91628 10.8155C5.7781 10.9216 5.67712 11.0706 5.62844 11.2404L1.63153 25.1699C1.59651 25.292 1.58973 25.4208 1.61175 25.5462C1.63376 25.6715 1.68397 25.7898 1.75837 25.8917C1.83277 25.9937 1.92933 26.0765 2.04038 26.1335C2.15144 26.1905 2.27393 26.2202 2.39814 26.2203H4.79628V39.3304H0.79938C0.587371 39.3304 0.384046 39.4167 0.234133 39.5704C0.0842201 39.724 0 39.9324 0 40.1498C0 40.3671 0.0842201 40.5755 0.234133 40.7291C0.384046 40.8828 0.587371 40.9691 0.79938 40.9691H45.5647C45.7767 40.9691 45.98 40.8828 46.1299 40.7291C46.2798 40.5755 46.3641 40.3671 46.3641 40.1498C46.3641 39.9324 46.2798 39.724 46.1299 39.5704C45.98 39.4167 45.7767 39.3304 45.5647 39.3304ZM33.574 8.19394H36.7715V10.6521H33.574V8.19394ZM6.99298 12.2908H42.5654L46.0915 24.5815H32.279L25.3116 18.233C25.1653 18.0998 24.9764 18.0263 24.7808 18.0263C24.5851 18.0263 24.3963 18.0998 24.25 18.233L17.2826 24.5815H3.46691L6.99298 12.2908ZM6.39504 26.2203H16.787V39.3304H6.39504V26.2203ZM18.3857 25.7688L24.7808 19.9422L31.1758 25.7688V39.3304H27.9783V31.956C27.9783 31.7386 27.8941 31.5302 27.7442 31.3766C27.5943 31.2229 27.3909 31.1366 27.1789 31.1366H22.3826C22.1706 31.1366 21.9673 31.2229 21.8174 31.3766C21.6675 31.5302 21.5833 31.7386 21.5833 31.956V39.3304H18.3857V25.7688ZM23.182 39.3304V32.7753H26.3795V39.3304H23.182ZM32.7746 39.3304V26.2203H43.1665V39.3304H32.7746Z" fill="#696969"/>
<path d="M48.7622 39.3303H47.9628C47.7508 39.3303 47.5474 39.4166 47.3975 39.5703C47.2476 39.724 47.1634 39.9324 47.1634 40.1497C47.1634 40.367 47.2476 40.5754 47.3975 40.7291C47.5474 40.8828 47.7508 40.9691 47.9628 40.9691H48.7622C48.9742 40.9691 49.1775 40.8828 49.3274 40.7291C49.4773 40.5754 49.5615 40.367 49.5615 40.1497C49.5615 39.9324 49.4773 39.724 49.3274 39.5703C49.1775 39.4166 48.9742 39.3303 48.7622 39.3303Z" fill="#696969"/>
<path d="M24.7808 29.4982C25.4132 29.4982 26.0314 29.3059 26.5572 28.9458C27.0831 28.5857 27.4929 28.0738 27.7349 27.4749C27.9769 26.876 28.0402 26.217 27.9169 25.5812C27.7935 24.9455 27.489 24.3615 27.0418 23.9031C26.5946 23.4447 26.0248 23.1326 25.4046 23.0061C24.7843 22.8796 24.1414 22.9445 23.5571 23.1926C22.9729 23.4407 22.4735 23.8608 22.1221 24.3997C21.7708 24.9387 21.5833 25.5724 21.5833 26.2206C21.5833 27.0899 21.9201 27.9235 22.5198 28.5382C23.1194 29.1529 23.9327 29.4982 24.7808 29.4982ZM24.7808 24.5819C25.097 24.5819 25.4061 24.678 25.669 24.8581C25.9319 25.0381 26.1368 25.2941 26.2578 25.5935C26.3788 25.893 26.4105 26.2225 26.3488 26.5404C26.2871 26.8582 26.1349 27.1502 25.9113 27.3794C25.6877 27.6086 25.4028 27.7647 25.0927 27.8279C24.7826 27.8911 24.4611 27.8587 24.169 27.7347C23.8768 27.6106 23.6271 27.4006 23.4515 27.1311C23.2758 26.8616 23.182 26.5448 23.182 26.2206C23.182 25.786 23.3505 25.3692 23.6503 25.0619C23.9501 24.7545 24.3568 24.5819 24.7808 24.5819Z" fill="#696969"/>
<path d="M15.1882 31.1367H7.99378C7.78177 31.1367 7.57844 31.223 7.42853 31.3767C7.27862 31.5304 7.1944 31.7388 7.1944 31.9561V35.2336C7.1944 35.4509 7.27862 35.6593 7.42853 35.813C7.57844 35.9667 7.78177 36.053 7.99378 36.053H15.1882C15.4002 36.053 15.6035 35.9667 15.7534 35.813C15.9034 35.6593 15.9876 35.4509 15.9876 35.2336V31.9561C15.9876 31.7388 15.9034 31.5304 15.7534 31.3767C15.6035 31.223 15.4002 31.1367 15.1882 31.1367ZM14.3888 34.4142H8.79316V32.7755H14.3888V34.4142Z" fill="#696969"/>
<path d="M41.5678 31.1367H34.3734C34.1613 31.1367 33.958 31.223 33.8081 31.3767C33.6582 31.5304 33.574 31.7388 33.574 31.9561V35.2336C33.574 35.4509 33.6582 35.6593 33.8081 35.813C33.958 35.9667 34.1613 36.053 34.3734 36.053H41.5678C41.7798 36.053 41.9831 35.9667 42.133 35.813C42.2829 35.6593 42.3672 35.4509 42.3672 35.2336V31.9561C42.3672 31.7388 42.2829 31.5304 42.133 31.3767C41.9831 31.223 41.7798 31.1367 41.5678 31.1367ZM40.7684 34.4142H35.1727V32.7755H40.7684V34.4142Z" fill="#696969"/>
<path d="M9.59257 8.19417H15.1882C15.3298 8.19443 15.4685 8.1532 15.5879 8.07536C16.2071 7.88654 16.7435 7.48389 17.106 6.93576C17.4685 6.38763 17.6348 5.72781 17.5766 5.06831C17.5184 4.40881 17.2393 3.79026 16.7868 3.31769C16.3343 2.84511 15.7361 2.54762 15.0939 2.47572C14.9389 1.8414 14.602 1.26926 14.1266 0.833213C13.6512 0.397161 13.0591 0.117218 12.4269 0.0295346C11.7947 -0.0581485 11.1514 0.0504565 10.5801 0.341323C10.0087 0.63219 9.53552 1.09196 9.22165 1.66126C8.41128 1.75826 7.66774 2.16912 7.14325 2.80972C6.61877 3.45032 6.35302 4.27219 6.40042 5.10707C6.44783 5.94195 6.80479 6.72668 7.39823 7.30059C7.99166 7.8745 8.77669 8.19418 9.59257 8.19417ZM9.56459 3.27789L9.6821 3.291C9.85694 3.30446 10.0312 3.25789 10.1774 3.15865C10.3235 3.0594 10.4334 2.91311 10.4895 2.74284C10.611 2.3795 10.8535 2.07169 11.1745 1.87351C11.4955 1.67533 11.8744 1.59946 12.2445 1.65924C12.6147 1.71902 12.9524 1.91062 13.1984 2.20036C13.4444 2.49011 13.5828 2.85945 13.5895 3.24348V3.31968C13.5894 3.4412 13.6158 3.5612 13.6666 3.67099C13.7174 3.78079 13.7914 3.87762 13.8832 3.95448C13.975 4.03135 14.0824 4.08632 14.1975 4.11541C14.3126 4.14449 14.4326 4.14698 14.5487 4.12267C14.7224 4.09042 14.9009 4.09714 15.0718 4.14236C15.2427 4.18759 15.402 4.27024 15.5388 4.38464C15.6755 4.49904 15.7865 4.64247 15.8639 4.80504C15.9414 4.9676 15.9836 5.14546 15.9876 5.32634C15.9877 5.60968 15.8922 5.88434 15.7174 6.10383C15.5426 6.32332 15.2992 6.47416 15.0283 6.53083C14.9981 6.53739 14.9682 6.54559 14.9388 6.55541H9.59257C9.16855 6.55922 8.76042 6.39021 8.45797 6.08557C8.15553 5.78093 7.98353 5.36562 7.97982 4.93099C7.97611 4.49637 8.14099 4.07803 8.43819 3.76801C8.73539 3.458 9.14057 3.2817 9.56459 3.27789Z" fill="#696969"/>
</svg>
