<svg width="84" height="84" viewBox="0 0 84 84" fill="none" xmlns="http://www.w3.org/2000/svg">
<g clip-path="url(#clip0)">
<path d="M63.3647 22.4167L62.5582 22.4331C60.201 22.5285 57.9522 23.0394 55.8825 23.8967C55.8825 23.8967 51.1007 24.6459 42.797 35.0553L42.2386 35.7271C35.5102 26.8551 29.4045 24.3074 28.4337 23.9443C28.3105 23.8984 28.1889 23.8506 28.0673 23.8031C25.8827 22.9307 23.5058 22.4413 21.0154 22.4167C10.2231 22.3099 1.3117 31.062 1.23295 41.8542C1.15403 52.7368 9.95222 61.5842 20.8168 61.5842L21.6233 61.5678C23.9805 61.4725 26.2294 60.9616 28.299 60.1042C28.299 60.1042 33.1728 59.3403 41.6225 48.6451L41.5881 48.691L41.7802 48.926C49.6435 58.266 55.8823 60.1042 55.8823 60.1042C58.1869 61.0585 60.715 61.5842 63.3646 61.5842C74.1814 61.5842 82.9484 52.8157 82.9484 42.0006C82.9484 31.1854 74.1815 22.4167 63.3647 22.4167ZM30.7366 48.9225C27.9983 51.7939 24.8822 54.0098 20.7346 54.0098C14.1015 54.0098 8.72519 48.6334 8.72519 42.0004C8.72519 35.369 14.0999 29.9927 20.7296 29.991C24.4355 29.9894 27.3775 31.9836 30.0779 34.3917C34.1928 38.0598 37.3205 41.6621 37.3205 41.6621C37.3205 41.6621 33.0019 46.5439 30.7366 48.9225ZM63.4517 54.0099C59.7458 54.0116 56.8039 52.0174 54.1034 49.6093C49.9886 45.9412 46.8609 42.3388 46.8609 42.3388C46.8609 42.3388 51.1795 37.4568 53.4447 35.0783C56.1831 32.2068 59.2991 29.991 63.4468 29.991C70.0798 29.991 75.4561 35.3673 75.4561 42.0004C75.4563 48.6318 70.0815 54.0083 63.4517 54.0099Z" fill="#57A4FF"/>
<path d="M46.8599 42.3391C46.8599 42.3391 47.7667 43.3839 49.2483 44.9213L44.0049 51.4245C43.2805 50.659 42.538 49.8279 41.779 48.926L41.5869 48.6911L41.6214 48.6452L46.8599 42.3391Z" fill="#57A4FF"/>
<path d="M37.3199 41.6618C37.3199 41.6618 36.4443 40.6533 35.0088 39.1583L40.0895 33.0723C40.7941 33.887 41.5121 34.7708 42.2381 35.7268L37.3199 41.6618Z" fill="#57A4FF"/>
<path d="M69.6733 23.4548C75.8118 26.7599 79.9843 33.2467 79.9843 40.7076C79.9843 51.5228 71.2174 60.2915 60.4007 60.2915C57.986 60.2915 55.673 59.8546 53.5376 59.053C55.0209 59.8513 55.8817 60.1043 55.8817 60.1043C58.1863 61.0586 60.7143 61.5843 63.3639 61.5843C74.1807 61.5843 82.9477 52.8158 82.9477 42.0006C82.9476 33.3928 77.3937 26.0813 69.6733 23.4548Z" fill="#57A4FF"/>
<path d="M82.9355 43.4539C82.261 43.3617 81.6402 43.8339 81.5482 44.508C80.9536 48.8622 78.7988 52.8676 75.4805 55.7862C72.1323 58.7309 67.8301 60.3527 63.3658 60.3527C60.9369 60.3527 58.5776 59.8861 56.3536 58.9657C56.3167 58.9504 56.274 58.9355 56.2357 58.9239C56.2096 58.916 53.5851 58.0962 49.6773 54.9941C49.1442 54.5709 48.3694 54.6602 47.9462 55.1931C47.5233 55.7261 47.6124 56.501 48.1452 56.9241C52.1543 60.1063 54.9709 61.1047 55.4619 61.2634C57.9713 62.294 60.6301 62.8167 63.3658 62.8167C68.4293 62.8167 73.3096 60.9769 77.1078 57.6365C80.8709 54.3268 83.3148 49.7828 83.9896 44.8415C84.0815 44.1671 83.6096 43.5459 82.9355 43.4539Z" fill="#004FAC"/>
<path d="M53.2828 50.5278C55.8976 52.8588 59.1497 55.2417 63.4475 55.2415H63.4517C70.7504 55.2387 76.6881 49.2987 76.6881 41.9999C76.6881 34.6984 70.7481 28.7584 63.4467 28.7584C63.4463 28.7584 63.4467 28.7584 63.4465 28.7584C58.4124 28.7584 54.9805 31.6816 52.5536 34.2282C49.0023 37.9547 40.9484 47.5102 40.6557 47.8805C32.9341 57.6532 28.3481 58.8301 28.0971 58.8876C27.9924 58.9013 27.9286 58.9234 27.8285 58.9649C25.8447 59.7859 23.744 60.2472 21.5853 60.336L20.8039 60.3517C15.8813 60.3485 11.2605 58.4229 7.7919 54.9288C4.32066 51.4321 2.42869 46.7918 2.46479 41.8624C2.50039 36.9748 4.45437 32.3819 7.96662 28.9298C11.4369 25.519 15.9937 23.6475 20.8175 23.6475C20.8792 23.6475 20.9415 23.6478 21.0032 23.6483C23.286 23.6711 25.5092 24.1077 27.612 24.9464C27.7417 24.9981 27.8715 25.0489 28.0024 25.098C28.6437 25.3378 34.297 27.6213 40.6605 35.699C40.6605 35.699 37.9264 39.0382 37.2941 39.789C36.0536 38.4376 33.7164 35.9837 30.8986 33.4717C28.2838 31.1407 25.0319 28.758 20.7343 28.758C20.733 28.758 20.731 28.758 20.7299 28.758C20.2905 28.758 19.8467 28.78 19.4111 28.8233C18.734 28.8908 18.2397 29.494 18.307 30.1711C18.3743 30.8482 18.979 31.3419 19.6548 31.2753C20.01 31.24 20.3717 31.2219 20.7305 31.2219H20.7351C22.6829 31.2219 25.2189 31.7092 29.259 35.3107C32.1311 37.8712 34.5375 40.4249 35.6791 41.6758C33.8745 43.7517 31.9426 45.8691 29.844 48.071C26.7424 51.3255 23.933 52.777 20.7346 52.777C14.792 52.777 9.95703 47.942 9.95703 41.9994C9.95703 38.3869 11.7542 35.032 14.7644 33.0248C15.3306 32.6473 15.4835 31.8825 15.106 31.3163C14.7286 30.7503 13.9638 30.5973 13.3974 30.9747C9.70027 33.4404 7.49297 37.5618 7.49297 41.9999C7.49297 49.3011 13.433 55.2414 20.7345 55.2415C25.769 55.2415 29.2006 52.3183 31.6276 49.7715C35.1788 46.045 43.7446 35.8424 43.7446 35.8424C43.7498 35.8362 43.7549 35.8298 43.76 35.8236C51.3402 26.3212 55.8361 25.1688 56.084 25.1119C56.1887 25.0985 56.2523 25.0762 56.3526 25.0346C58.3364 24.2137 60.4369 23.7523 62.5958 23.6634L63.3769 23.6477C67.7736 23.6506 72.025 25.2317 75.3491 28.1005C78.6424 30.9427 80.825 34.861 81.4947 39.1337C81.6 39.8059 82.2303 40.2649 82.9027 40.1601C83.5748 40.0546 84.0344 39.4242 83.929 38.7521C83.1689 33.9035 80.6937 29.4584 76.959 26.2353C73.1846 22.9778 68.3569 21.1838 63.3649 21.1838C63.3567 21.1838 63.3484 21.1838 63.34 21.1839L62.5333 21.2002C62.5249 21.2003 62.5166 21.2005 62.5082 21.201C60.0955 21.2988 57.7463 21.8069 55.5234 22.7115C54.4926 22.9412 49.8117 24.4514 42.2622 33.7547C35.7678 25.6702 30.0001 23.2147 28.8652 22.7904C28.7507 22.7476 28.637 22.703 28.524 22.6579C26.1379 21.7061 23.6157 21.2105 21.0275 21.1848C15.4718 21.1267 10.2241 23.256 6.23921 27.1727C2.25676 31.0872 0.0410916 36.2979 0.000568179 41.8448C-0.0401193 47.4357 2.10565 52.6989 6.04299 56.6651C9.98065 60.6316 15.2272 62.8161 20.8162 62.8161C20.8244 62.8161 20.8327 62.8161 20.8411 62.816L21.6478 62.7997C21.6562 62.7996 21.6645 62.7994 21.6729 62.7989C24.0854 62.7011 26.4348 62.193 28.6575 61.2884C29.6759 61.0618 34.2437 59.589 41.6124 50.6204C42.3166 51.4249 43.0309 52.1995 43.7455 52.931C44.221 53.4176 45.0009 53.4268 45.4877 52.9515C45.9745 52.4761 45.9837 51.6961 45.5082 51.2094C44.7325 50.4153 43.956 49.5681 43.1933 48.6843C43.8404 47.9035 46.2545 44.9612 46.8872 44.2101C48.1272 45.5612 50.4652 48.0159 53.2828 50.5278ZM54.3372 35.9282C57.4388 32.6736 60.2483 31.2223 63.4467 31.2224C69.3893 31.2224 74.2243 36.0572 74.2243 42C74.2243 47.9406 69.3913 52.7753 63.4508 52.7776C63.4493 52.7776 63.448 52.7776 63.4465 52.7776C61.4987 52.7776 58.9623 52.2904 54.9223 48.6887C52.0497 46.1277 49.6431 43.5735 48.502 42.3227C50.3064 40.2473 52.2391 38.1298 54.3372 35.9282Z" fill="#004FAC"/>
</g>
<defs>
<clipPath id="clip0">
<rect width="84" height="84" fill="white"/>
</clipPath>
</defs>
</svg>
