<svg width="53" height="46" viewBox="0 0 53 46" fill="none" xmlns="http://www.w3.org/2000/svg">
<path d="M48.5556 44.2963H46V0.851852C46 0.625927 45.9103 0.409255 45.7505 0.249502C45.5907 0.0897486 45.3741 0 45.1481 0H34.9259C34.7 0 34.4833 0.0897486 34.3236 0.249502C34.1638 0.409255 34.0741 0.625927 34.0741 0.851852V5.96296H18.7407V0.851852C18.7407 0.625927 18.651 0.409255 18.4912 0.249502C18.3315 0.0897486 18.1148 0 17.8889 0H7.66667C7.44074 0 7.22407 0.0897486 7.06432 0.249502C6.90456 0.409255 6.81481 0.625927 6.81481 0.851852V44.2963H0.851852C0.625927 44.2963 0.409255 44.386 0.249502 44.5458C0.0897484 44.7056 0 44.9222 0 45.1482C0 45.3741 0.0897484 45.5907 0.249502 45.7505C0.409255 45.9103 0.625927 46 0.851852 46H48.5556C48.7815 46 48.9981 45.9103 49.1579 45.7505C49.3177 45.5907 49.4074 45.3741 49.4074 45.1482C49.4074 44.9222 49.3177 44.7056 49.1579 44.5458C48.9981 44.386 48.7815 44.2963 48.5556 44.2963ZM8.51852 1.7037H17.037V44.2963H8.51852V1.7037ZM18.7407 7.66667H34.0741V44.2963H33.2222V35.7778C33.2222 35.5519 33.1325 35.3352 32.9727 35.1754C32.813 35.0157 32.5963 34.9259 32.3704 34.9259H20.4444C20.2185 34.9259 20.0018 35.0157 19.8421 35.1754C19.6823 35.3352 19.5926 35.5519 19.5926 35.7778V44.2963H18.7407V7.66667ZM25.5556 37.4815H21.2963V36.6296H25.5556V37.4815ZM27.2593 36.6296H31.5185V37.4815H27.2593V36.6296ZM21.2963 44.2963V39.1852H25.5556V44.2963H21.2963ZM27.2593 44.2963V39.1852H31.5185V44.2963H27.2593ZM35.7778 44.2963V1.7037H44.2963V44.2963H35.7778Z" fill="#004FAC"/>
<path d="M51.963 44.2964H51.1111C50.8852 44.2964 50.6685 44.3861 50.5088 44.5459C50.349 44.7056 50.2593 44.9223 50.2593 45.1482C50.2593 45.3742 50.349 45.5908 50.5088 45.7506C50.6685 45.9103 50.8852 46.0001 51.1111 46.0001H51.963C52.1889 46.0001 52.4056 45.9103 52.5653 45.7506C52.7251 45.5908 52.8148 45.3742 52.8148 45.1482C52.8148 44.9223 52.7251 44.7056 52.5653 44.5459C52.4056 44.3861 52.1889 44.2964 51.963 44.2964Z" fill="#004FAC"/>
<path d="M20.4444 24.7037H32.3704C32.5963 24.7037 32.813 24.614 32.9727 24.4542C33.1325 24.2945 33.2222 24.0778 33.2222 23.8519V18.7408C33.2222 18.5148 33.1325 18.2982 32.9727 18.1384C32.813 17.9787 32.5963 17.8889 32.3704 17.8889H20.4444C20.2185 17.8889 20.0018 17.9787 19.8421 18.1384C19.6823 18.2982 19.5926 18.5148 19.5926 18.7408V23.8519C19.5926 24.0778 19.6823 24.2945 19.8421 24.4542C20.0018 24.614 20.2185 24.7037 20.4444 24.7037ZM31.5185 19.5926V23H29.8148V19.5926H31.5185ZM28.1111 19.5926V23H24.7037V19.5926H28.1111ZM21.2963 19.5926H23V23H21.2963V19.5926Z" fill="#004FAC"/>
<path d="M20.4444 33.2223H32.3704C32.5963 33.2223 32.813 33.1325 32.9727 32.9728C33.1325 32.813 33.2222 32.5964 33.2222 32.3704V27.2593C33.2222 27.0334 33.1325 26.8167 32.9727 26.657C32.813 26.4972 32.5963 26.4075 32.3704 26.4075H20.4444C20.2185 26.4075 20.0018 26.4972 19.8421 26.657C19.6823 26.8167 19.5926 27.0334 19.5926 27.2593V32.3704C19.5926 32.5964 19.6823 32.813 19.8421 32.9728C20.0018 33.1325 20.2185 33.2223 20.4444 33.2223ZM31.5185 28.1112V31.5186H29.8148V28.1112H31.5185ZM28.1111 28.1112V31.5186H24.7037V28.1112H28.1111ZM21.2963 28.1112H23V31.5186H21.2963V28.1112Z" fill="#004FAC"/>
<path d="M20.4444 16.1852H32.3704C32.5963 16.1852 32.813 16.0954 32.9727 15.9357C33.1325 15.7759 33.2222 15.5592 33.2222 15.3333V10.2222C33.2222 9.99629 33.1325 9.77962 32.9727 9.61986C32.813 9.46011 32.5963 9.37036 32.3704 9.37036H20.4444C20.2185 9.37036 20.0018 9.46011 19.8421 9.61986C19.6823 9.77962 19.5926 9.99629 19.5926 10.2222V15.3333C19.5926 15.5592 19.6823 15.7759 19.8421 15.9357C20.0018 16.0954 20.2185 16.1852 20.4444 16.1852ZM31.5185 11.0741V14.4815H29.8148V11.0741H31.5185ZM28.1111 11.0741V14.4815H24.7037V11.0741H28.1111ZM21.2963 11.0741H23V14.4815H21.2963V11.0741Z" fill="#004FAC"/>
<path d="M14.4815 3.40747H11.0741C10.8482 3.40747 10.6315 3.49722 10.4717 3.65697C10.312 3.81673 10.2222 4.0334 10.2222 4.25932V39.1852C10.2222 39.4112 10.312 39.6278 10.4717 39.7876C10.6315 39.9474 10.8482 40.0371 11.0741 40.0371H14.4815C14.7074 40.0371 14.9241 39.9474 15.0838 39.7876C15.2436 39.6278 15.3333 39.4112 15.3333 39.1852V4.25932C15.3333 4.0334 15.2436 3.81673 15.0838 3.65697C14.9241 3.49722 14.7074 3.40747 14.4815 3.40747ZM13.6296 11.926H11.9259V9.37043H13.6296V11.926ZM13.6296 16.1852H11.9259V13.6297H13.6296V16.1852ZM13.6296 20.4445H11.9259V17.889H13.6296V20.4445ZM13.6296 24.7038H11.9259V22.1482H13.6296V24.7038ZM13.6296 28.963H11.9259V26.4075H13.6296V28.963ZM11.9259 30.6667H13.6296V33.2223H11.9259V30.6667ZM11.9259 5.11117H13.6296V7.66673H11.9259V5.11117ZM13.6296 38.3334H11.9259V34.926H13.6296V38.3334Z" fill="#004FAC"/>
<path d="M41.7408 3.40747H38.3334C38.1074 3.40747 37.8908 3.49722 37.731 3.65697C37.5713 3.81673 37.4815 4.0334 37.4815 4.25932V39.1852C37.4815 39.4112 37.5713 39.6278 37.731 39.7876C37.8908 39.9474 38.1074 40.0371 38.3334 40.0371H41.7408C41.9667 40.0371 42.1834 39.9474 42.3431 39.7876C42.5029 39.6278 42.5926 39.4112 42.5926 39.1852V4.25932C42.5926 4.0334 42.5029 3.81673 42.3431 3.65697C42.1834 3.49722 41.9667 3.40747 41.7408 3.40747ZM40.8889 11.926H39.1852V9.37043H40.8889V11.926ZM40.8889 16.1852H39.1852V13.6297H40.8889V16.1852ZM40.8889 20.4445H39.1852V17.889H40.8889V20.4445ZM40.8889 24.7038H39.1852V22.1482H40.8889V24.7038ZM40.8889 28.963H39.1852V26.4075H40.8889V28.963ZM39.1852 30.6667H40.8889V33.2223H39.1852V30.6667ZM39.1852 5.11117H40.8889V7.66673H39.1852V5.11117ZM40.8889 38.3334H39.1852V34.926H40.8889V38.3334Z" fill="#004FAC"/>
</svg>
