<svg width="89" height="89" viewBox="0 0 89 89" fill="none" xmlns="http://www.w3.org/2000/svg">
<path d="M34.7656 40.3281H54.2344V48.6719H34.7656V40.3281Z" fill="#57A4FF"/>
<path d="M34.7656 54.2344H54.2344V62.5781H34.7656V54.2344Z" fill="#57A4FF"/>
<path d="M34.7656 68.1406H54.2344V83.4375H34.7656V68.1406Z" fill="#57A4FF"/>
<path d="M34.7656 26.4219H54.2344V34.7656H34.7656V26.4219Z" fill="#57A4FF"/>
<path d="M19.4688 16.6875H25.0312V73.7031H19.4688V16.6875Z" fill="#57A4FF"/>
<path d="M63.9688 16.6875H69.5312V73.7031H63.9688V16.6875Z" fill="#57A4FF"/>
<path d="M80.6562 82.0469H76.4844V11.125C76.4844 10.7562 76.3379 10.4025 76.0771 10.1417C75.8163 9.88089 75.4626 9.73438 75.0938 9.73438H58.4062C58.0374 9.73438 57.6837 9.88089 57.4229 10.1417C57.1621 10.4025 57.0156 10.7562 57.0156 11.125V19.4688H31.9844V11.125C31.9844 10.7562 31.8379 10.4025 31.5771 10.1417C31.3163 9.88089 30.9626 9.73438 30.5938 9.73438H13.9062C13.5374 9.73438 13.1837 9.88089 12.9229 10.1417C12.6621 10.4025 12.5156 10.7562 12.5156 11.125V82.0469H2.78125C2.41243 82.0469 2.05872 82.1934 1.79793 82.4542C1.53714 82.715 1.39063 83.0687 1.39062 83.4375C1.39063 83.8063 1.53714 84.16 1.79793 84.4208C2.05872 84.6816 2.41243 84.8281 2.78125 84.8281H80.6562C81.0251 84.8281 81.3788 84.6816 81.6396 84.4208C81.9004 84.16 82.0469 83.8063 82.0469 83.4375C82.0469 83.0687 81.9004 82.715 81.6396 82.4542C81.3788 82.1934 81.0251 82.0469 80.6562 82.0469ZM15.2969 12.5156H29.2031V82.0469H15.2969V12.5156ZM31.9844 22.25H57.0156V82.0469H55.625V68.1406C55.625 67.7718 55.4785 67.4181 55.2177 67.1573C54.9569 66.8965 54.6032 66.75 54.2344 66.75H34.7656C34.3968 66.75 34.0431 66.8965 33.7823 67.1573C33.5215 67.4181 33.375 67.7718 33.375 68.1406V82.0469H31.9844V22.25ZM43.1094 70.9219H36.1562V69.5312H43.1094V70.9219ZM45.8906 69.5312H52.8438V70.9219H45.8906V69.5312ZM36.1562 82.0469V73.7031H43.1094V82.0469H36.1562ZM45.8906 82.0469V73.7031H52.8438V82.0469H45.8906ZM59.7969 82.0469V12.5156H73.7031V82.0469H59.7969Z" fill="#004FAC"/>
<path d="M86.2188 82.0469H84.8281C84.4593 82.0469 84.1056 82.1934 83.8448 82.4542C83.584 82.715 83.4375 83.0687 83.4375 83.4375C83.4375 83.8063 83.584 84.16 83.8448 84.4208C84.1056 84.6816 84.4593 84.8281 84.8281 84.8281H86.2188C86.5876 84.8281 86.9413 84.6816 87.2021 84.4208C87.4629 84.16 87.6094 83.8063 87.6094 83.4375C87.6094 83.0687 87.4629 82.715 87.2021 82.4542C86.9413 82.1934 86.5876 82.0469 86.2188 82.0469Z" fill="#004FAC"/>
<path d="M34.7656 50.0625H54.2344C54.6032 50.0625 54.9569 49.916 55.2177 49.6552C55.4785 49.3944 55.625 49.0407 55.625 48.6719V40.3281C55.625 39.9593 55.4785 39.6056 55.2177 39.3448C54.9569 39.084 54.6032 38.9375 54.2344 38.9375H34.7656C34.3968 38.9375 34.0431 39.084 33.7823 39.3448C33.5215 39.6056 33.375 39.9593 33.375 40.3281V48.6719C33.375 49.0407 33.5215 49.3944 33.7823 49.6552C34.0431 49.916 34.3968 50.0625 34.7656 50.0625ZM52.8438 41.7188V47.2812H50.0625V41.7188H52.8438ZM47.2812 41.7188V47.2812H41.7188V41.7188H47.2812ZM36.1562 41.7188H38.9375V47.2812H36.1562V41.7188Z" fill="#004FAC"/>
<path d="M34.7656 63.9688H54.2344C54.6032 63.9688 54.9569 63.8222 55.2177 63.5614C55.4785 63.3007 55.625 62.9469 55.625 62.5781V54.2344C55.625 53.8656 55.4785 53.5118 55.2177 53.2511C54.9569 52.9903 54.6032 52.8438 54.2344 52.8438H34.7656C34.3968 52.8438 34.0431 52.9903 33.7823 53.2511C33.5215 53.5118 33.375 53.8656 33.375 54.2344V62.5781C33.375 62.9469 33.5215 63.3007 33.7823 63.5614C34.0431 63.8222 34.3968 63.9688 34.7656 63.9688ZM52.8438 55.625V61.1875H50.0625V55.625H52.8438ZM47.2812 55.625V61.1875H41.7188V55.625H47.2812ZM36.1562 55.625H38.9375V61.1875H36.1562V55.625Z" fill="#004FAC"/>
<path d="M34.7656 36.1562H54.2344C54.6032 36.1562 54.9569 36.0097 55.2177 35.7489C55.4785 35.4882 55.625 35.1344 55.625 34.7656V26.4219C55.625 26.0531 55.4785 25.6993 55.2177 25.4386C54.9569 25.1778 54.6032 25.0312 54.2344 25.0312H34.7656C34.3968 25.0312 34.0431 25.1778 33.7823 25.4386C33.5215 25.6993 33.375 26.0531 33.375 26.4219V34.7656C33.375 35.1344 33.5215 35.4882 33.7823 35.7489C34.0431 36.0097 34.3968 36.1562 34.7656 36.1562ZM52.8438 27.8125V33.375H50.0625V27.8125H52.8438ZM47.2812 27.8125V33.375H41.7188V27.8125H47.2812ZM36.1562 27.8125H38.9375V33.375H36.1562V27.8125Z" fill="#004FAC"/>
<path d="M25.0312 15.2969H19.4688C19.0999 15.2969 18.7462 15.4434 18.4854 15.7042C18.2246 15.965 18.0781 16.3187 18.0781 16.6875V73.7031C18.0781 74.0719 18.2246 74.4257 18.4854 74.6864C18.7462 74.9472 19.0999 75.0938 19.4688 75.0938H25.0312C25.4001 75.0938 25.7538 74.9472 26.0146 74.6864C26.2754 74.4257 26.4219 74.0719 26.4219 73.7031V16.6875C26.4219 16.3187 26.2754 15.965 26.0146 15.7042C25.7538 15.4434 25.4001 15.2969 25.0312 15.2969ZM23.6406 29.2031H20.8594V25.0312H23.6406V29.2031ZM23.6406 36.1562H20.8594V31.9844H23.6406V36.1562ZM23.6406 43.1094H20.8594V38.9375H23.6406V43.1094ZM23.6406 50.0625H20.8594V45.8906H23.6406V50.0625ZM23.6406 57.0156H20.8594V52.8438H23.6406V57.0156ZM20.8594 59.7969H23.6406V63.9688H20.8594V59.7969ZM20.8594 18.0781H23.6406V22.25H20.8594V18.0781ZM23.6406 72.3125H20.8594V66.75H23.6406V72.3125Z" fill="#004FAC"/>
<path d="M69.5312 15.2969H63.9688C63.5999 15.2969 63.2462 15.4434 62.9854 15.7042C62.7246 15.965 62.5781 16.3187 62.5781 16.6875V73.7031C62.5781 74.0719 62.7246 74.4257 62.9854 74.6864C63.2462 74.9472 63.5999 75.0938 63.9688 75.0938H69.5312C69.9001 75.0938 70.2538 74.9472 70.5146 74.6864C70.7754 74.4257 70.9219 74.0719 70.9219 73.7031V16.6875C70.9219 16.3187 70.7754 15.965 70.5146 15.7042C70.2538 15.4434 69.9001 15.2969 69.5312 15.2969ZM68.1406 29.2031H65.3594V25.0312H68.1406V29.2031ZM68.1406 36.1562H65.3594V31.9844H68.1406V36.1562ZM68.1406 43.1094H65.3594V38.9375H68.1406V43.1094ZM68.1406 50.0625H65.3594V45.8906H68.1406V50.0625ZM68.1406 57.0156H65.3594V52.8438H68.1406V57.0156ZM65.3594 59.7969H68.1406V63.9688H65.3594V59.7969ZM65.3594 18.0781H68.1406V22.25H65.3594V18.0781ZM68.1406 72.3125H65.3594V66.75H68.1406V72.3125Z" fill="#004FAC"/>
</svg>
