<svg width="66" height="66" viewBox="0 0 66 66" fill="none" xmlns="http://www.w3.org/2000/svg">
<path d="M35.0625 48.4688L34.0312 51.5625H27.8438L26.8125 48.4688H35.0625Z" fill="#57A4FF"/>
<path d="M35.0625 48.4688L34.0312 51.5625H27.8438L26.8125 48.4688H35.0625Z" fill="#57A4FF"/>
<path d="M54.6562 21.6562V28.875H51.6914L50.6602 25.7812H51.5625V20.625H29.7761C29.3181 22.3961 28.2847 23.9648 26.8383 25.0847C25.3919 26.2047 23.6145 26.8124 21.7852 26.8124C19.9558 26.8124 18.1784 26.2047 16.732 25.0847C15.2856 23.9648 14.2522 22.3961 13.7943 20.625H10.4414V45.375H45.5039V48.4688H7.34766V21.6562C7.34766 20.5622 7.78225 19.513 8.55584 18.7394C9.32943 17.9658 10.3786 17.5312 11.4727 17.5312H50.5312C51.6253 17.5312 52.6745 17.9658 53.4481 18.7394C54.2217 19.513 54.6562 20.5622 54.6562 21.6562Z" fill="#57A4FF"/>
<path d="M13.7949 20.625H29.7767C29.3187 22.3961 28.2854 23.9648 26.839 25.0847C25.3926 26.2047 23.6151 26.8124 21.7858 26.8124C19.9565 26.8124 18.179 26.2047 16.7326 25.0847C15.2862 23.9648 14.2529 22.3961 13.7949 20.625Z" fill="#57A4FF"/>
<path d="M51.5625 25.7812V28.4883L50.6602 25.7812H51.5625Z" fill="#57A4FF"/>
<path d="M58.9102 25.7812L57.8789 28.875H51.6914L50.6602 25.7812H58.9102Z" fill="#57A4FF"/>
<path d="M58.9102 25.7812L57.8789 28.875H51.6914L50.6602 25.7812H58.9102Z" fill="#57A4FF"/>
<path d="M30.0352 18.5625C30.0352 20.7505 29.166 22.8489 27.6188 24.3961C26.0716 25.9433 23.9732 26.8125 21.7852 26.8125C19.5971 26.8125 17.4987 25.9433 15.9515 24.3961C14.4043 22.8489 13.5352 20.7505 13.5352 18.5625C13.5353 18.2178 13.5564 17.8734 13.5983 17.5312C13.85 15.5375 14.8205 13.7042 16.3278 12.3752C17.8352 11.0462 19.7756 10.3129 21.7852 10.3129C23.7947 10.3129 25.7352 11.0462 27.2425 12.3752C28.7498 13.7042 29.7203 15.5375 29.972 17.5312C30.0139 17.8734 30.035 18.2178 30.0352 18.5625Z" fill="#57A4FF"/>
<path d="M61.875 24.75H55.6875V21.6563C55.6861 20.2892 55.1425 18.9785 54.1758 18.0118C53.2091 17.0451 51.8984 16.5014 50.5312 16.5H30.7042C30.2371 14.4496 29.0875 12.6187 27.4436 11.3072C25.7998 9.99565 23.7592 9.28137 21.6562 9.28137C19.5533 9.28137 17.5127 9.99565 15.8689 11.3072C14.225 12.6187 13.0754 14.4496 12.6083 16.5H11.3438C9.97665 16.5014 8.66593 17.0451 7.69924 18.0118C6.73255 18.9785 6.18887 20.2892 6.1875 21.6563V47.4375H2.0625C1.789 47.4375 1.52669 47.5462 1.3333 47.7396C1.1399 47.933 1.03125 48.1953 1.03125 48.4688V52.5938C1.03262 53.9609 1.5763 55.2716 2.54299 56.2383C3.50968 57.205 4.8204 57.7487 6.1875 57.75H61.875C62.6952 57.749 63.4815 57.4226 64.0614 56.8427C64.6414 56.2627 64.9677 55.4765 64.9688 54.6563V27.8438C64.9677 27.0236 64.6414 26.2373 64.0614 25.6574C63.4815 25.0774 62.6952 24.7511 61.875 24.75ZM57.3504 26.8125L57.0062 27.8438H52.3063L51.9621 26.8125H57.3504ZM30.9375 18.5625H50.5312C51.3514 18.5636 52.1377 18.8899 52.7177 19.4699C53.2976 20.0498 53.6239 20.8361 53.625 21.6563V24.75H52.5938V20.625C52.5938 20.3515 52.4851 20.0892 52.2917 19.8958C52.0983 19.7024 51.836 19.5938 51.5625 19.5938H30.8782C30.9175 19.2514 30.9373 18.9071 30.9375 18.5625ZM21.6562 11.3438C23.084 11.3438 24.4797 11.7672 25.6668 12.5604C26.8539 13.3536 27.7791 14.481 28.3255 15.8C28.8719 17.1191 29.0148 18.5705 28.7363 19.9708C28.4578 21.3712 27.7702 22.6574 26.7607 23.667C25.7511 24.6765 24.4649 25.364 23.0646 25.6426C21.6643 25.9211 20.2128 25.7782 18.8938 25.2318C17.5747 24.6854 16.4473 23.7602 15.6541 22.5731C14.8609 21.3859 14.4375 19.9903 14.4375 18.5625C14.4396 16.6487 15.2008 14.8138 16.5542 13.4605C17.9075 12.1071 19.7424 11.3459 21.6562 11.3438ZM8.25 21.6563C8.25109 20.8361 8.57739 20.0498 9.15734 19.4699C9.7373 18.8899 10.5236 18.5636 11.3438 18.5625H12.375C12.3752 18.9071 12.395 19.2514 12.4343 19.5938H10.3125C10.039 19.5938 9.77669 19.7024 9.5833 19.8958C9.3899 20.0892 9.28125 20.3515 9.28125 20.625V45.375C9.28125 45.6485 9.3899 45.9109 9.5833 46.1042C9.77669 46.2976 10.039 46.4063 10.3125 46.4063H44.3438V47.4375H8.25V21.6563ZM33.6316 49.5L33.2875 50.5313H28.5875L28.2434 49.5H33.6316ZM6.1875 55.6875C5.36732 55.6865 4.58105 55.3601 4.00109 54.7802C3.42114 54.2002 3.09484 53.414 3.09375 52.5938V49.5H26.0687L26.8654 51.8887C26.9338 52.094 27.0651 52.2726 27.2407 52.3992C27.4163 52.5257 27.6273 52.5938 27.8438 52.5938H34.0312C34.2477 52.5938 34.4587 52.5257 34.6343 52.3992C34.8099 52.2726 34.9412 52.094 35.0096 51.8887L35.8063 49.5H44.3438V54.6563C44.3437 55.0077 44.4038 55.3565 44.5216 55.6875H6.1875ZM44.3438 27.8438V44.3438H11.3438V21.6563H12.9074C13.5468 23.4657 14.7315 25.0324 16.2984 26.1405C17.8652 27.2487 19.7371 27.8437 21.6562 27.8437C23.5754 27.8437 25.4473 27.2487 27.0141 26.1405C28.581 25.0324 29.7657 23.4657 30.4051 21.6563H50.5312V24.75H47.4375C46.6173 24.7511 45.831 25.0774 45.2511 25.6574C44.6711 26.2373 44.3448 27.0236 44.3438 27.8438ZM62.9062 54.6563C62.9059 54.9297 62.7971 55.1918 62.6038 55.3851C62.4105 55.5784 62.1484 55.6872 61.875 55.6875H47.4375C47.1641 55.6872 46.902 55.5784 46.7087 55.3851C46.5154 55.1918 46.4066 54.9297 46.4062 54.6563V27.8438C46.4066 27.5704 46.5154 27.3083 46.7087 27.115C46.902 26.9217 47.1641 26.8129 47.4375 26.8125H49.7875L50.5841 29.2012C50.6526 29.4065 50.7839 29.5851 50.9595 29.7117C51.1351 29.8382 51.3461 29.9063 51.5625 29.9063H57.75C57.9664 29.9063 58.1774 29.8382 58.353 29.7117C58.5286 29.5851 58.6599 29.4065 58.7284 29.2012L59.525 26.8125H61.875C62.1484 26.8129 62.4105 26.9217 62.6038 27.115C62.7971 27.3083 62.9059 27.5704 62.9062 27.8438V54.6563Z" fill="#004FAC"/>
<path d="M52.5938 52.5938H48.4688C48.1952 52.5938 47.9329 52.7024 47.7395 52.8958C47.5461 53.0892 47.4375 53.3515 47.4375 53.625C47.4375 53.8985 47.5461 54.1608 47.7395 54.3542C47.9329 54.5476 48.1952 54.6562 48.4688 54.6562H52.5938C52.8673 54.6562 53.1296 54.5476 53.323 54.3542C53.5164 54.1608 53.625 53.8985 53.625 53.625C53.625 53.3515 53.5164 53.0892 53.323 52.8958C53.1296 52.7024 52.8673 52.5938 52.5938 52.5938Z" fill="#004FAC"/>
<path d="M56.7188 52.5938H55.6875C55.414 52.5938 55.1517 52.7024 54.9583 52.8958C54.7649 53.0892 54.6562 53.3515 54.6562 53.625C54.6562 53.8985 54.7649 54.1608 54.9583 54.3542C55.1517 54.5476 55.414 54.6562 55.6875 54.6562H56.7188C56.9923 54.6562 57.2546 54.5476 57.448 54.3542C57.6414 54.1608 57.75 53.8985 57.75 53.625C57.75 53.3515 57.6414 53.0892 57.448 52.8958C57.2546 52.7024 56.9923 52.5938 56.7188 52.5938Z" fill="#004FAC"/>
<path d="M11.3438 50.5312H5.15625C4.88275 50.5312 4.62044 50.6399 4.42705 50.8333C4.23365 51.0267 4.125 51.289 4.125 51.5625C4.125 51.836 4.23365 52.0983 4.42705 52.2917C4.62044 52.4851 4.88275 52.5938 5.15625 52.5938H11.3438C11.6173 52.5938 11.8796 52.4851 12.073 52.2917C12.2664 52.0983 12.375 51.836 12.375 51.5625C12.375 51.289 12.2664 51.0267 12.073 50.8333C11.8796 50.6399 11.6173 50.5312 11.3438 50.5312Z" fill="#004FAC"/>
<path d="M15.4688 50.5312H14.4375C14.164 50.5312 13.9017 50.6399 13.7083 50.8333C13.5149 51.0267 13.4062 51.289 13.4062 51.5625C13.4062 51.836 13.5149 52.0983 13.7083 52.2917C13.9017 52.4851 14.164 52.5938 14.4375 52.5938H15.4688C15.7423 52.5938 16.0046 52.4851 16.198 52.2917C16.3914 52.0983 16.5 51.836 16.5 51.5625C16.5 51.289 16.3914 51.0267 16.198 50.8333C16.0046 50.6399 15.7423 50.5312 15.4688 50.5312Z" fill="#004FAC"/>
<path d="M54.6562 44.3438C55.2258 44.3438 55.6875 43.882 55.6875 43.3125C55.6875 42.743 55.2258 42.2812 54.6562 42.2812C54.0867 42.2812 53.625 42.743 53.625 43.3125C53.625 43.882 54.0867 44.3438 54.6562 44.3438Z" fill="#004FAC"/>
<path d="M53.2816 41.7749C53.6597 41.4369 54.1491 41.25 54.6563 41.25C55.1635 41.25 55.6529 41.4369 56.031 41.7749C56.2348 41.9573 56.5027 42.0513 56.7758 42.0362C57.0489 42.0211 57.3048 41.8981 57.4872 41.6943C57.6696 41.4906 57.7636 41.2226 57.7485 40.9495C57.7334 40.6764 57.6104 40.4205 57.4066 40.2381C56.6503 39.5615 55.6711 39.1874 54.6563 39.1874C53.6415 39.1874 52.6623 39.5615 51.906 40.2381C51.805 40.3284 51.7229 40.4377 51.6643 40.5598C51.6056 40.6819 51.5716 40.8143 51.5641 40.9495C51.5566 41.0848 51.5758 41.2201 51.6207 41.3479C51.6655 41.4757 51.7351 41.5934 51.8254 41.6943C51.9157 41.7953 52.025 41.8774 52.1471 41.936C52.2692 41.9947 52.4016 42.0287 52.5368 42.0362C52.6721 42.0437 52.8074 42.0245 52.9352 41.9796C53.063 41.9348 53.1807 41.8652 53.2816 41.7749Z" fill="#004FAC"/>
<path d="M59.4694 37.9323C58.1459 36.7484 56.4324 36.0939 54.6567 36.0939C52.8809 36.0939 51.1675 36.7484 49.8439 37.9323C49.7418 38.0222 49.6584 38.1315 49.5987 38.2539C49.539 38.3762 49.504 38.5091 49.496 38.645C49.4879 38.7809 49.5068 38.9171 49.5516 39.0456C49.5964 39.1742 49.6662 39.2926 49.757 39.394C49.8477 39.4955 49.9577 39.5779 50.0805 39.6366C50.2033 39.6954 50.3366 39.7292 50.4725 39.7362C50.6085 39.7432 50.7445 39.7232 50.8727 39.6773C51.0008 39.6315 51.1187 39.5607 51.2194 39.4691C52.1647 38.6237 53.3884 38.1563 54.6567 38.1563C55.9249 38.1563 57.1486 38.6237 58.0939 39.4691C58.2981 39.6489 58.5651 39.7407 58.8367 39.7245C59.1082 39.7083 59.3624 39.5855 59.5438 39.3828C59.7253 39.1801 59.8192 38.9139 59.8053 38.6422C59.7913 38.3705 59.6706 38.1153 59.4694 37.9323Z" fill="#004FAC"/>
<path d="M21.6562 22.6875C22.2258 22.6875 22.6875 22.2258 22.6875 21.6562C22.6875 21.0867 22.2258 20.625 21.6562 20.625C21.0867 20.625 20.625 21.0867 20.625 21.6562C20.625 22.2258 21.0867 22.6875 21.6562 22.6875Z" fill="#004FAC"/>
<path d="M24.4066 18.5818C23.6503 17.9052 22.6711 17.5311 21.6563 17.5311C20.6415 17.5311 19.6623 17.9052 18.906 18.5818C18.805 18.6722 18.7229 18.7815 18.6643 18.9036C18.6056 19.0256 18.5716 19.1581 18.5641 19.2933C18.5566 19.4285 18.5758 19.5639 18.6207 19.6917C18.6655 19.8195 18.7351 19.9372 18.8254 20.0381C18.9157 20.139 19.025 20.2211 19.1471 20.2798C19.2692 20.3385 19.4016 20.3725 19.5368 20.38C19.6721 20.3875 19.8074 20.3682 19.9352 20.3234C20.063 20.2786 20.1807 20.209 20.2816 20.1187C20.6597 19.7806 21.1491 19.5938 21.6563 19.5938C22.1635 19.5938 22.6529 19.7806 23.031 20.1187C23.2348 20.3011 23.5027 20.3951 23.7758 20.38C24.0489 20.3649 24.3048 20.2419 24.4872 20.0381C24.6696 19.8343 24.7636 19.5664 24.7485 19.2933C24.7334 19.0202 24.6104 18.7643 24.4066 18.5818Z" fill="#004FAC"/>
<path d="M16.7626 17.7322C16.8529 17.8331 16.9622 17.9153 17.0843 17.974C17.2064 18.0327 17.3389 18.0668 17.4742 18.0743C17.6094 18.0818 17.7449 18.0626 17.8727 18.0177C18.0005 17.9729 18.1183 17.9032 18.2192 17.8129C19.1645 16.9674 20.3883 16.5 21.6565 16.5C22.9247 16.5 24.1485 16.9674 25.0938 17.8129C25.1945 17.9045 25.3123 17.9752 25.4405 18.0211C25.5687 18.0669 25.7047 18.0869 25.8406 18.0799C25.9766 18.073 26.1098 18.0391 26.2326 17.9804C26.3554 17.9217 26.4654 17.8392 26.5562 17.7378C26.647 17.6363 26.7168 17.5179 26.7616 17.3894C26.8064 17.2608 26.8253 17.1247 26.8172 16.9888C26.8091 16.8529 26.7742 16.7199 26.7145 16.5976C26.6547 16.4753 26.5714 16.366 26.4692 16.276C25.1457 15.0921 23.4322 14.4376 21.6565 14.4376C19.8807 14.4376 18.1673 15.0921 16.8438 16.276C16.6399 16.4584 16.5168 16.7142 16.5016 16.9873C16.4864 17.2603 16.5802 17.5283 16.7626 17.7322Z" fill="#004FAC"/>
</svg>
