<svg width="46" height="46" viewBox="0 0 46 46" fill="none" xmlns="http://www.w3.org/2000/svg">
<g clip-path="url(#clip0)">
<path d="M22.9999 35.7105C31.6911 35.7105 38.7367 28.6649 38.7367 19.9737C38.7367 11.2824 31.6911 4.23682 22.9999 4.23682C14.3087 4.23682 7.26305 11.2824 7.26305 19.9737C7.26305 28.6649 14.3087 35.7105 22.9999 35.7105Z" fill="#F3F3F3"/>
<path d="M37.3857 5.95867C33.5432 2.11618 28.4342 0 23 0C17.5658 0 12.4568 2.11618 8.61435 5.95867C4.77177 9.80133 2.65559 14.9102 2.65559 20.3444C2.65559 29.9314 9.35791 38.2082 18.6689 40.2252L23 46L27.3312 40.2251C36.6421 38.2081 43.3444 29.9314 43.3444 20.3444C43.3444 14.9102 41.2283 9.80133 37.3857 5.95867ZM23 5.31115C31.2398 5.31115 37.9433 12.0147 37.9433 20.2544C37.9433 28.4941 31.2398 35.1977 23 35.1977C14.7603 35.1977 8.05677 28.4941 8.05677 20.2544C8.05677 12.0147 14.7603 5.31115 23 5.31115Z" fill="#9D9D9D"/>
</g>
<defs>
<clipPath id="clip0">
<rect width="46" height="46" fill="white"/>
</clipPath>
</defs>
</svg>
