<svg width="46" height="46" viewBox="0 0 46 46" fill="none" xmlns="http://www.w3.org/2000/svg">
<g clip-path="url(#clip0)">
<path d="M22.9999 35.7105C31.6911 35.7105 38.7367 28.6649 38.7367 19.9737C38.7367 11.2824 31.6911 4.23682 22.9999 4.23682C14.3087 4.23682 7.26305 11.2824 7.26305 19.9737C7.26305 28.6649 14.3087 35.7105 22.9999 35.7105Z" fill="white"/>
<path d="M37.3857 5.95867C33.5432 2.11618 28.4342 0 23 0C17.5658 0 12.4568 2.11618 8.61435 5.95867C4.77177 9.80133 2.65559 14.9102 2.65559 20.3444C2.65559 29.9314 9.35791 38.2082 18.6689 40.2252L23 46L27.3312 40.2251C36.6421 38.2081 43.3444 29.9314 43.3444 20.3444C43.3444 14.9102 41.2283 9.80133 37.3857 5.95867ZM23 5.31115C31.2398 5.31115 37.9433 12.0147 37.9433 20.2544C37.9433 28.4941 31.2398 35.1977 23 35.1977C14.7603 35.1977 8.05677 28.4941 8.05677 20.2544C8.05677 12.0147 14.7603 5.31115 23 5.31115Z" fill="#F67F14"/>
<rect x="13" y="20" width="14.1423" height="14.1423" transform="rotate(-45 13 20)" fill="#FFC411"/>
<path d="M23.82 15L23.69 22.0585H22.3051L22.1751 15H23.82ZM23 25C22.7234 25 22.4867 24.9065 22.2901 24.7194C22.0934 24.5291 21.9968 24.3001 22.0001 24.0324C21.9968 23.7679 22.0934 23.5422 22.2901 23.3551C22.4867 23.1648 22.7234 23.0697 23 23.0697C23.27 23.0697 23.5034 23.1648 23.7 23.3551C23.8967 23.5422 23.9967 23.7679 24 24.0324C23.9967 24.2098 23.9483 24.3727 23.855 24.521C23.765 24.6662 23.645 24.7823 23.495 24.8694C23.345 24.9565 23.18 25 23 25Z" fill="#313131"/>
</g>
<defs>
<clipPath id="clip0">
<rect width="46" height="46" fill="white"/>
</clipPath>
</defs>
</svg>
