<svg width="46" height="46" viewBox="0 0 46 46" fill="none" xmlns="http://www.w3.org/2000/svg">
<g clip-path="url(#clip0)">
<path d="M22.9999 35.7105C31.6911 35.7105 38.7367 28.6649 38.7367 19.9737C38.7367 11.2824 31.6911 4.23682 22.9999 4.23682C14.3087 4.23682 7.26305 11.2824 7.26305 19.9737C7.26305 28.6649 14.3087 35.7105 22.9999 35.7105Z" fill="white"/>
<path d="M37.3857 5.95867C33.5432 2.11618 28.4342 0 23 0C17.5658 0 12.4568 2.11618 8.61435 5.95867C4.77177 9.80133 2.65559 14.9102 2.65559 20.3444C2.65559 29.9314 9.35791 38.2082 18.6689 40.2252L23 46L27.3312 40.2251C36.6421 38.2081 43.3444 29.9314 43.3444 20.3444C43.3444 14.9102 41.2283 9.80133 37.3857 5.95867ZM23 5.31115C31.2398 5.31115 37.9433 12.0147 37.9433 20.2544C37.9433 28.4941 31.2398 35.1977 23 35.1977C14.7603 35.1977 8.05677 28.4941 8.05677 20.2544C8.05677 12.0147 14.7603 5.31115 23 5.31115Z" fill="#037FC5"/>
<path d="M18.5 12.125H27.5V13.25H18.5V12.125Z" fill="#57A4FF"/>
<path d="M20.75 20H22.4375V21.6875H20.75V20Z" fill="#57A4FF"/>
<path d="M23.5625 20H25.25V21.6875H23.5625V20Z" fill="#57A4FF"/>
<path d="M20.75 17.1875H22.4375V18.875H20.75V17.1875Z" fill="#57A4FF"/>
<path d="M23.5625 17.1875H25.25V18.875H23.5625V17.1875Z" fill="#57A4FF"/>
<path d="M20.75 22.8125H22.4375V24.5H20.75V22.8125Z" fill="#57A4FF"/>
<path d="M23.5625 22.8125H25.25V24.5H23.5625V22.8125Z" fill="#57A4FF"/>
<path d="M20.75 14.375H22.4375V16.0625H20.75V14.375Z" fill="#57A4FF"/>
<path d="M23.5625 14.375H25.25V16.0625H23.5625V14.375Z" fill="#57A4FF"/>
<path d="M22.1562 25.625H23.8438V27.875H22.1562V25.625Z" fill="#57A4FF"/>
<path d="M18.122 24.3906C18.226 24.1581 18.2472 23.897 18.1821 23.6507C18.1169 23.4045 17.9694 23.1881 17.764 23.0375C17.8596 22.9125 17.9183 22.7632 17.9335 22.6066C17.9488 22.45 17.9199 22.2922 17.8502 22.1511C17.7805 22.01 17.6727 21.8913 17.539 21.8082C17.4053 21.7252 17.2511 21.6812 17.0937 21.6812C16.9364 21.6812 16.7821 21.7252 16.6485 21.8082C16.5148 21.8913 16.407 22.01 16.3373 22.1511C16.2676 22.2922 16.2387 22.45 16.2539 22.6066C16.2692 22.7632 16.3279 22.9125 16.4235 23.0375C16.2184 23.188 16.071 23.4043 16.0058 23.6502C15.9407 23.8962 15.9617 24.1571 16.0655 24.3894C15.8786 24.5898 15.7543 24.8403 15.7078 25.1103C15.6614 25.3804 15.6948 25.6581 15.8041 25.9093C15.9133 26.1606 16.0935 26.3745 16.3226 26.5247C16.5517 26.6749 16.8198 26.755 17.0937 26.755C17.3677 26.755 17.6357 26.6749 17.8648 26.5247C18.094 26.3745 18.2742 26.1606 18.3834 25.9093C18.4926 25.6581 18.5261 25.3804 18.4796 25.1103C18.4332 24.8403 18.3089 24.5898 18.122 24.3894V24.3906Z" fill="#57A4FF"/>
<path d="M28.1592 23.5468C28.0552 23.3143 28.034 23.0532 28.0991 22.807C28.1643 22.5608 28.3119 22.3443 28.5173 22.1937C28.4217 22.0687 28.3629 21.9195 28.3477 21.7628C28.3325 21.6062 28.3613 21.4484 28.431 21.3074C28.5008 21.1663 28.6085 21.0475 28.7422 20.9645C28.8759 20.8814 29.0301 20.8374 29.1875 20.8374C29.3449 20.8374 29.4991 20.8814 29.6328 20.9645C29.7664 21.0475 29.8742 21.1663 29.9439 21.3074C30.0136 21.4484 30.0425 21.6062 30.0273 21.7628C30.012 21.9195 29.9533 22.0687 29.8577 22.1937C30.0628 22.3443 30.2102 22.5605 30.2754 22.8065C30.3405 23.0525 30.3195 23.3133 30.2157 23.5457C30.4026 23.746 30.5269 23.9966 30.5734 24.2666C30.6198 24.5366 30.5864 24.8143 30.4772 25.0656C30.3679 25.3168 30.1877 25.5307 29.9586 25.681C29.7295 25.8312 29.4615 25.9112 29.1875 25.9112C28.9135 25.9112 28.6455 25.8312 28.4164 25.681C28.1873 25.5307 28.007 25.3168 27.8978 25.0656C27.7886 24.8143 27.7551 24.5366 27.8016 24.2666C27.848 23.9966 27.9723 23.746 28.1592 23.5457V23.5468Z" fill="#57A4FF"/>
<path d="M30.3125 27.5938H29.4688V26.1622C29.7542 26.115 30.0227 25.995 30.2481 25.8136C30.4736 25.6323 30.6485 25.3958 30.7557 25.1271C30.863 24.8584 30.8991 24.5666 30.8606 24.2798C30.822 23.9931 30.71 23.7211 30.5355 23.4903C30.6054 23.2566 30.6126 23.0086 30.5566 22.7712C30.5005 22.5338 30.3831 22.3153 30.216 22.1375C30.2796 21.996 30.3125 21.8426 30.3125 21.6875C30.3125 21.3891 30.194 21.103 29.983 20.892C29.772 20.681 29.4859 20.5625 29.1875 20.5625C28.8891 20.5625 28.603 20.681 28.392 20.892C28.181 21.103 28.0625 21.3891 28.0625 21.6875C28.0625 21.8426 28.0954 21.996 28.159 22.1375C27.992 22.3153 27.8747 22.5338 27.8186 22.7711C27.7625 23.0084 27.7697 23.2563 27.8395 23.49C27.6648 23.7208 27.5527 23.9928 27.5141 24.2796C27.4754 24.5664 27.5115 24.8584 27.6188 25.1271C27.7261 25.3959 27.901 25.6324 28.1266 25.8138C28.3521 25.9951 28.6207 26.1151 28.9062 26.1622V26.5059L28.4998 26.2347C28.4691 26.2143 28.4346 26.2 28.3984 26.1928C28.3622 26.1856 28.3249 26.1857 28.2887 26.1929C28.2524 26.2001 28.218 26.2144 28.1873 26.235C28.1566 26.2555 28.1302 26.2819 28.1097 26.3127C28.0893 26.3434 28.075 26.3779 28.0678 26.4141C28.0606 26.4503 28.0607 26.4876 28.0679 26.5238C28.0751 26.5601 28.0894 26.5945 28.11 26.6252C28.1305 26.6559 28.1569 26.6823 28.1877 26.7028L28.9062 27.1817V27.5938H26.6562V13.5312H27.5C27.5746 13.5312 27.6461 13.5016 27.6989 13.4489C27.7516 13.3961 27.7812 13.3246 27.7812 13.25V12.125C27.7812 12.0504 27.7516 11.9789 27.6989 11.9261C27.6461 11.8734 27.5746 11.8438 27.5 11.8438H18.5C18.4254 11.8438 18.3539 11.8734 18.3011 11.9261C18.2484 11.9789 18.2188 12.0504 18.2188 12.125V13.25C18.2188 13.3246 18.2484 13.3961 18.3011 13.4489C18.3539 13.5016 18.4254 13.5312 18.5 13.5312H19.3438V27.5938H17.375V27.0059C17.6605 26.9588 17.9289 26.8387 18.1544 26.6574C18.3799 26.4761 18.5547 26.2396 18.662 25.9709C18.7693 25.7022 18.8054 25.4103 18.7668 25.1236C18.7282 24.8368 18.6163 24.5649 18.4418 24.3341C18.5115 24.1004 18.5187 23.8526 18.4627 23.6153C18.4066 23.378 18.2892 23.1595 18.1223 22.9818C18.1859 22.8401 18.2188 22.6866 18.2188 22.5312C18.2188 22.2329 18.1002 21.9467 17.8892 21.7358C17.6783 21.5248 17.3921 21.4062 17.0938 21.4062C16.7954 21.4062 16.5092 21.5248 16.2983 21.7358C16.0873 21.9467 15.9688 22.2329 15.9688 22.5312C15.9688 22.6864 16.0017 22.8397 16.0652 22.9812C15.8983 23.159 15.7809 23.3774 15.7248 23.6147C15.6688 23.852 15.676 24.0999 15.7457 24.3335C15.5711 24.5643 15.459 24.8363 15.4204 25.1231C15.3817 25.41 15.4178 25.7019 15.5251 25.9707C15.6324 26.2395 15.8073 26.476 16.0328 26.6574C16.2584 26.8388 16.5269 26.9588 16.8125 27.0059V27.5938H14.5625C14.4879 27.5938 14.4164 27.6234 14.3636 27.6761C14.3109 27.7289 14.2812 27.8004 14.2812 27.875C14.2812 27.9496 14.3109 28.0211 14.3636 28.0739C14.4164 28.1266 14.4879 28.1562 14.5625 28.1562H30.3125C30.3871 28.1562 30.4586 28.1266 30.5114 28.0739C30.5641 28.0211 30.5938 27.9496 30.5938 27.875C30.5938 27.8004 30.5641 27.7289 30.5114 27.6761C30.4586 27.6234 30.3871 27.5938 30.3125 27.5938ZM28.0625 24.5C28.0634 24.2169 28.1717 23.9446 28.3654 23.7381C28.4027 23.6978 28.4274 23.6475 28.4365 23.5933C28.4455 23.5391 28.4385 23.4835 28.4163 23.4332C28.3386 23.2591 28.3229 23.0636 28.3719 22.8794C28.4209 22.6951 28.5316 22.5332 28.6855 22.4207C28.7451 22.376 28.7846 22.3093 28.7951 22.2355C28.8057 22.1617 28.7865 22.0866 28.7417 22.027C28.6663 21.9298 28.6253 21.8105 28.625 21.6875C28.625 21.5383 28.6843 21.3952 28.7898 21.2898C28.8952 21.1843 29.0383 21.125 29.1875 21.125C29.3367 21.125 29.4798 21.1843 29.5852 21.2898C29.6907 21.3952 29.75 21.5383 29.75 21.6875C29.7494 21.8097 29.7085 21.9284 29.6336 22.025C29.5888 22.0847 29.5696 22.1597 29.5801 22.2335C29.5907 22.3074 29.6301 22.374 29.6898 22.4187C29.8438 22.5312 29.9545 22.6931 30.0035 22.8774C30.0524 23.0617 30.0366 23.2572 29.9587 23.4313C29.9365 23.4815 29.9295 23.5372 29.9386 23.5914C29.9477 23.6455 29.9725 23.6959 30.0099 23.7361C30.1435 23.8778 30.2378 24.052 30.2833 24.2414C30.3288 24.4308 30.3239 24.6288 30.2692 24.8157C30.2145 25.0026 30.1119 25.172 29.9714 25.307C29.831 25.4419 29.6577 25.5378 29.4688 25.5851V24.7812C29.4688 24.7067 29.4391 24.6351 29.3864 24.5824C29.3336 24.5296 29.2621 24.5 29.1875 24.5C29.1129 24.5 29.0414 24.5296 28.9886 24.5824C28.9359 24.6351 28.9062 24.7067 28.9062 24.7812V25.5851C28.6655 25.5229 28.4521 25.3827 28.2994 25.1864C28.1467 24.9901 28.0634 24.7487 28.0625 24.5ZM15.9688 25.3438C15.9697 25.0606 16.0779 24.7883 16.2717 24.5818C16.309 24.5416 16.3338 24.4913 16.3429 24.4371C16.352 24.3829 16.345 24.3272 16.3228 24.277C16.2449 24.1029 16.2291 23.9074 16.2781 23.7231C16.327 23.5388 16.4377 23.3769 16.5917 23.2645C16.6514 23.2197 16.6908 23.1531 16.7014 23.0792C16.7119 23.0054 16.6927 22.9304 16.648 22.8707C16.5726 22.7736 16.5315 22.6542 16.5312 22.5312C16.5312 22.3821 16.5905 22.239 16.696 22.1335C16.8015 22.028 16.9446 21.9688 17.0938 21.9688C17.2429 21.9688 17.386 22.028 17.4915 22.1335C17.597 22.239 17.6562 22.3821 17.6562 22.5312C17.6556 22.6535 17.6147 22.7721 17.5398 22.8688C17.4951 22.9284 17.4758 23.0034 17.4864 23.0773C17.4969 23.1511 17.5364 23.2177 17.5961 23.2625C17.7501 23.375 17.8608 23.5369 17.9097 23.7212C17.9587 23.9055 17.9429 24.101 17.8649 24.275C17.8428 24.3253 17.8358 24.3809 17.8449 24.4351C17.854 24.4893 17.8787 24.5396 17.9161 24.5799C18.0498 24.7216 18.144 24.8957 18.1895 25.0851C18.235 25.2745 18.2302 25.4725 18.1755 25.6594C18.1208 25.8464 18.0181 26.0157 17.8777 26.1507C17.7373 26.2857 17.564 26.3816 17.375 26.4288V25.625C17.375 25.5504 17.3454 25.4789 17.2926 25.4261C17.2399 25.3734 17.1683 25.3438 17.0938 25.3438C17.0192 25.3438 16.9476 25.3734 16.8949 25.4261C16.8421 25.4789 16.8125 25.5504 16.8125 25.625V26.4288C16.5717 26.3666 16.3583 26.2264 16.2056 26.0301C16.053 25.8338 15.9697 25.5924 15.9688 25.3438ZM18.7812 12.4062H27.2188V12.9688H18.7812V12.4062ZM22.4375 27.5938V25.9062H23.5625V27.5938H22.4375ZM24.125 27.5938V25.625C24.125 25.5504 24.0954 25.4789 24.0426 25.4261C23.9899 25.3734 23.9183 25.3438 23.8438 25.3438H22.1562C22.0817 25.3438 22.0101 25.3734 21.9574 25.4261C21.9046 25.4789 21.875 25.5504 21.875 25.625V27.5938H19.9062V13.5312H26.0938V27.5938H24.125Z" fill="#004FAC"/>
<path d="M31.4375 27.5938H31.1562C31.0817 27.5938 31.0101 27.6234 30.9574 27.6761C30.9046 27.7289 30.875 27.8004 30.875 27.875C30.875 27.9496 30.9046 28.0211 30.9574 28.0739C31.0101 28.1266 31.0817 28.1562 31.1562 28.1562H31.4375C31.5121 28.1562 31.5836 28.1266 31.6364 28.0739C31.6891 28.0211 31.7188 27.9496 31.7188 27.875C31.7188 27.8004 31.6891 27.7289 31.6364 27.6761C31.5836 27.6234 31.5121 27.5938 31.4375 27.5938Z" fill="#004FAC"/>
<path d="M22.4375 19.7188H20.75C20.6754 19.7188 20.6039 19.7484 20.5511 19.8011C20.4984 19.8539 20.4688 19.9254 20.4688 20V21.6875C20.4688 21.7621 20.4984 21.8336 20.5511 21.8864C20.6039 21.9391 20.6754 21.9688 20.75 21.9688H22.4375C22.5121 21.9688 22.5836 21.9391 22.6364 21.8864C22.6891 21.8336 22.7188 21.7621 22.7188 21.6875V20C22.7188 19.9254 22.6891 19.8539 22.6364 19.8011C22.5836 19.7484 22.5121 19.7188 22.4375 19.7188ZM22.1562 21.4062H21.0312V20.2812H22.1562V21.4062Z" fill="#004FAC"/>
<path d="M25.25 19.7188H23.5625C23.4879 19.7188 23.4164 19.7484 23.3636 19.8011C23.3109 19.8539 23.2812 19.9254 23.2812 20V21.6875C23.2812 21.7621 23.3109 21.8336 23.3636 21.8864C23.4164 21.9391 23.4879 21.9688 23.5625 21.9688H25.25C25.3246 21.9688 25.3961 21.9391 25.4489 21.8864C25.5016 21.8336 25.5312 21.7621 25.5312 21.6875V20C25.5312 19.9254 25.5016 19.8539 25.4489 19.8011C25.3961 19.7484 25.3246 19.7188 25.25 19.7188ZM24.9688 21.4062H23.8438V20.2812H24.9688V21.4062Z" fill="#004FAC"/>
<path d="M22.4375 16.9062H20.75C20.6754 16.9062 20.6039 16.9359 20.5511 16.9886C20.4984 17.0414 20.4688 17.1129 20.4688 17.1875V18.875C20.4688 18.9496 20.4984 19.0211 20.5511 19.0739C20.6039 19.1266 20.6754 19.1562 20.75 19.1562H22.4375C22.5121 19.1562 22.5836 19.1266 22.6364 19.0739C22.6891 19.0211 22.7188 18.9496 22.7188 18.875V17.1875C22.7188 17.1129 22.6891 17.0414 22.6364 16.9886C22.5836 16.9359 22.5121 16.9062 22.4375 16.9062ZM22.1562 18.5938H21.0312V17.4688H22.1562V18.5938Z" fill="#004FAC"/>
<path d="M25.25 16.9062H23.5625C23.4879 16.9062 23.4164 16.9359 23.3636 16.9886C23.3109 17.0414 23.2812 17.1129 23.2812 17.1875V18.875C23.2812 18.9496 23.3109 19.0211 23.3636 19.0739C23.4164 19.1266 23.4879 19.1562 23.5625 19.1562H25.25C25.3246 19.1562 25.3961 19.1266 25.4489 19.0739C25.5016 19.0211 25.5312 18.9496 25.5312 18.875V17.1875C25.5312 17.1129 25.5016 17.0414 25.4489 16.9886C25.3961 16.9359 25.3246 16.9062 25.25 16.9062ZM24.9688 18.5938H23.8438V17.4688H24.9688V18.5938Z" fill="#004FAC"/>
<path d="M22.4375 22.5312H20.75C20.6754 22.5312 20.6039 22.5609 20.5511 22.6136C20.4984 22.6664 20.4688 22.7379 20.4688 22.8125V24.5C20.4688 24.5746 20.4984 24.6461 20.5511 24.6989C20.6039 24.7516 20.6754 24.7812 20.75 24.7812H22.4375C22.5121 24.7812 22.5836 24.7516 22.6364 24.6989C22.6891 24.6461 22.7188 24.5746 22.7188 24.5V22.8125C22.7188 22.7379 22.6891 22.6664 22.6364 22.6136C22.5836 22.5609 22.5121 22.5312 22.4375 22.5312ZM22.1562 24.2188H21.0312V23.0938H22.1562V24.2188Z" fill="#004FAC"/>
<path d="M25.25 22.5312H23.5625C23.4879 22.5312 23.4164 22.5609 23.3636 22.6136C23.3109 22.6664 23.2812 22.7379 23.2812 22.8125V24.5C23.2812 24.5746 23.3109 24.6461 23.3636 24.6989C23.4164 24.7516 23.4879 24.7812 23.5625 24.7812H25.25C25.3246 24.7812 25.3961 24.7516 25.4489 24.6989C25.5016 24.6461 25.5312 24.5746 25.5312 24.5V22.8125C25.5312 22.7379 25.5016 22.6664 25.4489 22.6136C25.3961 22.5609 25.3246 22.5312 25.25 22.5312ZM24.9688 24.2188H23.8438V23.0938H24.9688V24.2188Z" fill="#004FAC"/>
<path d="M22.4375 14.0938H20.75C20.6754 14.0938 20.6039 14.1234 20.5511 14.1761C20.4984 14.2289 20.4688 14.3004 20.4688 14.375V16.0625C20.4688 16.1371 20.4984 16.2086 20.5511 16.2614C20.6039 16.3141 20.6754 16.3438 20.75 16.3438H22.4375C22.5121 16.3438 22.5836 16.3141 22.6364 16.2614C22.6891 16.2086 22.7188 16.1371 22.7188 16.0625V14.375C22.7188 14.3004 22.6891 14.2289 22.6364 14.1761C22.5836 14.1234 22.5121 14.0938 22.4375 14.0938ZM22.1562 15.7812H21.0312V14.6562H22.1562V15.7812Z" fill="#004FAC"/>
<path d="M25.25 14.0938H23.5625C23.4879 14.0938 23.4164 14.1234 23.3636 14.1761C23.3109 14.2289 23.2812 14.3004 23.2812 14.375V16.0625C23.2812 16.1371 23.3109 16.2086 23.3636 16.2614C23.4164 16.3141 23.4879 16.3438 23.5625 16.3438H25.25C25.3246 16.3438 25.3961 16.3141 25.4489 16.2614C25.5016 16.2086 25.5312 16.1371 25.5312 16.0625V14.375C25.5312 14.3004 25.5016 14.2289 25.4489 14.1761C25.3961 14.1234 25.3246 14.0938 25.25 14.0938ZM24.9688 15.7812H23.8438V14.6562H24.9688V15.7812Z" fill="#004FAC"/>
<path d="M29.1875 24.2188C29.2621 24.2188 29.3336 24.1891 29.3864 24.1364C29.4391 24.0836 29.4688 24.0121 29.4688 23.9375V23.6562C29.4688 23.5817 29.4391 23.5101 29.3864 23.4574C29.3336 23.4046 29.2621 23.375 29.1875 23.375C29.1129 23.375 29.0414 23.4046 28.9886 23.4574C28.9359 23.5101 28.9062 23.5817 28.9062 23.6562V23.9375C28.9062 24.0121 28.9359 24.0836 28.9886 24.1364C29.0414 24.1891 29.1129 24.2188 29.1875 24.2188Z" fill="#004FAC"/>
<path d="M26.9375 15.4999C26.9375 15.7983 27.056 16.0844 27.267 16.2954C27.478 16.5064 27.7641 16.6249 28.0625 16.6249H30.0312C30.0811 16.625 30.1298 16.6108 30.1719 16.5841C30.3897 16.5193 30.5785 16.3811 30.706 16.1929C30.8335 16.0047 30.892 15.7782 30.8715 15.5518C30.851 15.3255 30.7527 15.1132 30.5935 14.951C30.4342 14.7888 30.2237 14.6867 29.9978 14.6621C29.9433 14.4444 29.8248 14.2481 29.6575 14.0984C29.4903 13.9488 29.2821 13.8527 29.0597 13.8226C28.8374 13.7925 28.6111 13.8298 28.4101 13.9296C28.2091 14.0294 28.0427 14.1872 27.9323 14.3825C27.6585 14.4148 27.406 14.5463 27.2227 14.7523C27.0393 14.9582 26.9379 15.2242 26.9375 15.4999ZM28.0527 14.9374L28.0943 14.9419C28.1557 14.9459 28.2167 14.9297 28.268 14.8957C28.3194 14.8618 28.3581 14.8119 28.3783 14.7538C28.4209 14.629 28.5061 14.5232 28.619 14.455C28.7319 14.3869 28.8651 14.3607 28.9954 14.3812C29.1256 14.4016 29.2445 14.4673 29.3311 14.5667C29.4177 14.6662 29.4664 14.7929 29.4687 14.9248C29.4687 14.9315 29.4687 14.9385 29.4673 14.9439C29.4661 14.9862 29.4745 15.0283 29.4919 15.067C29.5093 15.1057 29.5351 15.1399 29.5676 15.1672C29.6 15.1945 29.6382 15.214 29.6793 15.2244C29.7204 15.2349 29.7633 15.2359 29.8048 15.2274C29.8661 15.2161 29.929 15.2182 29.9893 15.2336C30.0496 15.249 30.1058 15.2774 30.1541 15.3167C30.2024 15.356 30.2416 15.4053 30.2689 15.4612C30.2963 15.5171 30.3111 15.5783 30.3125 15.6405C30.3125 15.7378 30.2789 15.8321 30.2174 15.9074C30.1559 15.9827 30.0703 16.0345 29.975 16.054C29.9644 16.0562 29.9538 16.059 29.9435 16.0624H28.0625C27.9133 16.0637 27.7697 16.0057 27.6633 15.9011C27.5569 15.7966 27.4964 15.654 27.4951 15.5048C27.4938 15.3556 27.5518 15.2121 27.6564 15.1056C27.7609 14.9992 27.9035 14.9387 28.0527 14.9374Z" fill="#004FAC"/>
<path d="M16.2501 19.7187H18.2188C18.2686 19.7187 18.3174 19.7046 18.3594 19.6779C18.5773 19.613 18.766 19.4748 18.8935 19.2866C19.0211 19.0985 19.0795 18.872 19.059 18.6456C19.0385 18.4192 18.9403 18.2069 18.7811 18.0447C18.6218 17.8825 18.4113 17.7804 18.1853 17.7558C18.1308 17.5381 18.0123 17.3418 17.8451 17.1922C17.6779 17.0426 17.4697 16.9465 17.2473 16.9164C17.0249 16.8863 16.7986 16.9236 16.5977 17.0234C16.3967 17.1231 16.2303 17.2809 16.1198 17.4763C15.8348 17.5095 15.5732 17.6506 15.3886 17.8704C15.2041 18.0903 15.1106 18.3723 15.1272 18.6589C15.1439 18.9454 15.2694 19.2148 15.4781 19.4118C15.6869 19.6088 15.963 19.7186 16.2501 19.7187ZM16.2402 18.0312L16.2818 18.0357C16.3433 18.0397 16.4043 18.0235 16.4556 17.9895C16.5069 17.9555 16.5457 17.9056 16.5659 17.8475C16.6085 17.7227 16.6937 17.6169 16.8066 17.5488C16.9194 17.4806 17.0527 17.4545 17.1829 17.4749C17.3132 17.4953 17.4321 17.561 17.5187 17.6605C17.6052 17.7599 17.654 17.8867 17.6563 18.0185C17.6563 18.0253 17.6563 18.0323 17.6549 18.0376C17.6537 18.08 17.6621 18.1221 17.6795 18.1608C17.6968 18.1994 17.7227 18.2337 17.7551 18.2609C17.7876 18.2882 17.8258 18.3078 17.8669 18.3182C17.908 18.3286 17.9509 18.3296 17.9924 18.3211C18.0536 18.3098 18.1166 18.312 18.1769 18.3274C18.2372 18.3428 18.2934 18.3711 18.3417 18.4104C18.39 18.4497 18.4291 18.499 18.4565 18.5549C18.4838 18.6109 18.4987 18.6721 18.5001 18.7343C18.5001 18.8315 18.4665 18.9258 18.405 19.0012C18.3435 19.0765 18.2579 19.1283 18.1626 19.1477C18.1519 19.15 18.1414 19.1528 18.1311 19.1562H16.2501C16.1009 19.1575 15.9573 19.0995 15.8509 18.9949C15.7445 18.8903 15.6839 18.7478 15.6826 18.5986C15.6813 18.4494 15.7393 18.3058 15.8439 18.1994C15.9485 18.093 16.091 18.0325 16.2402 18.0312Z" fill="#004FAC"/>
</g>
<defs>
<clipPath id="clip0">
<rect width="46" height="46" fill="white"/>
</clipPath>
</defs>
</svg>
