<svg width="146" height="34" viewBox="0 0 146 34" fill="none" xmlns="http://www.w3.org/2000/svg">
<path d="M6.4666 27.3979C10.9168 27.3979 14.4404 25.3713 15.0718 21.359L17.6991 5.5642H13.3915L12.9637 8.19158H12.7906C12.4138 6.91862 11.4158 5.36053 8.79865 5.36053C5.36677 5.36053 2.00617 8.02864 1.13038 13.3547C0.274958 18.5585 2.69866 20.9822 6.22219 20.9822C8.70699 20.9822 10.316 19.7296 11.09 18.4363H11.2733L10.8048 21.2979C10.4789 23.4365 8.93103 24.2817 7.04706 24.2817C5.12236 24.2817 4.33822 23.4568 4.11418 22.4996L0 23.0393C0.142571 25.5037 2.23021 27.3979 6.4666 27.3979ZM8.09598 17.7234C5.95742 17.7234 5.13254 16.033 5.57044 13.3343C5.99815 10.6764 7.40349 8.81278 9.56242 8.81278C11.6602 8.81278 12.587 10.5949 12.1389 13.3343C11.6908 16.0941 10.1734 17.7234 8.09598 17.7234Z" fill="white"/>
<path d="M26.345 0.350189H22.0068L18.5444 21.2062H22.8826L26.345 0.350189Z" fill="white"/>
<path d="M33.4456 21.5118C38.1708 21.5118 41.623 18.2937 42.4071 13.5074C43.2015 8.63966 40.7778 5.36053 36.0118 5.36053C31.2764 5.36053 27.8242 8.56837 27.0502 13.375C26.2457 18.2326 28.6694 21.5118 33.4456 21.5118ZM33.8834 18.1512C31.7449 18.1512 30.9811 16.1755 31.419 13.4871C31.8671 10.7273 33.3743 8.67021 35.5739 8.67021C37.7125 8.67021 38.4661 10.656 38.0384 13.3547C37.5801 16.1144 36.0729 18.1512 33.8834 18.1512Z" fill="white"/>
<path d="M44.0263 21.2062H48.3035L48.7108 18.7011H48.9247C49.3116 20.0046 50.3707 21.4608 52.8963 21.4608C56.4605 21.4608 59.7193 18.64 60.5849 13.4056C61.4709 8.02864 59.0268 5.36053 55.5949 5.36053C52.9777 5.36053 51.44 6.91862 50.6661 8.19158H50.5438L51.827 0.350189H47.4888L44.0263 21.2062ZM49.5764 13.3852C50.0245 10.5949 51.5215 8.81278 53.6193 8.81278C55.768 8.81278 56.5827 10.6764 56.155 13.3852C55.7069 16.1144 54.2405 18.0086 52.1019 18.0086C50.0143 18.0086 49.1283 16.1755 49.5764 13.3852Z" fill="white"/>
<path d="M66.5958 21.5016C68.9075 21.5016 70.5776 20.4934 71.5756 19.0371H71.6978L71.3312 21.2062H75.4453L77.2071 10.656C77.8181 6.92881 74.9158 5.36053 71.4534 5.36053C67.6956 5.36053 64.9155 7.15285 63.8564 10.0043L67.8076 10.3301C68.2761 9.29141 69.3861 8.52763 70.934 8.52763C72.4004 8.52763 73.0929 9.27104 72.8893 10.5542V10.6153C72.7059 11.6133 71.5959 11.7457 68.8565 12.0206C65.7098 12.3058 62.7667 13.3547 62.1761 16.8375C61.6669 19.9231 63.6222 21.5016 66.5958 21.5016ZM68.3372 18.5076C66.9828 18.5076 66.1579 17.8762 66.3412 16.6949C66.5347 15.4729 67.6651 14.872 69.2333 14.6582C70.1804 14.5054 71.7792 14.3017 72.3393 13.9555L72.0746 15.6154C71.7894 17.255 70.2415 18.5076 68.3372 18.5076Z" fill="white"/>
<path d="M86.6117 0.350189H82.2735L78.811 21.2062H83.1492L86.6117 0.350189Z" fill="white"/>
<path d="M98.081 10.9208H88.5593L87.9992 14.3628H97.5209L98.081 10.9208Z" fill="white"/>
<path d="M105.933 12.1632C106.279 10.1468 107.674 8.96553 109.436 8.96553C111.187 8.96553 112.022 10.1061 111.707 12.0206L110.169 21.2062H114.507L116.177 11.2467C116.788 7.59074 115.006 5.36053 111.758 5.36053C109.426 5.36053 107.542 6.49091 106.554 8.32396H106.381L106.829 5.5642H102.704L100.097 21.2062H104.425L105.933 12.1632Z" fill="white"/>
<path d="M124.994 21.5118C128.884 21.5118 131.766 19.6278 132.876 16.7254L128.914 16.4607C128.273 17.6522 127.051 18.2734 125.605 18.2734C123.385 18.2734 122.275 17.0717 122.672 14.6073L122.692 14.4952H133.344L133.538 13.3038C134.424 7.98791 131.654 5.36053 127.509 5.36053C122.906 5.36053 119.383 8.62947 118.578 13.4565C117.743 18.4159 120.177 21.5118 124.994 21.5118ZM123.181 11.8068C123.548 10.0857 125.208 8.59892 127.071 8.59892C128.945 8.59892 129.994 9.94316 129.688 11.8068H123.181Z" fill="white"/>
<path d="M146 5.5642H143.047L143.668 1.81663H139.33L138.709 5.5642H136.58L136.03 8.82296H138.169L136.825 16.9699C136.275 20.0249 138.108 21.5423 141.295 21.4201C142.415 21.3895 143.24 21.1655 143.729 21.0128L143.566 17.7845C143.342 17.8253 142.874 17.9271 142.466 17.9271C141.601 17.9271 141.041 17.6012 141.244 16.3996L142.507 8.82296H145.46L146 5.5642Z" fill="white"/>
<path d="M20.1611 27.2746H19.1322L18 33.8902H19.029L20.1611 27.2746Z" fill="white"/>
<path d="M21.946 30.9442C22.0925 30.1527 22.6619 29.7005 23.3579 29.7005C24.0372 29.7005 24.3702 30.1334 24.247 30.8505L23.7242 33.8902H24.7199L25.266 30.7342C25.4758 29.5035 24.8797 28.8639 23.8441 28.8639C23.0749 28.8639 22.5054 29.2063 22.1824 29.736H22.1192L22.259 28.9285H21.3033L20.4508 33.8902H21.4465L21.946 30.9442Z" fill="white"/>
<path d="M29.2919 28.9285H28.2396L28.4427 27.7397H27.4471L27.244 28.9285H26.4981L26.3682 29.7037H27.1141L26.6146 32.6336C26.4581 33.5316 27.0841 33.9677 27.8733 33.9548C28.193 33.9515 28.4161 33.8934 28.5493 33.8514L28.496 33.0535C28.4261 33.0665 28.3029 33.0955 28.1431 33.0955C27.82 33.0955 27.5437 32.9922 27.6369 32.4333L28.1064 29.7037H29.162L29.2919 28.9285Z" fill="white"/>
<path d="M31.677 33.9903C32.7958 33.9903 33.6716 33.4573 34.0379 32.6497L33.1255 32.485C32.8624 32.9534 32.4029 33.1924 31.8235 33.1924C30.9244 33.1924 30.4515 32.779 30.6247 31.7H34.2677L34.3243 31.3576C34.634 29.5648 33.6483 28.8639 32.4862 28.8639C31.0609 28.8639 29.9421 29.9169 29.6823 31.4416C29.4159 32.9825 30.1685 33.9903 31.677 33.9903ZM30.7512 30.9765C30.8978 30.3272 31.5804 29.6617 32.3563 29.6617C33.1322 29.6617 33.5384 30.2174 33.4052 30.9765H30.7512Z" fill="white"/>
<path d="M35.0078 33.8902H36.0034L36.5162 30.8602C36.6361 30.2109 37.2288 29.7425 37.9315 29.7425C38.1413 29.7425 38.371 29.778 38.4476 29.8006L38.6074 28.8768C38.5042 28.8574 38.3144 28.8542 38.1879 28.8542C37.5885 28.8542 37.0124 29.1837 36.7393 29.7167H36.6861L36.8226 28.9285H35.8602L35.0078 33.8902Z" fill="white"/>
<path d="M40.1234 30.9442C40.2699 30.1527 40.8394 29.7005 41.5353 29.7005C42.2146 29.7005 42.5476 30.1334 42.4244 30.8505L41.9016 33.8902H42.8973L43.4434 30.7342C43.6532 29.5035 43.0571 28.8639 42.0215 28.8639C41.2523 28.8639 40.6828 29.2063 40.3598 29.736H40.2966L40.4364 28.9285H39.4807L38.6283 33.8902H39.6239L40.1234 30.9442Z" fill="white"/>
<path d="M46.4204 33.9903C47.5392 33.9903 48.415 33.4573 48.7813 32.6497L47.8689 32.485C47.6058 32.9534 47.1463 33.1924 46.5669 33.1924C45.6678 33.1924 45.1949 32.779 45.3681 31.7H49.0111L49.0677 31.3576C49.3774 29.5648 48.3917 28.8639 47.2295 28.8639C45.8043 28.8639 44.6855 29.9169 44.4257 31.4416C44.1593 32.9825 44.9119 33.9903 46.4204 33.9903ZM45.4946 30.9765C45.6412 30.3272 46.3238 29.6617 47.0997 29.6617C47.8756 29.6617 48.2818 30.2174 48.1486 30.9765H45.4946Z" fill="white"/>
<path d="M52.9912 28.9285H51.9389L52.1421 27.7397H51.1464L50.9433 28.9285H50.1974L50.0675 29.7037H50.8134L50.3139 32.6336C50.1574 33.5316 50.7834 33.9677 51.5726 33.9548C51.8923 33.9515 52.1154 33.8934 52.2486 33.8514L52.1953 33.0535C52.1254 33.0665 52.0022 33.0955 51.8424 33.0955C51.5194 33.0955 51.243 32.9922 51.3362 32.4333L51.8057 29.7037H52.8613L52.9912 28.9285Z" fill="white"/>
<path d="M57.8629 33.9903C59.0684 33.9903 59.9641 33.2861 60.2538 32.3203H59.2815C59.0617 32.8565 58.5789 33.1731 58.0094 33.1731C57.1636 33.1731 56.7341 32.4915 56.9239 31.4093C57.097 30.3466 57.7697 29.6779 58.6055 29.6779C59.2382 29.6779 59.5612 30.0655 59.5878 30.5307H60.5569C60.6168 29.5293 59.8942 28.8639 58.732 28.8639C57.2868 28.8639 56.168 29.9169 55.9182 31.4319C55.6585 32.9276 56.3778 33.9903 57.8629 33.9903Z" fill="white"/>
<path d="M63.2267 33.9903C64.6452 33.9903 65.7408 32.9889 65.9972 31.4739C66.2569 29.9072 65.481 28.8639 64.0192 28.8639C62.5973 28.8639 61.5017 29.8653 61.2487 31.3899C60.9889 32.9469 61.7648 33.9903 63.2267 33.9903ZM63.2833 33.1795C62.3642 33.1795 62.0778 32.401 62.231 31.4707C62.3942 30.4984 63.0036 29.6714 63.9626 29.6714C64.8816 29.6714 65.168 30.4564 65.0148 31.3899C64.8517 32.3623 64.239 33.1795 63.2833 33.1795Z" fill="white"/>
<path d="M66.6956 33.8902H67.6913L68.2174 30.8311C68.3273 30.1657 68.8934 29.6973 69.4595 29.6973C70.0156 29.6973 70.332 30.0526 70.2454 30.5921L69.676 33.8902H70.665L71.2144 30.7277C71.3143 30.1237 71.7638 29.6973 72.4132 29.6973C72.9393 29.6973 73.3189 29.9783 73.209 30.6534L72.6496 33.8902H73.6486L74.2213 30.563C74.4145 29.4292 73.8551 28.8639 72.936 28.8639C72.1967 28.8639 71.5807 29.203 71.251 29.736H71.1977C71.0679 29.1934 70.645 28.8639 69.9723 28.8639C69.2963 28.8639 68.7369 29.1901 68.4272 29.736H68.364L68.5038 28.9285H67.5481L66.6956 33.8902Z" fill="white"/>
<path d="M74.9831 33.8902H75.9787L76.5049 30.8311C76.6148 30.1657 77.1808 29.6973 77.7469 29.6973C78.303 29.6973 78.6194 30.0526 78.5328 30.5921L77.9634 33.8902H78.9524L79.5018 30.7277C79.6017 30.1237 80.0513 29.6973 80.7006 29.6973C81.2267 29.6973 81.6064 29.9783 81.4965 30.6534L80.937 33.8902H81.936L82.5088 30.563C82.7019 29.4292 82.1425 28.8639 81.2234 28.8639C80.4842 28.8639 79.8681 29.203 79.5385 29.736H79.4852C79.3553 29.1934 78.9324 28.8639 78.2598 28.8639C77.5838 28.8639 77.0243 29.1901 76.7147 29.736H76.6514L76.7912 28.9285H75.8355L74.9831 33.8902Z" fill="white"/>
<path d="M86.8602 31.8325C86.717 32.6756 86.0077 33.0761 85.4483 33.0761C84.8323 33.0761 84.4826 32.6433 84.5925 31.9682L85.1153 28.9285H84.1196L83.5735 32.0844C83.3671 33.3152 83.9498 33.9548 84.9322 33.9548C85.7014 33.9548 86.3041 33.5607 86.6238 33.0309H86.6771L86.5272 33.8902H87.5062L88.3587 28.9285H87.3597L86.8602 31.8325Z" fill="white"/>
<path d="M90.3425 30.9442C90.489 30.1527 91.0585 29.7005 91.7544 29.7005C92.4337 29.7005 92.7667 30.1334 92.6435 30.8505L92.1207 33.8902H93.1164L93.6625 30.7342C93.8723 29.5035 93.2762 28.8639 92.2406 28.8639C91.4714 28.8639 90.9019 29.2063 90.5789 29.736H90.5157L90.6555 28.9285H89.6998L88.8474 33.8902H89.843L90.3425 30.9442Z" fill="white"/>
<path d="M94.4483 33.8902H95.444L96.2965 28.9285H95.3008L94.4483 33.8902ZM96.0034 28.1532C96.3498 28.1532 96.6461 27.8948 96.6594 27.5782C96.6761 27.2584 96.403 27 96.06 27C95.7137 27 95.4174 27.2584 95.404 27.5782C95.3874 27.8948 95.6605 28.1532 96.0034 28.1532Z" fill="white"/>
<path d="M98.9246 33.9903C100.13 33.9903 101.026 33.2861 101.316 32.3203H100.343C100.123 32.8565 99.6406 33.1731 99.0712 33.1731C98.2254 33.1731 97.7958 32.4915 97.9856 31.4093C98.1588 30.3466 98.8314 29.6779 99.6672 29.6779C100.3 29.6779 100.623 30.0655 100.65 30.5307H101.619C101.679 29.5293 100.956 28.8639 99.7938 28.8639C98.3486 28.8639 97.2297 29.9169 96.9799 31.4319C96.7202 32.9276 97.4395 33.9903 98.9246 33.9903Z" fill="white"/>
<path d="M103.579 34C104.425 34 104.971 33.5833 105.224 33.2118H105.264L105.144 33.8902H106.117L106.679 30.5953C106.926 29.1514 105.81 28.8639 104.998 28.8639C104.072 28.8639 103.146 29.2257 102.667 30.1301L103.559 30.3369C103.772 29.9848 104.228 29.6456 104.894 29.6456C105.534 29.6456 105.787 29.9751 105.694 30.5339V30.5565C105.63 30.9022 105.251 30.8989 104.322 31.0055C103.333 31.1154 102.3 31.3641 102.104 32.4882C101.941 33.4605 102.607 34 103.579 34ZM103.919 33.2247C103.356 33.2247 103 32.9792 103.08 32.5012C103.163 31.9843 103.679 31.8002 104.265 31.7259C104.591 31.6839 105.371 31.5999 105.537 31.461L105.427 32.1006C105.327 32.6885 104.748 33.2247 103.919 33.2247Z" fill="white"/>
<path d="M110.683 28.9285H109.63L109.834 27.7397H108.838L108.635 28.9285H107.889L107.759 29.7037H108.505L108.005 32.6336C107.849 33.5316 108.475 33.9677 109.264 33.9548C109.584 33.9515 109.807 33.8934 109.94 33.8514L109.887 33.0535C109.817 33.0665 109.694 33.0955 109.534 33.0955C109.211 33.0955 108.934 32.9922 109.028 32.4333L109.497 29.7037H110.553L110.683 28.9285Z" fill="white"/>
<path d="M110.932 33.8902H111.927L112.78 28.9285H111.784L110.932 33.8902ZM112.487 28.1532C112.833 28.1532 113.129 27.8948 113.143 27.5782C113.159 27.2584 112.886 27 112.543 27C112.197 27 111.901 27.2584 111.887 27.5782C111.871 27.8948 112.144 28.1532 112.487 28.1532Z" fill="white"/>
<path d="M115.451 33.9903C116.87 33.9903 117.965 32.9889 118.222 31.4739C118.481 29.9072 117.706 28.8639 116.244 28.8639C114.822 28.8639 113.726 29.8653 113.473 31.3899C113.213 32.9469 113.989 33.9903 115.451 33.9903ZM115.508 33.1795C114.589 33.1795 114.302 32.401 114.456 31.4707C114.619 30.4984 115.228 29.6714 116.187 29.6714C117.106 29.6714 117.393 30.4564 117.239 31.3899C117.076 32.3623 116.464 33.1795 115.508 33.1795Z" fill="white"/>
<path d="M120.415 30.9442C120.562 30.1527 121.131 29.7005 121.827 29.7005C122.507 29.7005 122.84 30.1334 122.716 30.8505L122.194 33.8902H123.189L123.735 30.7342C123.945 29.5035 123.349 28.8639 122.313 28.8639C121.544 28.8639 120.975 29.2063 120.652 29.736H120.589L120.728 28.9285H119.773L118.92 33.8902H119.916L120.415 30.9442Z" fill="white"/>
<path d="M129 30.1398C128.92 29.3613 128.381 28.8639 127.265 28.8639C126.12 28.8639 125.207 29.4453 125.057 30.3143C124.931 31.0281 125.304 31.4998 126.229 31.7097L127.055 31.8939C127.538 32.0037 127.721 32.2007 127.668 32.5076C127.605 32.8985 127.112 33.215 126.449 33.2118C125.867 33.2118 125.534 32.9631 125.497 32.4753L124.511 32.6174C124.531 33.4928 125.204 33.9903 126.369 33.9903C127.591 33.9903 128.547 33.3636 128.7 32.4753C128.82 31.7614 128.427 31.3253 127.521 31.1154L126.736 30.9345C126.2 30.8053 126 30.6244 126.056 30.3046C126.12 29.9105 126.602 29.6294 127.175 29.6294C127.795 29.6294 128.011 29.9557 128.071 30.2949L129 30.1398Z" fill="white"/>
</svg>
