<svg width="103" height="103" viewBox="0 0 103 103" fill="none" xmlns="http://www.w3.org/2000/svg">
<path d="M99.7812 99.7812H3.21875L6.99072 84.969C7.79546 82.1535 9.35292 79.6108 11.4954 77.6147C13.6379 75.6187 16.2842 74.2448 19.1496 73.641L40.2344 69.2031C40.2328 69.7419 40.2732 70.28 40.3551 70.8125C41.1517 76.0148 45.837 78.8594 51.5 78.8594C57.163 78.8594 61.8483 76.0148 62.6449 70.8125C62.7268 70.28 62.7672 69.7419 62.7656 69.2031L83.8504 73.641C86.7158 74.2448 89.3621 75.6187 91.5046 77.6147C93.6471 79.6108 95.2045 82.1535 96.0093 84.969L99.7812 99.7812Z" fill="#57A4FF"/>
<path d="M72.4219 24.1406V31.8958C70.1106 31.4681 67.9075 30.5845 65.9412 29.2965C63.9749 28.0086 62.2847 26.342 60.9692 24.3941C57.0301 28.24 52.0237 30.81 46.6026 31.7688C41.1816 32.7276 35.5974 32.0309 30.5781 29.7694V24.1406H72.4219Z" fill="#57A4FF"/>
<path d="M40.3551 70.8125H40.2344V69.2031C40.2328 69.7419 40.2732 70.28 40.3551 70.8125Z" fill="#57A4FF"/>
<path d="M62.7652 69.2031V70.8125H62.6445C62.7265 70.28 62.7668 69.7419 62.7652 69.2031Z" fill="#57A4FF"/>
<path d="M72.4219 27.3594V31.8958C70.1105 31.4681 67.9075 30.5845 65.9412 29.2965C63.9749 28.0086 62.2847 26.342 60.9692 24.3941C57.0301 28.24 52.0237 30.81 46.6026 31.7688C41.1816 32.7276 35.5974 32.0309 30.5781 29.7694V24.1406C30.5781 18.5918 32.7824 13.2702 36.706 9.34663C40.6296 5.42301 45.9512 3.21875 51.5 3.21875C57.159 3.21875 61.1562 4.82812 66.0588 7.91008C69.7986 9.9218 78.0104 14.9531 80.4687 11.2656C80.4687 11.2656 83.6875 22.5312 72.4219 27.3594Z" fill="#57A4FF"/>
<path d="M101.34 99.3849L97.5682 84.5727C97.5642 84.5566 97.5602 84.5425 97.5561 84.5264C96.6749 81.4274 94.9631 78.6284 92.6059 76.4321C90.2486 74.2358 87.3357 72.726 84.1822 72.0658L64.3749 67.8975V63.5421C66.9059 61.7781 69.0482 59.5136 70.6693 56.8887C72.2904 54.2638 73.3558 51.3343 73.7998 48.2812H74.8358C76.3292 48.2796 77.761 47.6856 78.817 46.6296C79.873 45.5736 80.4669 44.1418 80.4686 42.6484V37.8203C80.4669 36.3269 79.873 34.8951 78.817 33.8391C77.761 32.7831 76.3292 32.1891 74.8358 32.1875H74.0311V28.3894C79.7504 25.5689 81.6676 21.111 82.255 17.7816C82.6579 15.4705 82.5764 13.101 82.0156 10.823C81.9308 10.5279 81.7635 10.2632 81.5332 10.06C81.303 9.85684 81.0194 9.72374 80.716 9.67638C80.4126 9.62902 80.102 9.66938 79.8208 9.7927C79.5396 9.91602 79.2995 10.1172 79.1288 10.3724C77.7146 12.4948 70.6253 8.58602 67.9577 7.11545C67.5654 6.89818 67.2013 6.69701 66.8694 6.51797C62.0392 3.48631 57.7744 1.60938 51.4999 1.60938C45.5262 1.61592 39.7991 3.99185 35.5751 8.21586C31.3511 12.4399 28.9751 18.167 28.9686 24.1406V32.1875H28.1639C26.6705 32.1891 25.2387 32.7831 24.1827 33.8391C23.1267 34.8951 22.5327 36.3269 22.5311 37.8203V42.6484C22.5327 44.1418 23.1267 45.5736 24.1827 46.6296C25.2387 47.6856 26.6705 48.2796 28.1639 48.2812H29.1999C29.6439 51.3343 30.7093 54.2638 32.3304 56.8887C33.9515 59.5136 36.0938 61.7781 38.6248 63.5421V67.8975L18.8175 72.0658C15.664 72.726 12.7511 74.2358 10.3938 76.4321C8.03657 78.6284 6.32475 81.4274 5.44355 84.5264C5.43953 84.5425 5.43551 84.5566 5.43148 84.5727L1.65951 99.3849C1.59876 99.6225 1.59314 99.8707 1.64309 100.111C1.69304 100.351 1.79723 100.576 1.94769 100.77C2.09815 100.963 2.29089 101.12 2.51117 101.227C2.73145 101.335 2.97343 101.391 3.21859 101.391H99.7811C100.026 101.391 100.268 101.335 100.489 101.227C100.709 101.12 100.902 100.963 101.052 100.77C101.202 100.576 101.307 100.351 101.357 100.111C101.407 99.8707 101.401 99.6225 101.34 99.3849ZM28.9686 45.0625H28.1639C27.5238 45.062 26.9101 44.8075 26.4575 44.3549C26.0049 43.9022 25.7504 43.2885 25.7498 42.6484V37.8203C25.7504 37.1802 26.0049 36.5665 26.4575 36.1139C26.9101 35.6613 27.5238 35.4068 28.1639 35.4062H28.9686V45.0625ZM74.8358 35.4062C75.4759 35.4068 76.0896 35.6613 76.5422 36.1139C76.9948 36.5665 77.2493 37.1802 77.2499 37.8203V42.6484C77.2493 43.2885 76.9948 43.9022 76.5422 44.3549C76.0896 44.8075 75.4759 45.062 74.8358 45.0625H74.0311V35.4062H74.8358ZM32.1873 24.1406C32.1935 19.0205 34.2301 14.1119 37.8506 10.4914C41.4711 6.87092 46.3797 4.83425 51.4999 4.82812C57.022 4.82812 60.8382 6.52803 65.2017 9.27201C65.2339 9.29213 65.264 9.31023 65.2962 9.32834C65.6322 9.50738 66.0023 9.71258 66.4027 9.93387C70.0298 11.9335 75.5761 14.9913 79.2696 13.9915C79.4748 17.1841 78.7546 22.8954 71.788 25.8808C71.4986 26.0047 71.2519 26.2109 71.0784 26.4737C70.905 26.7366 70.8125 27.0445 70.8123 27.3594V29.8398C67.3443 28.7384 64.3472 26.503 62.3028 23.4929C62.1708 23.2976 61.9975 23.1337 61.7952 23.0128C61.5929 22.8919 61.3665 22.8169 61.132 22.7931C60.8975 22.7693 60.6606 22.7973 60.4381 22.8751C60.2157 22.9529 60.013 23.0786 59.8445 23.2434C56.2619 26.7397 51.7395 29.1181 46.8286 30.0887C41.9177 31.0592 36.8306 30.5799 32.1873 28.7092V24.1406ZM32.1873 45.0625V32.1493C37.0001 33.844 42.1745 34.2399 47.189 33.2973C52.2035 32.3546 56.881 30.1067 60.7497 26.78C63.351 29.9152 66.8706 32.1548 70.8123 33.1833V45.0625C70.8123 50.1845 68.7776 55.0967 65.1559 58.7185C61.5341 62.3403 56.6218 64.375 51.4999 64.375C46.3779 64.375 41.4656 62.3403 37.8438 58.7185C34.2221 55.0967 32.1873 50.1845 32.1873 45.0625ZM61.1561 65.4171V69.2031C61.1561 72.1724 59.8565 74.1841 57.9977 75.4535C56.1389 76.7229 53.7268 77.25 51.4999 77.25C44.3723 77.25 41.8436 72.9147 41.8436 69.2031V65.4171C44.8609 66.8502 48.1595 67.5937 51.4999 67.5937C54.8402 67.5937 58.1388 66.8502 61.1561 65.4171ZM83.6874 98.1719V91.7344C83.6874 91.3075 83.5178 90.8982 83.216 90.5964C82.9142 90.2946 82.5048 90.125 82.078 90.125C81.6511 90.125 81.2418 90.2946 80.94 90.5964C80.6382 90.8982 80.4686 91.3075 80.4686 91.7344V98.1719H22.5311V91.7344C22.5311 91.3075 22.3615 90.8982 22.0597 90.5964C21.7579 90.2946 21.3486 90.125 20.9217 90.125C20.4949 90.125 20.0855 90.2946 19.7837 90.5964C19.4819 90.8982 19.3123 91.3075 19.3123 91.7344V98.1719H5.28865L8.54361 85.3894C9.26788 82.8586 10.6693 80.5736 12.5969 78.7808C14.5244 76.988 16.9048 75.7555 19.4813 75.2162L38.7777 71.1545C39.1621 73.7069 40.5017 76.0181 42.5256 77.6202C44.8149 79.4569 48.0015 80.4688 51.4999 80.4688C54.9982 80.4688 58.1848 79.4569 60.4741 77.6202C62.498 76.0181 63.8376 73.7069 64.222 71.1545L83.5184 75.2162C86.0949 75.7555 88.4753 76.988 90.4028 78.7808C92.3304 80.5736 93.7318 82.8586 94.4561 85.3894L97.711 98.1719H83.6874Z" fill="#004FAC"/>
<path d="M56.3281 54.7188C56.3281 54.2919 56.1586 53.8826 55.8568 53.5807C55.5549 53.2789 55.1456 53.1094 54.7188 53.1094H48.2812C47.8544 53.1094 47.4451 53.2789 47.1432 53.5807C46.8414 53.8826 46.6719 54.2919 46.6719 54.7188C46.6719 55.1456 46.8414 55.5549 47.1432 55.8568C47.4451 56.1586 47.8544 56.3281 48.2812 56.3281H54.7188C55.1456 56.3281 55.5549 56.1586 55.8568 55.8568C56.1586 55.5549 56.3281 55.1456 56.3281 54.7188Z" fill="#004FAC"/>
<path d="M41.8438 41.8438C43.6214 41.8438 45.0625 40.4027 45.0625 38.625C45.0625 36.8473 43.6214 35.4062 41.8438 35.4062C40.0661 35.4062 38.625 36.8473 38.625 38.625C38.625 40.4027 40.0661 41.8438 41.8438 41.8438Z" fill="#004FAC"/>
<path d="M61.1562 41.8438C62.9339 41.8438 64.375 40.4027 64.375 38.625C64.375 36.8473 62.9339 35.4062 61.1562 35.4062C59.3786 35.4062 57.9375 36.8473 57.9375 38.625C57.9375 40.4027 59.3786 41.8438 61.1562 41.8438Z" fill="#004FAC"/>
</svg>
