<svg width="42" height="46" viewBox="0 0 42 46" fill="none" xmlns="http://www.w3.org/2000/svg">
<path d="M35.3857 5.95867C31.5432 2.11618 26.4342 0 21 0C15.5658 0 10.4568 2.11618 6.61435 5.95867C2.77177 9.80133 0.655594 14.9102 0.655594 20.3444C0.655594 29.9314 7.35791 38.2082 16.6689 40.2252L21 46L25.3312 40.2251C34.6421 38.2081 41.3444 29.9314 41.3444 20.3444C41.3444 14.9102 39.2283 9.80133 35.3857 5.95867ZM21 5.31115C29.2398 5.31115 35.9433 12.0147 35.9433 20.2544C35.9433 28.4941 29.2398 35.1977 21 35.1977C12.7603 35.1977 6.05677 28.4941 6.05677 20.2544C6.05677 12.0147 12.7603 5.31115 21 5.31115Z" fill="#037FC5"/>
</svg>
