<svg width="87" height="93" viewBox="0 0 87 93" fill="none" xmlns="http://www.w3.org/2000/svg">
<path d="M50.9219 7.90625L49.4375 1.96875H70.2188L68.7344 7.90625H50.9219Z" fill="#57A4FF"/>
<path d="M74.6719 30.1719V47.9844C72.3098 47.9844 70.0444 48.9227 68.3742 50.593C66.704 52.2632 65.7656 54.5285 65.7656 56.8906H34.5938V51.0478C36.6305 52.0573 38.8913 52.5305 41.162 52.4224C43.4327 52.3143 45.6382 51.6286 47.5699 50.4301C49.5016 49.2316 51.0955 47.56 52.2008 45.5736C53.3061 43.5871 53.8862 41.3514 53.8862 39.0781C53.8862 36.8049 53.3061 34.5692 52.2008 32.5827C51.0955 30.5962 49.5016 28.9246 47.5699 27.7262C45.6382 26.5277 43.4327 25.8419 41.162 25.7339C38.8913 25.6258 36.6305 26.0989 34.5938 27.1085V21.2656H65.7656C65.7656 22.4352 65.996 23.5933 66.4436 24.6739C66.8912 25.7545 67.5472 26.7363 68.3742 27.5633C70.0444 29.2335 72.3098 30.1719 74.6719 30.1719Z" fill="#57A4FF"/>
<path d="M70.2188 1.96875L68.7344 7.90625H50.9219L49.4375 1.96875H70.2188Z" fill="#57A4FF"/>
<path d="M65.7656 21.2656H15.2969C15.2969 23.6277 14.3585 25.8931 12.6883 27.5633C11.018 29.2335 8.75271 30.1719 6.39062 30.1719V47.9844C8.75271 47.9844 11.018 48.9227 12.6883 50.593C14.3585 52.2632 15.2969 54.5285 15.2969 56.8906H65.7656C65.7656 54.5285 66.704 52.2632 68.3742 50.593C70.0444 48.9227 72.3098 47.9844 74.6719 47.9844V30.1719C72.3098 30.1719 70.0444 29.2335 68.3742 27.5633C66.704 25.8931 65.7656 23.6277 65.7656 21.2656ZM40.5312 52.4375C37.889 52.4375 35.3061 51.654 33.1092 50.186C30.9122 48.7181 29.1999 46.6316 28.1888 44.1905C27.1777 41.7494 26.9131 39.0633 27.4286 36.4718C27.944 33.8804 29.2164 31.5 31.0847 29.6316C32.9531 27.7633 35.3335 26.4909 37.925 25.9754C40.5164 25.46 43.2026 25.7245 45.6437 26.7357C48.0848 27.7468 50.1712 29.4591 51.6392 31.6561C53.1071 33.853 53.8906 36.4359 53.8906 39.0781C53.9013 40.8355 53.5631 42.5775 52.8955 44.2032C52.2279 45.8288 51.2443 47.3058 50.0016 48.5485C48.7589 49.7911 47.2819 50.7748 45.6563 51.4424C44.0306 52.1099 42.2886 52.4482 40.5312 52.4375Z" fill="#57A4FF"/>
<path d="M81.3516 0.484375H38.3047C36.9273 0.485897 35.6067 1.03375 34.6327 2.00773C33.6587 2.98171 33.1109 4.30227 33.1094 5.67969V15.3281H1.9375C1.54382 15.3281 1.16626 15.4845 0.887888 15.7629C0.609514 16.0413 0.453125 16.4188 0.453125 16.8125V61.3438C0.453125 61.7374 0.609514 62.115 0.887888 62.3934C1.16626 62.6717 1.54382 62.8281 1.9375 62.8281H33.1094V87.3203C33.1109 88.6977 33.6587 90.0183 34.6327 90.9923C35.6067 91.9662 36.9273 92.5141 38.3047 92.5156H81.3516C82.729 92.5141 84.0495 91.9662 85.0235 90.9923C85.9975 90.0183 86.5453 88.6977 86.5469 87.3203V5.67969C86.5453 4.30227 85.9975 2.98171 85.0235 2.00773C84.0495 1.03375 82.729 0.485897 81.3516 0.484375ZM68.3169 3.45312L67.5747 6.42188H52.0815L51.3394 3.45312H68.3169ZM3.42188 59.8594V18.2969H77.6406V59.8594H73.1875C72.7938 59.8594 72.4163 60.0158 72.1379 60.2941C71.8595 60.5725 71.7031 60.9501 71.7031 61.3438V72.6046L59.3939 60.2936C59.1152 60.0154 58.7375 59.8592 58.3438 59.8594H3.42188ZM83.5781 87.3203C83.5776 87.9107 83.3429 88.4767 82.9254 88.8942C82.508 89.3116 81.9419 89.5464 81.3516 89.5469H38.3047C37.7143 89.5464 37.1483 89.3116 36.7308 88.8942C36.3134 88.4767 36.0786 87.9107 36.0781 87.3203V62.8281H57.7296L72.1373 77.2377C72.3449 77.4455 72.6095 77.5871 72.8976 77.6445C73.1857 77.7018 73.4843 77.6724 73.7557 77.56C74.0271 77.4475 74.259 77.2571 74.4221 77.0128C74.5852 76.7685 74.6721 76.4813 74.6719 76.1875V62.8281H79.125C79.5187 62.8281 79.8962 62.6717 80.1746 62.3934C80.453 62.115 80.6094 61.7374 80.6094 61.3438V16.8125C80.6094 16.4188 80.453 16.0413 80.1746 15.7629C79.8962 15.4845 79.5187 15.3281 79.125 15.3281H36.0781V5.67969C36.0786 5.08932 36.3134 4.52327 36.7308 4.10581C37.1483 3.68836 37.7143 3.45362 38.3047 3.45312H48.2778L49.482 8.26621C49.5623 8.58734 49.7476 8.87243 50.0085 9.07616C50.2694 9.27989 50.5909 9.39057 50.9219 9.39062H68.7344C69.0654 9.39057 69.3869 9.27989 69.6478 9.07616C69.9086 8.87243 70.0939 8.58734 70.1742 8.26621L71.3784 3.45312H81.3516C81.9419 3.45362 82.508 3.68836 82.9254 4.10581C83.3429 4.52327 83.5776 5.08932 83.5781 5.67969V87.3203Z" fill="#004FAC"/>
<path d="M40.5313 24.2344C37.5954 24.2344 34.7256 25.1049 32.2845 26.736C29.8435 28.3671 27.9409 30.6853 26.8174 33.3977C25.6939 36.11 25.4 39.0946 25.9727 41.974C26.5455 44.8534 27.9592 47.4983 30.0351 49.5742C32.1111 51.6502 34.756 53.0639 37.6354 53.6367C40.5148 54.2094 43.4994 53.9154 46.2117 52.792C48.9241 51.6685 51.2423 49.7659 52.8734 47.3249C54.5044 44.8838 55.375 42.0139 55.375 39.0781C55.3705 35.1427 53.8052 31.3697 51.0224 28.5869C48.2397 25.8042 44.4667 24.2388 40.5313 24.2344ZM40.5313 50.9531C38.1826 50.9531 35.8867 50.2567 33.9339 48.9518C31.981 47.647 30.459 45.7924 29.5602 43.6225C28.6614 41.4526 28.4262 39.0649 28.8844 36.7614C29.3426 34.4579 30.4736 32.342 32.1344 30.6812C33.7951 29.0205 35.911 27.8895 38.2146 27.4313C40.5181 26.9731 42.9057 27.2083 45.0756 28.1071C47.2455 29.0058 49.1001 30.5279 50.405 32.4807C51.7098 34.4336 52.4063 36.7295 52.4063 39.0781C52.4027 42.2265 51.1505 45.2449 48.9242 47.4711C46.698 49.6973 43.6796 50.9496 40.5313 50.9531Z" fill="#004FAC"/>
<path d="M43.5 36.1094C43.8937 36.1094 44.2712 35.953 44.5496 35.6746C44.828 35.3962 44.9844 35.0187 44.9844 34.625C44.9844 34.2313 44.828 33.8538 44.5496 33.5754C44.2712 33.297 43.8937 33.1406 43.5 33.1406H42.0156C42.0156 32.7469 41.8592 32.3694 41.5809 32.091C41.3025 31.8126 40.9249 31.6562 40.5312 31.6562C40.1376 31.6562 39.76 31.8126 39.4816 32.091C39.2033 32.3694 39.0469 32.7469 39.0469 33.1406H37.5625C37.1688 33.1406 36.7913 33.297 36.5129 33.5754C36.2345 33.8538 36.0781 34.2313 36.0781 34.625V39.0781C36.0781 39.4718 36.2345 39.8494 36.5129 40.1277C36.7913 40.4061 37.1688 40.5625 37.5625 40.5625H42.0156V42.0469H37.5625C37.1688 42.0469 36.7913 42.2033 36.5129 42.4816C36.2345 42.76 36.0781 43.1376 36.0781 43.5312C36.0781 43.9249 36.2345 44.3025 36.5129 44.5809C36.7913 44.8592 37.1688 45.0156 37.5625 45.0156H39.0469C39.0469 45.4093 39.2033 45.7869 39.4816 46.0652C39.76 46.3436 40.1376 46.5 40.5312 46.5C40.9249 46.5 41.3025 46.3436 41.5809 46.0652C41.8592 45.7869 42.0156 45.4093 42.0156 45.0156H43.5C43.8937 45.0156 44.2712 44.8592 44.5496 44.5809C44.828 44.3025 44.9844 43.9249 44.9844 43.5312V39.0781C44.9844 38.6844 44.828 38.3069 44.5496 38.0285C44.2712 37.7501 43.8937 37.5938 43.5 37.5938H39.0469V36.1094H43.5Z" fill="#004FAC"/>
<path d="M67.25 56.8906C67.2522 54.9229 68.0349 53.0364 69.4263 51.645C70.8176 50.2536 72.7041 49.471 74.6719 49.4688C75.0656 49.4688 75.4431 49.3124 75.7215 49.034C75.9999 48.7556 76.1562 48.3781 76.1562 47.9844V30.1719C76.1562 29.7782 75.9999 29.4006 75.7215 29.1223C75.4431 28.8439 75.0656 28.6875 74.6719 28.6875C72.7041 28.6853 70.8176 27.9026 69.4263 26.5112C68.0349 25.1198 67.2522 23.2334 67.25 21.2656C67.25 20.8719 67.0936 20.4944 66.8152 20.216C66.5369 19.9376 66.1593 19.7812 65.7656 19.7812H15.2969C14.9032 19.7812 14.5256 19.9376 14.2473 20.216C13.9689 20.4944 13.8125 20.8719 13.8125 21.2656C13.8103 23.2334 13.0276 25.1198 11.6362 26.5112C10.2448 27.9026 8.35835 28.6853 6.39062 28.6875C5.99694 28.6875 5.61939 28.8439 5.34101 29.1223C5.06264 29.4006 4.90625 29.7782 4.90625 30.1719V47.9844C4.90625 48.3781 5.06264 48.7556 5.34101 49.034C5.61939 49.3124 5.99694 49.4688 6.39062 49.4688C8.35835 49.471 10.2448 50.2536 11.6362 51.645C13.0276 53.0364 13.8103 54.9229 13.8125 56.8906C13.8125 57.2843 13.9689 57.6619 14.2473 57.9402C14.5256 58.2186 14.9032 58.375 15.2969 58.375H65.7656C66.1593 58.375 66.5369 58.2186 66.8152 57.9402C67.0936 57.6619 67.25 57.2843 67.25 56.8906ZM16.6757 55.4062C16.3516 53.1874 15.32 51.1324 13.7344 49.5468C12.1488 47.9612 10.0938 46.9297 7.875 46.6056V31.5507C10.0938 31.2266 12.1488 30.195 13.7344 28.6094C15.32 27.0238 16.3516 24.9688 16.6757 22.75H64.3868C64.7109 24.9688 65.7425 27.0238 67.3281 28.6094C68.9137 30.195 70.9687 31.2266 73.1875 31.5507V46.6056C70.9687 46.9297 68.9137 47.9612 67.3281 49.5468C65.7425 51.1324 64.7109 53.1874 64.3868 55.4062H16.6757Z" fill="#004FAC"/>
</svg>
