<svg width="20" height="20" viewBox="0 0 20 20" fill="none" xmlns="http://www.w3.org/2000/svg">
<path d="M5.83398 9.16666H7.50065V10.8333H5.83398V9.16666ZM5.83398 12.5H7.50065V14.1667H5.83398V12.5ZM9.16732 9.16666H10.834V10.8333H9.16732V9.16666ZM9.16732 12.5H10.834V14.1667H9.16732V12.5ZM12.5007 9.16666H14.1673V10.8333H12.5007V9.16666ZM12.5007 12.5H14.1673V14.1667H12.5007V12.5Z" fill="white"/>
<path d="M4.16667 18.3333H15.8333C16.7525 18.3333 17.5 17.5858 17.5 16.6667V4.99999C17.5 4.08082 16.7525 3.33332 15.8333 3.33332H14.1667V1.66666H12.5V3.33332H7.5V1.66666H5.83333V3.33332H4.16667C3.2475 3.33332 2.5 4.08082 2.5 4.99999V16.6667C2.5 17.5858 3.2475 18.3333 4.16667 18.3333ZM15.8333 6.66666L15.8342 16.6667H4.16667V6.66666H15.8333Z" fill="white"/>
</svg>
