<svg width="40" height="40" viewBox="0 0 40 40" fill="none" xmlns="http://www.w3.org/2000/svg">
<path d="M36.1806 27.3563C35.9092 29.4674 34.8785 31.4076 33.281 32.8142C31.6835 34.2209 29.6285 34.9979 27.5 35C15.0934 35 5 24.9066 5 12.5C5.00214 10.3715 5.77911 8.31651 7.18578 6.71903C8.59245 5.12154 10.5326 4.09081 12.6437 3.81938C13.181 3.75434 13.7249 3.86507 14.1939 4.135C14.6629 4.40493 15.0319 4.81953 15.2456 5.31673L18.385 12.6414C18.5478 13.0203 18.6142 13.4337 18.5782 13.8445C18.5423 14.2553 18.405 14.6508 18.1788 14.9956L15.5795 18.9672L15.5792 18.9675C16.7529 21.3538 18.6885 23.2809 21.08 24.4441L24.993 21.8356C25.3387 21.6043 25.7369 21.4631 26.1511 21.4251C26.5654 21.387 26.9826 21.4533 27.3647 21.6178L34.6831 24.7542C35.1802 24.968 35.5948 25.337 35.8647 25.806C36.1346 26.2751 36.2455 26.8189 36.1806 27.3561V27.3563ZM24.5863 7.45751C26.4933 7.97027 28.2321 8.97517 29.6285 10.3715C31.0248 11.7679 32.0297 13.5067 32.5425 15.4138C32.6316 15.73 32.8417 15.9985 33.1273 16.161C33.4129 16.3236 33.7509 16.3671 34.0684 16.2823C34.3858 16.1974 34.6571 15.991 34.8235 15.7077C34.9899 15.4243 35.038 15.0869 34.9575 14.7683C34.3307 12.4371 33.1023 10.3115 31.3953 8.6045C29.6883 6.89751 27.5628 5.66906 25.2316 5.04219C24.9125 4.96026 24.574 5.00759 24.2896 5.17388C24.0053 5.34017 23.7981 5.61199 23.713 5.93024C23.628 6.24849 23.672 6.58744 23.8355 6.8734C23.9991 7.15937 24.2688 7.36922 24.5863 7.45735V7.45751ZM23.2917 12.2883C24.3511 12.5732 25.317 13.1314 26.0927 13.9071C26.8684 14.6828 27.4267 15.6488 27.7116 16.7081C27.7992 17.0261 28.009 17.2965 28.2952 17.4604C28.5813 17.6244 28.9207 17.6686 29.2393 17.5835C29.558 17.4983 29.83 17.2907 29.9962 17.0058C30.1625 16.721 30.2094 16.382 30.1267 16.0627C29.7278 14.5791 28.9461 13.2263 27.8598 12.14C26.7735 11.0537 25.4208 10.2719 23.9372 9.87297C23.6181 9.79104 23.2796 9.83837 22.9953 10.0047C22.7109 10.171 22.5037 10.4428 22.4186 10.761C22.3336 11.0793 22.3776 11.4182 22.5412 11.7042C22.7047 11.9901 22.9745 12.2 23.2919 12.2881L23.2917 12.2883Z" fill="white"/>
</svg>
