<svg width="28" height="28" viewBox="0 0 28 28" fill="none" xmlns="http://www.w3.org/2000/svg">
<path d="M24.9757 24.246C22.0226 26.2608 18.4647 27.1767 14.9136 26.8362C11.3625 26.4957 8.04017 24.9202 5.51782 22.3804C2.99547 19.8407 1.4307 16.4954 1.09256 12.9199C0.754416 9.34431 1.66402 5.76183 3.66499 2.78839L10.4847 9.65515L7.43859 12.7223C7.24281 12.9192 7.10356 13.1658 7.03559 13.436C6.96762 13.7061 6.97345 13.9897 7.05247 14.2568C7.51535 15.8123 8.35463 17.2277 9.49496 18.3759C10.6353 19.5241 12.041 20.3691 13.5858 20.8352C13.8511 20.9148 14.1327 20.9206 14.401 20.8522C14.6693 20.7838 14.9142 20.6435 15.1098 20.4464L18.1559 17.3793L24.9757 24.246Z" fill="#57A4FF"/>
<path d="M26.4316 20.8642L21.6479 16.0475C21.2642 15.6613 20.7438 15.4444 20.2012 15.4444C19.6587 15.4444 19.1383 15.6613 18.7546 16.0475L17.7938 17.015L14.7476 20.0828C14.6172 20.2143 14.4539 20.3078 14.2749 20.3534C14.0959 20.399 13.908 20.3949 13.7312 20.3415C12.2679 19.8999 10.9364 19.0993 9.85627 18.0117C8.77609 16.9241 7.98103 15.5834 7.54243 14.1101C7.48961 13.932 7.48561 13.7429 7.53085 13.5627C7.57609 13.3825 7.66889 13.218 7.79942 13.0866L10.8462 10.0195L11.807 9.05204C12.1906 8.66565 12.406 8.1417 12.406 7.5954C12.406 7.04909 12.1906 6.52515 11.807 6.13875L7.02335 1.32211C6.8193 1.11708 6.57468 0.957584 6.30539 0.854004C6.0361 0.750425 5.74817 0.705079 5.46033 0.720915C5.17553 0.736444 4.89716 0.812223 4.64339 0.943314C4.38961 1.07441 4.16611 1.25787 3.98746 1.48174C3.72664 1.80937 3.47604 2.15181 3.24143 2.49875V2.4994C1.17372 5.57193 0.233745 9.27383 0.583134 12.9686C0.932522 16.6634 2.54944 20.1201 5.15587 22.7445C7.76231 25.3689 11.1954 26.997 14.8649 27.3488C18.5343 27.7006 22.2109 26.7542 25.2623 24.6722C25.2625 24.6722 25.2627 24.6721 25.2628 24.672C25.2629 24.6719 25.263 24.6717 25.263 24.6715C25.6075 24.4366 25.9476 24.1836 26.273 23.921C26.4954 23.7411 26.6776 23.5161 26.8078 23.2606C26.938 23.005 27.0132 22.7247 27.0286 22.438C27.0445 22.1481 26.9996 21.8582 26.8967 21.587C26.7938 21.3158 26.6353 21.0695 26.4316 20.8642ZM4.7859 2.12542C4.87405 2.01389 4.98483 1.9226 5.11085 1.85766C5.23686 1.79272 5.37519 1.75563 5.51659 1.74887C5.66085 1.74106 5.80513 1.7639 5.94004 1.81591C6.07496 1.86792 6.1975 1.94794 6.2997 2.05075L11.0833 6.8674C11.1784 6.96295 11.2538 7.07642 11.3052 7.20134C11.3567 7.32626 11.3832 7.46017 11.3832 7.5954C11.3832 7.73063 11.3567 7.86454 11.3052 7.98945C11.2538 8.11437 11.1784 8.22785 11.0833 8.3234L10.4844 8.92717L4.32947 2.72984C4.4765 2.5245 4.62928 2.32239 4.7859 2.12542ZM16.3656 26.3908C13.7243 26.3902 11.131 25.6795 8.85374 24.3321C6.57645 22.9847 4.69774 21.0496 3.4117 18.7266C2.12566 16.4035 1.47894 13.7769 1.53836 11.118C1.59777 8.45914 2.36115 5.86445 3.74965 3.60202L5.64061 5.50602L9.76134 9.65517L7.07641 12.3586C6.81535 12.6211 6.62969 12.9499 6.53909 13.31C6.4485 13.6701 6.45634 14.0482 6.5618 14.4042C7.0491 16.0416 7.93258 17.5314 9.13294 18.74C10.3333 19.9487 11.8129 20.8383 13.4391 21.3289C13.7926 21.4351 14.1681 21.443 14.5258 21.3518C14.8834 21.2606 15.2099 21.0736 15.4707 20.8108L18.1556 18.1073L24.1673 24.1605C21.8247 25.6231 19.122 26.3957 16.3656 26.3908ZM26.0077 22.382C26.0009 22.5242 25.9641 22.6634 25.8996 22.7902C25.8351 22.9169 25.7445 23.0284 25.6338 23.1171C25.4381 23.2748 25.2374 23.4286 25.0335 23.5766L18.8786 17.3793L19.4782 16.7762C19.5731 16.6805 19.6858 16.6046 19.8099 16.5528C19.934 16.501 20.0669 16.4743 20.2012 16.4743C20.3356 16.4743 20.4685 16.501 20.5926 16.5528C20.7167 16.6046 20.8294 16.6805 20.9243 16.7762L25.7079 21.5928C25.8101 21.6958 25.8897 21.8193 25.9413 21.9552C25.993 22.0912 26.0156 22.2366 26.0077 22.382Z" fill="#004FAC"/>
</svg>
