<svg width="28" height="22" viewBox="0 0 28 22" fill="none" xmlns="http://www.w3.org/2000/svg">
<path d="M24.9375 11.4594V0.5C24.9375 0.383968 24.8914 0.272688 24.8094 0.190641C24.7273 0.108594 24.616 0.0625 24.5 0.0625H0.875C0.758968 0.0625 0.647688 0.108594 0.565641 0.190641C0.483594 0.272688 0.4375 0.383968 0.4375 0.5V17.125C0.4375 17.241 0.483594 17.3523 0.565641 17.4344C0.647688 17.5164 0.758968 17.5625 0.875 17.5625H16.3406C16.5553 18.469 16.9893 19.3088 17.6045 20.0083C18.2197 20.7078 18.9974 21.2454 19.869 21.574C20.7407 21.9025 21.6797 22.012 22.6036 21.8927C23.5275 21.7733 24.4079 21.4289 25.1675 20.8897C25.9271 20.3504 26.5426 19.6328 26.9599 18.8C27.3772 17.9672 27.5836 17.0446 27.5609 16.1133C27.5382 15.1821 27.2871 14.2707 26.8297 13.4592C26.3722 12.6477 25.7225 11.961 24.9375 11.4594ZM1.3125 0.9375H24.0625V1.58555L12.6875 9.59016L1.3125 1.58555V0.9375ZM24.0625 2.65523V11C22.6757 10.422 21.1166 10.4165 19.7258 10.9847L17.3753 7.36109L24.0625 2.65523ZM1.9507 16.6875H1.3125V2.65523L8.02266 7.3775L1.9507 16.6875ZM16.2039 16.6875H2.99523L8.73852 7.88117L12.4359 10.4827C12.5095 10.5346 12.5974 10.5625 12.6875 10.5625C12.7776 10.5625 12.8655 10.5346 12.9391 10.4827L16.6595 7.86477L18.9399 11.3801C18.1006 11.8861 17.4062 12.6003 16.924 13.4535C16.4418 14.3067 16.1881 15.27 16.1875 16.25C16.1875 16.3971 16.193 16.5429 16.2039 16.6875ZM21.875 21.0625C20.9232 21.0625 19.9927 20.7803 19.2013 20.2514C18.4099 19.7226 17.7931 18.971 17.4288 18.0917C17.0646 17.2123 16.9693 16.2447 17.155 15.3111C17.3407 14.3776 17.799 13.5201 18.472 12.847C19.1451 12.174 20.0026 11.7157 20.9361 11.53C21.8697 11.3443 22.8373 11.4396 23.7167 11.8038C24.596 12.1681 25.3476 12.7849 25.8764 13.5763C26.4053 14.3677 26.6875 15.2982 26.6875 16.25C26.6861 17.5259 26.1786 18.7491 25.2764 19.6514C24.3741 20.5536 23.1509 21.0611 21.875 21.0625Z" fill="#004FAC"/>
<path d="M21.8759 12.75C21.3739 12.7504 20.8778 12.8589 20.4213 13.0679C19.9649 13.277 19.5587 13.5819 19.2305 13.9618C18.9023 14.3417 18.6596 14.7877 18.519 15.2697C18.3784 15.7517 18.3431 16.2583 18.4155 16.7551C18.488 17.2519 18.6665 17.7273 18.9389 18.149C19.2113 18.5707 19.5712 18.9289 19.9943 19.1993C20.4174 19.4696 20.8936 19.6458 21.3908 19.7158C21.8879 19.7858 22.3943 19.7481 22.8756 19.6051C22.9307 19.5887 22.982 19.5616 23.0266 19.5254C23.0713 19.4892 23.1083 19.4446 23.1357 19.3941C23.1631 19.3435 23.1802 19.2881 23.1862 19.2309C23.1921 19.1738 23.1868 19.116 23.1704 19.0609C23.154 19.0059 23.1269 18.9545 23.0907 18.9099C23.0545 18.8653 23.0099 18.8282 22.9594 18.8009C22.9088 18.7735 22.8534 18.7563 22.7963 18.7504C22.7391 18.7444 22.6813 18.7498 22.6262 18.7662C22.0429 18.9412 21.417 18.9084 20.8551 18.6735C20.2933 18.4385 19.8303 18.0159 19.5453 17.4777C19.2603 16.9396 19.1707 16.3192 19.2921 15.7224C19.4134 15.1256 19.7379 14.5893 20.2105 14.2051C20.683 13.821 21.2742 13.6126 21.8832 13.6156C22.4922 13.6186 23.0812 13.8328 23.5499 14.2217C24.0186 14.6105 24.3379 15.15 24.4533 15.7479C24.5687 16.3459 24.473 16.9654 24.1827 17.5007L23.8584 17.1759C24.0888 16.6843 24.1286 16.1247 23.9701 15.6055C23.8116 15.0863 23.4661 14.6443 23.0004 14.3653C22.5348 14.0862 21.9822 13.9898 21.4495 14.0948C20.9169 14.1998 20.4422 14.4988 20.1173 14.9337C19.7925 15.3687 19.6406 15.9087 19.691 16.4492C19.7415 16.9897 19.9907 17.4923 20.3905 17.8596C20.7902 18.2269 21.3121 18.4328 21.8549 18.4374C22.3978 18.442 22.923 18.2451 23.329 17.8846L23.9382 18.4938C23.9491 18.5042 23.9601 18.5146 23.9721 18.5245C24.0621 18.5977 24.1774 18.6323 24.2929 18.6206C24.4083 18.6089 24.5144 18.5519 24.5879 18.4621C25.0065 17.9491 25.2709 17.3279 25.3506 16.6705C25.4302 16.0132 25.3217 15.3468 25.0377 14.7487C24.7538 14.1506 24.3059 13.6453 23.7463 13.2915C23.1866 12.9377 22.538 12.7499 21.8759 12.75ZM22.9544 16.9998C22.7755 17.2578 22.5101 17.4433 22.2062 17.5225C21.9024 17.6018 21.5802 17.5696 21.2981 17.4317C21.0159 17.2939 20.7925 17.0596 20.6682 16.7712C20.5439 16.4829 20.527 16.1595 20.6206 15.8598C20.7142 15.5601 20.912 15.3037 21.1783 15.1373C21.4445 14.9708 21.7616 14.9053 22.0721 14.9524C22.3825 14.9996 22.6658 15.1564 22.8706 15.3945C23.0754 15.6325 23.1881 15.936 23.1884 16.25C23.1884 16.5179 23.1068 16.7794 22.9544 16.9998Z" fill="#004FAC"/>
</svg>
