<svg width="56" height="56" viewBox="0 0 56 56" fill="none" xmlns="http://www.w3.org/2000/svg">
<path d="M28.1094 6.125C26.2057 6.125 24.3448 6.6895 22.762 7.7471C21.1792 8.80471 19.9455 10.3079 19.217 12.0667C18.4885 13.8254 18.2979 15.7607 18.6693 17.6277C19.0407 19.4948 19.9574 21.2098 21.3035 22.5559C22.6496 23.902 24.3646 24.8187 26.2316 25.1901C28.0987 25.5614 30.034 25.3708 31.7927 24.6423C33.5514 23.9138 35.0547 22.6802 36.1123 21.0974C37.1699 19.5145 37.7344 17.6536 37.7344 15.75C37.7344 13.1973 36.7203 10.7491 34.9153 8.9441C33.1102 7.13906 30.6621 6.125 28.1094 6.125ZM28.1094 21C27.7633 21 27.4249 20.8974 27.1371 20.7051C26.8493 20.5128 26.625 20.2395 26.4926 19.9197C26.3601 19.5999 26.3255 19.2481 26.393 18.9086C26.4605 18.5691 26.6272 18.2573 26.8719 18.0126C27.1167 17.7678 27.4285 17.6011 27.768 17.5336C28.1074 17.4661 28.4593 17.5008 28.7791 17.6332C29.0988 17.7657 29.3722 17.99 29.5645 18.2778C29.7567 18.5655 29.8594 18.9039 29.8594 19.25C29.8594 19.7141 29.675 20.1592 29.3468 20.4874C29.0186 20.8156 28.5735 21 28.1094 21Z" fill="#57A4FF"/>
<path d="M51.7344 36.75H4.48438C3.78824 36.7502 3.12066 37.0268 2.62841 37.519C2.13617 38.0113 1.85955 38.6789 1.85938 39.375V47.25H54.3594V39.375C54.3592 38.6789 54.0826 38.0113 53.5903 37.519C53.0981 37.0268 52.4305 36.7502 51.7344 36.75ZM6.23438 43.75C5.88826 43.75 5.54991 43.6474 5.26213 43.4551C4.97434 43.2628 4.75004 42.9895 4.61759 42.6697C4.48513 42.3499 4.45048 41.9981 4.518 41.6586C4.58552 41.3191 4.7522 41.0073 4.99694 40.7626C5.24168 40.5178 5.5535 40.3511 5.89297 40.2836C6.23243 40.2161 6.5843 40.2508 6.90407 40.3832C7.22384 40.5157 7.49715 40.74 7.68945 41.0278C7.88174 41.3155 7.98438 41.6539 7.98438 42C7.98438 42.4641 7.8 42.9092 7.47181 43.2374C7.14362 43.5656 6.6985 43.75 6.23438 43.75ZM12.3594 43.75C12.0133 43.75 11.6749 43.6474 11.3871 43.4551C11.0993 43.2628 10.875 42.9895 10.7426 42.6697C10.6101 42.3499 10.5755 41.9981 10.643 41.6586C10.7105 41.3191 10.8772 41.0073 11.1219 40.7626C11.3667 40.5178 11.6785 40.3511 12.018 40.2836C12.3574 40.2161 12.7093 40.2508 13.0291 40.3832C13.3488 40.5157 13.6222 40.74 13.8144 41.0278C14.0067 41.3155 14.1094 41.6539 14.1094 42C14.1094 42.4641 13.925 42.9092 13.5968 43.2374C13.2686 43.5656 12.8235 43.75 12.3594 43.75ZM18.4844 43.75C18.1383 43.75 17.7999 43.6474 17.5121 43.4551C17.2243 43.2628 17 42.9895 16.8676 42.6697C16.7351 42.3499 16.7005 41.9981 16.768 41.6586C16.8355 41.3191 17.0022 41.0073 17.2469 40.7626C17.4917 40.5178 17.8035 40.3511 18.143 40.2836C18.4824 40.2161 18.8343 40.2508 19.1541 40.3832C19.4738 40.5157 19.7472 40.74 19.9394 41.0278C20.1317 41.3155 20.2344 41.6539 20.2344 42C20.2344 42.4641 20.05 42.9092 19.7218 43.2374C19.3936 43.5656 18.9485 43.75 18.4844 43.75ZM51.7344 43.75H41.2344V40.25H51.7344V43.75Z" fill="#57A4FF"/>
<path d="M11.4844 10.5V34.125H7.98438V10.5C7.98438 10.2679 8.07656 10.0454 8.24066 9.88128C8.40475 9.71719 8.62731 9.625 8.85938 9.625H10.6094C10.8414 9.625 11.064 9.71719 11.2281 9.88128C11.3922 10.0454 11.4844 10.2679 11.4844 10.5Z" fill="#57A4FF"/>
<path d="M48.2344 10.5V34.125H44.7344V10.5C44.7344 10.2679 44.8266 10.0454 44.9907 9.88128C45.1548 9.71719 45.3773 9.625 45.6094 9.625H47.3594C47.5914 9.625 47.814 9.71719 47.9781 9.88128C48.1422 10.0454 48.2344 10.2679 48.2344 10.5Z" fill="#57A4FF"/>
<path d="M51.625 35.875H50.75V34.125C50.75 33.8929 50.6578 33.6704 50.4937 33.5063C50.3296 33.3422 50.1071 33.25 49.875 33.25H49V10.5C48.9994 10.0361 48.8148 9.59129 48.4868 9.26323C48.1587 8.93518 47.7139 8.75061 47.25 8.75H45.5C45.0361 8.75061 44.5913 8.93518 44.2632 9.26323C43.9352 9.59129 43.7506 10.0361 43.75 10.5V33.25H42.875C42.6429 33.25 42.4204 33.3422 42.2563 33.5063C42.0922 33.6704 42 33.8929 42 34.125V35.875H14V34.125C14 33.8929 13.9078 33.6704 13.7437 33.5063C13.5796 33.3422 13.3571 33.25 13.125 33.25H12.25V10.5C12.2494 10.0361 12.0648 9.59129 11.7368 9.26323C11.4087 8.93518 10.9639 8.75061 10.5 8.75H8.75C8.28606 8.75061 7.84129 8.93518 7.51323 9.26323C7.18518 9.59129 7.00061 10.0361 7 10.5V33.25H6.125C5.89294 33.25 5.67038 33.3422 5.50628 33.5063C5.34219 33.6704 5.25 33.8929 5.25 34.125V35.875H4.375C3.44706 35.876 2.55743 36.2451 1.90128 36.9013C1.24513 37.5574 0.876042 38.4471 0.875 39.375V47.25C0.875 47.4821 0.967187 47.7046 1.13128 47.8687C1.29538 48.0328 1.51794 48.125 1.75 48.125V49.875C1.75 50.1071 1.84219 50.3296 2.00628 50.4937C2.17038 50.6578 2.39294 50.75 2.625 50.75H9.625C9.85706 50.75 10.0796 50.6578 10.2437 50.4937C10.4078 50.3296 10.5 50.1071 10.5 49.875V48.125H45.5V49.875C45.5 50.1071 45.5922 50.3296 45.7563 50.4937C45.9204 50.6578 46.1429 50.75 46.375 50.75H53.375C53.6071 50.75 53.8296 50.6578 53.9937 50.4937C54.1578 50.3296 54.25 50.1071 54.25 49.875V48.125C54.4821 48.125 54.7046 48.0328 54.8687 47.8687C55.0328 47.7046 55.125 47.4821 55.125 47.25V39.375C55.124 38.4471 54.7549 37.5574 54.0987 36.9013C53.4426 36.2451 52.5529 35.876 51.625 35.875ZM45.5 10.5H47.25V33.25H45.5V10.5ZM43.75 35H49V35.875H43.75V35ZM8.75 10.5H10.5V33.25H8.75V10.5ZM7 35H12.25V35.875H7V35ZM8.75 49H3.5V48.125H8.75V49ZM52.5 49H47.25V48.125H52.5V49ZM53.375 46.375H2.625V39.375C2.62561 38.9111 2.81018 38.4663 3.13823 38.1382C3.46629 37.8102 3.91106 37.6256 4.375 37.625H51.625C52.0889 37.6256 52.5337 37.8102 52.8618 38.1382C53.1898 38.4663 53.3744 38.9111 53.375 39.375V46.375Z" fill="#004FAC"/>
<path d="M6.125 39.375C5.60582 39.375 5.09831 39.529 4.66663 39.8174C4.23495 40.1058 3.8985 40.5158 3.69982 40.9955C3.50114 41.4751 3.44915 42.0029 3.55044 42.5121C3.65173 43.0213 3.90173 43.489 4.26885 43.8562C4.63596 44.2233 5.10369 44.4733 5.61289 44.5746C6.12209 44.6759 6.64989 44.6239 7.12954 44.4252C7.6092 44.2265 8.01917 43.8901 8.30761 43.4584C8.59605 43.0267 8.75 42.5192 8.75 42C8.74922 41.304 8.47241 40.6368 7.98029 40.1447C7.48818 39.6526 6.82095 39.3758 6.125 39.375ZM6.125 42.875C5.95194 42.875 5.78277 42.8237 5.63888 42.7275C5.49498 42.6314 5.38283 42.4947 5.31661 42.3348C5.25038 42.175 5.23305 41.999 5.26681 41.8293C5.30058 41.6596 5.38391 41.5037 5.50628 41.3813C5.62865 41.2589 5.78456 41.1756 5.9543 41.1418C6.12403 41.1081 6.29996 41.1254 6.45985 41.1916C6.61973 41.2578 6.75639 41.37 6.85254 41.5139C6.94868 41.6578 7 41.8269 7 42C6.99974 42.232 6.90747 42.4544 6.74343 42.6184C6.57939 42.7825 6.35699 42.8747 6.125 42.875Z" fill="#004FAC"/>
<path d="M12.25 44.625C12.7692 44.625 13.2767 44.471 13.7084 44.1826C14.14 43.8942 14.4765 43.4842 14.6752 43.0045C14.8739 42.5249 14.9258 41.9971 14.8246 41.4879C14.7233 40.9787 14.4733 40.511 14.1062 40.1438C13.739 39.7767 13.2713 39.5267 12.7621 39.4254C12.2529 39.3242 11.7251 39.3761 11.2455 39.5748C10.7658 39.7735 10.3558 40.11 10.0674 40.5416C9.77895 40.9733 9.625 41.4808 9.625 42C9.62578 42.696 9.90259 43.3632 10.3947 43.8553C10.8868 44.3474 11.554 44.6242 12.25 44.625ZM12.25 41.125C12.4231 41.125 12.5922 41.1763 12.7361 41.2725C12.88 41.3686 12.9922 41.5053 13.0584 41.6652C13.1246 41.825 13.1419 42.001 13.1082 42.1707C13.0744 42.3404 12.9911 42.4964 12.8687 42.6187C12.7463 42.7411 12.5904 42.8244 12.4207 42.8582C12.251 42.892 12.075 42.8746 11.9152 42.8084C11.7553 42.7422 11.6186 42.63 11.5225 42.4861C11.4263 42.3422 11.375 42.1731 11.375 42C11.3753 41.768 11.4675 41.5456 11.6316 41.3816C11.7956 41.2175 12.018 41.1253 12.25 41.125Z" fill="#004FAC"/>
<path d="M18.375 44.625C18.8942 44.625 19.4017 44.471 19.8334 44.1826C20.265 43.8942 20.6015 43.4842 20.8002 43.0045C20.9989 42.5249 21.0508 41.9971 20.9496 41.4879C20.8483 40.9787 20.5983 40.511 20.2312 40.1438C19.864 39.7767 19.3963 39.5267 18.8871 39.4254C18.3779 39.3242 17.8501 39.3761 17.3705 39.5748C16.8908 39.7735 16.4808 40.11 16.1924 40.5416C15.904 40.9733 15.75 41.4808 15.75 42C15.7508 42.696 16.0276 43.3632 16.5197 43.8553C17.0118 44.3474 17.679 44.6242 18.375 44.625ZM18.375 41.125C18.5481 41.125 18.7172 41.1763 18.8611 41.2725C19.005 41.3686 19.1172 41.5053 19.1834 41.6652C19.2496 41.825 19.2669 42.001 19.2332 42.1707C19.1994 42.3404 19.1161 42.4964 18.9937 42.6187C18.8713 42.7411 18.7154 42.8244 18.5457 42.8582C18.376 42.892 18.2 42.8746 18.0402 42.8084C17.8803 42.7422 17.7436 42.63 17.6475 42.4861C17.5513 42.3422 17.5 42.1731 17.5 42C17.5003 41.768 17.5925 41.5456 17.7566 41.3816C17.9206 41.2175 18.143 41.1253 18.375 41.125Z" fill="#004FAC"/>
<path d="M41.125 44.625H51.625C51.8571 44.625 52.0796 44.5328 52.2437 44.3687C52.4078 44.2046 52.5 43.9821 52.5 43.75V40.25C52.5 40.0179 52.4078 39.7954 52.2437 39.6313C52.0796 39.4672 51.8571 39.375 51.625 39.375H41.125C40.8929 39.375 40.6704 39.4672 40.5063 39.6313C40.3422 39.7954 40.25 40.0179 40.25 40.25V43.75C40.25 43.9821 40.3422 44.2046 40.5063 44.3687C40.6704 44.5328 40.8929 44.625 41.125 44.625ZM42 41.125H50.75V42.875H42V41.125Z" fill="#004FAC"/>
<path d="M31.5 41.125H38.5C38.7321 41.125 38.9546 41.0328 39.1187 40.8687C39.2828 40.7046 39.375 40.4821 39.375 40.25C39.375 40.0179 39.2828 39.7954 39.1187 39.6313C38.9546 39.4672 38.7321 39.375 38.5 39.375H31.5C31.2679 39.375 31.0454 39.4672 30.8813 39.6313C30.7172 39.7954 30.625 40.0179 30.625 40.25C30.625 40.4821 30.7172 40.7046 30.8813 40.8687C31.0454 41.0328 31.2679 41.125 31.5 41.125Z" fill="#004FAC"/>
<path d="M38.5 42H35.875C35.6429 42 35.4204 42.0922 35.2563 42.2563C35.0922 42.4204 35 42.6429 35 42.875C35 43.1071 35.0922 43.3296 35.2563 43.4937C35.4204 43.6578 35.6429 43.75 35.875 43.75H38.5C38.7321 43.75 38.9546 43.6578 39.1187 43.4937C39.2828 43.3296 39.375 43.1071 39.375 42.875C39.375 42.6429 39.2828 42.4204 39.1187 42.2563C38.9546 42.0922 38.7321 42 38.5 42Z" fill="#004FAC"/>
<path d="M28 16.625C27.4808 16.625 26.9733 16.779 26.5416 17.0674C26.11 17.3558 25.7735 17.7658 25.5748 18.2455C25.3761 18.7251 25.3242 19.2529 25.4254 19.7621C25.5267 20.2713 25.7767 20.739 26.1438 21.1062C26.511 21.4733 26.9787 21.7233 27.4879 21.8246C27.9971 21.9258 28.5249 21.8739 29.0045 21.6752C29.4842 21.4765 29.8942 21.14 30.1826 20.7084C30.4711 20.2767 30.625 19.7692 30.625 19.25C30.6242 18.554 30.3474 17.8868 29.8553 17.3947C29.3632 16.9026 28.696 16.6258 28 16.625ZM28 20.125C27.8269 20.125 27.6578 20.0737 27.5139 19.9775C27.37 19.8814 27.2578 19.7447 27.1916 19.5848C27.1254 19.425 27.1081 19.249 27.1418 19.0793C27.1756 18.9096 27.2589 18.7537 27.3813 18.6313C27.5037 18.5089 27.6596 18.4256 27.8293 18.3918C27.999 18.3581 28.175 18.3754 28.3349 18.4416C28.4947 18.5078 28.6314 18.62 28.7275 18.7639C28.8237 18.9078 28.875 19.0769 28.875 19.25C28.8747 19.482 28.7825 19.7044 28.6184 19.8684C28.4544 20.0325 28.232 20.1247 28 20.125Z" fill="#004FAC"/>
<path d="M28.0013 13.125C27.1965 13.1227 26.3993 13.2801 25.6558 13.5881C24.9123 13.8961 24.2373 14.3486 23.67 14.9194C23.5888 15.0007 23.5244 15.0972 23.4805 15.2034C23.4366 15.3096 23.414 15.4234 23.4141 15.5383C23.4141 15.6533 23.4368 15.767 23.4809 15.8732C23.5249 15.9793 23.5894 16.0757 23.6707 16.157C23.752 16.2382 23.8485 16.3026 23.9547 16.3465C24.0609 16.3904 24.1747 16.413 24.2896 16.4129C24.4045 16.4128 24.5183 16.3901 24.6245 16.3461C24.7306 16.3021 24.827 16.2376 24.9082 16.1562C25.7286 15.3359 26.8412 14.875 28.0014 14.875C29.1615 14.875 30.2741 15.3359 31.0945 16.1562C31.2588 16.3188 31.4808 16.4097 31.712 16.4091C31.9431 16.4085 32.1646 16.3165 32.3282 16.1531C32.4917 15.9897 32.5839 15.7683 32.5847 15.5372C32.5856 15.306 32.4949 15.0839 32.3325 14.9194C31.7652 14.3486 31.0902 13.8961 30.3467 13.5881C29.6032 13.2801 28.806 13.1227 28.0013 13.125Z" fill="#004FAC"/>
<path d="M28 11.375C29.0346 11.3724 30.0594 11.5748 31.0153 11.9708C31.9712 12.3667 32.8391 12.9482 33.5688 13.6816C33.6501 13.7628 33.7466 13.8273 33.8527 13.8712C33.9589 13.9152 34.0727 13.9378 34.1876 13.9377C34.3025 13.9377 34.4163 13.915 34.5225 13.871C34.6286 13.827 34.7251 13.7625 34.8063 13.6812C34.8875 13.6 34.952 13.5035 34.9959 13.3973C35.0399 13.2911 35.0625 13.1773 35.0624 13.0624C35.0624 12.9475 35.0397 12.8337 34.9957 12.7275C34.9517 12.6214 34.8872 12.5249 34.8059 12.4437C33.0007 10.6389 30.5526 9.625 28 9.625C25.4473 9.625 22.9992 10.6389 21.194 12.4437C21.0298 12.6078 20.9376 12.8303 20.9375 13.0624C20.9374 13.2945 21.0296 13.5171 21.1936 13.6812C21.3577 13.8454 21.5802 13.9377 21.8123 13.9377C22.0444 13.9378 22.267 13.8457 22.4311 13.6816C23.1609 12.9482 24.0287 12.3667 24.9846 11.9708C25.9405 11.5748 26.9653 11.3724 28 11.375Z" fill="#004FAC"/>
<path d="M28 26.25C30.0767 26.25 32.1068 25.6342 33.8335 24.4804C35.5602 23.3267 36.906 21.6868 37.7007 19.7682C38.4955 17.8496 38.7034 15.7384 38.2982 13.7016C37.8931 11.6648 36.8931 9.79384 35.4246 8.32538C33.9562 6.85693 32.0852 5.8569 30.0484 5.45176C28.0116 5.04661 25.9004 5.25455 23.9818 6.04927C22.0632 6.84399 20.4233 8.1898 19.2696 9.91652C18.1158 11.6432 17.5 13.6733 17.5 15.75C17.5031 18.5338 18.6104 21.2027 20.5788 23.1712C22.5473 25.1396 25.2162 26.2469 28 26.25ZM28 7.00001C29.7306 7.00001 31.4223 7.51318 32.8612 8.47465C34.3002 9.43611 35.4217 10.8027 36.0839 12.4015C36.7462 14.0004 36.9195 15.7597 36.5819 17.457C36.2442 19.1544 35.4109 20.7135 34.1872 21.9372C32.9635 23.1609 31.4044 23.9943 29.707 24.3319C28.0097 24.6695 26.2504 24.4962 24.6515 23.834C23.0527 23.1717 21.6861 22.0502 20.7246 20.6112C19.7632 19.1723 19.25 17.4806 19.25 15.75C19.2526 13.4302 20.1754 11.2061 21.8157 9.56573C23.4561 7.92536 25.6802 7.00264 28 7.00001Z" fill="#004FAC"/>
</svg>
