<svg width="54" height="54" viewBox="0 0 54 54" fill="none" xmlns="http://www.w3.org/2000/svg">
<path d="M46.513 12.6562C46.5135 13.2276 46.4311 13.796 46.2683 14.3437H34.9452C34.7031 13.5313 34.6387 12.6763 34.7564 11.8368C34.8741 10.9973 35.1711 10.193 35.6273 9.47851C36.0834 8.76399 36.688 8.15603 37.4 7.69592C38.112 7.2358 38.9146 6.93432 39.7534 6.81196C40.5923 6.68959 41.4476 6.7492 42.2613 6.98675C43.0751 7.22429 43.8282 7.6342 44.4694 8.18863C45.1107 8.74306 45.6251 9.42901 45.9777 10.1999C46.3303 10.9708 46.5129 11.8085 46.513 12.6562Z" fill="#57A4FF"/>
<path d="M12.7617 27L11.918 29.5312H6.85547L6.01172 27H12.7617Z" fill="#57A4FF"/>
<path d="M12.7617 27L11.918 29.5312H6.85547L6.01172 27H12.7617Z" fill="#57A4FF"/>
<path d="M51.1523 27.8437H35.1211C34.4221 27.8437 33.8555 28.4104 33.8555 29.1093V31.6406C33.8555 32.3396 34.4221 32.9062 35.1211 32.9062H51.1523C51.8513 32.9062 52.418 32.3396 52.418 31.6406V29.1093C52.418 28.4104 51.8513 27.8437 51.1523 27.8437Z" fill="#57A4FF"/>
<path d="M51.1523 32.9062H35.1211C34.4221 32.9062 33.8555 33.4729 33.8555 34.1718V36.7031C33.8555 37.4021 34.4221 37.9687 35.1211 37.9687H51.1523C51.8513 37.9687 52.418 37.4021 52.418 36.7031V34.1718C52.418 33.4729 51.8513 32.9062 51.1523 32.9062Z" fill="#57A4FF"/>
<path d="M51.1523 37.9687H35.1211C34.4221 37.9687 33.8555 38.5354 33.8555 39.2343V41.7656C33.8555 42.4646 34.4221 43.0312 35.1211 43.0312H51.1523C51.8513 43.0312 52.418 42.4646 52.418 41.7656V39.2343C52.418 38.5354 51.8513 37.9687 51.1523 37.9687Z" fill="#57A4FF"/>
<path d="M46.5117 12.6562C46.5117 13.8244 46.1653 14.9663 45.5163 15.9376C44.8674 16.9088 43.9449 17.6659 42.8657 18.1129C41.7865 18.5599 40.5989 18.6769 39.4532 18.449C38.3075 18.2211 37.2551 17.6586 36.4291 16.8326C35.6031 16.0066 35.0406 14.9542 34.8127 13.8085C34.5848 12.6628 34.7018 11.4752 35.1488 10.396C35.5958 9.31677 36.3529 8.39434 37.3241 7.74535C38.2954 7.09637 39.4373 6.74997 40.6055 6.74997C41.3812 6.74953 42.1494 6.90199 42.8662 7.19865C43.583 7.49531 44.2343 7.93035 44.7828 8.47888C45.3313 9.02742 45.7664 9.67869 46.063 10.3955C46.3597 11.1123 46.5122 11.8805 46.5117 12.6562Z" fill="#57A4FF"/>
<path d="M49.043 14.3195V14.3437H48.6211C48.7621 14.3442 48.903 14.3361 49.043 14.3195Z" fill="#57A4FF"/>
<path d="M15.1875 26.1562H3.375C2.70394 26.1571 2.06063 26.4241 1.58612 26.8986C1.11161 27.3731 0.844643 28.0164 0.84375 28.6875V50.625C0.844643 51.2961 1.11161 51.9394 1.58612 52.4139C2.06063 52.8884 2.70394 53.1554 3.375 53.1562H15.1875C15.8586 53.1554 16.5019 52.8884 16.9764 52.4139C17.4509 51.9394 17.7179 51.2961 17.7188 50.625V28.6875C17.7179 28.0164 17.4509 27.3731 16.9764 26.8986C16.5019 26.4241 15.8586 26.1571 15.1875 26.1562ZM11.4855 27.8437L11.2039 28.6875H7.35855L7.07695 27.8437H11.4855ZM16.0312 50.625C16.0309 50.8487 15.9419 51.0631 15.7838 51.2213C15.6256 51.3794 15.4112 51.4684 15.1875 51.4687H3.375C3.15132 51.4684 2.93688 51.3794 2.77872 51.2213C2.62055 51.0631 2.53156 50.8487 2.53125 50.625V28.6875C2.53156 28.4638 2.62055 28.2494 2.77872 28.0912C2.93688 27.9331 3.15132 27.8441 3.375 27.8437H5.2977L5.94949 29.7981C6.0055 29.9661 6.11295 30.1122 6.25662 30.2158C6.40029 30.3193 6.5729 30.375 6.75 30.375H11.8125C11.9896 30.375 12.1622 30.3193 12.3059 30.2158C12.4496 30.1122 12.557 29.9661 12.613 29.7981L13.2648 27.8437H15.1875C15.4112 27.8441 15.6256 27.9331 15.7838 28.0912C15.9419 28.2494 16.0309 28.4638 16.0312 28.6875V50.625Z" fill="#004FAC"/>
<path d="M7.59375 48.9375H4.21875C3.99497 48.9375 3.78036 49.0264 3.62213 49.1846C3.4639 49.3429 3.375 49.5575 3.375 49.7812C3.375 50.005 3.4639 50.2196 3.62213 50.3779C3.78036 50.5361 3.99497 50.625 4.21875 50.625H7.59375C7.81753 50.625 8.03214 50.5361 8.19037 50.3779C8.34861 50.2196 8.4375 50.005 8.4375 49.7812C8.4375 49.5575 8.34861 49.3429 8.19037 49.1846C8.03214 49.0264 7.81753 48.9375 7.59375 48.9375Z" fill="#004FAC"/>
<path d="M10.9688 48.9375H10.125C9.90122 48.9375 9.68661 49.0264 9.52838 49.1846C9.37015 49.3429 9.28125 49.5575 9.28125 49.7812C9.28125 50.005 9.37015 50.2196 9.52838 50.3779C9.68661 50.5361 9.90122 50.625 10.125 50.625H10.9688C11.1925 50.625 11.4071 50.5361 11.5654 50.3779C11.7236 50.2196 11.8125 50.005 11.8125 49.7812C11.8125 49.5575 11.7236 49.3429 11.5654 49.1846C11.4071 49.0264 11.1925 48.9375 10.9688 48.9375Z" fill="#004FAC"/>
<path d="M51.0469 27H45.5625V25.3125C45.5625 25.0887 45.4736 24.8741 45.3154 24.7159C45.1571 24.5576 44.9425 24.4688 44.7188 24.4688H41.3438C41.12 24.4688 40.9054 24.5576 40.7471 24.7159C40.5889 24.8741 40.5 25.0887 40.5 25.3125V27H35.0156C34.4564 27.0006 33.9202 27.2231 33.5248 27.6185C33.1293 28.014 32.9069 28.5501 32.9062 29.1094V31.6406C32.9064 32.0977 33.056 32.5421 33.3321 32.9062C33.056 33.2704 32.9064 33.7148 32.9062 34.1719V36.7031C32.9064 37.1602 33.056 37.6046 33.3321 37.9687C33.056 38.3329 32.9064 38.7773 32.9062 39.2344V41.7656C32.9069 42.3249 33.1293 42.861 33.5248 43.2565C33.9202 43.6519 34.4564 43.8744 35.0156 43.875H40.5V45.5625C40.5 45.7863 40.5889 46.0009 40.7471 46.1591C40.9054 46.3174 41.12 46.4062 41.3438 46.4062H44.7188C44.9425 46.4062 45.1571 46.3174 45.3154 46.1591C45.4736 46.0009 45.5625 45.7863 45.5625 45.5625V43.875H51.0469C51.6061 43.8744 52.1423 43.6519 52.5377 43.2565C52.9332 42.861 53.1556 42.3249 53.1562 41.7656V39.2344C53.1561 38.7773 53.0065 38.3329 52.7304 37.9687C53.0065 37.6046 53.1561 37.1602 53.1562 36.7031V34.1719C53.1561 33.7148 53.0065 33.2704 52.7304 32.9062C53.0065 32.5421 53.1561 32.0977 53.1562 31.6406V29.1094C53.1556 28.5501 52.9332 28.014 52.5377 27.6185C52.1423 27.2231 51.6061 27.0006 51.0469 27ZM42.1875 26.1562H43.875V27H42.1875V26.1562ZM34.5938 29.1094C34.5938 28.9975 34.6382 28.8902 34.7173 28.8111C34.7964 28.7319 34.9037 28.6875 35.0156 28.6875H51.0469C51.1588 28.6875 51.2661 28.7319 51.3452 28.8111C51.4243 28.8902 51.4688 28.9975 51.4688 29.1094V31.6406C51.4688 31.7525 51.4243 31.8598 51.3452 31.9389C51.2661 32.0181 51.1588 32.0625 51.0469 32.0625H35.0156C34.9037 32.0625 34.7964 32.0181 34.7173 31.9389C34.6382 31.8598 34.5938 31.7525 34.5938 31.6406V29.1094ZM51.4688 34.1719V36.7031C51.4688 36.815 51.4243 36.9223 51.3452 37.0014C51.2661 37.0806 51.1588 37.125 51.0469 37.125H35.0156C34.9037 37.125 34.7964 37.0806 34.7173 37.0014C34.6382 36.9223 34.5938 36.815 34.5938 36.7031V34.1719C34.5938 34.06 34.6382 33.9527 34.7173 33.8736C34.7964 33.7944 34.9037 33.75 35.0156 33.75H51.0469C51.1588 33.75 51.2661 33.7944 51.3452 33.8736C51.4243 33.9527 51.4688 34.06 51.4688 34.1719ZM43.875 44.7187H42.1875V43.875H43.875V44.7187ZM51.4688 41.7656C51.4688 41.8775 51.4243 41.9848 51.3452 42.0639C51.2661 42.1431 51.1588 42.1875 51.0469 42.1875H35.0156C34.9037 42.1875 34.7964 42.1431 34.7173 42.0639C34.6382 41.9848 34.5938 41.8775 34.5938 41.7656V39.2344C34.5938 39.1225 34.6382 39.0152 34.7173 38.9361C34.7964 38.8569 34.9037 38.8125 35.0156 38.8125H51.0469C51.1588 38.8125 51.2661 38.8569 51.3452 38.9361C51.4243 39.0152 51.4688 39.1225 51.4688 39.2344V41.7656Z" fill="#004FAC"/>
<path d="M36.2812 31.2188C36.7472 31.2188 37.125 30.841 37.125 30.375C37.125 29.909 36.7472 29.5312 36.2812 29.5312C35.8153 29.5312 35.4375 29.909 35.4375 30.375C35.4375 30.841 35.8153 31.2188 36.2812 31.2188Z" fill="#004FAC"/>
<path d="M38.8125 31.2188C39.2785 31.2188 39.6562 30.841 39.6562 30.375C39.6562 29.909 39.2785 29.5312 38.8125 29.5312C38.3465 29.5312 37.9688 29.909 37.9688 30.375C37.9688 30.841 38.3465 31.2188 38.8125 31.2188Z" fill="#004FAC"/>
<path d="M45.5625 31.2188H49.7812C50.005 31.2188 50.2196 31.1299 50.3779 30.9716C50.5361 30.8134 50.625 30.5988 50.625 30.375C50.625 30.1512 50.5361 29.9366 50.3779 29.7784C50.2196 29.6201 50.005 29.5312 49.7812 29.5312H45.5625C45.3387 29.5312 45.1241 29.6201 44.9659 29.7784C44.8076 29.9366 44.7188 30.1512 44.7188 30.375C44.7188 30.5988 44.8076 30.8134 44.9659 30.9716C45.1241 31.1299 45.3387 31.2188 45.5625 31.2188Z" fill="#004FAC"/>
<path d="M36.2812 36.2812C36.7472 36.2812 37.125 35.9035 37.125 35.4375C37.125 34.9715 36.7472 34.5938 36.2812 34.5938C35.8153 34.5938 35.4375 34.9715 35.4375 35.4375C35.4375 35.9035 35.8153 36.2812 36.2812 36.2812Z" fill="#004FAC"/>
<path d="M38.8125 36.2812C39.2785 36.2812 39.6562 35.9035 39.6562 35.4375C39.6562 34.9715 39.2785 34.5938 38.8125 34.5938C38.3465 34.5938 37.9688 34.9715 37.9688 35.4375C37.9688 35.9035 38.3465 36.2812 38.8125 36.2812Z" fill="#004FAC"/>
<path d="M45.5625 36.2812H49.7812C50.005 36.2812 50.2196 36.1924 50.3779 36.0341C50.5361 35.8759 50.625 35.6613 50.625 35.4375C50.625 35.2137 50.5361 34.9991 50.3779 34.8409C50.2196 34.6826 50.005 34.5938 49.7812 34.5938H45.5625C45.3387 34.5938 45.1241 34.6826 44.9659 34.8409C44.8076 34.9991 44.7188 35.2137 44.7188 35.4375C44.7188 35.6613 44.8076 35.8759 44.9659 36.0341C45.1241 36.1924 45.3387 36.2812 45.5625 36.2812Z" fill="#004FAC"/>
<path d="M36.2812 41.3438C36.7472 41.3438 37.125 40.966 37.125 40.5C37.125 40.034 36.7472 39.6562 36.2812 39.6562C35.8153 39.6562 35.4375 40.034 35.4375 40.5C35.4375 40.966 35.8153 41.3438 36.2812 41.3438Z" fill="#004FAC"/>
<path d="M38.8125 41.3438C39.2785 41.3438 39.6562 40.966 39.6562 40.5C39.6562 40.034 39.2785 39.6562 38.8125 39.6562C38.3465 39.6562 37.9688 40.034 37.9688 40.5C37.9688 40.966 38.3465 41.3438 38.8125 41.3438Z" fill="#004FAC"/>
<path d="M49.7812 39.6562H45.5625C45.3387 39.6562 45.1241 39.7451 44.9659 39.9034C44.8076 40.0616 44.7188 40.2762 44.7188 40.5C44.7188 40.7238 44.8076 40.9384 44.9659 41.0966C45.1241 41.2549 45.3387 41.3438 45.5625 41.3438H49.7812C50.005 41.3438 50.2196 41.2549 50.3779 41.0966C50.5361 40.9384 50.625 40.7238 50.625 40.5C50.625 40.2762 50.5361 40.0616 50.3779 39.9034C50.2196 39.7451 50.005 39.6562 49.7812 39.6562Z" fill="#004FAC"/>
<path d="M40.5 16.0312C40.966 16.0312 41.3438 15.6535 41.3438 15.1875C41.3438 14.7215 40.966 14.3437 40.5 14.3437C40.034 14.3437 39.6562 14.7215 39.6562 15.1875C39.6562 15.6535 40.034 16.0312 40.5 16.0312Z" fill="#004FAC"/>
<path d="M42.7503 12.6721C42.1315 12.1184 41.3304 11.8124 40.5001 11.8124C39.6698 11.8124 38.8686 12.1184 38.2498 12.6721C38.1672 12.746 38.1 12.8354 38.052 12.9353C38.004 13.0351 37.9762 13.1435 37.97 13.2541C37.9577 13.4775 38.0346 13.6967 38.1838 13.8635C38.3331 14.0302 38.5424 14.1308 38.7659 14.1432C38.9893 14.1556 39.2085 14.0787 39.3752 13.9294C39.6846 13.6528 40.0851 13.4999 40.5001 13.4999C40.9151 13.4999 41.3155 13.6528 41.6249 13.9294C41.7916 14.0787 42.0108 14.1556 42.2343 14.1432C42.4577 14.1308 42.6671 14.0302 42.8163 13.8635C42.9656 13.6967 43.0425 13.4775 43.0301 13.2541C43.0177 13.0307 42.9171 12.8213 42.7503 12.6721Z" fill="#004FAC"/>
<path d="M44.4369 10.7853C43.3541 9.8167 41.9522 9.28119 40.4993 9.28119C39.0464 9.28119 37.6445 9.8167 36.5616 10.7853C36.478 10.8589 36.4098 10.9484 36.3609 11.0485C36.3121 11.1485 36.2835 11.2573 36.2769 11.3685C36.2703 11.4797 36.2857 11.5911 36.3224 11.6963C36.359 11.8014 36.4161 11.8983 36.4904 11.9813C36.5647 12.0643 36.6547 12.1318 36.7552 12.1798C36.8557 12.2279 36.9647 12.2556 37.0759 12.2613C37.1871 12.267 37.2984 12.2506 37.4033 12.2131C37.5081 12.1756 37.6046 12.1177 37.6869 12.0427C38.4604 11.351 39.4616 10.9686 40.4993 10.9686C41.5369 10.9686 42.5381 11.351 43.3116 12.0427C43.394 12.1177 43.4904 12.1756 43.5953 12.2131C43.7001 12.2506 43.8114 12.267 43.9226 12.2613C44.0339 12.2556 44.1429 12.2279 44.2434 12.1798C44.3439 12.1318 44.4338 12.0643 44.5081 11.9813C44.5824 11.8983 44.6395 11.8014 44.6762 11.6963C44.7128 11.5911 44.7283 11.4797 44.7217 11.3685C44.715 11.2573 44.6865 11.1485 44.6376 11.0485C44.5887 10.9484 44.5205 10.8589 44.4369 10.7853Z" fill="#004FAC"/>
<path d="M32.9065 15.1875H34.2446C34.7484 16.4339 35.613 17.5014 36.7276 18.253C37.8422 19.0047 39.1559 19.4063 40.5002 19.4063C41.8446 19.4063 43.1583 19.0047 44.2729 18.253C45.3875 17.5014 46.2521 16.4339 46.7559 15.1875H48.9377C49.0422 15.1874 49.1456 15.1678 49.2429 15.1297C49.8471 15.0313 50.4258 14.8143 50.9458 14.4913C51.4657 14.1682 51.9167 13.7455 52.2726 13.2474C52.6285 12.7494 52.8823 12.1858 53.0195 11.5892C53.1566 10.9926 53.1744 10.3748 53.0718 9.77131C52.9691 9.16782 52.7481 8.59061 52.4214 8.07291C52.0947 7.55521 51.6688 7.10727 51.1683 6.75487C50.6678 6.40247 50.1024 6.15259 49.5049 6.01961C48.9074 5.88664 48.2894 5.8732 47.6867 5.98007C47.1995 4.55664 46.3007 3.30993 45.1041 2.39802C43.9075 1.48611 42.467 0.950079 40.9654 0.857902C39.4637 0.765724 37.9685 1.12155 36.6694 1.88026C35.3702 2.63897 34.3256 3.76638 33.6681 5.11955C32.9792 5.01524 32.2763 5.05424 31.6032 5.23409C30.9302 5.41395 30.3015 5.73079 29.7565 6.16479C29.2115 6.59879 28.7619 7.14061 28.436 7.75633C28.11 8.37205 27.9146 9.04843 27.8621 9.74313C27.8095 10.4378 27.9009 11.1359 28.1306 11.7936C28.3602 12.4514 28.7231 13.0547 29.1966 13.5657C29.6701 14.0768 30.244 14.4846 30.8824 14.7636C31.5207 15.0427 32.2098 15.187 32.9065 15.1875ZM40.5002 17.7187C39.499 17.7187 38.5202 17.4218 37.6877 16.8656C36.8551 16.3093 36.2063 15.5186 35.8231 14.5936C35.4399 13.6685 35.3397 12.6506 35.535 11.6686C35.7304 10.6866 36.2125 9.78451 36.9205 9.07651C37.6285 8.36851 38.5306 7.88635 39.5126 7.69101C40.4946 7.49568 41.5125 7.59593 42.4376 7.9791C43.3626 8.36227 44.1533 9.01114 44.7096 9.84366C45.2658 10.6762 45.5627 11.655 45.5627 12.6562C45.5612 13.9984 45.0273 15.2852 44.0783 16.2343C43.1292 17.1833 41.8424 17.7172 40.5002 17.7187ZM32.9065 6.74999C33.2485 6.74969 33.5885 6.80144 33.9149 6.90345C34.1214 6.96807 34.3449 6.95086 34.5391 6.85536C34.7334 6.75986 34.8834 6.59338 34.9584 6.39034C35.4021 5.19042 36.2232 4.16693 37.2984 3.47372C38.3737 2.7805 39.6448 2.45502 40.9209 2.54619C42.197 2.63736 43.409 3.14026 44.3747 3.97929C45.3404 4.81833 46.0078 5.94816 46.2763 7.19897C46.302 7.3194 46.3537 7.43275 46.4278 7.53107C46.502 7.62939 46.5967 7.7103 46.7054 7.76811C46.8141 7.82592 46.9342 7.85923 47.0572 7.86572C47.1801 7.8722 47.303 7.85169 47.4172 7.80563C47.7664 7.66492 48.1394 7.59297 48.5159 7.59374C49.2703 7.59536 49.9955 7.88565 50.5426 8.40505C51.0898 8.92444 51.4174 9.63355 51.4583 10.3869C51.4992 11.1402 51.2502 11.8806 50.7624 12.4561C50.2747 13.0317 49.5851 13.3987 48.8353 13.482C48.7293 13.4944 48.6226 13.5004 48.5159 13.5H47.1956C47.3173 12.549 47.2351 11.5829 46.9543 10.6661C46.6735 9.7494 46.2006 8.90298 45.5672 8.18325C44.9337 7.46353 44.1542 6.88702 43.2805 6.4921C42.4068 6.09718 41.459 5.89292 40.5002 5.89292C39.5414 5.89292 38.5937 6.09718 37.72 6.4921C36.8463 6.88702 36.0668 7.46353 35.4333 8.18325C34.7998 8.90298 34.327 9.7494 34.0462 10.6661C33.7654 11.5829 33.6831 12.549 33.8049 13.5H32.9065C32.0114 13.5 31.1529 13.1444 30.52 12.5115C29.8871 11.8785 29.5315 11.0201 29.5315 10.125C29.5315 9.22988 29.8871 8.37144 30.52 7.7385C31.1529 7.10557 32.0114 6.74999 32.9065 6.74999Z" fill="#004FAC"/>
<path d="M43.0312 47.25C42.8075 47.25 42.5929 47.3389 42.4346 47.4971C42.2764 47.6554 42.1875 47.87 42.1875 48.0938V48.9375H22.7812C22.5575 48.9375 22.3429 49.0264 22.1846 49.1846C22.0264 49.3429 21.9375 49.5575 21.9375 49.7812C21.9375 50.005 22.0264 50.2196 22.1846 50.3779C22.3429 50.5361 22.5575 50.625 22.7812 50.625H43.0312C43.255 50.625 43.4696 50.5361 43.6279 50.3779C43.7861 50.2196 43.875 50.005 43.875 49.7812V48.0938C43.875 47.87 43.7861 47.6554 43.6279 47.4971C43.4696 47.3389 43.255 47.25 43.0312 47.25Z" fill="#004FAC"/>
<path d="M20.25 48.9375H19.4062C19.1825 48.9375 18.9679 49.0264 18.8096 49.1846C18.6514 49.3429 18.5625 49.5575 18.5625 49.7812C18.5625 50.005 18.6514 50.2196 18.8096 50.3779C18.9679 50.5361 19.1825 50.625 19.4062 50.625H20.25C20.4738 50.625 20.6884 50.5361 20.8466 50.3779C21.0049 50.2196 21.0938 50.005 21.0938 49.7812C21.0938 49.5575 21.0049 49.3429 20.8466 49.1846C20.6884 49.0264 20.4738 48.9375 20.25 48.9375Z" fill="#004FAC"/>
<path d="M42.1875 21.0938V22.7812C42.1875 23.005 42.2764 23.2196 42.4346 23.3779C42.5929 23.5361 42.8075 23.625 43.0312 23.625C43.255 23.625 43.4696 23.5361 43.6279 23.3779C43.7861 23.2196 43.875 23.005 43.875 22.7812V21.0938C43.875 20.87 43.7861 20.6554 43.6279 20.4971C43.4696 20.3389 43.255 20.25 43.0312 20.25C42.8075 20.25 42.5929 20.3389 42.4346 20.4971C42.2764 20.6554 42.1875 20.87 42.1875 21.0938Z" fill="#004FAC"/>
<path d="M9.28125 21.9375C9.50503 21.9375 9.71964 21.8486 9.87787 21.6903C10.0361 21.5321 10.125 21.3175 10.125 21.0937V11.8125H26.1562C26.38 11.8125 26.5946 11.7236 26.7529 11.5653C26.9111 11.4071 27 11.1925 27 10.9687C27 10.7449 26.9111 10.5303 26.7529 10.3721C26.5946 10.2139 26.38 10.125 26.1562 10.125H9.28125C9.05747 10.125 8.84286 10.2139 8.68463 10.3721C8.5264 10.5303 8.4375 10.7449 8.4375 10.9687V21.0937C8.4375 21.3175 8.5264 21.5321 8.68463 21.6903C8.84286 21.8486 9.05747 21.9375 9.28125 21.9375Z" fill="#004FAC"/>
<path d="M9.28125 25.3125C9.50503 25.3125 9.71964 25.2236 9.87787 25.0654C10.0361 24.9071 10.125 24.6925 10.125 24.4688V23.625C10.125 23.4012 10.0361 23.1866 9.87787 23.0284C9.71964 22.8701 9.50503 22.7812 9.28125 22.7812C9.05747 22.7812 8.84286 22.8701 8.68463 23.0284C8.5264 23.1866 8.4375 23.4012 8.4375 23.625V24.4688C8.4375 24.6925 8.5264 24.9071 8.68463 25.0654C8.84286 25.2236 9.05747 25.3125 9.28125 25.3125Z" fill="#004FAC"/>
</svg>
