<svg width="57" height="57" viewBox="0 0 57 57" fill="none" xmlns="http://www.w3.org/2000/svg">
<g clip-path="url(#clip0)">
<path d="M56.992 44.4783C56.9877 44.3545 56.9833 44.23 56.979 44.1051C56.9745 43.9802 56.9699 43.8549 56.9653 43.729L56.9617 43.6348L56.9599 43.5876L56.9594 43.5758L56.9582 43.4702L56.9578 43.4652L56.9563 43.4457L56.9443 43.2893C56.928 43.0805 56.9118 42.8709 56.8955 42.6612L56.8831 42.5025L56.8644 42.2967C56.8514 42.1599 56.8385 42.0231 56.8256 41.8866C56.8122 41.7503 56.7988 41.6142 56.7855 41.4786C56.7786 41.4109 56.7717 41.3433 56.7649 41.2758C56.7566 41.2133 56.7483 41.151 56.74 41.0886C56.6717 40.5941 56.6107 40.1081 56.5236 39.6409C56.4824 39.4071 56.4444 39.1773 56.4017 38.9532C56.3551 38.7297 56.3095 38.5112 56.2651 38.2984C56.181 37.8725 56.0753 37.4748 55.9863 37.1071C55.9635 37.0154 55.9411 36.9254 55.9194 36.8376C55.8951 36.7502 55.8714 36.665 55.8483 36.5818C55.8013 36.4158 55.7569 36.2583 55.715 36.1105C55.6724 35.9628 55.6348 35.8242 55.5956 35.6971C55.5552 35.5705 55.5181 35.4541 55.4845 35.3489C55.4348 35.1945 55.3929 35.0644 55.3598 34.9616C55.3109 34.8099 55.1506 34.7246 54.9972 34.7683L45.3605 37.5145C45.2136 37.5563 45.1226 37.7026 45.1506 37.8527C45.161 37.9088 45.173 37.973 45.1863 38.0448C45.2 38.1171 45.2153 38.1972 45.2318 38.2844C45.2475 38.3718 45.2598 38.4676 45.2756 38.5688C45.291 38.6702 45.3075 38.7781 45.3248 38.8918C45.3333 38.9486 45.3433 39.0065 45.3512 39.0664C45.358 39.1264 45.365 39.1879 45.3722 39.2506C45.399 39.5016 45.4391 39.7708 45.4569 40.0594C45.4688 40.203 45.481 40.3505 45.4935 40.5011C45.5028 40.6521 45.5075 40.8069 45.5156 40.9636C45.5364 41.2764 45.5325 41.6021 45.5385 41.9305L45.5399 42.0528L45.5355 42.1611C45.5331 42.2333 45.5306 42.3056 45.5281 42.3782C45.5262 42.4503 45.5242 42.5228 45.5222 42.5953L45.5199 42.7037L45.5133 42.8598C45.5045 43.07 45.4954 43.28 45.4865 43.4892L45.4798 43.646L45.4789 43.6656L45.4787 43.6704C45.4788 43.694 45.4769 43.4837 45.4775 43.5745L45.4767 43.5822L45.4739 43.6132L45.4682 43.6751C45.4607 43.7574 45.4533 43.8393 45.4459 43.9212C45.4388 44.0027 45.4316 44.0841 45.4246 44.1649C45.415 44.2454 45.4055 44.3256 45.3959 44.4051C45.3754 44.5641 45.3628 44.7216 45.3375 44.8751C45.3153 45.0286 45.2934 45.1794 45.2721 45.3272C45.2465 45.4739 45.2216 45.6174 45.1973 45.7571C45.1754 45.8969 45.146 46.0316 45.1198 46.1619C45.0924 46.292 45.0707 46.4183 45.0423 46.5381C45.0146 46.658 44.9881 46.7727 44.9628 46.8819C44.9504 46.9358 44.9382 46.9883 44.9265 47.0394C44.9144 47.0832 44.9027 47.1257 44.8912 47.1669C44.8845 47.1921 44.8781 47.2158 44.8716 47.2402H56.6579C56.8159 47.2402 56.9475 47.1162 56.9535 46.9584C56.9535 46.9574 56.9535 46.9565 56.9536 46.9556C56.9634 46.7361 56.9734 46.5107 56.9838 46.2803C56.9881 46.0502 56.9926 45.815 56.9972 45.5758C57.0039 45.3369 56.9966 45.0941 56.996 44.8485C56.9946 44.7258 56.9934 44.6024 56.992 44.4783Z" fill="#57A4FF"/>
<path d="M53.9275 32.1077C54.0856 32.044 54.1577 31.8609 54.0848 31.7069C54.0524 31.6384 54.0146 31.5584 53.9717 31.4678C53.9312 31.3828 53.8864 31.2886 53.8378 31.186C53.7749 31.0578 53.7068 30.9192 53.634 30.7711C53.5607 30.6235 53.4828 30.4665 53.4005 30.301C53.3588 30.215 53.3178 30.144 53.2749 30.0632C53.2322 29.9843 53.1884 29.9035 53.1437 29.821C53.0539 29.6564 52.962 29.4842 52.8635 29.308C52.7616 29.1336 52.6564 28.9532 52.5482 28.7678C52.494 28.6754 52.439 28.5816 52.3833 28.4868C52.325 28.3935 52.266 28.299 52.2065 28.2034C52.0866 28.0132 51.9642 27.8187 51.8397 27.6211C51.5771 27.2341 51.3157 26.8293 51.0239 26.4354C50.9523 26.3362 50.8802 26.2367 50.808 26.1369L50.6994 25.9872L50.5864 25.84C50.4352 25.6443 50.2834 25.4478 50.1316 25.2513C49.9771 25.0571 49.8173 24.867 49.6606 24.6761C49.5814 24.5813 49.5047 24.4851 49.4238 24.3925C49.3428 24.3001 49.262 24.208 49.1814 24.1163C49.1009 24.0249 49.0206 23.9337 48.9408 23.8431C48.8614 23.752 48.7814 23.6626 48.6988 23.5761C48.5354 23.402 48.374 23.2301 48.2152 23.061C48.0562 22.8924 47.8916 22.7339 47.7349 22.5755C47.5771 22.4179 47.4237 22.2632 47.2671 22.1195C47.1123 21.9745 46.9616 21.8335 46.8159 21.6971C46.6708 21.5604 46.5227 21.4362 46.3847 21.3132C46.2455 21.1915 46.1122 21.0749 45.9853 20.964C45.8552 20.8568 45.7318 20.7552 45.6159 20.6596C45.4999 20.5645 45.3913 20.4754 45.2909 20.3931C45.1904 20.3111 45.0942 20.24 45.0094 20.1737C44.8859 20.079 44.7817 19.9989 44.6988 19.9353C44.5725 19.8384 44.3924 19.8591 44.2909 19.9819L39.1187 26.2426C39.0212 26.3607 39.0295 26.5333 39.1383 26.641C39.1816 26.6838 39.2315 26.7332 39.2876 26.7888C39.3415 26.8429 39.4031 26.9001 39.4664 26.967C39.5296 27.0337 39.5979 27.106 39.6709 27.1832C39.7441 27.26 39.8218 27.3417 39.9037 27.4279C39.9827 27.5168 40.0658 27.6105 40.1525 27.7081C40.2382 27.8066 40.3318 27.9044 40.4208 28.0135C40.5106 28.1215 40.6034 28.2331 40.699 28.3478C40.7962 28.4605 40.889 28.5829 40.9852 28.7065C41.0803 28.8309 41.1819 28.9536 41.2774 29.0852C41.373 29.2163 41.4701 29.3497 41.5685 29.4847C41.6186 29.5511 41.6662 29.6204 41.7131 29.6907C41.7605 29.7605 41.8081 29.8306 41.8559 29.9011C41.9038 29.9711 41.952 30.0416 42.0002 30.1123C42.0483 30.1829 42.0924 30.2569 42.1389 30.3292C42.2302 30.4751 42.3249 30.6188 42.4147 30.7658C42.5021 30.9142 42.5897 31.0626 42.6768 31.2104L42.7422 31.3207L42.8035 31.4333C42.8444 31.508 42.8851 31.5827 42.9257 31.6569C43.0934 31.9502 43.235 32.2527 43.3831 32.5369C43.4509 32.6825 43.5176 32.8257 43.5829 32.966C43.6155 33.0358 43.6478 33.1049 43.6797 33.1732C43.7093 33.2426 43.7384 33.3112 43.7672 33.379C43.8251 33.5137 43.8814 33.645 43.936 33.7718C43.9863 33.9004 44.0349 34.0246 44.0816 34.1437C44.105 34.2032 44.1278 34.2615 44.1501 34.3184C44.1712 34.374 44.1974 34.4341 44.2114 34.4804C44.2447 34.5775 44.2762 34.6697 44.3059 34.7564C44.3361 34.8424 44.3645 34.9229 44.3906 34.9973C44.425 35.1 44.4566 35.1941 44.4851 35.2792C44.5168 35.3742 44.5448 35.4582 44.5688 35.5302C44.6227 35.6918 44.8016 35.7742 44.9597 35.7107L53.9275 32.1077Z" fill="#57A4FF"/>
<path d="M27.5884 20.9249C27.6667 20.9356 27.7534 20.9474 27.8478 20.9603C27.9416 20.9766 28.0432 20.9943 28.1516 21.0132C28.2598 21.0318 28.375 21.0515 28.4964 21.0724C28.6019 21.0899 28.7111 21.1154 28.8247 21.1391L32.089 14.4622C31.9271 14.437 31.7666 14.4119 31.6094 14.3874C31.5016 14.3713 31.3955 14.3529 31.2899 14.3397C31.1842 14.3269 31.0798 14.3143 30.9768 14.3018C30.7711 14.2774 30.571 14.2536 30.3775 14.2306C30.1834 14.214 29.9959 14.1979 29.816 14.1825C29.636 14.1687 29.4643 14.1505 29.3 14.1427C29.1359 14.1346 28.9803 14.127 28.8341 14.1198C28.688 14.1129 28.5513 14.1064 28.425 14.1004C28.2986 14.0984 28.1824 14.0965 28.0775 14.0949C27.9299 14.0931 27.8046 14.0916 27.7042 14.0904C27.5449 14.0884 27.413 14.2129 27.4054 14.3721L27.1078 20.5867C27.1004 20.7398 27.2109 20.8731 27.3628 20.8939C27.4274 20.9028 27.5029 20.9132 27.5884 20.9249Z" fill="#57A4FF"/>
<path d="M36.3618 24.3468C36.4496 24.4106 36.5327 24.471 36.6108 24.528C36.6891 24.584 36.7623 24.6365 36.8301 24.685C36.8594 24.7052 36.9078 24.7419 36.9474 24.7713C36.9881 24.8017 37.0269 24.8307 37.0637 24.8582C37.1441 24.9181 37.215 24.971 37.2757 25.0163C37.4123 25.1182 37.6061 25.0838 37.6996 24.9413L41.9614 18.4496C42.055 18.3071 42.0096 18.1156 41.8617 18.0308C41.796 17.9931 41.7192 17.9491 41.6324 17.8992C41.5925 17.8763 41.5505 17.8522 41.5063 17.8269C41.4582 17.7997 41.408 17.7713 41.3556 17.7416C41.2344 17.6748 41.1032 17.6026 40.9631 17.5254C40.823 17.449 40.6737 17.3678 40.5165 17.282C40.3667 17.207 40.2093 17.1281 40.0449 17.0457C39.8799 16.9652 39.7116 16.8756 39.531 16.7943C39.3513 16.712 39.1656 16.6268 38.9747 16.5393C38.785 16.4498 38.5848 16.3685 38.3817 16.2832C38.1777 16.1996 37.9724 16.1083 37.758 16.0277C37.7037 16.0072 37.6486 15.9863 37.5939 15.9656L35.7554 23.9454C35.857 24.0093 35.9528 24.077 36.0471 24.138C36.1569 24.2108 36.2619 24.2805 36.3618 24.3468Z" fill="#57A4FF"/>
<path d="M21.8662 20.8923C21.9485 20.8815 22.0293 20.868 22.11 20.8595C22.1907 20.8513 22.2705 20.8432 22.3491 20.8352C22.506 20.8189 22.6585 20.8031 22.8062 20.7877C22.9543 20.7778 23.0974 20.7682 23.2347 20.759C23.3032 20.7543 23.3703 20.7498 23.4359 20.7453C23.5013 20.7409 23.5668 20.7353 23.623 20.7352C23.7387 20.7322 23.8486 20.7294 23.9517 20.7267C24.0546 20.7234 24.1507 20.7204 24.2397 20.7175C24.3495 20.7168 24.4503 20.7162 24.5412 20.7156C24.6414 20.715 24.73 20.7145 24.8057 20.7141C24.9761 20.7132 25.11 20.5689 25.0989 20.3989L24.7152 14.5447C24.704 14.3747 24.5524 14.2491 24.3834 14.2704C24.3082 14.2799 24.2205 14.291 24.121 14.3036C24.0289 14.3153 23.9268 14.3283 23.8157 14.3424C23.6844 14.3619 23.5425 14.3829 23.3907 14.4054C23.2395 14.4285 23.0784 14.453 22.9087 14.4789C22.8218 14.4911 22.7418 14.5074 22.6579 14.5232C22.5742 14.5392 22.4886 14.5556 22.4011 14.5722C22.2266 14.606 22.0449 14.6411 21.8566 14.6775C21.6698 14.72 21.4766 14.7641 21.2781 14.8092C21.179 14.832 21.0786 14.8551 20.9769 14.8785C20.8754 14.9022 20.7736 14.9313 20.6703 14.958C20.4642 15.0129 20.2538 15.069 20.0397 15.126C19.8278 15.1899 19.6123 15.2548 19.3943 15.3206C19.2856 15.3542 19.1757 15.386 19.0665 15.4219C18.9578 15.459 18.8483 15.4963 18.7385 15.5338C18.6289 15.5714 18.5188 15.609 18.4085 15.6469C18.2981 15.6845 18.1875 15.7222 18.0784 15.7652C17.8597 15.8487 17.6402 15.9325 17.4207 16.0163C17.2021 16.1019 16.9871 16.1967 16.7716 16.2864C16.6642 16.3322 16.5565 16.3763 16.4504 16.4233C16.345 16.4719 16.2399 16.5204 16.1352 16.5688C16.0308 16.6172 15.9267 16.6654 15.8232 16.7133C15.7197 16.7612 15.6166 16.8084 15.5164 16.8604C15.3153 16.9619 15.1166 17.0622 14.9213 17.1609C14.7258 17.2588 14.5396 17.367 14.3546 17.4665C14.1705 17.5679 13.9894 17.6646 13.8186 17.7688C13.6468 17.8707 13.4797 17.9699 13.3181 18.0658C13.1559 18.1603 13.0056 18.2625 12.8582 18.3547C12.7119 18.4485 12.5717 18.5385 12.4383 18.624C12.3078 18.7135 12.1839 18.7985 12.0676 18.8784C11.9516 18.9583 11.843 19.033 11.7425 19.1022C11.6422 19.1714 11.5535 19.24 11.4717 19.2993C11.3609 19.3811 11.2662 19.4509 11.1897 19.5075C11.0618 19.6018 11.0318 19.7801 11.1212 19.9116L13.5521 23.4855C13.6386 23.6127 13.8078 23.6526 13.9418 23.577C14.0035 23.5422 14.0765 23.5009 14.1597 23.454C14.2322 23.4139 14.3107 23.3665 14.3993 23.3203C14.4879 23.2741 14.5836 23.2243 14.6859 23.1711C14.7879 23.1177 14.8965 23.061 15.011 23.0011C15.1274 22.9453 15.2497 22.8867 15.3774 22.8255C15.5056 22.7657 15.6358 22.6972 15.7761 22.6375C15.9154 22.5764 16.0594 22.5132 16.2075 22.4482C16.354 22.3807 16.5093 22.3218 16.6664 22.2588C16.8243 22.1976 16.9825 22.1283 17.1481 22.0698C17.3131 22.0104 17.4808 21.9499 17.6506 21.8887C17.7348 21.8568 17.8214 21.8297 17.9082 21.802C17.9949 21.7741 18.082 21.7461 18.1694 21.7179C18.2566 21.6897 18.3442 21.6614 18.4321 21.633C18.5204 21.6061 18.61 21.5821 18.699 21.5565C18.8777 21.507 19.0552 21.4522 19.2352 21.4062C19.4154 21.3616 19.5955 21.3171 19.7749 21.2727C19.8639 21.249 19.9543 21.2305 20.0442 21.2119C20.134 21.193 20.2235 21.1742 20.3127 21.1554C20.4016 21.1365 20.4903 21.1177 20.5785 21.099C20.6668 21.0814 20.7557 21.0678 20.8434 21.052C21.0187 21.0216 21.1918 20.9914 21.3622 20.9619C21.5332 20.9383 21.7014 20.9151 21.8662 20.8923Z" fill="#57A4FF"/>
<path d="M5.29066 25.5131C5.22694 25.6033 5.16298 25.6938 5.09872 25.7847C5.03464 25.8755 4.97032 25.9667 4.90576 26.0582C4.8415 26.1499 4.78138 26.2449 4.71886 26.3384C4.59562 26.5266 4.4695 26.7134 4.34878 26.9037C4.23088 27.0956 4.11298 27.2876 3.99556 27.4788L3.90796 27.622L3.8248 27.7675C3.76954 27.8642 3.71446 27.9607 3.65956 28.0568C3.43516 28.438 3.24022 28.8276 3.0421 29.1977C2.94988 29.3864 2.85916 29.572 2.77036 29.7536C2.72632 29.8444 2.6827 29.9342 2.63968 30.0229C2.59918 30.1128 2.55922 30.2017 2.51974 30.2894C2.44114 30.4645 2.3647 30.6349 2.29072 30.7996C2.22172 30.9665 2.155 31.1276 2.09098 31.2823C2.02822 31.4375 1.9648 31.5843 1.91074 31.7268C1.8574 31.8694 1.80676 32.0048 1.75912 32.1319C1.71172 32.2589 1.66738 32.3778 1.6264 32.4877C1.58854 32.5987 1.5538 32.7007 1.52236 32.7928C1.48156 32.9138 1.44652 33.0178 1.4179 33.1028C1.3672 33.2532 1.4443 33.4163 1.5925 33.4732L3.8551 34.3406C3.9991 34.3958 4.16128 34.3313 4.22782 34.1922C4.26082 34.1233 4.30024 34.0408 4.34554 33.9461C4.3831 33.868 4.42462 33.7816 4.46992 33.6874C4.51804 33.5946 4.57006 33.4944 4.62568 33.3872C4.68112 33.2803 4.74004 33.1664 4.8022 33.0464C4.86484 32.9267 4.93696 32.804 5.00854 32.6744C5.08102 32.5456 5.15656 32.4112 5.23474 32.2721C5.31712 32.1358 5.40226 31.9946 5.48986 31.8496C5.53347 31.7771 5.57769 31.7038 5.62246 31.6295C5.66955 31.5566 5.71725 31.4829 5.76543 31.4082C5.86179 31.2594 5.96025 31.1075 6.06039 30.9528C6.27315 30.6516 6.48123 30.3344 6.71637 30.0284C6.77379 29.9511 6.83145 29.8735 6.88929 29.7957L6.97599 29.6789L7.06683 29.5646C7.18779 29.4123 7.30923 29.2595 7.43067 29.1067C7.55433 28.9557 7.68267 28.8086 7.80741 28.6603C7.87065 28.5867 7.93137 28.5116 7.99611 28.44C8.06091 28.3685 8.12547 28.2973 8.18979 28.2263C8.25399 28.1554 8.31789 28.0847 8.38149 28.0144C8.44449 27.9437 8.50809 27.8743 8.57415 27.8078C8.70411 27.6732 8.83251 27.5402 8.95881 27.4094C9.08487 27.2788 9.21645 27.1576 9.34065 27.035C9.46581 26.9134 9.58689 26.7934 9.71157 26.6834C9.83421 26.5718 9.95349 26.4633 10.0689 26.3582C10.1834 26.2526 10.3014 26.1583 10.4103 26.0636C10.52 25.9702 10.6251 25.8806 10.7251 25.7955C10.8232 25.7178 10.9164 25.6441 11.0038 25.5748C11.0908 25.5055 11.1723 25.4407 11.2476 25.3807C11.2821 25.3521 11.3289 25.3179 11.3685 25.2878C11.409 25.2572 11.4477 25.228 11.4844 25.2004C11.5644 25.1399 11.635 25.0867 11.6955 25.0411C11.8315 24.9384 11.8526 24.7427 11.742 24.6131L9.16587 21.5952C9.05523 21.4656 8.85861 21.4557 8.73591 21.5739C8.68137 21.6264 8.61759 21.6878 8.54547 21.7573C8.51235 21.7892 8.47743 21.8229 8.44083 21.8581C8.40357 21.8943 8.36811 21.9272 8.32191 21.9744C8.23359 22.0635 8.13813 22.1599 8.03607 22.2629C7.93455 22.3659 7.82649 22.4755 7.71255 22.5911C7.60665 22.7058 7.49529 22.8264 7.37913 22.9522C7.26441 23.079 7.14069 23.2068 7.02099 23.3468C6.90081 23.4861 6.77661 23.6302 6.64887 23.7782C6.51957 23.9245 6.39447 24.0816 6.26577 24.241C6.13803 24.4013 6.00339 24.5612 5.87493 24.7306C5.74683 24.9001 5.61663 25.0723 5.48488 25.2468C5.41792 25.3333 5.3539 25.4225 5.29066 25.5131Z" fill="#57A4FF"/>
<path d="M0.609299 36.0942C0.594239 36.1683 0.576599 36.2552 0.556619 36.3534C0.538319 36.4435 0.518039 36.5433 0.495959 36.652C0.474299 36.7631 0.453119 36.8943 0.429479 37.0283C0.406199 37.1635 0.381479 37.3074 0.355439 37.4591C0.342839 37.5347 0.328439 37.6128 0.316499 37.6916C0.305879 37.7699 0.295079 37.8499 0.283979 37.9316C0.241739 38.2587 0.18612 38.6108 0.15408 38.9868C0.13548 39.1742 0.1164 39.3666 0.0968998 39.5634C0.0808198 39.7604 0.0700799 39.9621 0.0562199 40.1666C0.0238199 40.5752 0.01788 40.9991 0.00437999 41.4278L0 41.589L0.000779998 41.7508C0.00138 41.8588 0.00198 41.9671 0.00257999 42.0756C0.00323999 42.184 0.00389999 42.2926 0.00449999 42.4013L0.00551999 42.5643L0.01176 42.7275C0.02058 42.9445 0.0293999 43.1616 0.0382199 43.3779L0.0448799 43.5396L0.0469199 43.5919L0.0497999 43.6309L0.0555599 43.7089C0.0632399 43.8128 0.0708598 43.9164 0.0784798 44.0197C0.0860998 44.1229 0.0937198 44.2257 0.10122 44.328C0.1116 44.4346 0.12186 44.541 0.13218 44.6466C0.14256 44.752 0.15288 44.8568 0.16314 44.961C0.1683 45.0129 0.17346 45.0647 0.17862 45.1162C0.18504 45.167 0.19146 45.2176 0.19782 45.268C0.22338 45.469 0.248519 45.6667 0.273119 45.8602C0.302819 46.0529 0.331859 46.2415 0.360059 46.425C0.386459 46.6084 0.420479 46.7858 0.451739 46.9573C0.454319 46.9711 0.456899 46.9846 0.459419 46.9983C0.485519 47.1385 0.607559 47.2401 0.750178 47.2401H1.54764C1.71792 47.2401 1.85304 47.0968 1.84302 46.9269C1.84032 46.8815 1.83756 46.8357 1.8345 46.7894C1.82454 46.624 1.81254 46.4535 1.8087 46.2775C1.80294 46.1019 1.79706 45.9214 1.791 45.7369C1.78986 45.5526 1.78872 45.3643 1.78758 45.1727C1.78728 45.1249 1.78698 45.0768 1.78668 45.0287C1.7877 44.9812 1.78878 44.9335 1.78986 44.8856C1.79196 44.7901 1.79406 44.6938 1.79622 44.5969C1.79832 44.5002 1.80048 44.4028 1.80264 44.305C1.80744 44.2026 1.81218 44.0995 1.81704 43.9962C1.82184 43.8928 1.8267 43.789 1.8315 43.6849L1.83516 43.6068L1.83696 43.5676L1.8372 43.5627C1.8372 43.5503 1.83744 43.5742 1.83756 43.5701L1.83828 43.5606L1.83978 43.5418L1.8519 43.3904C1.86798 43.1885 1.88412 42.986 1.90032 42.7834L1.91268 42.6318L1.93014 42.4805C1.94178 42.3798 1.95336 42.2793 1.96494 42.1789C1.97646 42.0786 1.98798 41.9785 1.99944 41.8788L2.01654 41.7295L2.03868 41.5812C2.0994 41.187 2.151 40.7993 2.2266 40.428C2.26206 40.242 2.2938 40.059 2.33022 39.8808C2.36988 39.7034 2.40863 39.5298 2.44637 39.3609C2.51621 39.0224 2.60675 38.7078 2.68043 38.4161C2.69933 38.3433 2.71781 38.272 2.73587 38.2024C2.75495 38.1338 2.77553 38.0689 2.79449 38.0046C2.83271 37.8766 2.86901 37.7552 2.90309 37.641C2.93795 37.526 2.96657 37.4231 2.99993 37.3198C3.03491 37.2144 3.06695 37.1179 3.09599 37.0306C3.12755 36.9354 3.15545 36.8514 3.17933 36.7794C3.23303 36.6179 3.13925 36.4446 2.97461 36.4008L0.975478 35.8677C0.810778 35.8237 0.643259 35.9272 0.609299 36.0942Z" fill="#57A4FF"/>
<path d="M22.4163 46.1109C22.7861 46.7333 23.2799 47.2369 23.8473 47.6086C25.2715 48.5416 27.1602 48.6447 28.7225 47.7164C29.0233 47.5377 29.313 47.3127 29.5568 47.0817L44.5211 32.7327L50.22 27.2681L53.7503 23.8829C54.1612 23.489 53.9992 22.9311 53.6289 22.6885C53.4121 22.5465 53.1239 22.5126 52.8374 22.6827L48.4633 25.2818L42.0106 29.1159L24.0217 39.8047C21.8369 41.1028 21.1182 43.9263 22.4163 46.1109ZM27.812 41.8678C28.8538 42.5503 29.1452 43.9482 28.4626 44.9902C27.7802 46.032 26.3822 46.3234 25.3403 45.6409C24.2984 44.9583 24.0071 43.5603 24.6896 42.5185C25.3722 41.4765 26.7701 41.1853 27.812 41.8678Z" fill="#004FAC"/>
<path d="M32 14.5C35.159 15.1512 35.9056 15.0967 37.5 16L36 24C33.4578 22.4452 31.7728 21.8232 28.5 21L32 14.5Z" fill="#57A4FF"/>
</g>
<defs>
<clipPath id="clip0">
<rect width="57" height="57" fill="white"/>
</clipPath>
</defs>
</svg>
