<svg width="28" height="28" viewBox="0 0 28 28" fill="none" xmlns="http://www.w3.org/2000/svg">
<g clip-path="url(#clip0)">
<path d="M16.4356 1.48383C12.5469 1.48383 9.12359 3.23393 7.12695 5.88688L20.8193 20.3155C24.8008 18.8177 27.5907 15.3421 27.5907 11.2931C27.5908 5.87556 22.5964 1.48383 16.4356 1.48383Z" fill="white"/>
<path d="M22.6906 14.8793C22.6906 9.46901 17.7029 5.08313 11.5504 5.08313C5.39782 5.08313 0.410156 9.46901 0.410156 14.8793C0.410156 19.2208 3.62217 22.902 8.07034 24.1873L7.40157 26.2367C7.34759 26.4021 7.50427 26.5587 7.66959 26.5047L14.0127 24.4348C18.9804 23.4492 22.6906 19.5455 22.6906 14.8793Z" fill="#57A4FF"/>
<path d="M16.4356 1.48383C12.5469 1.48383 9.12359 3.23393 7.12695 5.88688C14.4499 3.09705 22.6916 7.82238 22.6916 14.8793C22.6916 16.8907 22.0017 18.7602 20.8193 20.3155C24.8008 18.8177 27.5907 15.3421 27.5907 11.2931C27.5908 5.87556 22.5964 1.48383 16.4356 1.48383Z" fill="white"/>
<path d="M11.5513 16.3211C12.3121 16.3211 12.9288 15.7044 12.9288 14.9436C12.9288 14.1829 12.3121 13.5662 11.5513 13.5662C10.7905 13.5662 10.1738 14.1829 10.1738 14.9436C10.1738 15.7044 10.7905 16.3211 11.5513 16.3211Z" fill="white"/>
<path d="M5.94973 16.3211C6.71049 16.3211 7.3272 15.7044 7.3272 14.9436C7.3272 14.1829 6.71049 13.5662 5.94973 13.5662C5.18898 13.5662 4.57227 14.1829 4.57227 14.9436C4.57227 15.7044 5.18898 16.3211 5.94973 16.3211Z" fill="white"/>
<path d="M17.1509 16.3211C17.9117 16.3211 18.5284 15.7044 18.5284 14.9436C18.5284 14.1829 17.9117 13.5662 17.1509 13.5662C16.3902 13.5662 15.7734 14.1829 15.7734 14.9436C15.7734 15.7044 16.3902 16.3211 17.1509 16.3211Z" fill="white"/>
<path d="M14.5515 5.44318C18.2666 7.03136 20.8274 10.3817 20.8274 14.2583C20.8274 18.9244 17.1171 22.8282 12.1495 23.8138L7.72051 25.259L7.40147 26.2367C7.34749 26.402 7.50417 26.5587 7.66949 26.5047L14.0126 24.4348C18.9803 23.4492 22.6906 19.5454 22.6906 14.8793C22.6906 10.3834 19.2462 6.59533 14.5515 5.44318Z" fill="#57A4FF"/>
<path d="M26.1192 5.704C24.0288 2.88229 20.4472 1.07361 16.4345 1.07361C16.2078 1.07361 16.0238 1.25763 16.0238 1.48437C16.0238 1.7111 16.2078 1.89512 16.4345 1.89512C20.2584 1.89512 23.5732 3.6437 25.4587 6.19247L25.463 6.19794C26.5847 7.71623 27.1779 9.4782 27.1785 11.2933C27.1774 14.773 25.0229 17.7576 21.9243 19.3721C22.7851 17.8232 23.1832 16.1075 23.0868 14.3668C22.7855 8.79565 17.5203 4.66286 11.5417 4.66286C10.483 4.66286 9.42703 4.79427 8.40175 5.05393C10.0148 3.46662 12.2106 2.39366 14.5865 2.03387C14.8105 1.99991 14.965 1.79012 14.9311 1.56612C14.8973 1.34251 14.6868 1.18714 14.4633 1.22159C12.1622 1.57137 9.99633 2.5377 8.27854 4.04724C7.75934 4.5035 7.28848 5.00586 6.87537 5.54015C5.59765 6.03983 4.4217 6.74782 3.40227 7.64426C1.20827 9.57347 0 12.1429 0 14.8792C0 16.7569 0.581602 18.5921 1.68197 20.1865C1.81087 20.3733 2.06664 20.4201 2.2534 20.2913C2.4401 20.1624 2.48702 19.9066 2.35818 19.7199C1.35297 18.2633 0.821625 16.5894 0.821625 14.8792C0.821625 9.70444 5.63456 5.49438 11.5505 5.49438C17.1601 5.49438 21.9061 9.3265 22.2578 14.2931C22.5867 19.0079 18.8507 23.0556 13.9327 24.0314C13.8957 24.0387 14.2305 23.9312 7.91345 25.9925L8.46109 24.3142C8.53311 24.0935 8.40788 23.8567 8.18459 23.7922C6.49638 23.3043 4.9566 22.444 3.7316 21.3039C3.56557 21.1494 3.30564 21.1587 3.15104 21.3248C2.99649 21.4909 3.00584 21.7507 3.17188 21.9053C4.39146 23.0403 5.89816 23.9171 7.55043 24.4565L7.01132 26.1085C6.85202 26.5968 7.31593 27.0525 7.79729 26.8946L14.1169 24.8324C16.8094 24.2927 19.3677 22.8534 21.0735 20.6559C25.1577 19.073 28 15.4778 28 11.2934C28 9.29751 27.3499 7.36464 26.1192 5.704Z" fill="#004FAC"/>
<path d="M11.5499 16.7318C10.5639 16.7318 9.76172 15.9296 9.76172 14.9436C9.76172 13.9577 10.5639 13.1555 11.5499 13.1555C12.5359 13.1555 13.3381 13.9577 13.3381 14.9436C13.3381 15.9296 12.5359 16.7318 11.5499 16.7318ZM11.5499 13.977C11.0169 13.977 10.5833 14.4106 10.5833 14.9436C10.5833 15.4766 11.0169 15.9102 11.5499 15.9102C12.0829 15.9102 12.5165 15.4766 12.5165 14.9436C12.5165 14.4106 12.0829 13.977 11.5499 13.977Z" fill="#004FAC"/>
<path d="M5.95028 16.7318C4.96427 16.7318 4.16211 15.9296 4.16211 14.9436C4.16211 13.9577 4.96427 13.1555 5.95028 13.1555C6.9363 13.1555 7.73845 13.9577 7.73845 14.9436C7.73845 15.9296 6.9363 16.7318 5.95028 16.7318ZM5.95028 13.977C5.4173 13.977 4.98368 14.4106 4.98368 14.9436C4.98368 15.4766 5.4173 15.9102 5.95028 15.9102C6.48327 15.9102 6.91688 15.4766 6.91688 14.9436C6.91688 14.4106 6.48327 13.977 5.95028 13.977Z" fill="#004FAC"/>
<path d="M17.1515 16.7318C16.1654 16.7318 15.3633 15.9296 15.3633 14.9436C15.3633 13.9577 16.1654 13.1555 17.1515 13.1555C18.1375 13.1555 18.9396 13.9577 18.9396 14.9436C18.9396 15.9296 18.1375 16.7318 17.1515 16.7318ZM17.1515 13.977C16.6185 13.977 16.1849 14.4106 16.1849 14.9436C16.1849 15.4766 16.6185 15.9102 17.1515 15.9102C17.6844 15.9102 18.1181 15.4766 18.1181 14.9436C18.1181 14.4106 17.6844 13.977 17.1515 13.977Z" fill="#004FAC"/>
</g>
<defs>
<clipPath id="clip0">
<rect width="28" height="28" fill="white"/>
</clipPath>
</defs>
</svg>
