<svg width="29" height="29" viewBox="0 0 29 29" fill="none" xmlns="http://www.w3.org/2000/svg">
<path d="M28.0938 28.0938H0.90625L1.96826 23.9233C2.19484 23.1306 2.63335 22.4147 3.23657 21.8527C3.83979 21.2907 4.58488 20.9039 5.39162 20.7339L11.3281 19.4844C11.3277 19.6361 11.339 19.7876 11.3621 19.9375C11.5864 21.4022 12.9056 22.2031 14.5 22.2031C16.0944 22.2031 17.4136 21.4022 17.6379 19.9375C17.661 19.7876 17.6723 19.6361 17.6719 19.4844L23.6084 20.7339C24.4151 20.9039 25.1602 21.2907 25.7634 21.8527C26.3667 22.4147 26.8052 23.1306 27.0317 23.9233L28.0938 28.0938Z" fill="#57A4FF"/>
<path d="M20.3906 6.79688V8.98037C19.7399 8.85994 19.1196 8.61116 18.566 8.24853C18.0124 7.88591 17.5365 7.41669 17.1661 6.86824C16.057 7.95108 14.6475 8.67465 13.1211 8.94461C11.5948 9.21457 10.0226 9.0184 8.60938 8.38168V6.79688H20.3906Z" fill="#57A4FF"/>
<path d="M11.3621 19.9375H11.3281V19.4844C11.3277 19.6361 11.3391 19.7876 11.3621 19.9375Z" fill="#57A4FF"/>
<path d="M17.6727 19.4844V19.9375H17.6387C17.6617 19.7876 17.6731 19.6361 17.6727 19.4844Z" fill="#57A4FF"/>
<path d="M20.3906 7.70313V8.98037C19.7399 8.85994 19.1196 8.61116 18.566 8.24853C18.0124 7.88591 17.5365 7.41669 17.1661 6.86824C16.057 7.95108 14.6475 8.67465 13.1211 8.94461C11.5948 9.21458 10.0226 9.01841 8.60938 8.38168V6.79688C8.60938 5.23458 9.22999 3.73628 10.3347 2.63157C11.4394 1.52687 12.9377 0.90625 14.5 0.90625C16.0933 0.90625 17.2187 1.35938 18.5991 2.22711C19.652 2.79352 21.9641 4.2101 22.6562 3.17188C22.6562 3.17188 23.5625 6.34375 20.3906 7.70313Z" fill="#57A4FF"/>
<path d="M28.5327 27.9822L27.4707 23.8117C27.4695 23.8072 27.4684 23.8032 27.4673 23.7987C27.2192 22.9262 26.7372 22.1381 26.0735 21.5197C25.4098 20.9014 24.5897 20.4762 23.7018 20.2904L18.125 19.1168V17.8905C18.8376 17.3938 19.4407 16.7563 19.8972 16.0172C20.3536 15.2782 20.6536 14.4533 20.7786 13.5938H21.0703C21.4907 13.5933 21.8939 13.426 22.1912 13.1287C22.4885 12.8314 22.6557 12.4283 22.6562 12.0078V10.6484C22.6557 10.228 22.4885 9.82484 22.1912 9.52752C21.8939 9.2302 21.4907 9.06296 21.0703 9.0625H20.8437V7.99312C22.454 7.19902 22.9938 5.94387 23.1592 5.00646C23.2726 4.35578 23.2497 3.68862 23.0918 3.04727C23.0679 2.96417 23.0208 2.88963 22.956 2.83243C22.8911 2.77523 22.8113 2.73775 22.7259 2.72442C22.6404 2.71108 22.553 2.72245 22.4738 2.75717C22.3946 2.79189 22.327 2.84852 22.279 2.92039C21.8808 3.51795 19.8848 2.41742 19.1337 2.00338C19.0233 1.94221 18.9208 1.88557 18.8273 1.83516C17.4674 0.981582 16.2666 0.453125 14.5 0.453125C12.8181 0.454969 11.2056 1.12392 10.0163 2.3132C8.827 3.50249 8.15805 5.11497 8.15621 6.79688V9.0625H7.92964C7.50917 9.06296 7.10605 9.2302 6.80873 9.52752C6.51141 9.82484 6.34417 10.228 6.34371 10.6484V12.0078C6.34417 12.4283 6.51141 12.8314 6.80873 13.1287C7.10605 13.426 7.50917 13.5933 7.92964 13.5938H8.22134C8.34634 14.4533 8.64632 15.2782 9.10274 16.0172C9.55917 16.7563 10.1623 17.3938 10.875 17.8905V19.1168L5.29812 20.2904C4.41025 20.4762 3.59011 20.9014 2.92641 21.5197C2.26272 22.1381 1.78076 22.9262 1.53265 23.7987C1.53152 23.8032 1.53039 23.8072 1.52925 23.8117L0.467241 27.9822C0.450136 28.049 0.448554 28.1189 0.462617 28.1865C0.47668 28.2541 0.506015 28.3176 0.548378 28.3721C0.590741 28.4266 0.645009 28.4706 0.707029 28.5009C0.76905 28.5312 0.83718 28.547 0.906206 28.5469H28.0937C28.1627 28.547 28.2309 28.5312 28.2929 28.5009C28.3549 28.4706 28.4092 28.4266 28.4515 28.3721C28.4939 28.3176 28.5232 28.2541 28.5373 28.1865C28.5514 28.1189 28.5498 28.049 28.5327 27.9822ZM8.15621 12.6875H7.92964C7.74943 12.6874 7.57663 12.6157 7.4492 12.4883C7.32176 12.3608 7.25011 12.188 7.24996 12.0078V10.6484C7.25011 10.4682 7.32176 10.2954 7.4492 10.168C7.57663 10.0406 7.74943 9.9689 7.92964 9.96875H8.15621V12.6875ZM21.0703 9.96875C21.2505 9.9689 21.4233 10.0406 21.5507 10.168C21.6782 10.2954 21.7498 10.4682 21.75 10.6484V12.0078C21.7498 12.188 21.6782 12.3608 21.5507 12.4883C21.4233 12.6157 21.2505 12.6874 21.0703 12.6875H20.8437V9.96875H21.0703ZM9.06246 6.79688C9.06418 5.35529 9.63761 3.97324 10.657 2.95389C11.6763 1.93453 13.0584 1.3611 14.5 1.35938C16.0547 1.35938 17.1292 1.83799 18.3577 2.61057C18.3668 2.61623 18.3753 2.62133 18.3844 2.62643C18.479 2.67684 18.5832 2.73461 18.6959 2.79691C19.7171 3.35992 21.2787 4.22086 22.3186 3.93936C22.3764 4.83824 22.1736 6.44627 20.2122 7.28682C20.1307 7.32172 20.0612 7.37977 20.0124 7.45377C19.9635 7.52777 19.9375 7.61447 19.9375 7.70312V8.4015C18.961 8.0914 18.1172 7.46201 17.5416 6.61449C17.5044 6.55952 17.4556 6.51337 17.3986 6.47933C17.3417 6.44528 17.2779 6.42416 17.2119 6.41746C17.1459 6.41076 17.0792 6.41865 17.0166 6.44056C16.9539 6.46247 16.8969 6.49787 16.8494 6.54426C15.8407 7.52866 14.5674 8.19831 13.1848 8.47156C11.8021 8.74482 10.3698 8.60988 9.06246 8.08318V6.79688ZM9.06246 12.6875V9.05174C10.4175 9.52888 11.8744 9.64037 13.2862 9.37496C14.6981 9.10955 16.015 8.47663 17.1043 7.54C17.8367 8.42271 18.8276 9.0533 19.9375 9.34287V12.6875C19.9375 14.1296 19.3646 15.5127 18.3449 16.5324C17.3251 17.5521 15.9421 18.125 14.5 18.125C13.0578 18.125 11.6748 17.5521 10.6551 16.5324C9.63533 15.5127 9.06246 14.1296 9.06246 12.6875ZM17.2187 18.4184V19.4844C17.2187 20.3204 16.8528 20.8868 16.3294 21.2442C15.8061 21.6016 15.127 21.75 14.5 21.75C12.4932 21.75 11.7812 20.5294 11.7812 19.4844V18.4184C12.6308 18.8219 13.5595 19.0312 14.5 19.0312C15.4405 19.0312 16.3692 18.8219 17.2187 18.4184ZM23.5625 27.6406V25.8281C23.5625 25.7079 23.5147 25.5927 23.4297 25.5077C23.3448 25.4227 23.2295 25.375 23.1093 25.375C22.9892 25.375 22.8739 25.4227 22.7889 25.5077C22.7039 25.5927 22.6562 25.7079 22.6562 25.8281V27.6406H6.34371V25.8281C6.34371 25.7079 6.29597 25.5927 6.21099 25.5077C6.12601 25.4227 6.01076 25.375 5.89058 25.375C5.77041 25.375 5.65515 25.4227 5.57017 25.5077C5.4852 25.5927 5.43746 25.7079 5.43746 25.8281V27.6406H1.48904L2.40548 24.0417C2.6094 23.3291 3.00399 22.6858 3.54669 22.181C4.08939 21.6762 4.7596 21.3292 5.48503 21.1774L10.918 20.0338C11.0262 20.7524 11.4034 21.4031 11.9732 21.8542C12.6178 22.3713 13.515 22.6562 14.5 22.6562C15.4849 22.6562 16.3821 22.3713 17.0267 21.8542C17.5965 21.4031 17.9737 20.7524 18.0819 20.0338L23.5149 21.1774C24.2403 21.3292 24.9105 21.6762 25.4532 22.181C25.9959 22.6858 26.3905 23.3291 26.5944 24.0417L27.5109 27.6406H23.5625Z" fill="#004FAC"/>
<path d="M15.8594 15.4062C15.8594 15.2861 15.8116 15.1708 15.7267 15.0858C15.6417 15.0009 15.5264 14.9531 15.4062 14.9531H13.5938C13.4736 14.9531 13.3583 15.0009 13.2733 15.0858C13.1884 15.1708 13.1406 15.2861 13.1406 15.4062C13.1406 15.5264 13.1884 15.6417 13.2733 15.7267C13.3583 15.8116 13.4736 15.8594 13.5938 15.8594H15.4062C15.5264 15.8594 15.6417 15.8116 15.7267 15.7267C15.8116 15.6417 15.8594 15.5264 15.8594 15.4062Z" fill="#004FAC"/>
<path d="M11.7812 11.7812C12.2818 11.7812 12.6875 11.3755 12.6875 10.875C12.6875 10.3745 12.2818 9.96875 11.7812 9.96875C11.2807 9.96875 10.875 10.3745 10.875 10.875C10.875 11.3755 11.2807 11.7812 11.7812 11.7812Z" fill="#004FAC"/>
<path d="M17.2188 11.7812C17.7193 11.7812 18.125 11.3755 18.125 10.875C18.125 10.3745 17.7193 9.96875 17.2188 9.96875C16.7182 9.96875 16.3125 10.3745 16.3125 10.875C16.3125 11.3755 16.7182 11.7812 17.2188 11.7812Z" fill="#004FAC"/>
</svg>
