<svg width="34" height="34" viewBox="0 0 34 34" fill="none" xmlns="http://www.w3.org/2000/svg">
<circle cx="17" cy="17" r="17" fill="#037FC5"/>
<g clip-path="url(#clip0)">
<path d="M25.331 19.9986C25.8979 15.2272 25.0587 12.2149 23.545 10.8525L23.5458 10.8517C21.1028 8.52496 12.852 8.18058 9.92917 10.9562C8.61659 12.3139 8.15425 14.3065 8.10359 16.7733C8.05292 19.241 7.99275 23.8635 12.3002 25.1175H12.3042L12.3002 27.0325C12.3002 27.0325 12.2709 27.8084 12.7665 27.9643C13.3333 28.148 13.5898 27.7878 15.3529 25.682C18.301 25.9377 20.5652 25.3518 20.8225 25.2663C21.4178 25.0668 24.7864 24.6211 25.331 19.9986ZM15.6434 24.3345C15.6434 24.3345 13.7775 26.6613 13.1972 27.2653C13.0072 27.4616 12.799 27.4434 12.8021 27.0539C12.8021 26.7982 12.8164 23.8746 12.8164 23.8746C9.16442 22.828 9.37975 18.8918 9.41934 16.8327C9.45892 14.7728 9.83575 13.0858 10.9473 11.9497C13.5115 9.54542 20.7449 10.083 22.5879 11.8151C24.841 13.8125 24.039 19.4555 24.0438 19.6479C23.5807 23.5065 20.851 23.7511 20.3491 23.9181C20.1345 23.9894 18.1435 24.5016 15.6434 24.3345Z" fill="#E3F2FD"/>
<path d="M16.6758 12.4019C16.371 12.4019 16.371 12.8769 16.6758 12.8808C19.0405 12.899 20.988 14.5473 21.0094 17.5706C21.0094 17.8897 21.4764 17.8857 21.4725 17.5667H21.4717C21.4464 14.309 19.3199 12.4201 16.6758 12.4019Z" fill="#E3F2FD"/>
<path d="M19.7862 17.0695C19.7791 17.3846 20.2454 17.3996 20.2493 17.0806C20.2881 15.2843 19.1806 13.8047 17.0993 13.6487C16.7945 13.6265 16.7628 14.1055 17.0668 14.1277C18.8718 14.2646 19.8226 15.4964 19.7862 17.0695Z" fill="#E3F2FD"/>
<path d="M19.2875 19.1127C18.8964 18.8863 18.4982 19.0272 18.3335 19.2496L17.9891 19.6953C17.8142 19.9218 17.4872 19.8917 17.4872 19.8917C15.1011 19.2607 14.463 16.7638 14.463 16.7638C14.463 16.7638 14.4338 16.4258 14.6523 16.2445L15.0829 15.8882C15.2983 15.7172 15.4344 15.3055 15.2151 14.901C14.6293 13.8425 14.2358 13.4776 14.0355 13.1973C13.825 12.9337 13.5083 12.8743 13.179 13.0525H13.1718C12.487 13.453 11.7373 14.2028 11.9772 14.9746C12.3865 15.7885 13.1386 18.3828 15.5358 20.3429C16.6623 21.27 18.4451 22.22 19.202 22.4393L19.2091 22.4503C19.9548 22.6989 20.68 21.9199 21.0671 21.2145V21.209C21.2389 20.8678 21.1819 20.5448 20.931 20.3334C20.486 19.8996 19.8147 19.4206 19.2875 19.1127Z" fill="#E3F2FD"/>
<path d="M17.4255 15.4155C18.1863 15.4598 18.5552 15.8573 18.5948 16.6735C18.609 16.9925 19.0722 16.9703 19.0579 16.6513C19.0073 15.5857 18.4515 14.992 17.4508 14.9365C17.146 14.9183 17.1175 15.3973 17.4255 15.4155Z" fill="#E3F2FD"/>
</g>
<defs>
<clipPath id="clip0">
<rect width="19" height="19" fill="white" transform="translate(7 9)"/>
</clipPath>
</defs>
</svg>
