<svg width="590" height="586" viewBox="0 0 590 586" fill="none" xmlns="http://www.w3.org/2000/svg">
<circle cx="292.633" cy="280.883" r="93.6278" fill="white" fill-opacity="0.4"/>
<circle cx="292.633" cy="280.883" r="76.7381" fill="white" fill-opacity="0.4"/>
<circle cx="292.633" cy="280.883" r="56.911" fill="white"/>
<path d="M313.351 288.15H277.926C277.549 288.15 277.243 288.455 277.243 288.833C277.243 289.21 277.549 289.516 277.926 289.516H313.351C314.61 289.516 315.634 290.54 315.634 291.798V298.897C315.634 300.156 314.61 301.18 313.351 301.18H272.195C271.187 301.18 270.366 300.359 270.366 299.351V291.345C270.366 290.336 271.187 289.516 272.195 289.516H274.646C275.023 289.516 275.329 289.21 275.329 288.833C275.329 288.455 275.023 288.15 274.646 288.15H272.195C270.433 288.15 269 289.583 269 291.345V299.351C269 301.112 270.433 302.546 272.195 302.546H313.351C315.363 302.546 317 300.909 317 298.897V291.798C317 289.786 315.363 288.15 313.351 288.15Z" fill="#037FC5"/>
<path d="M278.003 291.663C275.971 291.663 274.318 293.316 274.318 295.348C274.318 297.38 275.971 299.033 278.003 299.033C280.035 299.033 281.688 297.38 281.688 295.348C281.688 293.316 280.035 291.663 278.003 291.663ZM278.003 297.666C276.724 297.666 275.684 296.626 275.684 295.348C275.684 294.069 276.724 293.029 278.003 293.029C279.282 293.029 280.322 294.069 280.322 295.348C280.322 296.626 279.282 297.666 278.003 297.666Z" fill="#037FC5"/>
<path d="M309.868 292.572H287.953C286.953 292.572 286.139 293.386 286.139 294.386V296.309C286.139 297.31 286.953 298.123 287.953 298.123H309.868C310.868 298.123 311.682 297.31 311.682 296.309V294.386C311.682 293.386 310.868 292.572 309.868 292.572ZM310.316 296.309C310.316 296.556 310.115 296.757 309.868 296.757H287.953C287.706 296.757 287.505 296.556 287.505 296.309V294.386C287.505 294.139 287.706 293.939 287.953 293.939H309.868C310.115 293.939 310.316 294.139 310.316 294.386V296.309Z" fill="#037FC5"/>
<path d="M306.424 273.623C302.839 270.037 298.071 268.062 293 268.062C287.929 268.062 283.161 270.037 279.575 273.623C278.462 274.736 278.462 276.547 279.575 277.66C280.115 278.2 280.831 278.496 281.594 278.496C282.357 278.496 283.074 278.2 283.613 277.66C286.12 275.153 289.454 273.772 293 273.772C296.546 273.772 299.88 275.153 302.387 277.66C302.926 278.2 303.643 278.496 304.406 278.496C305.168 278.496 305.885 278.2 306.425 277.66C307.538 276.547 307.538 274.736 306.424 273.623ZM305.459 276.694C305.177 276.975 304.803 277.13 304.406 277.13C304.008 277.13 303.634 276.975 303.353 276.694C300.588 273.929 296.911 272.406 293 272.406C289.089 272.406 285.412 273.929 282.647 276.694C282.366 276.975 281.992 277.13 281.594 277.13C281.197 277.13 280.823 276.975 280.542 276.694C279.961 276.114 279.961 275.169 280.542 274.589C283.869 271.261 288.294 269.428 293 269.428C297.706 269.428 302.131 271.261 305.458 274.589C306.039 275.169 306.039 276.114 305.459 276.694Z" fill="#037FC5"/>
<path d="M311.765 267.227C309.56 265.021 307.028 263.242 304.241 261.937C303.899 261.777 303.492 261.925 303.332 262.266C303.173 262.608 303.32 263.015 303.662 263.174C306.305 264.412 308.706 266.1 310.799 268.193C311.38 268.773 311.38 269.718 310.799 270.298C310.518 270.579 310.144 270.734 309.747 270.734C309.349 270.734 308.975 270.579 308.694 270.298C304.502 266.106 298.928 263.797 293 263.797C287.072 263.797 281.498 266.106 277.306 270.298C276.726 270.879 275.781 270.879 275.201 270.298C274.62 269.718 274.62 268.773 275.201 268.193C279.955 263.438 286.276 260.82 293 260.82C295.64 260.82 298.237 261.223 300.717 262.019C301.076 262.134 301.46 261.936 301.576 261.577C301.691 261.218 301.493 260.833 301.134 260.718C298.519 259.879 295.782 259.454 293 259.454C285.911 259.454 279.247 262.215 274.235 267.227C273.121 268.34 273.121 270.151 274.235 271.264C275.348 272.377 277.159 272.377 278.272 271.264C282.206 267.33 287.437 265.164 293 265.164C298.563 265.164 303.794 267.33 307.728 271.264C308.267 271.803 308.984 272.1 309.747 272.1C310.509 272.1 311.226 271.803 311.765 271.264C312.878 270.151 312.878 268.34 311.765 267.227Z" fill="#037FC5"/>
<path d="M301.366 280.001C299.134 277.77 296.163 276.541 293 276.541C289.837 276.541 286.866 277.77 284.634 280.001C284.095 280.54 283.798 281.257 283.798 282.02C283.798 282.782 284.095 283.499 284.634 284.038C285.174 284.577 285.891 284.874 286.653 284.874C287.416 284.874 288.133 284.577 288.672 284.038C289.826 282.884 291.363 282.249 293 282.249C294.637 282.249 296.174 282.884 297.328 284.038C297.867 284.577 298.584 284.874 299.347 284.874C300.11 284.874 300.826 284.577 301.366 284.038C302.479 282.925 302.479 281.114 301.366 280.001ZM300.399 283.072C300.118 283.353 299.744 283.508 299.347 283.508C298.949 283.508 298.575 283.353 298.294 283.072C296.882 281.66 295.002 280.883 293 280.883C290.998 280.883 289.118 281.66 287.706 283.072C287.425 283.353 287.051 283.508 286.653 283.508C286.256 283.508 285.882 283.353 285.6 283.072C285.02 282.492 285.02 281.547 285.6 280.967C287.574 278.994 290.201 277.907 293 277.907C295.799 277.907 298.426 278.994 300.399 280.967C300.98 281.547 300.98 282.492 300.399 283.072Z" fill="#037FC5"/>
<path d="M99.3849 426.45C77.4156 396.267 62.582 361.491 56.0013 324.743C49.4207 287.996 51.2646 250.234 61.3943 214.302C71.5239 178.37 89.6751 145.205 114.481 117.306C139.286 89.4062 170.099 67.4992 204.599 53.2349L205.143 54.5516C170.843 68.7335 140.208 90.514 115.545 118.253C90.8832 145.991 72.8368 178.964 62.7657 214.688C52.6945 250.413 50.8612 287.957 57.4039 324.492C63.9465 361.028 78.6945 395.602 100.537 425.612L99.3849 426.45Z" fill="#C7CCD4"/>
<circle cx="212.957" cy="49.9348" r="9.04637" fill="white" stroke="#6ACECA"/>
<circle cx="105.744" cy="433.258" r="9.04637" fill="white" stroke="#6ACECA"/>
<circle cx="359.825" cy="140.992" r="7.57769" fill="white" stroke="#6ACECA"/>
<path d="M366.71 144.819C390.524 156.755 410.829 174.669 425.641 196.809C440.452 218.948 449.261 244.554 451.206 271.12C453.151 297.686 448.164 324.302 436.735 348.362C425.306 372.422 407.826 393.103 386.005 408.38L385.472 407.619C407.161 392.434 424.536 371.878 435.896 347.963C447.256 324.048 452.212 297.593 450.279 271.188C448.346 244.782 439.59 219.331 424.868 197.325C410.147 175.32 389.963 157.513 366.294 145.649L366.71 144.819Z" fill="#C7CCD4"/>
<circle cx="378.917" cy="411.962" r="7.57769" fill="white" stroke="#6ACECA"/>
<path d="M485.452 323.874C476.573 369.46 451.8 410.415 415.546 439.443C379.292 468.471 333.911 483.687 287.486 482.381C241.062 481.075 196.608 463.332 162.043 432.312C127.478 401.291 105.048 359.009 98.7457 312.995L99.9041 312.836C106.168 358.576 128.466 400.606 162.824 431.441C197.183 462.277 241.371 479.914 287.519 481.212C333.667 482.511 378.778 467.385 414.815 438.53C450.853 409.676 475.478 368.965 484.304 323.65L485.452 323.874Z" fill="#C7CCD4"/>
<circle cx="97.6667" cy="305.484" r="7.57769" fill="white" stroke="#6ACECA"/>
<circle cx="486.13" cy="315.764" r="7.57769" fill="white" stroke="#6ACECA"/>
<path d="M582.14 245.597C572.764 188.41 546.642 135.288 507.075 92.948C467.509 50.608 416.275 20.9515 359.854 7.72904C303.433 -5.49347 244.358 -1.68818 190.099 18.6637C135.841 39.0156 88.8354 74.9999 55.028 122.066L55.7692 122.599C89.4714 75.6789 136.33 39.8066 190.42 19.5182C244.509 -0.770325 303.4 -4.56376 359.646 8.61756C415.891 21.7989 466.965 51.3629 506.408 93.5711C545.852 135.779 571.893 188.736 581.239 245.744L582.14 245.597Z" fill="#C7CCD4"/>
<circle cx="52.1378" cy="127.774" r="6.10902" fill="white" stroke="#6ACECA"/>
<circle cx="583.063" cy="251.877" r="6.10902" fill="white" stroke="#6ACECA"/>
<path d="M528.717 435.872C491.047 495.532 432.297 538.73 364.222 556.822C296.148 574.913 223.77 566.563 161.572 533.443L162.502 531.687C224.259 564.572 296.123 572.862 363.714 554.899C431.306 536.936 489.639 494.045 527.041 434.808L528.717 435.872Z" fill="#C7CCD4"/>
<circle cx="530.925" cy="428.852" r="7.57769" fill="white" stroke="#6ACECA"/>
<circle cx="155.679" cy="527.987" r="7.57769" fill="white" stroke="#6ACECA"/>
</svg>
